<svg version="1.1" id="Layer_1" xmlns:svgjs="http://svgjs.com/svgjs"
	 xmlns="http://www.w3.org/2000/svg" xmlns:xlink="http://www.w3.org/1999/xlink" x="0px" y="0px" viewBox="0 0 512 512"
	 style="enable-background:new 0 0 512 512;" xml:space="preserve" width="100" height="50px">
<style type="text/css">
	.st0{fill:url(#SVGID_1_);}
	.st1{fill:#FFFFFF;}
</style>
<g>
	<g>
		
			<linearGradient id="SVGID_1_" gradientUnits="userSpaceOnUse" x1="61.0748" y1="61.0748" x2="424.8792" y2="424.8792" gradientTransform="matrix(1 0 0 -1 0 512)">
			<stop  offset="0" style="stop-color:#FEE411"/>
			<stop  offset="5.184586e-02" style="stop-color:#FEDB16"/>
			<stop  offset="0.1381" style="stop-color:#FEC125"/>
			<stop  offset="0.2481" style="stop-color:#FE983D"/>
			<stop  offset="0.3762" style="stop-color:#FE5F5E"/>
			<stop  offset="0.5" style="stop-color:#FE2181"/>
			<stop  offset="1" style="stop-color:#9000DC"/>
		</linearGradient>
		<circle class="st0" cx="256" cy="256" r="256"/>
		<g>
			<path class="st1" d="M310.4,113.8H201.7c-48.5,0-87.8,39.4-87.8,87.8v108.7c0,48.5,39.4,87.8,87.8,87.8h108.7
				c48.5,0,87.8-39.4,87.8-87.8V201.6C398.2,153.1,358.9,113.8,310.4,113.8L310.4,113.8z M366.5,310.4c0,30.9-25.1,56.2-56.2,56.2
				H201.6c-30.9,0-56.2-25.1-56.2-56.2V201.7c0-30.9,25.1-56.2,56.2-56.2h108.7c30.9,0,56.2,25.1,56.2,56.2V310.4z"/>
			<path class="st1" d="M256,183.3c-40,0-72.7,32.7-72.7,72.7s32.7,72.7,72.7,72.7s72.7-32.7,72.7-72.7S296,183.3,256,183.3z
				 M256,300.1c-24.3,0-44.1-19.8-44.1-44.1s19.8-44.1,44.1-44.1c24.3,0,44.1,19.8,44.1,44.1S280.3,300.1,256,300.1L256,300.1z"/>
			
				<ellipse transform="matrix(0.9871 -0.16 0.16 0.9871 -24.3838 55.4786)" class="st1" cx="332.3" cy="179.1" rx="12.3" ry="12.3"/>
		</g>
	</g>
</g>
</svg>