<svg version="1.2" xmlns="http://www.w3.org/2000/svg" viewBox="0 0 64 64" width="64" height="64">
	<title>line_Icon</title>
	<defs>
		<linearGradient id="g1" x2="1" gradientUnits="userSpaceOnUse" gradientTransform="matrix(31.296,-31.296,31.296,31.296,15.156,48.773)">
			<stop offset="0" stop-color="#fee411"/>
			<stop offset=".052" stop-color="#fedb16"/>
			<stop offset=".138" stop-color="#fec125"/>
			<stop offset=".248" stop-color="#fe983d"/>
			<stop offset=".376" stop-color="#fe5f5e"/>
			<stop offset=".5" stop-color="#fe2181"/>
			<stop offset="1" stop-color="#9000dc"/>
		</linearGradient>
	</defs>
	<style>
		.s0 { fill: url(#g1) } 
		.s1 { fill: #ffffff } 
	</style>
	<g>
		<path fill-rule="evenodd" class="s0" d="m31.9 54c-12.2 0-22-9.8-22-22 0-12.2 9.8-22 22-22 12.2 0 22 9.8 22 22 0 12.2-9.8 22-22 22z"/>
		<g>
			<path class="s1" d="m36.6 19.8h-9.3c-4.2 0-7.6 3.4-7.6 7.5v9.4c0 4.1 3.4 7.5 7.6 7.5h9.3c4.2 0 7.6-3.4 7.6-7.5v-9.4c0-4.1-3.4-7.5-7.6-7.5zm4.8 16.9c0 2.6-2.1 4.8-4.8 4.8h-9.4c-2.6 0-4.8-2.1-4.8-4.8v-9.4c0-2.6 2.2-4.8 4.8-4.8h9.4c2.7 0 4.8 2.2 4.8 4.8z"/>
			<path class="s1" d="m31.9 25.8c-3.4 0-6.2 2.8-6.2 6.2 0 3.4 2.8 6.3 6.2 6.3 3.5 0 6.3-2.9 6.3-6.3 0-3.4-2.8-6.2-6.3-6.2zm0 10c-2.1 0-3.8-1.7-3.8-3.8 0-2.1 1.7-3.8 3.8-3.8 2.1 0 3.8 1.7 3.8 3.8 0 2.1-1.7 3.8-3.8 3.8z"/>
			<path fill-rule="evenodd" class="s1" d="m38.5 26.4c-0.6 0-1.1-0.4-1.1-1 0-0.6 0.5-1.1 1.1-1.1 0.6 0 1 0.5 1 1.1 0 0.6-0.4 1-1 1z"/>
		</g>
	</g>
</svg>