<svg version="1.2" xmlns="http://www.w3.org/2000/svg" viewBox="0 0 64 64" width="64" height="64">
	<title>line_Icon</title>
	<style>
		.s0 { fill: #39cd00 } 
		.s1 { fill: #ffffff } 
		.s2 { fill: #00c200 } 
	</style>
	<g id="Layer_2">
		<g id="_24.line">
			<path id="background" fill-rule="evenodd" class="s0" d="m32 54c-12.2 0-22-9.8-22-22 0-12.2 9.8-22 22-22 12.2 0 22 9.8 22 22 0 12.2-9.8 22-22 22z"/>
			<g id="icon">
				<path id="shade" class="s1" d="m45.8 31.5q0 0.1 0 0.2-0.1 0.1-0.1 0.2 0 0.1 0 0.2 0 0.1 0 0.2-0.1 0.4-0.2 0.8-0.1 0.4-0.2 0.8-0.2 0.4-0.3 0.7-0.2 0.4-0.4 0.7c-0.2 0.5-1.4 2.2-1.8 2.6-2 2.5-5.5 5.3-11.1 8.1q-0.2 0-0.4 0-0.2 0-0.4-0.1-0.2-0.1-0.3-0.3 0-0.2 0-0.4l0.3-2.6q0-0.1-0.1-0.3 0-0.1-0.1-0.2-0.1-0.1-0.2-0.2-0.1-0.1-0.3-0.1-0.7-0.1-1.4-0.2-0.7-0.1-1.4-0.3-0.7-0.2-1.3-0.5-0.7-0.2-1.3-0.6c-3.9-1.9-6.5-5.3-6.5-9.3 0-6 6.1-10.9 13.7-10.9 3.8 0 7.3 1.3 9.8 3.2 2.3 1.9 3.8 4.4 3.9 7.2q0.1 0.2 0.1 0.3 0 0.1 0 0.3 0 0.1 0 0.2 0 0.2 0 0.3z"/>
				<g>
					<path class="s2" d="m28.2 33.4q0.1 0 0.1 0.1 0 0 0.1 0.1 0 0.1 0 0.1 0 0.1 0 0.2 0 0.1 0 0.2-0.1 0.2-0.2 0.3-0.1 0.1-0.2 0.1-0.1 0.1-0.3 0.1h-2.8q-0.1 0-0.3-0.1-0.1 0-0.2-0.1-0.1-0.1-0.1-0.3-0.1-0.1-0.1-0.2v-5.4q0 0 0-0.1 0-0.1 0.1-0.1 0-0.1 0-0.1 0.1-0.1 0.1-0.2 0.2-0.1 0.4-0.1 0.2-0.1 0.4 0 0.2 0.1 0.3 0.3 0.1 0.1 0.1 0.3v4.7h2.1q0.1 0 0.2 0 0 0 0.1 0 0.1 0 0.1 0.1 0.1 0 0.1 0.1z"/>
					<path class="s2" d="m30.5 28.4v5.6q0 0.1 0 0.2-0.1 0.1-0.1 0.2-0.1 0.1-0.2 0.1-0.1 0.1-0.2 0.1h-0.4q-0.1 0-0.2-0.1-0.1 0-0.1-0.1-0.1-0.1-0.2-0.2 0-0.1 0-0.2v-5.6q0-0.1 0-0.2 0.1-0.1 0.2-0.2 0-0.1 0.1-0.1 0.1-0.1 0.2-0.1h0.4q0.1 0 0.2 0.1 0.1 0 0.1 0.1 0.1 0.1 0.2 0.2 0 0.1 0 0.2z"/>
					<path class="s2" d="m37 28.5v5.3q0 0.2 0 0.3-0.1 0.1-0.2 0.2-0.1 0.1-0.2 0.2-0.1 0.1-0.3 0.1 0 0-0.1 0-0.1-0.1-0.1-0.1-0.1 0-0.1 0-0.1-0.1-0.1-0.1c-0.1-0.1-1-1.3-1.8-2.3-0.6-0.8-1.1-1.5-1.1-1.5v3.3q0 0.2-0.1 0.3-0.2 0.2-0.4 0.3-0.1 0.1-0.4 0.1-0.2-0.1-0.3-0.2-0.1-0.1-0.1-0.1-0.1-0.1-0.1-0.2 0 0 0-0.1 0-0.1 0-0.1v-5.3q0-0.2 0-0.3 0.1-0.1 0.2-0.2 0-0.1 0.2-0.2 0.1 0 0.2-0.1 0.1 0 0.2 0.1 0.1 0 0.1 0 0.1 0 0.2 0.1 0 0 0.1 0.1c0 0 1.5 1.9 2.3 3 0.3 0.4 0.5 0.7 0.5 0.7v-3.2q0-0.2 0.1-0.3 0-0.1 0.1-0.2 0.1-0.1 0.3-0.2 0.1 0 0.2 0 0.2 0 0.3 0 0.1 0.1 0.2 0.2 0.1 0.1 0.2 0.2 0 0.1 0 0.2z"/>
					<path class="s2" d="m39.5 31.9v1.3h2.1q0.3-0.1 0.6 0.1 0.2 0.3 0.2 0.6 0 0.3-0.2 0.5-0.3 0.2-0.6 0.2h-2.8q-0.1 0-0.3-0.1-0.1 0-0.2-0.1-0.1-0.1-0.1-0.3-0.1-0.1-0.1-0.2v-5.4q0-0.1 0.1-0.2 0-0.2 0.1-0.3 0.1 0 0.2-0.1 0.2-0.1 0.3-0.1h2.8q0.3 0 0.5 0.2 0.3 0.2 0.3 0.5 0 0.3-0.3 0.6-0.2 0.2-0.5 0.2h-2.1v1.2h2.1q0.3 0 0.5 0.2 0.2 0.2 0.2 0.5 0 0.3-0.2 0.5-0.2 0.2-0.5 0.2z"/>
				</g>
			</g>
		</g>
	</g>
</svg>