<?xml version="1.0" encoding="utf-8"?>
<!-- Generator: Adobe Illustrator 26.3.1, SVG Export Plug-In . SVG Version: 6.00 Build 0)  -->
<svg version="1.1" id="Layer_1" xmlns="http://www.w3.org/2000/svg" xmlns:xlink="http://www.w3.org/1999/xlink" x="0px" y="0px"
	 viewBox="0 0 512 512" style="enable-background:new 0 0 512 512;" xml:space="preserve">
<style type="text/css">
	.st0{fill:#10B981;}
	.st1{fill:#FFFFFF;}
	.st2{fill:#3D3D3D;}
</style>
<g>
	<g>
		<g>
			<circle class="st0" cx="256" cy="280.1" r="161.4"/>
			<g>
				<path class="st1" d="M327.2,208.9c-38.9-39.3-102.3-39.6-141.6-0.7c-30.9,30.6-38.5,77.7-18.8,116.5l-10.6,51.6
					c-0.2,1,0,2.1,0.6,3c0.9,1.3,2.5,2,4.1,1.6l50.5-12c49.5,24.6,109.6,4.4,134.2-45.1C364.7,285.5,357.2,239.3,327.2,208.9z
					 M311.4,334.7c-23.8,23.8-60.2,29.7-90.3,14.7l-7-3.5l-31,7.3l0.1-0.4l6.4-31.2l-3.4-6.8c-15.4-30.2-9.6-67,14.4-91
					c30.6-30.6,80.2-30.6,110.8,0c0.1,0.1,0.3,0.3,0.4,0.4C342,254.9,341.9,304.2,311.4,334.7z"/>
				<path class="st1" d="M308.7,311.8c-3.8,6-9.8,13.3-17.3,15.1c-13.2,3.2-33.5,0.1-58.7-23.4l-0.3-0.3
					c-22.2-20.6-27.9-37.7-26.5-51.3c0.8-7.7,7.2-14.7,12.6-19.2c3-2.6,7.6-2.2,10.2,0.8c0.5,0.5,0.8,1.1,1.1,1.8l8.2,18.3
					c1.1,2.4,0.7,5.2-0.9,7.3l-4.1,5.4c-1.8,2.3-2.1,5.4-0.6,7.9c2.3,4.1,7.9,10,14,15.5c6.9,6.2,14.5,11.9,19.4,13.9
					c2.7,1.1,5.7,0.4,7.7-1.6l4.8-4.8c1.9-1.9,4.6-2.6,7.2-1.8l19.4,5.5c3.9,1.2,6.1,5.3,4.9,9.2C309.2,310.7,309,311.3,308.7,311.8
					L308.7,311.8z"/>
			</g>
		</g>
	</g>
	<g>
		<path class="st2" d="M54.4,414.4c-1.5,1-2.7,0.8-3.5-0.6l-3-4.8c-0.9-1.5-0.7-2.7,0.8-3.5l7-4.4c1.2-0.7,1.4-1.7,0.7-2.8
			l-13.6-21.8c-0.9-1.5-0.7-2.7,0.8-3.5l3.5-2.2c1.5-0.9,2.7-0.7,3.5,0.8l34.5,55.3c0.9,1.5,0.7,2.7-0.8,3.5l-3.5,2.2
			c-1.5,0.9-2.7,0.7-3.5-0.8l-13.1-20.9c-0.7-1.2-1.7-1.4-2.8-0.7L54.4,414.4z M64.2,383.6c-2.1,0.9-3.4,0.5-4-1l-2-5.6
			c-0.5-1.7,0-2.8,1.6-3.4c11-4.3,22.7-7.7,34.9-10.1c1.5-0.3,1.8-1,1.1-2.2l-9.9-15.9c-0.9-1.5-0.7-2.7,0.8-3.5l3.6-2.2
			c1.5-0.9,2.7-0.7,3.5,0.8l38.3,61.2c0.9,1.5,0.7,2.7-0.8,3.5l-3.6,2.2c-1.5,0.9-2.7,0.7-3.5-0.8l-20.4-32.7
			c-0.7-1.1-2-1.6-3.7-1.2C87.3,375.5,75.3,379.1,64.2,383.6z M85,416.6l-4.1-3.6c-1.2-1.1-1.2-2.4,0-3.9
			c6.6-7.9,13.7-15.1,21.3-21.8c1.3-1.1,2.7-1,4.1,0.1l4.8,3.9c1.3,1.2,1.3,2.3,0,3.4c-8.2,6.6-15.7,13.8-22.4,21.4
			C87.5,417.5,86.2,417.6,85,416.6z"/>
		<path class="st2" d="M15.6,283.5c-1.7,0.1-2.6-0.8-2.7-2.4l-0.8-27.1c-0.1-1.7,0.8-2.6,2.4-2.7l53.3-1.7c5.5-0.1,8.9,2.5,9.9,7.8
			l0.1,5.4c-0.2,1.9-1.2,3-3.2,3.5l-4.3,1.1c-1.7,0.5-2.4-0.1-2.2-1.8l0.3-4c0.1-1.2-0.6-2-2.3-2.4l-42.5,1.3c-1.4,0-2.1,0.7-2,2.1
			l0.3,8.9c0,1.4,0.7,2.1,2.1,2l62.4-1.9c1.7-0.1,2.6,0.8,2.7,2.4l0.1,4.7c0.1,1.7-0.8,2.5-2.4,2.6L15.6,283.5z M16.8,323.2
			c-1.7,0.1-2.6-0.8-2.7-2.4l-0.9-30.4c-0.1-1.7,0.8-2.6,2.4-2.7l38.5-1.2c1.7-0.1,2.6,0.8,2.7,2.4l0.7,21.2c0,1.4,0.7,2.1,2.1,2
			l13.5-0.4c1.3,0,1.9-0.9,1.7-2.6l-2.4-10.5c-0.3-1.3-1.3-1.6-3-0.8l-2.5,1.2c-1.7,0.8-2.9,0.4-3.8-1.2l-1.6-3.3
			c-1-2-0.6-3.5,1.2-4.5c5.4-2.6,10.4-4.8,15.2-6.5c1.7-0.6,3,0,3.8,1.7l1.8,4.1c1,2,0.7,3.3-0.8,3.8c-1.4,0.5-1.9,1.6-1.4,3.2
			c2.5,8.6,4.3,15.9,5.6,21.8c0.4,1.9-0.3,3.2-2.2,3.9l-4.5,1.7c-1.8,0.7-2.8,0.5-3-0.5c-0.3-1.1-1.1-1.6-2.4-1.5L16.8,323.2z
			 M24.8,297.1c-1.4,0-2.1,0.7-2,2.1l0.4,11.9c0,1.4,0.7,2.1,2.1,2l4-0.1c1.4,0,2.1-0.7,2-2.1L30.9,299c0-1.4-0.7-2.1-2.1-2
			L24.8,297.1z M42,296.6c-1.4,0-2.1,0.7-2,2.1l0.4,11.9c0,1.4,0.7,2.1,2.1,2l3.6-0.1c1.4,0,2.1-0.7,2-2.1l-0.4-11.9
			c0-1.4-0.7-2.1-2.1-2L42,296.6z"/>
		<path class="st2" d="M42.4,166.1c-1.4-1.6-1.4-3,0.1-4.2l2-1.5c1.5-1.1,2.9-0.9,4.1,0.6l6.2,8.7c0.8,1.3,1.4,1.8,1.9,1.5
			c0.4-0.2,0.1-1.1-0.9-2.7c-1.1-1.6-2.2-3.1-3.3-4.5c-1.3-1.7-1.2-3.1,0.3-4.3c0.7-0.6,1.5-1.2,2.3-1.9c1.4-1.1,2.7-0.9,3.9,0.6
			c2.2,3.1,4.3,6.3,6.3,9.5c1,1.6,1.7,1.6,2.2,0l0.3-0.9c0.5-1.7,1.6-2.4,3.4-2.2c4,0.9,6.9,1.7,8.5,2.3c1.7,0.7,2.4,1.8,2,3.4
			c-0.3,0.7-0.5,1.5-0.6,2.4c-0.5,1.9-1.2,2.7-2.2,2.3c-0.9-0.3-1.5,0.5-1.9,2.3l-2.4,10.2c-0.5,2.2-1.7,3.1-3.5,2.8l-2.8-0.5
			c-1.9-0.3-2.6-1.1-2.3-2.3c0.3-1.3,0-2.9-1-4.5l-1.9-3.1c-0.8-1.4-2.2-1.6-4.3-0.7l-5.2,2.6c-1.6,0.8-1.8,1.5-0.7,2.1l48,26
			c1.5,0.8,1.9,2,1.1,3.5l-1.6,3c-0.8,1.5-2,1.9-3.5,1.1l-8.3-4.5c-1.2-0.6-2-0.1-2.5,1.5c-0.9,3.4-1.9,6.8-3,10.1
			c-0.6,1.7-1.9,2.2-3.9,1.5c-1.1-0.3-2.2-0.6-3.2-1.1c-1.9-0.6-2.6-1.5-2.1-2.6c0.3-1-0.2-1.8-1.4-2.5l-37.1-20.1
			c-1.2-0.7-2.1-0.5-2.6,0.4c-0.6,1-1.6,1.2-3.1,0.4l-3-1.6c-1.5-0.8-1.9-2-1.1-3.5l11.6-21.4c0.8-1.5,2-1.9,3.5-1.1l3,1.6
			c1.5,0.8,2,1.8,1.5,2.8c-0.6,1.1-0.3,2,0.9,2.7l1.6,0.8c1.2,0.6,1.4,0,0.7-2c-0.7-1.9-0.8-3-0.1-3.3c0.6-0.3,0.3-1.3-0.7-2.9
			L42.4,166.1z M42.1,188c-1.2-0.7-2.2-0.3-3,1.2c-0.9,1.6-0.7,2.7,0.5,3.3l4.5,2.4c1.2,0.7,2.2,0.3,3-1.2c0.9-1.6,0.7-2.7-0.5-3.3
			L42.1,188z M53.5,144.7c-1.3-1.3-1.1-2.5,0.3-3.6l2-1.5c1.5-1.1,2.9-0.9,4.1,0.6c2.2,2.7,4.3,5.4,6.4,8.3c0.9,1.2,1.6,1.7,2,1.5
			c0.4-0.2,0.1-1.1-0.9-2.7c-1.1-1.3-2.3-2.7-3.4-4.2c-1.4-1.5-1.3-2.9,0.2-4.2l2-1.5c1.6-1.3,3.1-1.1,4.3,0.4
			c1.9,2.4,3.9,5,5.8,7.7c0.9,1.1,1.6,0.9,2.2-0.8c0.5-1.7,1.6-2.4,3.3-2c3.9,0.9,7.1,1.9,9.7,3.1c1.8,0.7,2.5,2,1.9,3.8l-0.3,1.2
			c-0.5,2-1.3,2.8-2.3,2.4c-1-0.3-1.8,0.4-2.3,2c-1,3.6-2.2,7.1-3.5,10.5c-0.6,1.7-1.7,2.3-3.4,1.6l-2.2-0.8c-2-0.7-2.7-1.6-2.2-2.7
			c0.5-1.1,0.1-2.4-1-4l-0.6-0.9c-1.1-1.7-2.5-2-4.2-1.1c-2.1,1.1-4.2,2.2-6.1,3.4c-1.8,0.9-3,0.3-3.9-1.7l-0.4-1.1
			c-0.7-1.9-0.9-3-0.6-3.3c0.5-0.4,0.2-1.3-0.9-2.7C57.6,149.6,55.6,147.1,53.5,144.7z M57.5,196.3c-1.3-0.7-2.3-0.3-3.1,1.2
			c-0.9,1.6-0.7,2.7,0.5,3.3l4.5,2.4c1.2,0.7,2.2,0.3,3-1.2c0.9-1.6,0.7-2.7-0.5-3.3L57.5,196.3z M69.4,172.4c-1.1-0.4-1.4,0-0.7,1
			c0.8,1.3,1.3,1.5,1.6,0.7C70.5,173.3,70.2,172.7,69.4,172.4z M73,204.7c-1.3-0.7-2.4-0.4-3.2,1.1c-0.9,1.6-0.7,2.8,0.5,3.4
			l5.4,2.9c1.2,0.6,2.1,0.2,2.7-1.4c0.7-1.7,0.4-2.8-0.8-3.5L73,204.7z M82.8,179.9c-1.6-0.9-2-2-1.2-3.4l1.7-3.1
			c0.8-1.5,2-1.9,3.5-1.1l9.6,5.2c4.4,2.5,7.7,5.7,10.1,9.7c2.2,4.4,2.6,9.3,1.3,14.6c-0.5,1.7-1.7,2.5-3.5,2.5l-3.5-0.2
			c-1.9-0.1-2.6-0.9-2.1-2.6c0.6-2.4,0.8-4.5,0.7-6.3c-0.1-2.3-0.7-4.1-1.7-5.4c-0.6-0.6-1.2-0.4-1.8,0.7c-0.7,1.2-0.7,2,0,2.4
			c0.7,0.4,0.7,1.3-0.1,2.8l-1.4,2.5c-0.8,1.5-2,1.9-3.5,1.1l-12.9-7c-1.5-0.8-1.9-2-1.1-3.5l1.4-2.5c0.8-1.5,2-1.9,3.5-1.1l4.3,2.3
			c1.2,0.7,2.3,0.2,3.1-1.3c0.9-1.6,0.7-2.8-0.5-3.4L82.8,179.9z M80.7,150c-1.1-0.3-1.2,0.1-0.4,1c0.8,1.1,1.3,1.3,1.5,0.5
			C81.9,150.7,81.6,150.2,80.7,150z M88.6,170c-1.6-0.9-2-2-1.2-3.4l1.6-3c0.8-1.5,2-1.9,3.5-1.1l5.4,2.9c1.2,0.7,2.2,0.3,3-1.1
			c0.8-1.4,0.6-2.5-0.6-3.1l-4.3-2.3c-1.5-0.8-1.9-2-1.1-3.5l1.3-2.4c0.8-1.5,2-1.9,3.5-1.1l15,8.1c1.5,0.8,1.9,2,1.1,3.5l-1.3,2.4
			c-0.8,1.5-1.9,1.9-3.3,1.2c-1.4-0.8-2.5-0.5-3.3,0.9c-0.8,1.4-0.6,2.5,0.6,3.1l10.5,5.7c1.5,0.8,1.9,2,1.1,3.5l-1.6,2.9
			c-0.8,1.5-2,1.9-3.5,1.1L88.6,170z"/>
		<path class="st2" d="M134.5,68.6c-0.3-1.9,0.4-3,2.1-3.5l4.1-1.1c1.7-0.4,2.7,0.1,3,1.5c0.3,1.6,1,2.1,2.1,1.4l14.8-9.1
			c1.5-0.9,2.7-0.6,3.5,0.8l1.9,3.1c0.9,1.4,1.3,2.8,1.3,4.2c-0.2,4.9-0.8,9.7-1.6,14.4c-0.3,1.8,0.6,2.7,2.6,2.8
			c5.4-0.1,9.8-0.6,13.2-1.3c1.9-0.4,2.9,0.3,3,2.1l0.5,4.5c0.3,2.1,0.1,3.3-0.6,3.4c-0.6,0.2-0.5,0.8,0.2,1.9l13.2,21.5
			c0.9,1.5,0.6,2.7-0.8,3.5l-3.5,2.2c-1.5,0.9-2.5,0.9-3.1,0c-0.6-1-1.5-1.2-2.6-0.4l-11.5,7c-1.2,0.7-1.5,1.6-1,2.5
			c0.6,1,0.2,1.9-1.2,2.8l-3.7,2.2c-1.5,0.9-2.7,0.6-3.5-0.8l-13.3-21.7c-0.7-1.1-1.4-1.4-2-0.8c-0.6,0.7-1.5,0.6-2.8-0.2
			c-1.2-0.9-2.4-0.8-3.6,0.4l-1.2,1.3c-1.2,1.3-2.1,1.6-2.8,0.8c-0.5-0.7-1.3-0.6-2.3,0.3c-0.9,0.9-0.9,1.9-0.2,3l15,24.4
			c0.9,1.5,0.6,2.7-0.8,3.5l-3.7,2.2c-1.5,0.9-2.7,0.6-3.5-0.8l-14.2-23.1c-0.7-1.1-1.7-1.2-3-0.1l-4.2,3.4
			c-1.5,1.2-2.9,1.1-4.1-0.3c-0.8-0.8-1.6-1.7-2.3-2.6c-1.4-1.6-1.4-2.9,0-4l2-1.6c1.2-1,2-2.2,2.1-3.6c-0.1-1,0-1.9,0-3
			c0.1-1.8-0.9-2.8-2.9-3.1l-9.4-1c-2-0.2-2.9-1.4-2.7-3.6c0.2-0.8,0.3-1.5,0.3-2.2c0.3-2.2,0.6-3.4,0.9-3.4c0.5-0.1,0.8-1,0.7-2.7
			c-0.2-3.4-0.5-6.8-1-10.1c-0.3-1.9,0.5-3.1,2.3-3.4l3.5-0.5c2.3-0.3,3.6,0.5,3.8,2.4c0.4,4,0.7,8,0.9,12.1c0,1.6,0.6,2.4,1.7,2.5
			c1.2,0.1,1.7-0.9,1.7-2.8c-0.1-2.5-0.2-4.9-0.5-7.3c-0.2-2.3,0.6-3.6,2.5-3.9l4.1-0.6c2-0.3,3.1,0.5,3.3,2.6l0.3,11.6
			c0,2,0.6,2.5,1.9,1.4l0.7-0.7c1.3-1.3,2.8-1.3,4.6,0.1c1.8,1.4,3.5,3,5.1,4.6c1.1,1.1,2.1,1.1,2.8,0.1c2.1-3.1,4-6.6,5.6-10.5
			c0.6-1.6,0-2.8-1.7-3.5l-4-1.8c-1.4-0.7-2.3-0.2-2.6,1.5c-0.3,1.7-1.4,2.4-3.2,2.3l-3.4-0.4c-2.3-0.3-3.3-1.5-2.9-3.6
			C135.4,83.3,135.4,76.9,134.5,68.6z M125.9,132.8c-0.9-2.1-0.6-3.4,0.9-3.9l3.4-1.1c1.7-0.6,2.9-0.2,3.6,1.3
			c2.4,5.4,4.5,10.3,6.2,14.7c0.7,1.8,0.1,2.9-1.7,3.4l-2.9,0.8c-2,0.6-3.3,0-4-1.7C130.2,143,128.4,138.4,125.9,132.8z
			 M133.4,105.5c-1.1-1-1.7-0.6-1.7,1.2c0,1.8,0.8,2.1,2.2,0.9C134.4,107.1,134.3,106.4,133.4,105.5z M146.6,116.2
			c1.3-1.4,2.7-1.5,4.2,0c2.7,2.7,5.3,5.7,7.9,9c1,1.3,1,2.7-0.2,4l-2.4,2.4c-1.5,1.7-2.8,1.9-3.8,0.4c-1.9-2.9-4.6-6.3-8-10.1
			c-1.2-1.3-1.1-2.5,0.1-3.7L146.6,116.2z M157.3,72.6c0-1.8-0.6-2.3-1.6-1.7l-8.7,5.4c-1.2,0.7-0.9,1.5,1,2.4
			c1.4,0.7,3,1.3,4.8,1.9c2.2,0.6,3.5-0.3,4-2.5C157,76.2,157.2,74.4,157.3,72.6z M165.3,93.2c-2-0.2-3.4,0.6-4.1,2.5
			c-1.3,3.2-2.5,5.9-3.8,8.1c-1.1,1.7-0.8,2,0.9,0.9l16.5-10.1c1.5-0.9,1.4-1.3-0.3-1.3C172.6,93.4,169.5,93.4,165.3,93.2z
			 M180.1,104c-0.8-1.3-1.7-1.6-2.8-1l-11.6,7.1c-1.2,0.7-1.4,1.7-0.7,2.8l3.9,6.3c0.7,1.2,1.7,1.4,2.8,0.7l11.5-7
			c1.2-0.7,1.4-1.7,0.7-2.8L180.1,104z"/>
		<path class="st2" d="M256.5,35.8c0-1.7,0.8-2.5,2.5-2.6l5-0.1c1.7,0,2.6,0.8,2.7,2.5c0.2,5.4,0.4,10.8,0.8,16.4
			c0.2,1.5,0.9,2.2,2.1,2.2l20.1-0.5c1.7,0,2.6,0.8,2.7,2.5l0.1,4.6c0,1.7-0.8,2.6-2.5,2.7l-19.2,0.4c-1.3,0-1.9,0.9-1.8,2.6
			c0.4,3.1,1.2,6.9,2.3,11.6c0.4,1.3,1.1,1.2,2.1-0.4c1.6-2.8,3-5.7,4.2-8.5c0.9-2,2.2-2.5,4-1.7c1.4,0.5,2.7,1.1,4.1,1.8
			c1.8,0.9,2.3,2.3,1.4,4.3c-2.4,5.6-5.5,11.1-9.5,16.6c-0.9,1.3-0.9,2.8-0.1,4.5l1.6,2.6c1.1,1.5,2.1,2.1,3,1.6
			c1.4-1.5,2.1-4.1,2.1-7.8c0.1-1.7,1-2.2,2.7-1.5l4.3,1.6c2,0.7,2.8,2,2.6,3.8c-0.8,5.6-2.9,9.9-6.4,12.9c-5.6,3.9-11,1.4-16.1-7.4
			c-0.9-1.2-2.2-1.1-3.9,0.3c-3.3,2.7-6.7,5-10.3,7c-1.8,1-3.2,0.7-4.2-0.7l-2-3.3c-1.1-1.7-0.8-3.1,0.9-4.1c4-2.4,8-5.3,11.7-8.8
			c1.2-1.2,1.5-2.7,0.7-4.5c-2.4-7-4.1-13.7-5.1-20.1c-0.3-1.3-1.1-2-2.5-2l-12.2,0.3c-1.4,0-2.1,0.7-2.1,2.1l0.1,6.2
			c0,1.3,0.9,1.9,2.6,1.6l5.9-1.2c2-0.6,3.1,0.1,3.4,1.9c0.1,1.3,0.4,2.8,0.7,4.3c0.2,1.7-0.6,2.7-2.3,3.2l-7.9,1.9
			c-1.3,0.4-2,1.2-2,2.6l0.3,13.1c-0.1,2.1-0.5,4.4-1.4,6.8c-0.9,1.5-1.9,2.4-3,2.8c-3.1,1.4-7.8,1.5-14.3,0.5
			c-1.7-0.4-2.8-1.5-3-3.1c-0.4-1.7-0.8-3.3-1-5c-0.3-1.8,0.3-2.5,2-2.1c4.2,0.9,7.4,1.1,9.8,0.5c0.6-0.6,0.9-1.6,0.9-2.9l-0.1-8.5
			c0-1.3-0.9-1.9-2.6-1.6l-10.1,1.7c-1.7,0.2-2.7-0.5-3.1-2.2c-0.5-1.7-0.9-3.5-1.2-5.3c-0.4-1.7,0.5-2.6,2.7-2.8l11.6-1.9
			c1.5-0.3,2.2-1,2.2-2.2l-0.2-8c0-1.4-0.7-2.1-2.1-2.1l-12.6,0.3c-1.7,0-2.6-0.8-2.7-2.5l-0.1-4.6c0-1.7,0.8-2.6,2.5-2.7l12.6-0.3
			c1.4,0,2.1-0.7,2.1-2.1l-0.1-4.4c0-1.3-0.9-2-2.6-1.9l-5.3,0.5c-1.9,0.2-3.2-0.6-4-2.5c-0.5-1.1-1-2.2-1.3-3.3
			c-0.8-2.1-0.4-3.2,1.4-3.4c8.7-0.6,17.5-1.5,26.2-2.7c2.1-0.3,3.6,0.5,4.5,2.3l1.4,2.7c1.2,2.2,0.9,3.4-0.9,3.6l-7.4,1.2
			c-1.3,0.3-2,1.1-2,2.4l0.1,5.3c0,1.4,0.7,2.1,2.1,2.1l11.3-0.3c1.3,0,2-0.9,1.9-2.6C256.9,46.5,256.6,41.2,256.5,35.8z
			 M277.4,35.1c2-1.3,3.8-1.2,5.1,0.4c1.9,2.5,3.3,4.7,4.3,6.8c0.9,1.8,0.6,3.2-0.9,4.1l-4,2.4c-1.7,1.1-3,0.8-3.9-0.8
			c-1.1-2.2-2.4-4.3-3.9-6.6c-1.5-1.9-1.3-3.4,0.5-4.6L277.4,35.1z"/>
		<path class="st2" d="M353.3,53.1c1.3-1.4,2.5-1.4,3.6-0.2l2.9,3.1c1.5,1.6,1.7,3.1,0.5,4.4c-2.7,2.7-5.6,5.4-8.5,8
			c-0.9,0.8-1.7,1.7-2.4,2.9L323,119c-0.8,1.5-2,1.9-3.5,1.1l-3.2-1.7c-1.5-0.8-1.9-2-1.1-3.5l16.8-30.5c0.9-1.6,0.5-1.9-1-1.1
			l-1.2,0.6c-1.9,1-2.8,0.5-2.9-1.4l0.1-4.9c0.1-2.1,1.1-3.7,2.9-4.8C339.1,66.6,346.8,60,353.3,53.1z M361.8,60.4
			c0.8-1.5,2-1.8,3.4-1l17.7,9.7c1.5,0.8,1.9,2,1.1,3.5l-15.3,27.8c-0.8,1.5-2,1.9-3.5,1.1l-9.9-5.4c-1.2-0.7-2.2-0.4-2.8,0.8
			l-16.3,29.6c-0.8,1.5-2,1.9-3.5,1.1l-3.8-2.1c-1.5-0.8-1.9-2-1.1-3.5L361.8,60.4z M386.7,73.9c0.9-1.6,2-2,3.4-1.2l17.4,9.6
			c1.5,0.8,1.9,2,1.1,3.5l-30.1,54.6c-2.9,5-7.1,6.6-12.6,4.9c-2.3-1-4.3-2.2-6.1-3.6c-1.4-1-1.8-2.3-1.3-4l1.6-5.1
			c0.5-1.6,1.4-1.9,2.7-0.7c2.1,1.8,4,3.1,5.7,3.7c1.5-0.2,2.9-1.2,4.1-3l10.4-18.8c0.7-1.2,0.4-2.2-0.8-2.8l-9.9-5.4
			c-1.5-0.8-1.9-2-1.1-3.5L386.7,73.9z M364.7,88.1c0.9-1.6,0.8-2.7-0.3-3.3l-2.2-1.2c-1.2-0.7-2.2-0.3-3.1,1.2
			c-0.9,1.6-0.7,2.7,0.5,3.3l2.1,1.1C362.9,89.9,363.9,89.6,364.7,88.1z M371.4,76c0.9-1.6,0.7-2.7-0.4-3.3l-2.1-1.2
			c-1.2-0.7-2.2-0.3-3.1,1.2c-0.9,1.6-0.7,2.7,0.5,3.3l2.1,1.1C369.5,77.9,370.6,77.5,371.4,76z M389.5,101.6
			c0.8-1.5,0.7-2.6-0.4-3.2l-2.5-1.4c-1.2-0.7-2.2-0.3-3,1c-0.8,1.5-0.6,2.5,0.5,3.2l2.4,1.3C387.8,103.3,388.8,102.9,389.5,101.6z
			 M396.2,89.5c0.8-1.5,0.7-2.5-0.5-3.1l-2.4-1.3c-1.2-0.7-2.2-0.3-3,1c-0.8,1.5-0.6,2.5,0.5,3.2l2.4,1.3
			C394.4,91.2,395.4,90.8,396.2,89.5z"/>
		<path class="st2" d="M463.2,145.9c1.5-0.9,2.7-0.7,3.5,0.6l2.5,4.2c0.9,1.5,0.6,2.7-0.8,3.5l-8.1,4.9c-1.2,0.7-1.4,1.8-0.5,3.3
			c1,1.6,0.7,2.8-0.7,3.7l-3.7,2.2c-1.5,0.9-2.7,0.6-3.6-0.9c-1-1.6-2-2-3.2-1.3l-6.8,4.1c-1.2,0.7-1.1,1.6,0.2,2.7
			c1.3,1.1,1.3,2.3,0,3.5c-0.9,0.8-1.8,1.6-2.6,2.5c-1.3,1.2-2.6,1.2-4.1,0.1l-1.8-1.4c-1.2-0.9-2.3-0.9-3.5-0.3l-16.5,9.9
			c-2.3,1.1-4.5,1.8-6.6,2.1c-2.4-0.3-4.3-1.6-5.9-3.7c-1.2-1.9-2.3-3.9-3.3-6c-0.6-1.6-0.2-3,1-4.2l3.3-2.7c1.4-1.2,2.4-1,3.1,0.8
			c0.6,1.8,1.5,3.4,2.8,4.8c0.3,0.1,1.2-0.2,2.8-0.9l11.4-6.9c1.2-0.7,1.2-1.6,0-2.8c-1.1-1.1-1.1-2.4,0.2-3.9l0.7-0.9
			c1.4-1.7,1.3-2.1-0.4-1l-10.2,6.2c-1.5,0.9-2.7,0.6-3.5-0.8l-4-6.6c-0.7-1.2-1.7-1.5-2.8-0.8l-2.1,1.3c-1.5,0.9-2.7,0.6-3.5-0.8
			l-1.9-3.1c-0.9-1.5-0.6-2.7,0.8-3.5l50.3-30.3c1.5-0.9,2.7-0.6,3.5,0.8l8.2,13.7c0.9,1.5,0.6,2.7-0.8,3.5l-27.1,16.4
			c-1.2,0.7-1.2,1.7-0.1,3l1.6,1.8c1.1,1.1,2.1,1.4,3.2,0.7l9.4-5.7c1.2-0.7,1.3-1.9,0.4-3.5c-1-1.6-0.8-2.9,0.7-3.8l3.7-2.2
			c1.5-0.9,2.7-0.6,3.7,1c1,1.6,2.1,2.1,3.2,1.4L463.2,145.9z M460.2,190.9c1.6-0.6,2.6-0.1,3,1.6l1,4.3c0.4,1.7-0.2,2.9-1.8,3.5
			c-10.2,4.2-20.8,7.9-31.6,11.2c-1.3,0.5-1.6,1.3-0.9,2.4l2.4,4c0.9,1.5,0.6,2.7-0.8,3.5l-3.5,2.1c-1.5,0.9-2.7,0.6-3.5-0.8
			l-15.9-26.4c-0.9-1.5-0.6-2.7,0.8-3.5l3.5-2.1c1.5-0.9,2.7-0.6,3.5,0.8l6.3,10.5c0.7,1.2,1.9,1.5,3.6,1.1
			C438.4,199.4,449.7,195.3,460.2,190.9z M444.7,138.7c1.2-0.7,1.5-1.6,0.8-2.7c-0.7-1.1-1.6-1.3-2.7-0.6l-29.7,17.9
			c-1.2,0.7-1.5,1.6-0.8,2.7c0.7,1.1,1.6,1.3,2.7,0.6L444.7,138.7z M454.1,177.8c1.4,1.4,1.4,2.7-0.1,3.9
			c-7.6,6.3-15.9,12.6-24.9,18.8c-1.4,1-2.7,0.8-3.9-0.5l-3-3.1c-1.3-1.2-1.2-2.3,0.2-3.3c9.3-6.2,17.8-12.4,25.5-18.4
			c1.5-1.1,2.8-1.1,3.9,0.1L454.1,177.8z M476.8,168.4c1.5-0.9,2.7-0.7,3.5,0.6l2.4,4c0.9,1.5,0.6,2.7-0.8,3.5l-8.1,4.9
			c-1.2,0.7-1.5,1.7-0.8,2.8l3.3,5.5c0.9,1.5,0.6,2.7-0.8,3.5l-3.7,2.2c-1.5,0.9-2.7,0.6-3.5-0.8l-12.9-21.4
			c-0.9-1.5-0.6-2.7,0.8-3.5l3.7-2.2c1.5-0.9,2.7-0.6,3.5,0.8l2.5,4.1c0.7,1.2,1.7,1.5,2.8,0.8L476.8,168.4z"/>
		<path class="st2" d="M436.6,271.2c1.8,0,2.7,0.8,2.7,2.4l0.1,6.8c0,1.7-0.8,2.6-2.5,2.6l-6.5,0.1c-1.7,0-2.6-0.8-2.6-2.5l-0.1-6.8
			c0-1.7,0.8-2.5,2.5-2.6L436.6,271.2z M498.3,270.1c1.7-0.1,2.6,0.7,2.6,2.3l0.1,7.1c0,1.7-0.8,2.5-2.5,2.6
			c-16.9-0.3-34-0.6-51.1-0.8c-1.7-0.1-2.5-1-2.6-2.6l-0.1-3.3c0-1.7,0.8-2.6,2.5-2.7L498.3,270.1z"/>
	</g>
</g>
</svg>
