<?xml version="1.0" encoding="utf-8"?>
<!-- Generator: Adobe Illustrator 26.3.1, SVG Export Plug-In . SVG Version: 6.00 Build 0)  -->
<svg version="1.1" id="Layer_1" xmlns="http://www.w3.org/2000/svg" xmlns:xlink="http://www.w3.org/1999/xlink" x="0px" y="0px"
	 viewBox="0 0 512 512" style="enable-background:new 0 0 512 512;" xml:space="preserve">
<style type="text/css">
	.st0{fill:#10B981;}
	.st1{fill:#FFFFFF;}
	.st2{fill:none;}
</style>
<g>
	<g>
		<g>
			<circle class="st0" cx="256" cy="256.9" r="176.9"/>
			<g>
				<path class="st1" d="M334,178.9c-42.6-43-112.1-43.4-155.1-0.8c-33.9,33.6-42.2,85.2-20.6,127.7l-11.6,56.5
					c-0.2,1.1,0,2.3,0.7,3.3c1,1.5,2.8,2.2,4.5,1.7l55.4-13.1c54.2,27,120.1,4.8,147-49.4C375.1,262.9,366.9,212.3,334,178.9z
					 M316.7,316.7c-26.1,26-65.9,32.5-98.9,16.1l-7.7-3.8l-33.9,8l0.1-0.4l7-34.2l-3.8-7.5c-16.9-33.1-10.5-73.4,15.8-99.7
					c33.5-33.5,87.9-33.5,121.4,0c0.1,0.2,0.3,0.3,0.4,0.4C350.3,229.4,350.1,283.4,316.7,316.7z"/>
				<path class="st1" d="M313.7,291.7c-4.2,6.6-10.7,14.6-19,16.6c-14.5,3.5-36.7,0.1-64.3-25.6l-0.3-0.3
					c-24.3-22.5-30.6-41.3-29.1-56.2c0.8-8.4,7.9-16.1,13.8-21.1c3.3-2.8,8.3-2.4,11.1,0.9c0.5,0.6,0.9,1.2,1.2,2l8.9,20.1
					c1.2,2.7,0.8,5.7-1,8l-4.5,5.9c-2,2.5-2.3,5.9-0.7,8.7c2.5,4.4,8.6,11,15.3,17c7.6,6.8,15.9,13.1,21.2,15.2
					c2.9,1.2,6.2,0.5,8.4-1.8l5.2-5.3c2.1-2,5.1-2.8,7.8-2l21.2,6c4.2,1.3,6.6,5.8,5.3,10C314.3,290.5,314.1,291.1,313.7,291.7
					L313.7,291.7z"/>
			</g>
		</g>
	</g>
</g>
<path id="SVGID_x5F_1_x5F_" class="st2" d="M446.8,256c0,105.4-85.4,190.8-190.8,190.8S65.2,361.4,65.2,256S150.6,65.2,256,65.2
	S446.8,150.6,446.8,256z"/>
<text><textPath  xlink:href="#SVGID_x5F_1_x5F_" startOffset="733.3333%">
<tspan  style="fill:#3D3D3D; font-family:'HanWangHeiHeavy'; font-size:48px; letter-spacing:200;">立即聯絡我們啦！Contact us now!</tspan></textPath>
</text>
</svg>
