<svg version="1.2" xmlns="http://www.w3.org/2000/svg" viewBox="0 0 64 64" width="64" height="64">
	<title>whatsapp1</title>
	<style>
		.s0 { fill: #10b981 } 
		.s1 { fill: #ffffff } 
		.s2 { fill: none } 
	</style>
	<g>
		<g>
			<g>
				<path fill-rule="evenodd" class="s0" d="m32 54.2c-12.2 0-22.1-9.9-22.1-22.1 0-12.2 9.9-22.1 22.1-22.1 12.2 0 22.1 9.9 22.1 22.1 0 12.2-9.9 22.1-22.1 22.1z"/>
				<g>
					<path class="s1" d="m41.8 22.4c-5.4-5.4-14.1-5.5-19.4-0.1-4.3 4.2-5.3 10.6-2.6 15.9l-1.5 7.1q0 0.2 0.1 0.4c0.2 0.2 0.4 0.3 0.6 0.2l6.9-1.6c6.8 3.4 15 0.6 18.4-6.2 2.6-5.2 1.6-11.6-2.5-15.7zm-2.2 17.2c-3.3 3.2-8.3 4-12.4 2l-0.9-0.5-4.3 1 0.9-4.3-0.5-0.9c-2.1-4.2-1.3-9.2 2-12.5 4.2-4.2 11-4.2 15.2 0q0 0 0 0.1c4.2 4.2 4.2 10.9 0 15.1z"/>
					<path class="s1" d="m39.2 36.5c-0.5 0.8-1.3 1.8-2.4 2-1.8 0.5-4.6 0.1-8-3.2-3.1-2.8-3.9-5.2-3.7-7 0.1-1.1 1-2 1.7-2.7 0.5-0.3 1.1-0.3 1.4 0.2q0.1 0.1 0.2 0.2l1.1 2.5c0.1 0.3 0.1 0.7-0.1 1l-0.6 0.8c-0.2 0.3-0.3 0.7-0.1 1 0.3 0.6 1.1 1.4 1.9 2.2 1 0.8 2 1.6 2.7 1.9 0.3 0.1 0.8 0 1-0.3l0.7-0.6c0.2-0.3 0.6-0.4 1-0.3l2.6 0.8c0.5 0.1 0.8 0.7 0.7 1.2q0 0.2-0.1 0.3z"/>
				</g>
			</g>
		</g>
	</g>
	<path id="SVGID_x5F_1_x5F_" class="s2" d="m55.9 32c0 13.2-10.7 23.9-23.9 23.9-13.2 0-23.9-10.7-23.9-23.9 0-13.2 10.7-23.9 23.9-23.9 13.2 0 23.9 10.7 23.9 23.9z"/>
</svg>