<svg xmlns="http://www.w3.org/2000/svg" fill="none" viewBox="0 0 200 200" stroke-width="0.75" height="400" width="400"><g id="Shopping-Payment-with-card-01"><g id="color 2"><path id="Vector" fill="#ff1e45" d="M104.638 80.343A15.898 15.898 0 0 1 97.38 82.6a29.958 29.958 0 0 1 1.33 5.225l4.408 1.938 2.679-3.895a35.907 35.907 0 0 0-1.159-5.525Z"></path><path id="Vector_2" fill="#ff1e45" d="M132.929 46.884c-11.058 13.794-20.159 19-26.239 21.071 1.634 4.332 2.907 7.562 3.5 11.457.019.038 21.2-8.227 31.009-25.4a19.675 19.675 0 0 0-8.27-7.128Z"></path><path id="Vector_3" fill="#ff1e45" d="M101.788 69.171a5.542 5.542 0 0 1-3.04-.361c-1.387 1.615-3.762 2.166-6.555 2.261a5.125 5.125 0 0 1-1.577 1.444 67.574 67.574 0 0 1 3.7 6.669c4.389-.266 7.714-1.064 10.013-3.116a34.798 34.798 0 0 0-2.541-6.897Z"></path><path id="Vector_4" fill="#ff1e45" d="M54.668 92.978c11.058-.418 25.251-2.2 35.967-5.966A68.664 68.664 0 0 0 85.03 75.08c-8.216 3.095-14.729 3.085-31.483 4.237 3.945-.217 4.797 13.149 1.121 13.661Z"></path><path id="Vector_5" fill="#ff1e45" d="m142.962 43.5 2.945 2.66a1.414 1.414 0 0 0 1.995-.114L156.946 36a1.426 1.426 0 0 0 .358-1.024 1.423 1.423 0 0 0-.472-.976l-6.764-6.1a1.423 1.423 0 0 0-1.024-.358 1.413 1.413 0 0 0-.976.472l-9.045 10.052a1.409 1.409 0 0 0-.358 1.024 1.403 1.403 0 0 0 .472.976l.7.627c1.055-1.562 3.404-4.845 4.163-5.038.534.748-.042 2.782-.558 4.602-.433 1.525-.822 2.9-.48 3.243Z"></path></g><g id="color 1"><path id="Vector_6" fill="#ff1e45" d="M141.9 156.23a62.75 62.75 0 0 1-10.545 1.957c3.877 5.415 3.173 6.631 4.541 9.215 6.29 2.584 20.179 4.921 26.924 5.054-5.02-6.232-14.82-9.5-20.92-16.226Z"></path><path id="Vector_7" fill="#ff1e45" d="M48.569 128.622a54.564 54.564 0 0 1-12.579-1.007c-3.951 8.55-6.763 19.209-8.189 26.107 9.843-4.622 10.09-14.722 20.122-15.733a30.513 30.513 0 0 1 .646-9.367Z"></path><path id="Vector_8" fill="#ff1e45" d="M55.523 80.723a56.88 56.88 0 0 1-3.762.361c.912-2.184 2.508-2.375 3.762-.361Z"></path><path id="Vector_9" fill="#ff1e45" d="M56.378 91.192c-1.007 2.489-2.793 2.356-4.066-.095 1.653.003 3.116.038 4.066.095Z"></path><path id="Vector_10" fill="#ff1e45" d="M156.053 106.6a3.512 3.512 0 0 0-6.483.241 3.512 3.512 0 1 0 6.803 1.092 3.478 3.478 0 0 0-.32-1.333Z"></path><path id="Vector_11" fill="#ff1e45" d="M103.574 107.076c-.988 2.622-2 5.13-3.1 7.562a91.265 91.265 0 0 0 2.2 6.1c-.696-5.948.919-13.638.9-13.662Z"></path><path id="Vector_12" fill="#ff1e45" d="M95.993 38.694a11.45 11.45 0 0 0-11.438 11.438 13.73 13.73 0 0 0 .884 5.029 13.08 13.08 0 1 0 1.244 9.792c1.653.912 3.876 1.026 5.3 2.033-.233-.466-1.163-2.155-1.71-2.223-3.7-.228-3.572-3.591-1.425-2.983 1.026.285 1.273.057 1.1-.456-1.273-2.756-.247-9.517 5.206-3.839a16.382 16.382 0 0 1 2.983 3.877 11.432 11.432 0 0 0 9.244-12.311A11.435 11.435 0 0 0 95.99 38.694h.003Z"></path><path id="Vector_13" fill="#ff1e45" d="M96.468 66.188c-.665.19-1.345.324-2.033.4l3.211 1.558a3.094 3.094 0 0 1-1.178-1.958Z"></path><path id="Vector_14" fill="#ff1e45" d="M189.968 76.22a2.625 2.625 0 1 0 .508-2.873 2.614 2.614 0 0 0-.508 2.873Z"></path><path id="Vector_15" fill="#ff1e45" d="M175.357 82.661a2.618 2.618 0 0 0 2.458 1.57 2.623 2.623 0 0 0 2.509-3.19 2.624 2.624 0 0 0-3.618-1.838 2.619 2.619 0 0 0-1.349 3.458Z"></path></g><g id="outlines"><path id="Vector_16" stroke="#71003d" stroke-linecap="round" stroke-linejoin="round" d="m55.257 146.825 4.427 9.652a7.957 7.957 0 0 0 10.545 3.914l42.294-19.381"></path><path id="Vector_17" stroke="#71003d" stroke-linecap="round" stroke-linejoin="round" d="m131.808 132.175 36.386-16.663a7.959 7.959 0 0 0 3.914-10.545l-25.593-55.879"></path><path id="Vector_18" stroke="#71003d" stroke-linecap="round" stroke-linejoin="round" d="M138.686 39.037a7.916 7.916 0 0 0-5.3.475l-25.989 11.899"></path><path id="Vector_19" stroke="#71003d" stroke-linecap="round" stroke-linejoin="round" d="m45.491 79.754 19.396-8.881"></path><path id="Vector_20" stroke="#71003d" stroke-linecap="round" stroke-linejoin="round" d="m37.435 83.44-2.033.931a7.96 7.96 0 0 0-3.915 10.545l15.467 33.744"></path><path id="Vector_21" stroke="#71003d" stroke-linecap="round" stroke-linejoin="round" d="m119.249 111.1 10.792-4.94a1.753 1.753 0 0 0 .855-2.318l-1.045-2.318a1.753 1.753 0 0 0-2.318-.855l-11.039 5.054"></path><path id="Vector_22" stroke="#71003d" stroke-linecap="round" stroke-linejoin="round" d="m101.997 119.008-4.769 2.185"></path><path id="Vector_23" stroke="#71003d" stroke-linecap="round" stroke-linejoin="round" d="M96.449 66.207a3.547 3.547 0 0 0 2.318 2.6c.959.405 2.013.53 3.04.361 12.426-1.926 23.251-12.483 31.122-22.287a19.673 19.673 0 0 1 8.266 7.125c-9.805 17.176-30.99 25.441-31.009 25.4"></path><path id="Vector_24" stroke="#71003d" stroke-linecap="round" stroke-linejoin="round" d="M94.416 66.587s9.156-.416.912-8.93c-5.66-5.846-6.667.733-5.436 3.559.345.791-.294.758-1.062.545-2.15-.6-2.28 2.755 1.425 2.983.297.157.557.378.76.646 2.524 3.681 2.452 5.853-1.71 7.828-10.734 5.094-16.72 4.75-35.758 6.1"></path><path id="Vector_25" stroke="#71003d" stroke-linecap="round" stroke-linejoin="round" d="m94.435 66.587 3.192 1.558"></path><path id="Vector_26" stroke="#71003d" stroke-linecap="round" stroke-linejoin="round" d="M54.649 92.978c11.058-.418 25.251-2.2 35.967-5.966"></path><path id="Vector_27" stroke="#71003d" stroke-linecap="round" stroke-linejoin="round" d="M55.523 80.723c-4.45.576-8.951.633-13.414.171a28.034 28.034 0 0 1-4.047-.874 37.409 37.409 0 0 1-4.484-1.539c-4.028-1.656-5.016-.912-1.236 1.976a55.381 55.381 0 0 0 13.624 6.555"></path><path id="Vector_28" stroke="#71003d" stroke-linecap="round" stroke-linejoin="round" d="M56.378 91.192c-2.941-.176-12.831-.2-15.751.076-5.131.494-3.4-.646-1.8-1.615 1.158-.7 6.612-2.071 4.617-3.5"></path><path id="Vector_29" stroke="#71003d" stroke-linecap="round" stroke-linejoin="round" d="M37.4 79.811c-.874-.646-2.583-2.148-3.078-2.584-2.275-2-1.558-2.491-1.121-2.3 1.751.771 4.446 2.337 6.1 3.021 2.66 1.1 7.714 3.306 10.222 3.249"></path><path id="Vector_30" stroke="#71003d" stroke-linecap="round" stroke-linejoin="round" d="M39.126 77.892c-.323-.4-.607-.723-.76-.912-1.905-2.349-1.14-2.717-.741-2.451 1.6 1.064 4.012 3.034 5.529 3.971a34.43 34.43 0 0 0 5.738 2.7"></path><path id="Vector_31" stroke="#71003d" stroke-linecap="round" stroke-linejoin="round" d="M51.761 81.084c1.472-3.528 4.452-1.511 5.159 4.022.83 6.5-2.284 10.467-4.608 5.991"></path><path id="Vector_32" stroke="#71003d" stroke-linecap="round" stroke-linejoin="round" d="M142.962 43.5c-.7-.931.95-4.541 1.121-5.643.285-1.843.519-3.91-2.394.361a103.466 103.466 0 0 1-7.544 9.329"></path><path id="Vector_33" stroke="#71003d" stroke-linecap="round" stroke-linejoin="round" d="m142.962 43.5 2.945 2.66a1.414 1.414 0 0 0 1.995-.114L156.946 36a1.425 1.425 0 0 0 .358-1.024 1.422 1.422 0 0 0-.472-.976l-6.764-6.1a1.424 1.424 0 0 0-1.024-.358 1.411 1.411 0 0 0-.976.472l-9.045 10.052a1.41 1.41 0 0 0-.219 1.559c.081.167.194.317.333.441l.7.627"></path><path id="Vector_34" stroke="#71003d" stroke-linecap="round" stroke-linejoin="round" d="M140.757 53.363c2.965-3.173 17.2-10.873 15.315-11.153-2.208-.329-6.182 1.865-6.612 2.106"></path><path id="Vector_35" stroke="#71003d" stroke-linecap="round" stroke-linejoin="round" d="M152.678 42.827c.448-.292 2.288-1.481 3.812-2.308 1.524-.827-1.786-.855-3.762.171"></path><path id="Vector_36" stroke="#71003d" stroke-linecap="round" stroke-linejoin="round" d="M145.331 45.642c-.266-.148-1.778-.866-4.745.026"></path><path id="Vector_37" stroke="#71003d" stroke-linecap="round" stroke-linejoin="round" d="M160.632 104.511a3.515 3.515 0 0 1-.619 3.852 3.512 3.512 0 0 1-5.563-4.23 3.512 3.512 0 0 1 1.527-1.351 3.49 3.49 0 0 1 3.854.616c.338.315.61.693.801 1.113v0Z"></path><path id="Vector_38" stroke="#71003d" stroke-linecap="round" stroke-linejoin="round" d="M156.053 106.6a3.515 3.515 0 0 1-.619 3.852 3.505 3.505 0 0 1-1.761 1.026 3.504 3.504 0 0 1-3.657-1.358 3.508 3.508 0 0 1 1.382-5.249 3.54 3.54 0 0 1 4.655 1.729v0Z"></path><path id="Vector_39" stroke="#71003d" stroke-linecap="round" stroke-linejoin="round" d="M151.474 108.71a3.515 3.515 0 0 1-.619 3.852 3.505 3.505 0 0 1-1.761 1.026 3.504 3.504 0 0 1-3.657-1.358 3.508 3.508 0 0 1 1.382-5.249 3.49 3.49 0 0 1 3.854.616c.338.315.61.693.801 1.113v0Z"></path><path id="Vector_40" stroke="#71003d" stroke-linecap="round" stroke-linejoin="round" d="M61.736 99.5a5.055 5.055 0 0 1 6.688 2.489l2.983 6.536a5.055 5.055 0 0 1-2.489 6.688l-9.348 4.275a5.054 5.054 0 0 1-6.688-2.489l-3-6.536a5.054 5.054 0 0 1 2.489-6.688l9.365-4.275Z"></path><path id="Vector_41" stroke="#71003d" stroke-linecap="round" stroke-linejoin="round" d="M154.362 95.03a1.755 1.755 0 0 0 .855-2.318l-1.045-2.318a1.75 1.75 0 0 0-2.318-.855l-17.671 8.075a1.755 1.755 0 0 0-.855 2.318l1.045 2.318a1.753 1.753 0 0 0 2.318.855l17.671-8.075Z"></path><path id="Vector_42" stroke="#71003d" stroke-linecap="round" stroke-linejoin="round" d="M189.968 76.22a2.625 2.625 0 1 0 .508-2.873 2.614 2.614 0 0 0-.508 2.873v0Z"></path><path id="Vector_43" stroke="#71003d" stroke-linecap="round" stroke-linejoin="round" d="M175.357 82.661a2.618 2.618 0 0 0 2.458 1.57 2.623 2.623 0 0 0 2.509-3.19 2.624 2.624 0 0 0-3.618-1.838 2.619 2.619 0 0 0-1.349 3.458v0Z"></path><path id="Vector_44" stroke="#71003d" stroke-linecap="round" stroke-linejoin="round" d="m189.968 76.22-9.804 4.313"></path><path id="Vector_45" stroke="#71003d" stroke-linecap="round" stroke-linejoin="round" d="m193.958 45.212-5.32 2.337 3.382 25.004"></path><path id="Vector_46" stroke="#71003d" stroke-linecap="round" stroke-linejoin="round" d="m191.45 68.354-19.494 6.289-7.79-7.638 25.574-11.286"></path><path id="Vector_47" stroke="#71003d" stroke-linecap="round" stroke-linejoin="round" d="M100.489 114.674c1.1-2.432 2.1-4.976 3.085-7.6.019.019-1.6 7.714-.893 13.661"></path><path id="Vector_48" stroke="#71003d" stroke-linecap="round" stroke-linejoin="round" d="M85.011 75.08c4.845 7.847 7.334 17.442 8.17 18.962 4.826 2.717 13.889.437 16.834-2.774 1.325-10.483.1-14.243-3.325-23.313"></path><path id="Vector_49" stroke="#71003d" stroke-linecap="round" stroke-linejoin="round" d="M93.181 94.042c-4.009 4.142-8.493-.342-14.212 30-12.977-.076-17.689 1.007-29.849 2.432-2.147 6.9-1.539 14.307 1.007 22.041l32.68-10.736a12.839 12.839 0 0 0 5.871-4.008 82.519 82.519 0 0 0 11.811-19.1c4.09 12.954 15.128 32.583 22.313 43.931 11 0 20.141-1.881 27.4-5.7-19.4-15.009-36.4-51.737-40.186-61.636"></path><path id="Vector_50" stroke="#71003d" stroke-linecap="round" stroke-linejoin="round" d="M90.616 72.515a70.04 70.04 0 0 1 3.724 6.669c4.389-.266 7.714-1.064 10.013-3.116a34.832 34.832 0 0 0-2.546-6.9"></path><path id="Vector_51" stroke="#71003d" stroke-linecap="round" stroke-linejoin="round" d="m105.8 85.872-2.679 3.895-4.411-1.938c-.285-1.78-.73-3.53-1.33-5.229a15.9 15.9 0 0 0 7.258-2.261c.532 1.81.921 3.661 1.162 5.533v0Z"></path><path id="Vector_52" stroke="#71003d" stroke-linecap="round" stroke-linejoin="round" d="M141.9 156.23c6.1 6.726 15.9 9.994 20.92 16.226-6.745-.133-20.634-2.47-26.924-5.054-1.368-2.584-.665-3.8-4.541-9.215a62.513 62.513 0 0 0 10.545-1.957v0Z"></path><path id="Vector_53" stroke="#71003d" stroke-linecap="round" stroke-linejoin="round" d="M48.569 128.622a54.563 54.563 0 0 1-12.579-1.007c-3.951 8.55-6.763 19.209-8.189 26.107 9.843-4.622 10.09-14.722 20.122-15.733a30.507 30.507 0 0 1 .646-9.367v0Z"></path><path id="Vector_54" stroke="#71003d" stroke-linecap="round" stroke-linejoin="round" d="M92.212 71.09c2.793-.095 5.168-.646 6.555-2.261"></path><path id="Vector_55" stroke="#71003d" stroke-linecap="round" stroke-linejoin="round" d="M98.12 61.343a11.437 11.437 0 0 0 8.727-14.77 11.437 11.437 0 0 0-22.311 3.54 13.501 13.501 0 0 0 .89 5.027 13.078 13.078 0 1 0 1.257 9.813c1.653.912 3.876 1.026 5.3 2.033"></path><path id="Vector_56" stroke="#71003d" stroke-linecap="round" stroke-linejoin="round" d="M36.029 44.756a2.713 2.713 0 1 1-3.592-1.349 2.699 2.699 0 0 1 3.592 1.349v0Z"></path><path id="Vector_57" stroke="#71003d" stroke-linecap="round" stroke-linejoin="round" d="M45.244 48.157a2.713 2.713 0 1 1-3.591-1.349 2.7 2.7 0 0 1 3.591 1.349v0Z"></path><path id="Vector_58" stroke="#71003d" stroke-linecap="round" stroke-linejoin="round" d="m35.041 55.738 6.213-16.435"></path><path id="Vector_59" stroke="#71003d" stroke-linecap="round" stroke-linejoin="round" d="m99.432 155.451 4.275 9.291"></path><path id="Vector_60" stroke="#71003d" stroke-linecap="round" stroke-linejoin="round" d="m106.215 157.959-9.291 4.294"></path><path id="Vector_61" stroke="#71003d" stroke-linecap="round" stroke-linejoin="round" d="M138.059 72.857a3.932 3.932 0 0 1 1.691 3.61"></path><path id="Vector_62" stroke="#71003d" stroke-linecap="round" stroke-linejoin="round" d="M140.092 69.8a9.088 9.088 0 0 1 3.326 7.087"></path><path id="Vector_63" stroke="#71003d" stroke-linecap="round" stroke-linejoin="round" d="M142.3 66.378c3 2.932 4.83 6.856 5.149 11.039"></path><path id="Vector_64" stroke="#71003d" stroke-linecap="round" stroke-linejoin="round" d="m120.655 27.655-3.255 1.476a1.597 1.597 0 0 0-1.022 1.523 1.614 1.614 0 0 0 .524 1.153 1.597 1.597 0 0 0 1.819.233l1.824-.829a1.588 1.588 0 0 1 1.317 2.889l-3.277 1.5"></path><path id="Vector_65" stroke="#71003d" stroke-linecap="round" stroke-linejoin="round" d="m117.805 27.655 3.629 7.943"></path><path id="Vector_66" stroke="#71003d" stroke-linecap="round" stroke-linejoin="round" d="M15.907 101.7a1.872 1.872 0 0 0-2.427-.838 1.87 1.87 0 0 0-.973 2.377l.836 1.862"></path><path id="Vector_67" stroke="#71003d" stroke-linecap="round" stroke-linejoin="round" d="M26.433 109.774a2.298 2.298 0 0 0-1.006-4.44 2.282 2.282 0 0 0-.894.26c-7.638 1.824-10.26 1.558-11.191-.494.931 2.052-.608 4.2-6.992 8.759a2.3 2.3 0 0 0 1.9 4.18l18.183-8.265Z"></path></g></g></svg>