<svg xmlns="http://www.w3.org/2000/svg" fill="none" viewBox="0 0 200 200" height="400" width="400"><g><g><g><path fill="#ff1e45" d="M42.354 157.418a4.912 4.912 0 0 1 .323-3.857 37.794 37.794 0 0 0-8.759-5.605c-2.3 2.406-5.166 5.866-6.27 7.03 1.9-1.254 19.323 11.229 20.007 14.345.323-4.294-4.097-8.139-5.301-11.913Z"></path><path fill="#ff1e45" d="M92.97 150.407a4.587 4.587 0 0 1-1.083-3.211 40.18 40.18 0 0 0-9.937-.4 29.407 29.407 0 0 1-.3 3.173c-.361 2.3-.874 3.211-1.235 5.358.551-2.071 21.945 1.767 22.933 4.161-.764-4.597-7.661-5.737-10.378-9.081Z"></path><path fill="#ff1e45" d="M183.486 122.705c-1.121-.8-3.8-2.432-7.3-4.522l-16.3 3.439-4.786-22.553 2.679-.57c-2.106-14.123-2.512-16.338-4.294-23.864-5.186 5.532-17.727 8.37-23.123 6.859.142.426.247.7.722 1.843-8.8 19.209-10.165 22.724-10.431 25.878-.3 3.7.095 6.175 7.163 33.63 4.3 1.2 11.487-.822 13.832-3.306-1.976-8.531-3.99-17.024-6.175-28.139.269-.742.587-1.465.95-2.166a73.619 73.619 0 0 0 3.686-17.252c3.528 15.99 4.565 21.439 6.992 24.149 2.451 2.717 5.3 4.446 29.013 17.8 3.556-.921 7.986-7.28 7.372-11.226Z"></path><path fill="#ff1e45" d="M47.313 115.485c-11.534 1.423-13.3 1.627-23.123 2.907L44.482 132.6c.876-.886 4.985-5.044 5.852-5.947-.46-1.453-2.29-8.246-3.021-11.168Z"></path><path fill="#ff1e45" d="m31.144 113.262.038-3.572a3.561 3.561 0 0 0-3.021 3.933l.475 3.4 2.964-.38-.456-3.381Z"></path><path fill="#ff1e45" d="M43.7 111.723a3.5 3.5 0 0 0-1.2-2.223 9.27 9.27 0 0 1-2.28.494c.161.7.212.948.38 1.786.156.156.109.122.589 3.7l2.964-.38-.453-3.377Z"></path></g><g><path fill="#e9e9e9" d="M183.467 124.567a14.453 14.453 0 0 1-5.89 8.74c.3 3.876 1.957 12.711 3.534 15.086 3.1-3.705 7.144-17.043 7.353-22.154a35.017 35.017 0 0 0-4.997-1.672Z"></path><path fill="#e9e9e9" d="M140.565 140.451a19.769 19.769 0 0 1-10.279 2.755 42.105 42.105 0 0 0-6.593 12.1c4.9-.551 15.922-5.491 19.57-9.234a29.436 29.436 0 0 0-2.698-5.621Z"></path><path fill="#e9e9e9" d="M46.651 169.831C42.419 168.8 25.9 157.893 27.515 155.1c1.455-1.746 17.866 10.05 19.917 13.735.468.848.232 1.244-.781.996Z"></path><path fill="#e9e9e9" d="M94.021 156.181c-5.98-1.243-12.75-1.968-13.527-.962-1.664 2.152 10.311 4.2 13.015 4.551 4.47.586 8.613.738 9.648.211 2.131-1.081-6.651-3.281-9.136-3.8Z"></path><path fill="#e9e9e9" d="M95.687 149.343c-.038-.684-.95-1.558-3.781-2.128a4.499 4.499 0 0 0 1.083 3.211c1.919 0 2.736-.513 2.698-1.083Z"></path><path fill="#e9e9e9" d="M79.024 148.279c-.076.817.893 1.387 2.641 1.71.152-1.064.247-2.109.3-3.173-2.01.247-2.865.784-2.941 1.463Z"></path><path fill="#e9e9e9" d="M33.918 147.937c-.817.836-1.8 1.957-2.793 3.078-1.482-1.216-2-2.584-1.463-3.306l.114-.133c.551-.513 1.9-.57 4.142.361Z"></path><path fill="#e9e9e9" d="M42.7 153.561c2.356 2.014 3.252 3.5 2.945 4.142-.263.552-1.406.532-3.287-.285a4.724 4.724 0 0 1 .342-3.857Z"></path><path fill="#e9e9e9" d="M130.7 82.425c-1.242-3.474-.128-.07-3.287-9.006a67.24 67.24 0 0 1 .589 11.362c1.144-.969 2.075-1.805 2.698-2.356Z"></path><path fill="#e9e9e9" d="M152.8 71.842c-4.655 5.3-18.2 8.74-23.446 7.011.361.988.7 1.9.988 2.66 5.512 1.543 18.025-1.44 23.123-6.878-.227-.95-.436-1.9-.665-2.793Z"></path><path fill="#e9e9e9" d="M140.109 91.982a73.619 73.619 0 0 1-3.686 17.252c.988-1.957 2.641-4.769 5.3-9.937l-1.614-7.315Z"></path><path fill="#e9e9e9" d="M174.024 82.33a14.874 14.874 0 0 1-.912-2.47c1.15.049 1.762.332 2 .7.437.67-.248 1.497-1.088 1.77Z"></path><path fill="#e9e9e9" d="M164.562 81.627c-1.368.627-1.9 1.254-1.881 1.71.057.589.779.969 2.09.741.306-.611-.084-1.778-.209-2.451Z"></path><path fill="#e9e9e9" d="M151.072 65.021c-1.653-.228-3.781-.456-6.574-.722a59.97 59.97 0 0 1 7.6 4.674c-.398-1.558-.76-2.926-1.026-3.952Z"></path><path fill="#e9e9e9" d="M130.8 44.71a14.055 14.055 0 0 1-1.6 3.629c.038-.532.038-1.2.095-2.033.421-.437.915-.969 1.505-1.596Z"></path><path fill="#e9e9e9" d="M129.279 36.464c-.114-1.33-.551-1.6-4.389-1.843-4.066-.285-4.37.38-3.952 2.546.285 1.463 1.045 1.881 2.584 1.881.95 0 2.2-.171 3.781-.342 1.216 1.539 2.014 2.337 2.014 1.406 0-1.767 1.843-1.729 1.881 1.1.684.7 1.444 1.539 2.261 2.356-.836-6.724-1.007-6.819-4.18-7.104Z"></path><path fill="#e9e9e9" d="M131.141 54.894c.452-.672.828-1.392 1.121-2.147-.57-.817-1.083-1.672-1.6-2.565-.342.8-.7 1.615-1.007 2.413.149.796.418 1.565.8 2.28-.228 2.147-1.406 17.518-1.406 18.525a19.492 19.492 0 0 0 2.356 3.743 22.983 22.983 0 0 0 2.736-3.648c-.378-2.85-2.696-17.575-3-18.601Z"></path><path fill="#e9e9e9" d="M107.182 85.484c.343-.245 1.045-.133 2.052.532-.855.722-1.349 1.159-1.71 1.463-.779-.969-.797-1.67-.342-1.995Z"></path><path fill="#e9e9e9" d="M115.257 92.78c.589 1.1.7 1.824.494 2.185a.19.19 0 0 1-.076.095c-.342.361-1.235.171-2.223-.684.703-.627 1.805-1.596 1.805-1.596Z"></path><path fill="#e9e9e9" d="M30.688 101.406a26.324 26.324 0 0 0-.057 1.786c-1.387.057-2.042-.189-2.071-.551-.027-.341.665-.836 2.128-1.235Z"></path><path fill="#e9e9e9" d="M41.366 101.368c.057.342-.437.76-1.938.988a3.143 3.143 0 0 1-.437-1.748c1.52.092 2.318.418 2.375.76Z"></path><path fill="#e9e9e9" d="M63.748 76.364c-.436 5.331-.591 10.977-.7 13.547-8.682.209-16.015 1.558-19.378 4.028.019 1.026.038 2.033.095 3 5.055-3.662 16.083-4.292 22.344-4.408-1.023-3.79-1.803-11.014-2.361-16.167Z"></path><path fill="#e9e9e9" d="M44.482 80.639a87.117 87.117 0 0 0-.285 2.888c-.912.3-2.109.683-3.287 1.045-1.235.379-2.451.722-3.287.969a83.178 83.178 0 0 0 6.859-4.902Z"></path><path fill="#e9e9e9" d="M69.923 59.055a1.58 1.58 0 0 1-.209.266c-.466.485-1.952.419-3.282.21a7.899 7.899 0 0 1-.461-2.471c1.634 1.634 3.306 2.926 3.952 1.995Z"></path><path fill="#e9e9e9" d="M70.417 45.869c.114-2.09-2.489-1.672-2.7-.494a1.445 1.445 0 0 0-2.7.684c-.931-1.1-2.831-.7-2.508.969-1.311-1.273-4.674-.513.7 9.766a82.626 82.626 0 0 0 3.04-2.717c-1.52-2.375.228-3.5 1.007-1.957.418.817 1.2.741 1.1-1.558a10.038 10.038 0 0 0 1.786-.646 6.414 6.414 0 0 0 2.774-2.356c.997-1.596-.922-3.496-2.499-1.691Z"></path><path fill="#e9e9e9" d="M65.553 114.592c1.159 9.671 1.444 13.224 1.387 15.238a186.573 186.573 0 0 0-8.04-19.23c1.827 1.142 4.031 2.434 6.653 3.992Z"></path><path fill="#e9e9e9" d="m175.962 90.386.738 3.514 2.926-.627-.874-4.085a3.021 3.021 0 0 0-3.135-2.375c.263 1.172.378 2.372.345 3.573Z"></path><path fill="#e9e9e9" d="m165.835 88.866-.19.038a2.995 2.995 0 0 0-1.908 1.3 2.99 2.99 0 0 0-.41 2.272l.836 4.085 2.926-.627c-.034-.163-1.142-6.734-1.254-7.068Z"></path><path stroke="#000000" stroke-linejoin="round" stroke-width=".75" d="m175.962 90.386.853 4.045 2.926-.627-.989-4.616a3.021 3.021 0 0 0-3.135-2.375c.263 1.172.378 2.372.345 3.573Z"></path><path stroke="#000000" stroke-linejoin="round" stroke-width=".75" d="m165.835 88.866-.19.038a2.995 2.995 0 0 0-1.908 1.3 2.99 2.99 0 0 0-.41 2.272l.94 4.639 2.926-.627c-.034-.163-1.246-7.288-1.358-7.622Z"></path><path fill="#e9e9e9" d="M29.757 98.309c.741-.341.741 1.292.133 1.482-.608.19-.59-1.272-.133-1.482Z"></path><path fill="#e9e9e9" d="M89.892 99.145c.386-.738 1.954-.648 1.634.076-.32.724-2.102.821-1.634-.076Z"></path><path fill="#e9e9e9" d="M116.758 91.887c.152.779 1.55-.3 1.311-.95-.239-.65-1.482.076-1.311.95Z"></path><path fill="#e9e9e9" d="M172.333 76.155c.741-.009 1.2 1.691.285 1.672-.915-.019-1.083-1.663-.285-1.672Z"></path><path fill="#e9e9e9" d="m189.642 93.1.19 12.5a.264.264 0 0 1-.209.266l-4.37.931.589 2.736-2.831.608-.589-2.736-14.592 3.1.589 2.736-2.831.608-.588-2.734-4.37.931a.3.3 0 0 1-.3-.152l-4.9-11.5 4.5 21.242 34.257-7.277-4.545-21.259Z"></path><path fill="#e9e9e9" d="m189.091 91.83-33.725 7.182 5.32 12.483 4.18-.893-.57-2.66 2.831-.608.57 2.66 14.592-3.097-.551-2.66 2.831-.608.57 2.66 4.161-.874-.209-13.585Z"></path><path stroke="#000000" stroke-linecap="round" stroke-linejoin="round" stroke-width=".75" d="m159.93 121.636-4.825-22.57 34.252-7.296 4.83 22.589-34.257 7.277Z"></path></g><g><path stroke="#000000" stroke-linecap="round" stroke-linejoin="round" stroke-width=".75" d="m160.945 97.808 2.685-3.812"></path><path stroke="#000000" stroke-linecap="round" stroke-linejoin="round" stroke-width=".75" d="M174.689 78.245 195 49.232l-35.872-25.118-17.081 24.377"></path><path stroke="#000000" stroke-linecap="round" stroke-linejoin="round" stroke-width=".75" d="m139.197 128.937 8.512-12.179"></path><path stroke="#000000" stroke-linecap="round" stroke-linejoin="round" stroke-width=".75" d="m59.112 142.845 47.196 33.041 22.952-32.756"></path><path stroke="#000000" stroke-linecap="round" stroke-linejoin="round" stroke-width=".75" d="m35.381 72.773-5.263-3.686L5 104.959l39.482 27.645"></path><path stroke="#000000" stroke-linecap="round" stroke-linejoin="round" stroke-width=".75" d="m104.731 101.786-9.177 13.11-3.211-2.242"></path><path stroke="#000000" stroke-linecap="round" stroke-linejoin="round" stroke-width=".75" d="m80.829 55.369 10.564-15.105 9.975 6.973 11.78-16.796"></path><path stroke="#000000" stroke-linecap="round" stroke-linejoin="round" stroke-width=".75" d="m105.719 31.733 7.429-1.292 1.311 7.41"></path><path stroke="#000000" stroke-linecap="round" stroke-linejoin="round" stroke-width=".75" d="m34.583 52.633 6.84-1.216c4.071-.74 2.906-6.764-1.064-6.042l-3.819.646c-4.067.693-5.039-5.364-1.064-6.042l6.84-1.216"></path><path stroke="#000000" stroke-linecap="round" stroke-linejoin="round" stroke-width=".75" d="m36.977 37.395 2.945 16.606"></path><path stroke="#000000" stroke-linecap="round" stroke-linejoin="round" stroke-width=".75" d="m102.508 127.759 8.246-1.463"></path><path stroke="#000000" stroke-linecap="round" stroke-linejoin="round" stroke-width=".75" d="m105.909 122.895 1.444 8.265"></path><path stroke="#000000" stroke-linecap="round" stroke-linejoin="round" stroke-width=".75" d="m153.941 143.434 11.533-2.033"></path><path stroke="#000000" stroke-linecap="round" stroke-linejoin="round" stroke-width=".75" d="m158.691 136.651 2.033 11.552"></path><path stroke="#000000" stroke-linecap="round" stroke-linejoin="round" stroke-width=".75" d="M63.045 167.773a2.679 2.679 0 1 0 0-5.357 2.679 2.679 0 0 0 0 5.357Z"></path><path stroke="#000000" stroke-linecap="round" stroke-linejoin="round" stroke-width=".75" d="m38.079 139.1-14.744 1.843-2.755-22.1 26.752-3.343"></path><path stroke="#000000" stroke-linecap="round" stroke-linejoin="round" stroke-width=".75" d="M70.134 49.951a6.373 6.373 0 0 0 2.81-2.372c.969-1.6-.912-3.515-2.508-1.691.114-2.109-2.47-1.672-2.7-.494a1.448 1.448 0 0 0-2.7.684c-.931-1.1-2.831-.7-2.508.969-1.311-1.273-4.674-.513.7 9.766"></path><path stroke="#000000" stroke-linecap="round" stroke-linejoin="round" stroke-width=".75" d="M66.432 59.531a7.826 7.826 0 0 1-.442-2.471c1.5 1.515 3.059 2.752 3.794 2.183"></path><path stroke="#000000" stroke-linecap="round" stroke-linejoin="round" stroke-width=".75" d="M45.546 72.108c-2.071 15.276-2.536 23.942-.855 32.186 1.531 7.507 4.256 17.651 5.662 22.382-6.536 6.669-19.342 19.456-20.691 21.052"></path><path stroke="#000000" stroke-linecap="round" stroke-linejoin="round" stroke-width=".75" d="M31.125 151.034c-1.482-1.216-1.992-2.581-1.463-3.306.746-1.022 3.669-.745 9.386 3.1 5.056 3.4 7.035 5.968 6.593 6.9-.263.552-1.406.532-3.287-.285"></path><path stroke="#000000" stroke-linecap="round" stroke-linejoin="round" stroke-width=".75" d="M81.646 149.989c-1.748-.323-2.726-.894-2.641-1.71.121-1.16 2.546-1.882 8.911-1.52 6 .341 7.7 1.633 7.771 2.584.042.57-.779 1.083-2.717 1.083"></path><path stroke="#000000" stroke-linecap="round" stroke-linejoin="round" stroke-width=".75" d="M45.622 157.7c19.855-21.584 20.72-22.972 21.2-26.524.261-1.92.19-4.332-1.273-16.606"></path><path stroke="#000000" stroke-linecap="round" stroke-linejoin="round" stroke-width=".75" d="M27.534 155.119c1.217-2.09 21.47 12.54 20.064 14.649-1.098 1.653-21.868-11.551-20.064-14.649Z"></path><path stroke="#000000" stroke-linecap="round" stroke-linejoin="round" stroke-width=".75" d="M80.411 155.385c.185-2.28 23.312 1.938 22.971 4.313-.267 1.862-23.244-.951-22.971-4.313Z"></path><path stroke="#000000" stroke-linecap="round" stroke-linejoin="round" stroke-width=".75" d="M33.918 147.937c-2.033 2.109-5.282 6-6.384 7.163"></path><path stroke="#000000" stroke-linecap="round" stroke-linejoin="round" stroke-width=".75" d="M42.7 153.561c-2.907 5.263 5.814 10.26 4.9 16.207"></path><path stroke="#000000" stroke-linecap="round" stroke-linejoin="round" stroke-width=".75" d="M80.411 155.385c.494-2.983 1.292-3.572 1.558-8.569"></path><path stroke="#000000" stroke-linecap="round" stroke-linejoin="round" stroke-width=".75" d="M91.906 147.215c-.3 6.251 10.735 6.46 11.495 12.483"></path><path stroke="#000000" stroke-linecap="round" stroke-linejoin="round" stroke-width=".75" d="M79.024 148.279c.247-6.27-.513-23.18-.817-25.935-18.354-11.761-25.422-13.965-26.562-19.152"></path><path stroke="#000000" stroke-linecap="round" stroke-linejoin="round" stroke-width=".75" d="M95.687 149.343c-1.159-30.476-1.5-34.009-3.895-37.582-2.339-3.495-4.275-4.978-14.478-11.229"></path><path stroke="#000000" stroke-linecap="round" stroke-linejoin="round" stroke-width=".75" d="M28.56 102.641C27.42 87.422 27.535 81.5 29.966 77.9c3.5-5.167 13.661-10.774 24.358-13.6 13.433-3.554 18.886-3.059 21.337-.855 2 1.806 2.6 4.638 3.192 23.405 3.676.435 12.218 1.465 13.946 1.77 2.451 2.147 2.869 9.5 0 12.217-13.414 0-19.534-.149-22.23-1.843-4.164-2.617-4.94-5.111-6.84-22.61-.436 5.321-.607 10.943-.7 13.52"></path><path stroke="#000000" stroke-linecap="round" stroke-linejoin="round" stroke-width=".75" d="m77.751 86.719 1.1.13"></path><path stroke="#000000" stroke-linecap="round" stroke-linejoin="round" stroke-width=".75" d="M30.612 103.192c-1.387.038-2.035-.19-2.071-.551-.059-.589 1.919-1.525 6.156-1.938 4.332-.423 6.555.076 6.65.646.057.342-.437.76-1.938.988"></path><path stroke="#000000" stroke-linecap="round" stroke-linejoin="round" stroke-width=".75" d="M44.2 83.527a157.912 157.912 0 0 1-6.574 2 75.957 75.957 0 0 0 6.859-4.883"></path><path stroke="#000000" stroke-linecap="round" stroke-linejoin="round" stroke-width=".75" d="M41.366 101.368c-.19-3.99-.456-12.483-.456-16.8"></path><path stroke="#000000" stroke-linecap="round" stroke-linejoin="round" stroke-width=".75" d="M28.2 97.473c1.653-2.375 11.343-3.211 12.939-1.6"></path><path stroke="#000000" stroke-linecap="round" stroke-linejoin="round" stroke-width=".75" d="M87.156 87.859c2.394 2.185 2.166 10.488-.874 12.958"></path><path stroke="#000000" stroke-linecap="round" stroke-linejoin="round" stroke-width=".75" d="M43.76 96.941c3.913-2.83 12.116-4.274 22.333-4.408"></path><path stroke="#000000" stroke-linecap="round" stroke-linejoin="round" stroke-width=".75" d="M43.665 93.939c3.665-2.7 12.1-4.065 21.837-4.066"></path><path stroke="#000000" stroke-linecap="round" stroke-linejoin="round" stroke-width=".75" d="M38.991 100.589c-.031.686.17 1.362.57 1.919.3.38 2.3 2.163 2.736 2.812.48.719.722 3.743.342 4.066-.494.419-3.819.76-5.149.76-.95 0-.722-1.615 2.413-2.413-2.6.152-4.351-.608-4.788-2.869"></path><path stroke="#000000" stroke-linecap="round" stroke-linejoin="round" stroke-width=".75" d="M30.688 101.406a57.87 57.87 0 0 0 .152 8.379"></path><path stroke="#000000" stroke-linecap="round" stroke-linejoin="round" stroke-width=".75" d="M33.367 110.032c-.1-1.729 1.96-1.957 2.166-.3.154 1.235.23 2.109.323 3.1a1.155 1.155 0 0 1-2.261.475 31.987 31.987 0 0 1-.228-3.275v0Z"></path><path stroke="#000000" stroke-linecap="round" stroke-linejoin="round" stroke-width=".75" d="M40.226 109.956c.171.8.309 1.443.456 2.147a1.155 1.155 0 0 1-1.62 1.32 1.153 1.153 0 0 1-.58-.62 20.981 20.981 0 0 1-.494-2.66"></path><path stroke="#000000" stroke-linecap="round" stroke-linejoin="round" stroke-width=".75" d="M31.182 110.032c0-1.672 2-1.786 2.109-.171.08 1.2.1 2.052.133 3a1.124 1.124 0 0 1-2.223.342c-.094-.796-.019-1.651-.019-3.171Z"></path><path stroke="#000000" stroke-linecap="round" stroke-linejoin="round" stroke-width=".75" d="M37.946 110.146c.152.912.25 1.634.361 2.432a1.178 1.178 0 0 1-2.28.589 33.367 33.367 0 0 1-.38-3.325c-.154-1.482 1.292-1.938 1.938-1.064"></path><path stroke="#000000" stroke-linecap="round" stroke-linejoin="round" stroke-width=".75" d="M102.432 100c.224-1.578-1.547-2.035-1.938-.551-.155.588-.36 1.387-.494 2a1.067 1.067 0 0 0 .746 1.294 1.063 1.063 0 0 0 1.306-.724c.161-.666.288-1.34.38-2.019v0Z"></path><path stroke="#000000" stroke-linecap="round" stroke-linejoin="round" stroke-width=".75" d="M100.418 99.525c.409-1.57-1.451-2.149-1.938-.665a91.105 91.105 0 0 0-.589 1.843c-.445 1.493 1.579 2.148 1.995.836.229-.722.408-1.539.532-2.014Z"></path><path stroke="#000000" stroke-linecap="round" stroke-linejoin="round" stroke-width=".75" d="M98.366 99.069c.479-1.506-1.174-2.145-1.862-.76-.189.381-.48 1.062-.741 1.748a1.062 1.062 0 0 0 1.9.95c.204-.439.546-1.446.703-1.938Z"></path><path stroke="#000000" stroke-linecap="round" stroke-linejoin="round" stroke-width=".75" d="M104.427 100.285c.051-1.539-1.62-1.9-1.9-.437-.116.608-.29 1.8-.323 2.128a1.04 1.04 0 0 0 2.033.247c.1-.642.163-1.289.19-1.938Z"></path><path stroke="#000000" stroke-linecap="round" stroke-linejoin="round" stroke-width=".75" d="M89.436 146.892c-.8-25.821-.513-30.039-2.394-32.832-2.661-3.952-5.857-5.71-20.71-14.516-2.433-1.442-3.154-3.059-3.268-6.9"></path><path stroke="#000000" stroke-linecap="round" stroke-linejoin="round" stroke-width=".75" d="M58.9 110.583a192.01 192.01 0 0 1 8.04 19.247"></path><path stroke="#000000" stroke-linecap="round" stroke-linejoin="round" stroke-width=".75" d="M123.541 39.029c1.311 7.5 1.691 8.625 2.869 8.759 1.159.132 1.881-.342 4.408-3.078a10.263 10.263 0 0 1-1.584 3.666"></path><path stroke="#000000" stroke-linecap="round" stroke-linejoin="round" stroke-width=".75" d="M129.279 36.464c-.133-1.311-.57-1.577-4.37-1.843-4.066-.285-4.37.38-3.952 2.546.437 2.375 2.185 1.995 6.346 1.539 1.216 1.539 2.014 2.356 2.014 1.406 0-1.767 1.843-1.729 1.881 1.1a14.682 14.682 0 0 0 2.262 2.5c-.837-6.734-1.006-6.963-4.181-7.248Z"></path><path stroke="#000000" stroke-linecap="round" stroke-linejoin="round" stroke-width=".75" d="M129.281 46.311c.129 1.7-.084 3.76-1.313 4.46-3.591 2.071-5.033 2.908-6.251 4.636-2.333 3.309-2.185 5.51-2.622 20.216-4.408 3.8-9.9 8.075-11.913 9.88"></path><path stroke="#000000" stroke-linecap="round" stroke-linejoin="round" stroke-width=".75" d="M107.524 87.479c-.8-.969-.8-1.667-.342-1.976.631-.43 2.448.268 5.225 3.439 2.98 3.4 3.737 5.355 3.344 6.042-.27.473-1.235.342-2.3-.589"></path><path stroke="#000000" stroke-linecap="round" stroke-linejoin="round" stroke-width=".75" d="M164.79 84.078c-1.311.228-2.04-.151-2.09-.741-.066-.778 1.446-1.987 5.833-2.945 4.923-1.074 6.584-.4 6.688.456a1.546 1.546 0 0 1-1.2 1.482"></path><path stroke="#000000" stroke-linecap="round" stroke-linejoin="round" stroke-width=".75" d="M162.7 83.356c-3.173-13.851-3.5-15.272-4.807-16.226-1.79-1.306-3.04-1.824-13.414-2.793a59.97 59.97 0 0 1 7.6 4.674"></path><path stroke="#000000" stroke-linecap="round" stroke-linejoin="round" stroke-width=".75" d="M176.171 118.183c3.5 2.109 6.194 3.724 7.315 4.522.665 4.2-4.218 10.564-7.372 11.229-23.712-13.357-26.56-15.088-29.013-17.8-2.335-2.586-3.154-6.783-7.011-24.13a7.789 7.789 0 0 1-2.451-.551"></path><path stroke="#000000" stroke-linecap="round" stroke-linejoin="round" stroke-width=".75" d="M151.072 65.04c1.064 4.066 3.514 13.528 4.655 20.349.626 3.743 1.387 8.8 2.052 13.11"></path><path stroke="#000000" stroke-linecap="round" stroke-linejoin="round" stroke-width=".75" d="M124.434 57.839a30.73 30.73 0 0 0 0 6.346c.157 1.446 5.491 16.4 6.65 19.152-8.8 19.171-10.179 22.724-10.431 25.859-.3 3.7.095 6.175 7.163 33.63 4.313 1.273 11.78-1.007 13.813-3.306-1.976-8.531-3.99-17.043-6.175-28.139.741-2.128 2.451-4.731 6.251-12.1"></path><path stroke="#000000" stroke-linecap="round" stroke-linejoin="round" stroke-width=".75" d="M183.467 124.548a38.819 38.819 0 0 1 5.016 1.672c-.209 5.111-4.256 18.449-7.353 22.154-1.577-2.375-3.23-11.21-3.534-15.086"></path><path stroke="#000000" stroke-linecap="round" stroke-linejoin="round" stroke-width=".75" d="M140.546 140.432a29.53 29.53 0 0 1 2.7 5.624c-3.648 3.743-14.668 8.683-19.57 9.234a43.23 43.23 0 0 1 6.593-12.084"></path><path stroke="#000000" stroke-linecap="round" stroke-linejoin="round" stroke-width=".75" d="M115.731 95.017c4.049-3.139 12.382-10.266 14.992-12.611"></path><path stroke="#000000" stroke-linecap="round" stroke-linejoin="round" stroke-width=".75" d="M111.552 81.855c3.553.285 8.569 6.878 8.208 9.918"></path><path stroke="#000000" stroke-linecap="round" stroke-linejoin="round" stroke-width=".75" d="M161.5 78.093c1.342-2.911 10.545-4.675 12.491-3.1"></path><path stroke="#000000" stroke-linecap="round" stroke-linejoin="round" stroke-width=".75" d="M129.146 48.852c.418.545.949.993 1.558 1.311a28.43 28.43 0 0 0 6.231-3.709"></path><path stroke="#000000" stroke-linecap="round" stroke-linejoin="round" stroke-width=".75" d="M138.076 47.18c-.8 2.622-3.591 6.574-4.256 7.448a19.222 19.222 0 0 1-3.12-4.428 24.036 24.036 0 0 0-1.672 4.6 13.868 13.868 0 0 1-.095-5.263"></path><path stroke="#000000" stroke-linecap="round" stroke-linejoin="round" stroke-width=".75" d="M129.7 52.6c.152.796.421 1.564.8 2.28-.228 2.128-1.406 17.5-1.406 18.525a18.633 18.633 0 0 0 2.356 3.743 23.574 23.574 0 0 0 2.717-3.648c-.38-2.85-2.7-17.575-3-18.6.437-.677.806-1.396 1.1-2.147"></path><path stroke="#000000" stroke-linecap="round" stroke-linejoin="round" stroke-width=".75" d="M129.374 78.853c5.206 1.729 18.753-1.71 23.427-7.011"></path><path stroke="#000000" stroke-linecap="round" stroke-linejoin="round" stroke-width=".75" d="M130.362 81.513c5.491 1.558 18.259-1.5 23.123-6.859"></path><path stroke="#000000" stroke-linecap="round" stroke-linejoin="round" stroke-width=".75" d="M128.025 84.781a67.03 67.03 0 0 0-.589-11.362"></path><path stroke="#000000" stroke-linecap="round" stroke-linejoin="round" stroke-width=".75" d="M140.09 91.963a73.619 73.619 0 0 1-3.686 17.252"></path><path stroke="#000000" stroke-linecap="round" stroke-linejoin="round" stroke-width=".75" d="M135.815 81.836c1.1 4.636 1.159 5.073 2.774 4.978"></path><path stroke="#000000" stroke-linecap="round" stroke-linejoin="round" stroke-width=".75" d="M171.782 119.114c5.13 3.249 9.766 6.175 11.248 7.125"></path><path stroke="#000000" stroke-linecap="round" stroke-linejoin="round" stroke-width=".75" d="M149.552 77.675c2.242 9.5 4.788 22.306 5.586 30.78a92.82 92.82 0 0 0 2.28 1.52"></path><path stroke="#000000" stroke-linecap="round" stroke-linejoin="round" stroke-width=".75" d="M109.234 86.016c-1.843 1.539-1.976 1.884-2.774 1.919-1.881.083-3.472-.528-4.123.19a41.403 41.403 0 0 0-3.363 4.484c-.82 1.2 1.425 2.033 4.18-1.159a6.55 6.55 0 0 0 5.3.323"></path><path stroke="#000000" stroke-linecap="round" stroke-linejoin="round" stroke-width=".75" d="M93.863 90.1c2.375.342 2.867.453 3.553.057 1.629-.939 2.3-2.1 3.23-1.824.381.111.76.228 1.159.361"></path><path stroke="#000000" stroke-linecap="round" stroke-linejoin="round" stroke-width=".75" d="M115.238 92.78c-.836.741-2.85 2.527-3.7 3.363"></path><path stroke="#000000" stroke-linecap="round" stroke-linejoin="round" stroke-width=".75" d="M106.631 92.172c4.94 2.546 5.871 4.18 4.218 5.681"></path><path stroke="#000000" stroke-linecap="round" stroke-linejoin="round" stroke-width=".75" d="M107.847 95.725c2.831 1.444 3.7 2.258 2.793 3.5-.515.7-1.216.722-3.895-1.14"></path><path stroke="#000000" stroke-linecap="round" stroke-linejoin="round" stroke-width=".75" d="M93.711 99.7c.741.076 1.634.19 2.109.266"></path><path stroke="#000000" stroke-linecap="round" stroke-linejoin="round" stroke-width=".75" d="M105.567 99.81c.912.608 2.983 2.584 3.952-.209"></path><path stroke="#000000" stroke-linecap="round" stroke-linejoin="round" stroke-width=".75" d="M104.313 101.691c.836.209 2.356.741 2.907-.8"></path><path stroke="#000000" stroke-linecap="round" stroke-linejoin="round" stroke-width=".75" d="M173.112 79.841c.475 2.071 1.766 3.648 2.6 7.3.266 1.422.311 2.877.133 4.313a1.463 1.463 0 0 1-1.48.92 1.469 1.469 0 0 1-.591-.179"></path><path stroke="#000000" stroke-linecap="round" stroke-linejoin="round" stroke-width=".75" d="M173.815 89.474c.076.828.076 1.661 0 2.489-.095.875-1.142 1.635-2.4.8"></path><path stroke="#000000" stroke-linecap="round" stroke-linejoin="round" stroke-width=".75" d="M171.44 90.158c.06.752.073 1.507.038 2.261a1.468 1.468 0 0 1-2.538.9"></path><path stroke="#000000" stroke-linecap="round" stroke-linejoin="round" stroke-width=".75" d="M168.894 90.747c.116.735.154 1.48.114 2.223a1.276 1.276 0 0 1-2.546.019 31.19 31.19 0 0 0-.95-5.339"></path><path stroke="#000000" stroke-linecap="round" stroke-linejoin="round" stroke-width=".75" d="M164.562 81.627c.216.682.317 1.394.3 2.109-.076.817-1.653 2.47-1.653 3.382.05.93.352 1.829.874 2.6"></path><path stroke="#000000" stroke-linecap="round" stroke-linejoin="round" stroke-width=".75" d="M167.678 89.607c1.235-.38 5.32-1.425 6.593-1.653"></path><path stroke="#000000" stroke-linecap="round" stroke-linejoin="round" stroke-width=".75" d="M68.27 61.6a4.11 4.11 0 0 1-1.838-2.07c1.328.208 2.827.283 3.282-.21.8-.835 1.045-2.809.42-9.37a9.864 9.864 0 0 1-1.769.63c.095 2.3-.686 2.376-1.1 1.558-.782-1.537-2.527-.418-1.007 1.957C62.326 57.752 56 63.177 49.1 65.9"></path><path stroke="#000000" stroke-linecap="round" stroke-linejoin="round" stroke-width=".75" d="M175.2 80.848c-3.4-17.309-5.4-21.356-9.063-24.738-6.211-5.757-13.337-6.31-25.537-7.79-1.367-.178-4.709-2.38-7.143-4.607"></path><path stroke="#000000" stroke-linecap="round" stroke-linejoin="round" stroke-width=".75" d="m167.764 110.258 14.592-3.097"></path><path stroke="#000000" stroke-linecap="round" stroke-linejoin="round" stroke-width=".75" d="m167.127 107.334-2.831.608 1.292 5.907 2.831-.608-1.292-5.907Z"></path><path stroke="#000000" stroke-linecap="round" stroke-linejoin="round" stroke-width=".75" d="m184.569 103.629-2.831.608 1.273 5.904 2.831-.608-1.273-5.904Z"></path><path stroke="#000000" stroke-linecap="round" stroke-linejoin="round" stroke-width=".75" d="m185.198 106.565 4.38-.936-.18-13.666"></path><path stroke="#000000" stroke-linecap="round" stroke-linejoin="round" stroke-width=".75" d="m164.925 110.878-4.364.91-5.417-12.537"></path><path stroke="#000000" stroke-linejoin="round" stroke-width=".75" d="m31.144 113.262.038-3.572a3.561 3.561 0 0 0-3.021 3.933l.56 4.172 2.965-.38-.542-4.153Z"></path><path stroke="#000000" stroke-linejoin="round" stroke-width=".75" d="M43.7 111.723a3.5 3.5 0 0 0-1.2-2.223 9.27 9.27 0 0 1-2.28.494c.161.7.212.948.38 1.786.156.156.195.869.675 4.447l2.964-.38-.539-4.124Z"></path></g></g></g></svg>