<svg xmlns="http://www.w3.org/2000/svg" xmlns:xlink="http://www.w3.org/1999/xlink" preserveAspectRatio="xMidYMid meet" width="423" height="520" viewBox="0 0 423 520" style="width:100%;height:100%"><defs><animateTransform repeatCount="indefinite" dur="4.004004s" begin="0s" xlink:href="#_R_G_L_15_G" fill="freeze" attributeName="transform" from="0" to="-360" type="rotate" additive="sum" keyTimes="0;1" values="0;-360" keySplines="0.167 0.167 0.833 0.833" calcMode="spline"/><animateTransform repeatCount="indefinite" dur="4.004004s" begin="0s" xlink:href="#_R_G_L_15_G" fill="freeze" attributeName="transform" from="-8.266 -8.262" to="-8.266 -8.262" type="translate" additive="sum" keyTimes="0;1" values="-8.266 -8.262;-8.266 -8.262" keySplines="0 0 1 1" calcMode="spline"/><animateTransform repeatCount="indefinite" dur="4.004004s" begin="0s" xlink:href="#_R_G_L_14_G" fill="freeze" attributeName="transform" from="0" to="360" type="rotate" additive="sum" keyTimes="0;1" values="0;360" keySplines="0.167 0.167 0.833 0.833" calcMode="spline"/><animateTransform repeatCount="indefinite" dur="4.004004s" begin="0s" xlink:href="#_R_G_L_14_G" fill="freeze" attributeName="transform" from="-13.868 -13.868" to="-13.868 -13.868" type="translate" additive="sum" keyTimes="0;1" values="-13.868 -13.868;-13.868 -13.868" keySplines="0 0 1 1" calcMode="spline"/><animateTransform repeatCount="indefinite" dur="4.004004s" begin="0s" xlink:href="#_R_G_L_13_G" fill="freeze" attributeName="transform" from="0 0" to="0 0" type="scale" additive="sum" keyTimes="0;0.2416667;0.325;0.35;0.3666667;0.3833333;0.4083333;0.825;0.8416666;0.8583333;0.875;0.9583333;1" values="0 0;0 0;1.11974 1.11974;0.9500000000000001 0.9500000000000001;1.06015 1.06015;0.9500000000000001 0.9500000000000001;1 1;1 1;0.9500000000000001 0.9500000000000001;1 1;1.11974 1.11974;0 0;0 0" keySplines="0.333 0 0.667 1;0.333 0 0.667 1;0.333 0 0.667 1;0.333 0 0.667 1;0.333 0 0.667 1;0.333 0 0.667 1;0.333 0 0.667 1;0.333 0 0.667 1;0.333 0 0.667 1;0.333 0 0.667 1;0.333 0 0.667 1;0 0 0 0" calcMode="spline"/><animateTransform repeatCount="indefinite" dur="4.004004s" begin="0s" xlink:href="#_R_G_L_13_G" fill="freeze" attributeName="transform" from="-31.21 -26.45" to="-31.21 -26.45" type="translate" additive="sum" keyTimes="0;1" values="-31.21 -26.45;-31.21 -26.45" keySplines="0 0 1 1" calcMode="spline"/><animateTransform repeatCount="indefinite" dur="4.004004s" begin="0s" xlink:href="#_R_G_L_12_G" fill="freeze" attributeName="transform" from="0 0" to="0 0" type="scale" additive="sum" keyTimes="0;0.0833333;0.1666667;0.1916667;0.2083333;0.225;0.25;0.825;0.8416666;0.8583333;0.875;0.9583333;1" values="0 0;0 0;1.11974 1.11974;0.9500000000000001 0.9500000000000001;1.06015 1.06015;0.9500000000000001 0.9500000000000001;1 1;1 1;0.9500000000000001 0.9500000000000001;1 1;1.11974 1.11974;0 0;0 0" keySplines="0.333 0 0.667 1;0.333 0 0.667 1;0.333 0 0.667 1;0.333 0 0.667 1;0.333 0 0.667 1;0.333 0 0.667 1;0.333 0 0.667 1;0.333 0 0.667 1;0.333 0 0.667 1;0.333 0 0.667 1;0.333 0 0.667 1;0 0 0 0" calcMode="spline"/><animateTransform repeatCount="indefinite" dur="4.004004s" begin="0s" xlink:href="#_R_G_L_12_G" fill="freeze" attributeName="transform" from="-60.336 -15.64" to="-60.336 -15.64" type="translate" additive="sum" keyTimes="0;1" values="-60.336 -15.64;-60.336 -15.64" keySplines="0 0 1 1" calcMode="spline"/><animateTransform repeatCount="indefinite" dur="4.004004s" begin="0s" xlink:href="#_R_G_L_11_G" fill="freeze" attributeName="transform" from="0 0" to="0 0" type="scale" additive="sum" keyTimes="0;0.2416667;0.325;0.35;0.3666667;0.3833333;0.4083333;0.825;0.8416666;0.8583333;0.875;0.9583333;1" values="0 0;0 0;1.11974 1.11974;0.9500000000000001 0.9500000000000001;1.06015 1.06015;0.9500000000000001 0.9500000000000001;1 1;1 1;0.9500000000000001 0.9500000000000001;1 1;1.11974 1.11974;0 0;0 0" keySplines="0.333 0 0.667 1;0.333 0 0.667 1;0.333 0 0.667 1;0.333 0 0.667 1;0.333 0 0.667 1;0.333 0 0.667 1;0.333 0 0.667 1;0.333 0 0.667 1;0.333 0 0.667 1;0.333 0 0.667 1;0.333 0 0.667 1;0 0 0 0" calcMode="spline"/><animateTransform repeatCount="indefinite" dur="4.004004s" begin="0s" xlink:href="#_R_G_L_11_G" fill="freeze" attributeName="transform" from="-32.448 -19.83" to="-32.448 -19.83" type="translate" additive="sum" keyTimes="0;1" values="-32.448 -19.83;-32.448 -19.83" keySplines="0 0 1 1" calcMode="spline"/><animateTransform repeatCount="indefinite" dur="4.004004s" begin="0s" xlink:href="#_R_G_L_10_G" fill="freeze" attributeName="transform" from="0" to="0" type="rotate" additive="sum" keyTimes="0;0.25;0.5;0.75;1" values="0;8;0;5;0" keySplines="0.333 0 0.667 1;0.333 0 0.667 1;0.333 0 0.667 1;0.333 0 0.667 1" calcMode="spline"/><animateTransform repeatCount="indefinite" dur="4.004004s" begin="0s" xlink:href="#_R_G_L_10_G" fill="freeze" attributeName="transform" from="-30.704 -53.731" to="-30.704 -53.731" type="translate" additive="sum" keyTimes="0;1" values="-30.704 -53.731;-30.704 -53.731" keySplines="0 0 1 1" calcMode="spline"/><animateTransform repeatCount="indefinite" dur="4.004004s" begin="0s" xlink:href="#_R_G_L_9_G" fill="freeze" attributeName="transform" from="0" to="0" type="rotate" additive="sum" keyTimes="0;0.25;0.5;0.75;1" values="0;10;0;6;0" keySplines="0.333 0 0.667 1;0.333 0 0.667 1;0.333 0 0.667 1;0.333 0 0.667 1" calcMode="spline"/><animateTransform repeatCount="indefinite" dur="4.004004s" begin="0s" xlink:href="#_R_G_L_9_G" fill="freeze" attributeName="transform" from="-23.042 -46.246" to="-23.042 -46.246" type="translate" additive="sum" keyTimes="0;1" values="-23.042 -46.246;-23.042 -46.246" keySplines="0 0 1 1" calcMode="spline"/><animateTransform repeatCount="indefinite" dur="4.004004s" begin="0s" xlink:href="#_R_G_L_9_G_N_18_T_0" fill="freeze" attributeName="transform" from="0" to="0" type="rotate" additive="sum" keyTimes="0;0.25;0.5;0.75;1" values="0;5;0;5;0" keySplines="0.333 0 0.667 1;0.333 0 0.667 1;0.333 0 0.667 1;0.333 0 0.667 1" calcMode="spline"/><animateTransform repeatCount="indefinite" dur="4.004004s" begin="0s" xlink:href="#_R_G_L_9_G_N_18_T_0" fill="freeze" attributeName="transform" from="-62.023 -14.605" to="-62.023 -14.605" type="translate" additive="sum" keyTimes="0;1" values="-62.023 -14.605;-62.023 -14.605" keySplines="0 0 1 1" calcMode="spline"/><animateTransform repeatCount="indefinite" dur="4.004004s" begin="0s" xlink:href="#_R_G_L_9_G_N_18_N_22_T_0" fill="freeze" attributeName="transform" from="0" to="0" type="rotate" additive="sum" keyTimes="0;0.25;0.5;0.75;1" values="0;8;0;5;0" keySplines="0.333 0 0.667 1;0.333 0 0.667 1;0.333 0 0.667 1;0.333 0 0.667 1" calcMode="spline"/><animateTransform repeatCount="indefinite" dur="4.004004s" begin="0s" xlink:href="#_R_G_L_9_G_N_18_N_22_T_0" fill="freeze" attributeName="transform" from="-30.704 -53.731" to="-30.704 -53.731" type="translate" additive="sum" keyTimes="0;1" values="-30.704 -53.731;-30.704 -53.731" keySplines="0 0 1 1" calcMode="spline"/><animateTransform repeatCount="indefinite" dur="4.004004s" begin="0s" xlink:href="#_R_G_L_8_G" fill="freeze" attributeName="transform" from="0" to="0" type="rotate" additive="sum" keyTimes="0;0.25;0.5;0.75;1" values="0;5;0;5;0" keySplines="0.333 0 0.667 1;0.333 0 0.667 1;0.333 0 0.667 1;0.333 0 0.667 1" calcMode="spline"/><animateTransform repeatCount="indefinite" dur="4.004004s" begin="0s" xlink:href="#_R_G_L_8_G" fill="freeze" attributeName="transform" from="-62.023 -14.605" to="-62.023 -14.605" type="translate" additive="sum" keyTimes="0;1" values="-62.023 -14.605;-62.023 -14.605" keySplines="0 0 1 1" calcMode="spline"/><animateTransform repeatCount="indefinite" dur="4.004004s" begin="0s" xlink:href="#_R_G_L_8_G_N_22_T_0" fill="freeze" attributeName="transform" from="0" to="0" type="rotate" additive="sum" keyTimes="0;0.25;0.5;0.75;1" values="0;8;0;5;0" keySplines="0.333 0 0.667 1;0.333 0 0.667 1;0.333 0 0.667 1;0.333 0 0.667 1" calcMode="spline"/><animateTransform repeatCount="indefinite" dur="4.004004s" begin="0s" xlink:href="#_R_G_L_8_G_N_22_T_0" fill="freeze" attributeName="transform" from="-30.704 -53.731" to="-30.704 -53.731" type="translate" additive="sum" keyTimes="0;1" values="-30.704 -53.731;-30.704 -53.731" keySplines="0 0 1 1" calcMode="spline"/><animateTransform repeatCount="indefinite" dur="4.004004s" begin="0s" xlink:href="#_R_G_L_7_G" fill="freeze" attributeName="transform" from="0" to="0" type="rotate" additive="sum" keyTimes="0;0.25;0.5;0.75;1" values="0;-5;-2;-5;0" keySplines="0.333 0 0.667 1;0.333 0 0.667 1;0.333 0 0.667 1;0.333 0 0.667 1" calcMode="spline"/><animateTransform repeatCount="indefinite" dur="4.004004s" begin="0s" xlink:href="#_R_G_L_7_G" fill="freeze" attributeName="transform" from="-63.443 -9.441" to="-63.443 -9.441" type="translate" additive="sum" keyTimes="0;1" values="-63.443 -9.441;-63.443 -9.441" keySplines="0 0 1 1" calcMode="spline"/><animateTransform repeatCount="indefinite" dur="4.004004s" begin="0s" xlink:href="#_R_G_L_7_G_N_22_T_0" fill="freeze" attributeName="transform" from="0" to="0" type="rotate" additive="sum" keyTimes="0;0.25;0.5;0.75;1" values="0;8;0;5;0" keySplines="0.333 0 0.667 1;0.333 0 0.667 1;0.333 0 0.667 1;0.333 0 0.667 1" calcMode="spline"/><animateTransform repeatCount="indefinite" dur="4.004004s" begin="0s" xlink:href="#_R_G_L_7_G_N_22_T_0" fill="freeze" attributeName="transform" from="-30.704 -53.731" to="-30.704 -53.731" type="translate" additive="sum" keyTimes="0;1" values="-30.704 -53.731;-30.704 -53.731" keySplines="0 0 1 1" calcMode="spline"/><animateTransform repeatCount="indefinite" dur="4.004004s" begin="0s" xlink:href="#_R_G_L_6_G" fill="freeze" attributeName="transform" from="-5" to="-5" type="rotate" additive="sum" keyTimes="0;0.25;0.5;0.75;1" values="-5;8;-5;5;-5" keySplines="0.333 0 0.667 1;0.333 0 0.667 1;0.333 0 0.667 1;0.333 0 0.667 1" calcMode="spline"/><animateTransform repeatCount="indefinite" dur="4.004004s" begin="0s" xlink:href="#_R_G_L_6_G" fill="freeze" attributeName="transform" from="-11.652 -35.114" to="-11.652 -35.114" type="translate" additive="sum" keyTimes="0;1" values="-11.652 -35.114;-11.652 -35.114" keySplines="0 0 1 1" calcMode="spline"/><animateTransform repeatCount="indefinite" dur="4.004004s" begin="0s" xlink:href="#_R_G_L_6_G_N_22_T_0" fill="freeze" attributeName="transform" from="0" to="0" type="rotate" additive="sum" keyTimes="0;0.25;0.5;0.75;1" values="0;8;0;5;0" keySplines="0.333 0 0.667 1;0.333 0 0.667 1;0.333 0 0.667 1;0.333 0 0.667 1" calcMode="spline"/><animateTransform repeatCount="indefinite" dur="4.004004s" begin="0s" xlink:href="#_R_G_L_6_G_N_22_T_0" fill="freeze" attributeName="transform" from="-30.704 -53.731" to="-30.704 -53.731" type="translate" additive="sum" keyTimes="0;1" values="-30.704 -53.731;-30.704 -53.731" keySplines="0 0 1 1" calcMode="spline"/><animateTransform repeatCount="indefinite" dur="4.004004s" begin="0s" xlink:href="#_R_G_L_5_G" fill="freeze" attributeName="transform" from="12" to="12" type="rotate" additive="sum" keyTimes="0;0.25;0.5;0.75;1" values="12;-15;15;-12;12" keySplines="0.333 0 0.667 1;0.333 0 0.667 1;0.333 0 0.667 1;0.333 0 0.667 1" calcMode="spline"/><animateTransform repeatCount="indefinite" dur="4.004004s" begin="0s" xlink:href="#_R_G_L_5_G" fill="freeze" attributeName="transform" from="-39.898 -16.236" to="-39.898 -16.236" type="translate" additive="sum" keyTimes="0;1" values="-39.898 -16.236;-39.898 -16.236" keySplines="0 0 1 1" calcMode="spline"/><animateTransform repeatCount="indefinite" dur="4.004004s" begin="0s" xlink:href="#_R_G_L_4_G" fill="freeze" attributeName="transform" from="-3" to="-3" type="rotate" additive="sum" keyTimes="0;0.25;0.5;0.75;1" values="-3;8;-3;8;-3" keySplines="0.333 0 0.667 1;0.333 0 0.667 1;0.333 0 0.667 1;0.333 0 0.667 1" calcMode="spline"/><animateTransform repeatCount="indefinite" dur="4.004004s" begin="0s" xlink:href="#_R_G_L_4_G" fill="freeze" attributeName="transform" from="-13.674 -10.505" to="-13.674 -10.505" type="translate" additive="sum" keyTimes="0;1" values="-13.674 -10.505;-13.674 -10.505" keySplines="0 0 1 1" calcMode="spline"/><animateTransform repeatCount="indefinite" dur="4.004004s" begin="0s" xlink:href="#_R_G_L_4_G_N_8_T_0" fill="freeze" attributeName="transform" from="0" to="0" type="rotate" additive="sum" keyTimes="0;0.25;0.5;0.75;1" values="0;5;2;4;0" keySplines="0.333 0 0.667 1;0.333 0 0.667 1;0.333 0 0.667 1;0.333 0 0.667 1" calcMode="spline"/><animateTransform repeatCount="indefinite" dur="4.004004s" begin="0s" xlink:href="#_R_G_L_4_G_N_8_T_0" fill="freeze" attributeName="transform" from="-1.348 -28.183" to="-1.348 -28.183" type="translate" additive="sum" keyTimes="0;1" values="-1.348 -28.183;-1.348 -28.183" keySplines="0 0 1 1" calcMode="spline"/><animateTransform repeatCount="indefinite" dur="4.004004s" begin="0s" xlink:href="#_R_G_L_4_G_N_8_N_4_T_0" fill="freeze" attributeName="transform" from="0" to="0" type="rotate" additive="sum" keyTimes="0;0.25;0.5;0.75;1" values="0;5;0;5;0" keySplines="0.333 0 0.667 1;0.333 0 0.667 1;0.333 0 0.667 1;0.333 0 0.667 1" calcMode="spline"/><animateTransform repeatCount="indefinite" dur="4.004004s" begin="0s" xlink:href="#_R_G_L_4_G_N_8_N_4_T_0" fill="freeze" attributeName="transform" from="-38.676 -80.439" to="-38.676 -80.439" type="translate" additive="sum" keyTimes="0;1" values="-38.676 -80.439;-38.676 -80.439" keySplines="0 0 1 1" calcMode="spline"/><animateTransform repeatCount="indefinite" dur="4.004004s" begin="0s" xlink:href="#_R_G_L_3_G" fill="freeze" attributeName="transform" from="0" to="0" type="rotate" additive="sum" keyTimes="0;0.25;0.5;0.75;1" values="0;5;2;4;0" keySplines="0.333 0 0.667 1;0.333 0 0.667 1;0.333 0 0.667 1;0.333 0 0.667 1" calcMode="spline"/><animateTransform repeatCount="indefinite" dur="4.004004s" begin="0s" xlink:href="#_R_G_L_3_G" fill="freeze" attributeName="transform" from="-1.348 -28.183" to="-1.348 -28.183" type="translate" additive="sum" keyTimes="0;1" values="-1.348 -28.183;-1.348 -28.183" keySplines="0 0 1 1" calcMode="spline"/><animateTransform repeatCount="indefinite" dur="4.004004s" begin="0s" xlink:href="#_R_G_L_3_G_N_4_T_0" fill="freeze" attributeName="transform" from="0" to="0" type="rotate" additive="sum" keyTimes="0;0.25;0.5;0.75;1" values="0;5;0;5;0" keySplines="0.333 0 0.667 1;0.333 0 0.667 1;0.333 0 0.667 1;0.333 0 0.667 1" calcMode="spline"/><animateTransform repeatCount="indefinite" dur="4.004004s" begin="0s" xlink:href="#_R_G_L_3_G_N_4_T_0" fill="freeze" attributeName="transform" from="-38.676 -80.439" to="-38.676 -80.439" type="translate" additive="sum" keyTimes="0;1" values="-38.676 -80.439;-38.676 -80.439" keySplines="0 0 1 1" calcMode="spline"/><animateTransform repeatCount="indefinite" dur="4.004004s" begin="0s" xlink:href="#_R_G_L_2_G" fill="freeze" attributeName="transform" from="0" to="0" type="rotate" additive="sum" keyTimes="0;0.25;0.5;0.75;1" values="0;-10;0;-10;0" keySplines="0.333 0 0.667 1;0.333 0 0.667 1;0.333 0 0.667 1;0.333 0 0.667 1" calcMode="spline"/><animateTransform repeatCount="indefinite" dur="4.004004s" begin="0s" xlink:href="#_R_G_L_2_G" fill="freeze" attributeName="transform" from="-31.961 -9.223" to="-31.961 -9.223" type="translate" additive="sum" keyTimes="0;1" values="-31.961 -9.223;-31.961 -9.223" keySplines="0 0 1 1" calcMode="spline"/><animateTransform repeatCount="indefinite" dur="4.004004s" begin="0s" xlink:href="#_R_G_L_2_G_N_4_T_0" fill="freeze" attributeName="transform" from="0" to="0" type="rotate" additive="sum" keyTimes="0;0.25;0.5;0.75;1" values="0;5;0;5;0" keySplines="0.333 0 0.667 1;0.333 0 0.667 1;0.333 0 0.667 1;0.333 0 0.667 1" calcMode="spline"/><animateTransform repeatCount="indefinite" dur="4.004004s" begin="0s" xlink:href="#_R_G_L_2_G_N_4_T_0" fill="freeze" attributeName="transform" from="-38.676 -80.439" to="-38.676 -80.439" type="translate" additive="sum" keyTimes="0;1" values="-38.676 -80.439;-38.676 -80.439" keySplines="0 0 1 1" calcMode="spline"/><animateTransform repeatCount="indefinite" dur="4.004004s" begin="0s" xlink:href="#_R_G_L_1_G" fill="freeze" attributeName="transform" from="0" to="0" type="rotate" additive="sum" keyTimes="0;0.25;0.5;0.75;1" values="0;5;0;5;0" keySplines="0.333 0 0.667 1;0.333 0 0.667 1;0.333 0 0.667 1;0.333 0 0.667 1" calcMode="spline"/><animateTransform repeatCount="indefinite" dur="4.004004s" begin="0s" xlink:href="#_R_G_L_1_G" fill="freeze" attributeName="transform" from="-38.676 -80.439" to="-38.676 -80.439" type="translate" additive="sum" keyTimes="0;1" values="-38.676 -80.439;-38.676 -80.439" keySplines="0 0 1 1" calcMode="spline"/><animateTransform repeatCount="indefinite" dur="4.004004s" begin="0s" xlink:href="#_R_G_L_0_G" fill="freeze" attributeName="transform" from="0" to="0" type="rotate" additive="sum" keyTimes="0;0.25;0.5;0.75;1" values="0;2;0;2;0" keySplines="0.333 0 0.667 1;0.333 0 0.667 1;0.333 0 0.667 1;0.333 0 0.667 1" calcMode="spline"/><animateTransform repeatCount="indefinite" dur="4.004004s" begin="0s" xlink:href="#_R_G_L_0_G" fill="freeze" attributeName="transform" from="-0.101 -25.145" to="-0.101 -25.145" type="translate" additive="sum" keyTimes="0;1" values="-0.101 -25.145;-0.101 -25.145" keySplines="0 0 1 1" calcMode="spline"/><animate attributeType="XML" attributeName="opacity" dur="4s" from="0" to="1" xlink:href="#time_group"/></defs><g id="_R_G"><g id="_R_G_L_16_G" transform=" translate(206.627, 237.995) translate(-174.633, -155.611)"><path id="_R_G_L_16_G_D_0_P_0" fill="#cbe0c6" fill-opacity="1" fill-rule="nonzero" d=" M128.56 34.79 C128.56,34.79 19.21,34.79 19.21,34.79 C15.39,34.79 12.3,31.69 12.3,27.87 C12.3,27.87 12.3,7.16 12.3,7.16 C12.3,3.35 15.39,0.25 19.21,0.25 C19.21,0.25 128.56,0.25 128.56,0.25 C132.37,0.25 135.47,3.35 135.47,7.16 C135.47,7.16 135.47,27.87 135.47,27.87 C135.47,31.69 132.37,34.79 128.56,34.79z "/><path id="_R_G_L_16_G_D_1_P_0" fill="#70a665" fill-opacity="1" fill-rule="nonzero" d=" M27.71 20.27 C27.71,20.27 27.71,22.46 27.71,22.46 C27.71,23.6 26.95,24.36 25.62,24.36 C24.29,24.36 23.53,23.6 23.53,22.46 C23.53,22.46 23.53,12.58 23.53,12.58 C23.53,11.44 24.29,10.68 25.62,10.68 C26.95,10.68 27.71,11.44 27.71,12.58 C27.71,12.58 27.71,15.24 27.71,15.24 C27.71,15.24 31.89,11.25 31.89,11.25 C31.89,11.25 32.46,10.68 33.41,10.68 C34.55,10.68 35.31,11.44 35.31,12.58 C35.31,13.53 34.55,14.1 34.55,14.1 C34.55,14.1 31.89,16.66 31.89,16.66 C31.89,16.66 35.12,20.75 35.12,20.75 C35.12,20.75 35.88,21.7 35.88,22.46 C35.88,23.6 35.12,24.36 33.79,24.36 C32.75,24.36 31.99,23.41 31.99,23.41 C31.99,23.41 28.76,19.32 28.76,19.32 C28.76,19.32 27.71,20.27 27.71,20.27z "/><path id="_R_G_L_16_G_D_2_P_0" fill="#70a665" fill-opacity="1" fill-rule="nonzero" d=" M41.3 14.67 C41.3,14.67 41.3,15.81 41.3,15.81 C41.3,15.81 44.91,15.81 44.91,15.81 C46.05,15.81 46.81,16.57 46.81,17.52 C46.81,18.47 46.05,19.23 44.91,19.23 C44.91,19.23 41.3,19.23 41.3,19.23 C41.3,19.23 41.3,20.37 41.3,20.37 C41.3,20.37 46.62,20.37 46.62,20.37 C47.95,20.37 48.71,21.13 48.71,22.27 C48.71,23.41 47.95,24.17 46.62,24.17 C46.62,24.17 39.21,24.17 39.21,24.17 C37.88,24.17 37.12,23.41 37.12,22.27 C37.12,22.27 37.12,12.77 37.12,12.77 C37.12,11.63 37.88,10.87 39.21,10.87 C39.21,10.87 46.43,10.87 46.43,10.87 C47.76,10.87 48.52,11.63 48.52,12.77 C48.52,13.91 47.76,14.67 46.43,14.67 C46.43,14.67 41.3,14.67 41.3,14.67z "/><path id="_R_G_L_16_G_D_3_P_0" fill="#70a665" fill-opacity="1" fill-rule="nonzero" d=" M55.45 15.24 C55.45,15.24 57.92,11.63 57.92,11.63 C57.92,11.63 58.59,10.68 59.63,10.68 C61.06,10.68 61.82,11.44 61.82,12.58 C61.82,13.34 61.06,14.29 61.06,14.29 C61.06,14.29 57.45,19.42 57.45,19.42 C57.45,19.42 57.45,22.46 57.45,22.46 C57.45,23.6 56.69,24.36 55.36,24.36 C54.03,24.36 53.27,23.6 53.27,22.46 C53.27,22.46 53.27,19.42 53.27,19.42 C53.27,19.42 49.66,14.29 49.66,14.29 C49.66,14.29 48.9,13.34 48.9,12.58 C48.9,11.44 49.66,10.68 51.08,10.68 C52.13,10.68 52.79,11.63 52.79,11.63 C52.79,11.63 55.26,15.24 55.26,15.24 C55.26,15.24 55.45,15.24 55.45,15.24z "/><path id="_R_G_L_16_G_D_4_P_0" fill="#70a665" fill-opacity="1" fill-rule="nonzero" d=" M72.46 17.33 C72.46,17.33 71.41,22.27 71.41,22.27 C71.05,23.6 70.08,24.55 68.18,24.55 C66.28,24.55 65.31,23.6 64.95,22.27 C64.95,22.27 62.77,14.29 62.77,14.29 C62.77,14.29 62.39,13.15 62.39,12.58 C62.39,11.53 63.24,10.68 64.48,10.68 C65.81,10.68 66.57,11.44 66.85,12.58 C66.85,12.58 68.37,18.85 68.37,18.85 C68.37,18.85 68.56,18.85 68.56,18.85 C68.56,18.85 69.8,12.96 69.8,12.96 C70.1,11.53 70.94,10.68 72.55,10.68 C74.17,10.68 75,11.53 75.31,12.96 C75.31,12.96 76.54,18.85 76.54,18.85 C76.54,18.85 76.73,18.85 76.73,18.85 C76.73,18.85 78.25,12.58 78.25,12.58 C78.54,11.44 79.3,10.68 80.63,10.68 C81.86,10.68 82.72,11.53 82.72,12.58 C82.72,13.15 82.34,14.29 82.34,14.29 C82.34,14.29 80.15,22.27 80.15,22.27 C79.79,23.6 78.82,24.55 76.92,24.55 C75.02,24.55 74.05,23.6 73.69,22.27 C73.69,22.27 72.65,17.33 72.65,17.33 C72.65,17.33 72.46,17.33 72.46,17.33z "/><path id="_R_G_L_16_G_D_5_P_0" fill="#70a665" fill-opacity="1" fill-rule="nonzero" d=" M96.4 18.85 C96.4,22.08 93.93,24.55 90.03,24.55 C86.14,24.55 83.67,22.08 83.67,18.85 C83.67,18.85 83.67,16.19 83.67,16.19 C83.67,12.96 86.14,10.49 90.03,10.49 C93.93,10.49 96.4,12.96 96.4,16.19 C96.4,16.19 96.4,18.85 96.4,18.85z  M92.12 16.19 C92.12,14.67 91.17,13.72 90.03,13.72 C88.89,13.72 87.94,14.67 87.94,16.19 C87.94,16.19 87.94,18.85 87.94,18.85 C87.94,20.37 88.89,21.32 90.03,21.32 C91.17,21.32 92.12,20.37 92.12,18.85 C92.12,18.85 92.12,16.19 92.12,16.19z "/><path id="_R_G_L_16_G_D_6_P_0" fill="#70a665" fill-opacity="1" fill-rule="nonzero" d=" M102.57 19.42 C102.57,19.42 102.57,22.46 102.57,22.46 C102.57,23.6 101.81,24.36 100.48,24.36 C99.15,24.36 98.39,23.6 98.39,22.46 C98.39,22.46 98.39,12.77 98.39,12.77 C98.39,11.63 99.15,10.87 100.48,10.87 C100.48,10.87 104.47,10.87 104.47,10.87 C108.46,10.87 110.17,12.58 110.17,15.14 C110.17,17.52 108.08,18.28 108.08,18.28 C108.08,18.28 108.08,18.47 108.08,18.47 C108.08,18.47 109.98,20.75 109.98,20.75 C109.98,20.75 110.74,21.7 110.74,22.46 C110.74,23.6 109.98,24.36 108.46,24.36 C107.51,24.36 106.75,23.41 106.75,23.41 C106.75,23.41 103.71,19.42 103.71,19.42 C103.71,19.42 102.57,19.42 102.57,19.42z  M104.47 16.19 C105.33,16.19 105.8,15.71 105.8,15.14 C105.8,14.57 105.33,14.1 104.47,14.1 C104.47,14.1 102.57,14.1 102.57,14.1 C102.57,14.1 102.57,16.19 102.57,16.19 C102.57,16.19 104.47,16.19 104.47,16.19z "/><path id="_R_G_L_16_G_D_7_P_0" fill="#70a665" fill-opacity="1" fill-rule="nonzero" d=" M124.23 18.47 C124.23,21.7 121.76,24.17 117.68,24.17 C117.68,24.17 114.35,24.17 114.35,24.17 C113.02,24.17 112.26,23.41 112.26,22.27 C112.26,22.27 112.26,12.77 112.26,12.77 C112.26,11.63 113.02,10.87 114.35,10.87 C114.35,10.87 117.68,10.87 117.68,10.87 C121.76,10.87 124.23,13.34 124.23,16.57 C124.23,16.57 124.23,18.47 124.23,18.47z  M116.44 14.29 C116.44,14.29 116.44,20.75 116.44,20.75 C116.44,20.75 117.68,20.75 117.68,20.75 C119.01,20.75 119.96,19.8 119.96,18.47 C119.96,18.47 119.96,16.57 119.96,16.57 C119.96,15.24 119.01,14.29 117.68,14.29 C117.68,14.29 116.44,14.29 116.44,14.29z "/><path id="_R_G_L_16_G_D_8_P_0" fill="#cbe0c6" fill-opacity="1" fill-rule="nonzero" d=" M273.58 73.09 C273.58,73.09 273.58,89.15 273.58,89.15 C273.58,93 270.46,96.13 266.6,96.13 C266.6,96.13 60.13,96.13 60.13,96.13 C56.27,96.13 53.15,93 53.15,89.15 C53.15,89.15 53.15,73.09 53.15,73.09 C53.15,69.23 56.27,66.11 60.13,66.11 C60.13,66.11 266.6,66.11 266.6,66.11 C270.46,66.11 273.58,69.23 273.58,73.09z "/><path id="_R_G_L_16_G_D_9_P_0" fill="#70a665" fill-opacity="1" fill-rule="nonzero" d=" M85.42 66.11 C85.42,66.11 85.42,96.13 85.42,96.13 C85.42,96.13 60.13,96.13 60.13,96.13 C56.27,96.13 53.15,93 53.15,89.15 C53.15,89.15 53.15,73.09 53.15,73.09 C53.15,69.23 56.27,66.11 60.13,66.11 C60.13,66.11 85.42,66.11 85.42,66.11z "/><path id="_R_G_L_16_G_D_10_P_0" fill="#ffffff" fill-opacity="1" fill-rule="nonzero" d=" M96.1 81.85 C95.91,81.85 95.75,81.7 95.75,81.5 C95.75,81.3 95.91,81.14 96.1,81.14 C96.1,81.14 237.83,80.76 237.83,80.76 C238.03,80.76 238.19,80.92 238.19,81.12 C238.19,81.31 238.03,81.47 237.83,81.47 C237.83,81.47 96.11,81.85 96.11,81.85 C96.11,81.85 96.1,81.85 96.1,81.85z "/><path id="_R_G_L_16_G_D_11_P_0" stroke="#ffffff" stroke-linecap="round" stroke-linejoin="round" fill="none" stroke-width="1" stroke-opacity="1" d=" M96.1 81.85 C95.91,81.85 95.75,81.7 95.75,81.5 C95.75,81.3 95.91,81.14 96.1,81.14 C96.1,81.14 237.83,80.76 237.83,80.76 C238.03,80.76 238.19,80.92 238.19,81.12 C238.19,81.31 238.03,81.47 237.83,81.47 C237.83,81.47 96.11,81.85 96.11,81.85 C96.11,81.85 96.1,81.85 96.1,81.85z "/><path id="_R_G_L_16_G_D_12_P_0" fill="#ffffff" fill-opacity="1" fill-rule="nonzero" d=" M68.49 86.64 C64.59,86.64 61.41,83.46 61.41,79.56 C61.41,75.65 64.59,72.47 68.49,72.47 C72.4,72.47 75.58,75.65 75.58,79.56 C75.58,83.46 72.4,86.64 68.49,86.64z  M68.49 73.19 C64.98,73.19 62.12,76.04 62.12,79.56 C62.12,83.07 64.98,85.93 68.49,85.93 C72.01,85.93 74.86,83.07 74.86,79.56 C74.86,76.04 72.01,73.19 68.49,73.19z "/><path id="_R_G_L_16_G_D_13_P_0" stroke="#ffffff" stroke-linecap="round" stroke-linejoin="round" fill="none" stroke-width="1" stroke-opacity="1" d=" M68.49 86.64 C64.59,86.64 61.41,83.46 61.41,79.56 C61.41,75.65 64.59,72.47 68.49,72.47 C72.4,72.47 75.58,75.65 75.58,79.56 C75.58,83.46 72.4,86.64 68.49,86.64z  M68.49 73.19 C64.98,73.19 62.12,76.04 62.12,79.56 C62.12,83.07 64.98,85.93 68.49,85.93 C72.01,85.93 74.86,83.07 74.86,79.56 C74.86,76.04 72.01,73.19 68.49,73.19z "/><path id="_R_G_L_16_G_D_14_P_0" fill="#ffffff" fill-opacity="1" fill-rule="nonzero" d=" M75.22 89.69 C75.12,89.69 75.01,89.64 74.94,89.55 C74.94,89.55 71.79,85.47 71.79,85.47 C71.67,85.31 71.7,85.09 71.85,84.96 C72.01,84.84 72.23,84.87 72.35,85.03 C72.35,85.03 75.5,89.11 75.5,89.11 C75.62,89.27 75.6,89.49 75.44,89.61 C75.38,89.66 75.3,89.69 75.22,89.69z "/><path id="_R_G_L_16_G_D_15_P_0" stroke="#ffffff" stroke-linecap="round" stroke-linejoin="round" fill="none" stroke-width="1" stroke-opacity="1" d=" M75.22 89.69 C75.12,89.69 75.01,89.64 74.94,89.55 C74.94,89.55 71.79,85.47 71.79,85.47 C71.67,85.31 71.7,85.09 71.85,84.96 C72.01,84.84 72.23,84.87 72.35,85.03 C72.35,85.03 75.5,89.11 75.5,89.11 C75.62,89.27 75.6,89.49 75.44,89.61 C75.38,89.66 75.3,89.69 75.22,89.69z "/><path id="_R_G_L_16_G_D_16_P_0" fill="#cbe0c6" fill-opacity="1" fill-rule="nonzero" d=" M213.05 217.88 C213.05,217.88 164.95,217.88 164.95,217.88 C162.92,217.88 161.26,216.23 161.26,214.19 C161.26,214.19 161.26,143.72 161.26,143.72 C161.26,141.69 162.92,140.03 164.95,140.03 C164.95,140.03 213.05,140.03 213.05,140.03 C215.08,140.03 216.74,141.69 216.74,143.72 C216.74,143.72 216.74,214.19 216.74,214.19 C216.74,216.23 215.08,217.88 213.05,217.88z  M164.95 140.75 C163.31,140.75 161.98,142.08 161.98,143.72 C161.98,143.72 161.98,214.19 161.98,214.19 C161.98,215.83 163.31,217.17 164.95,217.17 C164.95,217.17 213.05,217.17 213.05,217.17 C214.69,217.17 216.02,215.83 216.02,214.19 C216.02,214.19 216.02,143.72 216.02,143.72 C216.02,142.08 214.69,140.75 213.05,140.75 C213.05,140.75 164.95,140.75 164.95,140.75z "/><path id="_R_G_L_16_G_D_17_P_0" fill="#cbe0c6" fill-opacity="1" fill-rule="nonzero" d=" M158.6 223.25 C158.6,223.25 206.69,223.25 206.69,223.25 C208.53,223.25 210.02,221.75 210.02,219.91 C210.02,219.91 210.02,149.44 210.02,149.44 C210.02,147.6 208.53,146.11 206.69,146.11 C206.69,146.11 158.6,146.11 158.6,146.11 C156.76,146.11 155.27,147.6 155.27,149.44 C155.27,149.44 155.27,219.91 155.27,219.91 C155.27,221.75 156.76,223.25 158.6,223.25z "/><path id="_R_G_L_16_G_D_18_P_0" fill="#70a665" fill-opacity="1" fill-rule="nonzero" d=" M8.36 301.5 C8.36,301.5 56.93,301.5 56.93,301.5 C61.41,301.5 65.05,297.86 65.05,293.38 C65.05,293.38 65.05,234.46 65.05,234.46 C65.05,229.97 61.41,226.34 56.93,226.34 C56.93,226.34 8.36,226.34 8.36,226.34 C3.88,226.34 0.25,229.97 0.25,234.46 C0.25,234.46 0.25,293.38 0.25,293.38 C0.25,297.86 3.88,301.5 8.36,301.5z "/><path id="_R_G_L_16_G_D_19_P_0" fill="#cbe0c6" fill-opacity="1" fill-rule="nonzero" d=" M13.25 301.5 C13.25,301.5 61.81,301.5 61.81,301.5 C66.3,301.5 69.93,297.86 69.93,293.38 C69.93,293.38 69.93,234.46 69.93,234.46 C69.93,229.97 66.3,226.34 61.81,226.34 C61.81,226.34 13.25,226.34 13.25,226.34 C8.77,226.34 5.13,229.97 5.13,234.46 C5.13,234.46 5.13,293.38 5.13,293.38 C5.13,297.86 8.77,301.5 13.25,301.5z "/><path id="_R_G_L_16_G_D_20_P_0" fill="#cbe0c6" fill-opacity="1" fill-rule="nonzero" d=" M123.16 144.62 C123.16,144.62 111.18,144.62 111.18,144.62 C110.53,144.62 110,144.09 110,143.44 C110,143.44 110,131.46 110,131.46 C110,130.81 110.53,130.28 111.18,130.28 C111.18,130.28 123.16,130.28 123.16,130.28 C123.81,130.28 124.34,130.81 124.34,131.46 C124.34,131.46 124.34,143.44 124.34,143.44 C124.34,144.09 123.81,144.62 123.16,144.62z "/><path id="_R_G_L_16_G_D_21_P_0" fill="#cbe0c6" fill-opacity="1" fill-rule="nonzero" d=" M123.16 162.95 C123.16,162.95 111.18,162.95 111.18,162.95 C110.53,162.95 110,162.42 110,161.76 C110,161.76 110,149.79 110,149.79 C110,149.14 110.53,148.6 111.18,148.6 C111.18,148.6 123.16,148.6 123.16,148.6 C123.81,148.6 124.34,149.14 124.34,149.79 C124.34,149.79 124.34,161.76 124.34,161.76 C124.34,162.42 123.81,162.95 123.16,162.95z "/><path id="_R_G_L_16_G_D_22_P_0" fill="#cbe0c6" fill-opacity="1" fill-rule="nonzero" d=" M123.16 181.28 C123.16,181.28 111.18,181.28 111.18,181.28 C110.53,181.28 110,180.74 110,180.09 C110,180.09 110,168.12 110,168.12 C110,167.46 110.53,166.93 111.18,166.93 C111.18,166.93 123.16,166.93 123.16,166.93 C123.81,166.93 124.34,167.46 124.34,168.12 C124.34,168.12 124.34,180.09 124.34,180.09 C124.34,180.74 123.81,181.28 123.16,181.28z "/><path id="_R_G_L_16_G_D_23_P_0" fill="#ffffff" fill-opacity="1" fill-rule="nonzero" d=" M117.02 161.14 C117.02,161.14 111.51,156.46 111.51,156.46 C111.51,156.46 113.23,154.43 113.23,154.43 C113.23,154.43 116.59,157.29 116.59,157.29 C116.59,157.29 120.91,151.54 120.91,151.54 C120.91,151.54 123.04,153.14 123.04,153.14 C123.04,153.14 117.02,161.14 117.02,161.14z "/><path id="_R_G_L_16_G_D_24_P_0" fill="#ffffff" fill-opacity="1" fill-rule="nonzero" d=" M117.02 179.47 C117.02,179.47 111.51,174.78 111.51,174.78 C111.51,174.78 113.23,172.76 113.23,172.76 C113.23,172.76 116.59,175.61 116.59,175.61 C116.59,175.61 120.91,169.87 120.91,169.87 C120.91,169.87 123.04,171.47 123.04,171.47 C123.04,171.47 117.02,179.47 117.02,179.47z "/><path id="_R_G_L_16_G_D_25_P_0" fill="#ff9a7d" fill-opacity="1" fill-rule="nonzero" d=" M75.79 274.1 C75.79,274.1 79.66,287.25 79.66,287.25 C79.66,287.25 96.1,284.45 96.1,284.45 C96.1,284.45 92.34,272.18 92.34,272.18 C92.34,272.18 75.79,274.1 75.79,274.1z "/><path id="_R_G_L_16_G_D_26_P_0" fill="#ff9a7d" fill-opacity="1" fill-rule="nonzero" d=" M50.15 271.72 C50.15,271.72 48.36,286.75 48.36,286.75 C48.36,286.75 64.8,289.9 64.8,289.9 C64.8,289.9 66.33,275.83 66.33,275.83 C66.33,275.83 50.15,271.72 50.15,271.72z "/><path id="_R_G_L_16_G_D_27_P_0" fill="#041126" fill-opacity="1" fill-rule="nonzero" d=" M81.21 299.71 C80.01,299.78 78.95,298.84 78.8,297.55 C78.23,292.48 76.34,281.19 77.26,281.08 C78.44,280.95 90.66,282.86 90.66,282.86 C90.66,282.86 90.21,275.79 95.24,276.51 C99.1,277.06 103.95,281.04 105.99,282.86 C106.64,283.44 107.43,283.81 108.26,283.92 C111.85,284.4 121.79,286.2 122.51,291.34 C123.38,297.63 120.77,297.19 119.59,297.32 C118.57,297.44 89.44,299.21 81.21,299.71z "/><path id="_R_G_L_16_G_D_28_P_0" fill="#faab00" fill-opacity="1" fill-rule="nonzero" d=" M96.76 274.84 C96.76,274.84 72.11,277.65 72.11,277.65 C72.11,277.65 30.37,199.84 30.37,199.84 C30.37,199.84 32.65,199.54 32.65,199.54 C32.65,199.54 50.38,197.22 50.38,197.22 C50.38,197.22 53.81,197.41 58.67,197.9 C68.19,198.86 83.22,200.96 88.47,205.01 C96.34,211.08 96.76,274.84 96.76,274.84z "/><path id="_R_G_L_16_G_D_29_P_0" fill="#faab00" fill-opacity="1" fill-rule="nonzero" d=" M58.67 197.9 C58.67,197.9 45.7,202.45 45.7,202.45 C45.7,202.45 32.65,199.54 32.65,199.54 C32.65,199.54 50.38,197.22 50.38,197.22 C50.38,197.22 53.81,197.42 58.67,197.9z "/><path id="_R_G_L_16_G_D_30_P_0" fill="#ff9a7d" fill-opacity="1" fill-rule="nonzero" d=" M288.44 272.38 C288.44,272.38 288.44,282.83 288.44,282.83 C288.44,282.83 268.38,282.09 268.38,282.09 C268.38,282.09 268.38,272.38 268.38,272.38 C268.38,272.38 288.44,272.38 288.44,272.38z "/><path id="_R_G_L_16_G_D_31_P_0" fill="#ff9a7d" fill-opacity="1" fill-rule="nonzero" d=" M337.79 271.2 C337.79,271.2 337.79,281.65 337.79,281.65 C337.79,281.65 319.21,280.92 319.21,280.92 C319.21,280.92 319.21,271.2 319.21,271.2 C319.21,271.2 337.79,271.2 337.79,271.2z "/><path id="_R_G_L_16_G_D_32_P_0" fill="#041126" fill-opacity="1" fill-rule="nonzero" d=" M314.6 298.93 C314.6,300.78 315.23,302.89 316.53,303.42 C317.82,303.95 328.29,305.06 337.46,304.28 C346.23,303.52 348.05,302.89 348.7,302.11 C349.02,301.71 348.4,299.86 347.69,298.08 C347.65,297.99 347.62,297.89 347.57,297.8 C347.21,296.9 346.83,296.03 346.56,295.41 C346.29,294.82 345.96,294.26 345.57,293.71 C344.62,292.43 342.74,289.77 342.26,288.4 C341.63,286.57 340.66,282.61 340.02,280.75 C339.37,278.92 337.79,278.54 337.79,278.54 C337.79,278.54 319.75,277.33 318.45,278.39 C317.17,279.44 316.53,288.15 316.53,289.46 C316.53,289.46 316.53,290.77 316.53,290.77 C316.53,292 315.67,294.42 315.11,296.42 C314.96,296.93 314.84,297.4 314.75,297.83 C314.66,298.25 314.6,298.62 314.6,298.93z "/><path id="_R_G_L_16_G_D_33_P_0" fill="#041126" fill-opacity="1" fill-rule="nonzero" d=" M234.58 302.7 C235.79,303.18 287,304.56 288.19,302.7 C288.55,302.14 288.81,300.23 288.97,297.84 C289.39,292.2 289.39,283.82 289.39,283.82 C289.39,283.82 289.77,280.96 289.69,279.63 C289.63,278.32 265,278.82 265,278.82 C265,278.82 249.15,289.08 249.15,289.08 C249.15,289.08 244.59,290.43 239.79,291.2 C237.25,291.6 235.61,294.65 234.79,297.53 C234.07,300.08 234.01,302.46 234.58,302.7z "/><path id="_R_G_L_16_G_D_34_P_0" fill="#faab00" fill-opacity="1" fill-rule="nonzero" d=" M260.02 275.65 C260.02,275.65 294.16,275.65 294.16,275.65 C294.16,275.65 295.05,254 298.81,236.29 C302.04,221.05 306.54,209.27 307.73,206.29 C307.92,205.8 308.03,205.55 308.03,205.55 C308.03,205.55 311.71,275.65 311.71,275.65 C311.71,275.65 345.78,275.65 345.78,275.65 C345.78,275.65 339.53,173.9 333.46,158.71 C328.53,146.35 301.36,155.73 301.36,155.73 C301.36,155.73 294.92,162.5 287.29,174.29 C280.79,184.31 273.44,197.96 268.45,214.15 C260.14,241.09 260.02,275.65 260.02,275.65z "/><path id="_R_G_L_16_G_D_35_P_0" fill="#041126" fill-opacity="1" fill-rule="nonzero" d=" M308.03 205.91 C307.83,205.91 307.67,205.75 307.67,205.55 C307.67,205.55 307.38,181.55 307.38,181.55 C307.38,181.55 298.7,178.21 298.7,178.21 C298.51,178.14 298.42,177.93 298.49,177.75 C298.56,177.56 298.77,177.47 298.95,177.54 C298.95,177.54 307.86,180.97 307.86,180.97 C308,181.03 308.09,181.16 308.09,181.3 C308.09,181.3 308.38,205.55 308.38,205.55 C308.39,205.74 308.23,205.9 308.03,205.91 C308.03,205.91 308.03,205.91 308.03,205.91z "/><path id="_R_G_L_16_G_D_36_P_0" fill="#faab00" fill-opacity="1" fill-rule="nonzero" d=" M260.02 275.65 C260.02,275.65 294.16,275.65 294.16,275.65 C294.16,275.65 295.05,254 298.81,236.29 C302.04,221.05 306.54,209.27 307.73,206.29 C307.73,206.29 307.73,181.31 307.73,181.31 C307.73,181.31 287.29,174.29 287.29,174.29 C280.79,184.31 273.44,197.96 268.45,214.15 C260.14,241.09 260.02,275.65 260.02,275.65z "/><path id="_R_G_L_16_G_D_37_P_0" fill="#faab00" fill-opacity="1" fill-rule="nonzero" d=" M15.48 196.35 C15.48,196.35 11.91,219.05 18.81,224.5 C26.49,230.56 46.34,228.18 46.45,229.16 C46.56,230.13 41.69,273.15 41.69,273.15 C41.69,273.15 73.71,279.13 73.71,279.13 C73.71,279.13 85.75,220.48 79.56,210.25 C73.36,200.01 46.92,199.83 46.92,199.83 C46.92,199.83 15.48,196.35 15.48,196.35z "/><path id="_R_G_L_16_G_D_38_P_0" fill="#041126" fill-opacity="1" fill-rule="nonzero" d=" M73.71 279.49 C73.69,279.49 73.67,279.49 73.65,279.48 C73.46,279.45 73.33,279.26 73.36,279.07 C73.47,278.5 83.57,221.69 79.62,211.26 C75.73,200.98 51.54,200.7 51.3,200.7 C51.12,200.7 50.97,200.56 50.95,200.39 C50.92,200.21 51.04,200.04 51.21,200 C51.21,200 56.89,198.52 56.89,198.52 C57.08,198.47 57.28,198.59 57.33,198.78 C57.38,198.97 57.26,199.16 57.07,199.21 C57.07,199.21 53.76,200.07 53.76,200.07 C60.17,200.42 76.94,202.17 80.29,211.01 C84.3,221.62 74.49,276.85 74.07,279.19 C74.03,279.37 73.88,279.49 73.71,279.49z "/><path id="_R_G_L_16_G_D_39_P_0" fill="#041126" fill-opacity="1" fill-rule="nonzero" d=" M44.17 295.47 C43.04,295.04 42.47,293.74 42.87,292.51 C44.44,287.66 47.38,276.58 48.27,276.87 C49.4,277.24 59.73,284.02 59.73,284.02 C59.73,284.02 62.24,277.4 66.53,280.12 C69.82,282.22 72.59,287.84 73.7,290.35 C74.05,291.15 74.61,291.8 75.33,292.25 C78.4,294.17 86.71,299.91 85.24,304.89 C83.44,310.97 81.24,309.5 80.11,309.13 C79.14,308.82 51.88,298.41 44.17,295.47z "/></g><g id="_R_G_L_15_G" transform=" translate(221.803, 279.243)"><path id="_R_G_L_15_G_D_0_P_0" fill="#70a665" fill-opacity="1" fill-rule="nonzero" d=" M15.28 12.15 C15.57,11.65 15.8,11.1 15.97,10.52 C16.15,9.91 16.25,9.29 16.28,8.68 C16.28,8.68 15.2,8.35 15.2,8.35 C15.2,8.35 15.01,6.61 15.01,6.61 C15.01,6.61 16,6.1 16,6.1 C15.67,4.94 15.09,3.86 14.3,2.96 C14.3,2.96 13.21,3.51 13.21,3.51 C13.21,3.51 11.87,2.4 11.87,2.4 C11.87,2.4 12.25,1.28 12.25,1.28 C11.71,0.98 11.14,0.73 10.53,0.55 C9.97,0.39 9.41,0.29 8.85,0.25 C8.85,0.25 8.49,1.48 8.49,1.48 C8.49,1.48 6.76,1.69 6.76,1.69 C6.76,1.69 6.14,0.52 6.14,0.52 C4.99,0.83 3.92,1.4 3.01,2.18 C3.01,2.18 3.64,3.26 3.64,3.26 C3.64,3.26 2.53,4.62 2.53,4.62 C2.53,4.62 1.29,4.27 1.29,4.27 C0.99,4.8 0.74,5.38 0.56,5.99 C0.39,6.58 0.29,7.16 0.25,7.74 C0.25,7.74 1.5,8.12 1.5,8.12 C1.5,8.12 1.7,9.86 1.7,9.86 C1.7,9.86 0.54,10.46 0.54,10.46 C0.87,11.61 1.45,12.67 2.24,13.57 C2.24,13.57 3.47,12.87 3.47,12.87 C3.47,12.87 4.81,13.99 4.81,13.99 C4.81,13.99 4.43,15.31 4.43,15.31 C4.92,15.58 5.44,15.8 6,15.96 C6.62,16.14 7.24,16.24 7.85,16.27 C7.85,16.27 8.16,15.04 8.16,15.04 C8.16,15.04 9.89,14.83 9.89,14.83 C9.89,14.83 10.54,15.96 10.54,15.96 C11.69,15.61 12.76,15.02 13.65,14.21 C13.65,14.21 13.07,13.2 13.07,13.2 C13.07,13.2 14.17,11.84 14.17,11.84 C14.17,11.84 15.28,12.15 15.28,12.15z  M7.17 12 C5.1,11.39 3.92,9.22 4.52,7.16 C5.13,5.09 7.3,3.91 9.36,4.52 C11.43,5.12 12.61,7.29 12,9.35 C11.4,11.42 9.23,12.6 7.17,12z "/></g><g id="_R_G_L_14_G" transform=" translate(212.997, 260.486)"><path id="_R_G_L_14_G_D_0_P_0" fill="#ffffff" fill-opacity="1" fill-rule="nonzero" d=" M27.16 16.86 C27.37,15.89 27.49,14.89 27.49,13.87 C27.49,12.78 27.36,11.73 27.12,10.72 C27.12,10.72 25.2,10.7 25.2,10.7 C25.2,10.7 24.05,7.96 24.05,7.96 C24.05,7.96 25.42,6.66 25.42,6.66 C24.34,4.92 22.88,3.45 21.15,2.36 C21.15,2.36 19.66,3.78 19.66,3.78 C19.66,3.78 16.93,2.62 16.93,2.62 C16.93,2.62 17.02,0.62 17.02,0.62 C16.01,0.38 14.95,0.25 13.87,0.25 C12.88,0.25 11.92,0.36 10.99,0.56 C10.99,0.56 10.99,2.73 10.99,2.73 C10.99,2.73 8.28,3.9 8.28,3.9 C8.28,3.9 6.71,2.28 6.71,2.28 C4.99,3.35 3.52,4.79 2.42,6.49 C2.42,6.49 3.95,7.95 3.95,7.95 C3.95,7.95 2.8,10.69 2.8,10.69 C2.8,10.69 0.62,10.71 0.62,10.71 C0.38,11.72 0.25,12.78 0.25,13.87 C0.25,14.9 0.36,15.9 0.58,16.86 C0.58,16.86 2.8,16.89 2.8,16.89 C2.8,16.89 3.95,19.63 3.95,19.63 C3.95,19.63 2.35,21.14 2.35,21.14 C3.44,22.86 4.89,24.31 6.61,25.39 C6.61,25.39 8.28,23.67 8.28,23.67 C8.28,23.67 10.99,24.85 10.99,24.85 C10.99,24.85 10.99,27.18 10.99,27.18 C11.92,27.38 12.88,27.49 13.87,27.49 C14.95,27.49 16.01,27.36 17.03,27.12 C17.03,27.12 16.93,24.95 16.93,24.95 C16.93,24.95 19.66,23.79 19.66,23.79 C19.66,23.79 21.26,25.31 21.26,25.31 C22.97,24.2 24.42,22.72 25.48,20.98 C25.48,20.98 24.05,19.62 24.05,19.62 C24.05,19.62 25.2,16.88 25.2,16.88 C25.2,16.88 27.16,16.86 27.16,16.86z  M13.87 20.48 C10.22,20.48 7.26,17.52 7.26,13.87 C7.26,10.22 10.22,7.26 13.87,7.26 C17.52,7.26 20.48,10.22 20.48,13.87 C20.48,17.52 17.52,20.48 13.87,20.48z "/></g><g id="_R_G_L_13_G" transform=" translate(180.67, 310)"><path id="_R_G_L_13_G_D_0_P_0" fill="#70a665" fill-opacity="1" fill-rule="nonzero" d=" M56.41 2.5 C56.41,2.5 6,2.5 6,2.5 C4.07,2.5 2.5,4.07 2.5,6.01 C2.5,6.01 2.5,46.9 2.5,46.9 C2.5,48.83 4.07,50.4 6,50.4 C6,50.4 56.41,50.4 56.41,50.4 C58.35,50.4 59.92,48.83 59.92,46.9 C59.92,46.9 59.92,6.01 59.92,6.01 C59.92,4.07 58.35,2.5 56.41,2.5z  M59.2 46.9 C59.2,48.44 57.95,49.69 56.41,49.69 C56.41,49.69 6,49.69 6,49.69 C4.46,49.69 3.21,48.44 3.21,46.9 C3.21,46.9 3.21,6.01 3.21,6.01 C3.21,4.47 4.46,3.22 6,3.22 C6,3.22 56.41,3.22 56.41,3.22 C57.95,3.22 59.2,4.47 59.2,6.01 C59.2,6.01 59.2,46.9 59.2,46.9z "/><path id="_R_G_L_13_G_D_1_P_0" stroke="#70a665" stroke-linecap="round" stroke-linejoin="round" fill="none" stroke-width="1" stroke-opacity="1" d=" M56.41 2.5 C56.41,2.5 6,2.5 6,2.5 C4.07,2.5 2.5,4.07 2.5,6.01 C2.5,6.01 2.5,46.9 2.5,46.9 C2.5,48.83 4.07,50.4 6,50.4 C6,50.4 56.41,50.4 56.41,50.4 C58.35,50.4 59.92,48.83 59.92,46.9 C59.92,46.9 59.92,6.01 59.92,6.01 C59.92,4.07 58.35,2.5 56.41,2.5z  M59.2 46.9 C59.2,48.44 57.95,49.69 56.41,49.69 C56.41,49.69 6,49.69 6,49.69 C4.46,49.69 3.21,48.44 3.21,46.9 C3.21,46.9 3.21,6.01 3.21,6.01 C3.21,4.47 4.46,3.22 6,3.22 C6,3.22 56.41,3.22 56.41,3.22 C57.95,3.22 59.2,4.47 59.2,6.01 C59.2,6.01 59.2,46.9 59.2,46.9z "/><path id="_R_G_L_13_G_D_2_P_0" fill="#ffffff" fill-opacity="1" fill-rule="nonzero" d=" M56.41 3.22 C56.41,3.22 6,3.22 6,3.22 C4.46,3.22 3.21,4.47 3.21,6.01 C3.21,6.01 3.21,11.3 3.21,11.3 C3.21,11.3 59.2,11.3 59.2,11.3 C59.2,11.3 59.2,6.01 59.2,6.01 C59.2,4.47 57.95,3.22 56.41,3.22z  M9.78 8.93 C9.91,9.08 9.89,9.3 9.74,9.43 C9.67,9.49 9.59,9.51 9.51,9.51 C9.41,9.51 9.31,9.47 9.24,9.39 C9.24,9.39 8,7.93 8,7.93 C8,7.93 6.76,9.39 6.76,9.39 C6.69,9.47 6.59,9.51 6.49,9.51 C6.41,9.51 6.33,9.49 6.26,9.43 C6.11,9.3 6.09,9.08 6.22,8.93 C6.22,8.93 7.53,7.38 7.53,7.38 C7.53,7.38 6.22,5.83 6.22,5.83 C6.09,5.68 6.11,5.46 6.26,5.33 C6.41,5.2 6.63,5.22 6.76,5.37 C6.76,5.37 8,6.83 8,6.83 C8,6.83 9.24,5.37 9.24,5.37 C9.37,5.22 9.59,5.2 9.74,5.33 C9.89,5.46 9.91,5.68 9.78,5.83 C9.78,5.83 8.47,7.38 8.47,7.38 C8.47,7.38 9.78,8.93 9.78,8.93z "/><path id="_R_G_L_13_G_D_3_P_0" fill="#ffffff" fill-opacity="1" fill-rule="nonzero" d=" M59.2 12.01 C59.2,12.01 59.2,46.9 59.2,46.9 C59.2,48.44 57.95,49.69 56.41,49.69 C56.41,49.69 6,49.69 6,49.69 C4.46,49.69 3.21,48.44 3.21,46.9 C3.21,46.9 3.21,12.01 3.21,12.01 C3.21,12.01 59.2,12.01 59.2,12.01z "/><path id="_R_G_L_13_G_D_4_P_0" fill="#70a665" fill-opacity="1" fill-rule="nonzero" d=" M59.92 11.65 C59.92,11.85 59.76,12.01 59.56,12.01 C59.56,12.01 2.86,12.01 2.86,12.01 C2.66,12.01 2.5,11.85 2.5,11.65 C2.5,11.46 2.66,11.3 2.86,11.3 C2.86,11.3 59.56,11.3 59.56,11.3 C59.76,11.3 59.92,11.46 59.92,11.65z "/><path id="_R_G_L_13_G_D_5_P_0" fill="#70a665" fill-opacity="1" fill-rule="nonzero" d=" M9.74 9.43 C9.67,9.49 9.59,9.51 9.51,9.51 C9.41,9.51 9.31,9.47 9.24,9.39 C9.24,9.39 8,7.93 8,7.93 C8,7.93 7.53,7.38 7.53,7.38 C7.53,7.38 6.22,5.83 6.22,5.83 C6.09,5.68 6.11,5.46 6.26,5.33 C6.41,5.2 6.63,5.22 6.76,5.37 C6.76,5.37 8,6.83 8,6.83 C8,6.83 8.47,7.38 8.47,7.38 C8.47,7.38 9.78,8.93 9.78,8.93 C9.91,9.08 9.89,9.3 9.74,9.43z "/><path id="_R_G_L_13_G_D_6_P_0" stroke="#70a665" stroke-linecap="round" stroke-linejoin="round" fill="none" stroke-width="1" stroke-opacity="1" d=" M9.74 9.43 C9.67,9.49 9.59,9.51 9.51,9.51 C9.41,9.51 9.31,9.47 9.24,9.39 C9.24,9.39 8,7.93 8,7.93 C8,7.93 7.53,7.38 7.53,7.38 C7.53,7.38 6.22,5.83 6.22,5.83 C6.09,5.68 6.11,5.46 6.26,5.33 C6.41,5.2 6.63,5.22 6.76,5.37 C6.76,5.37 8,6.83 8,6.83 C8,6.83 8.47,7.38 8.47,7.38 C8.47,7.38 9.78,8.93 9.78,8.93 C9.91,9.08 9.89,9.3 9.74,9.43z "/><path id="_R_G_L_13_G_D_7_P_0" fill="#70a665" fill-opacity="1" fill-rule="nonzero" d=" M9.78 5.83 C9.78,5.83 8.47,7.38 8.47,7.38 C8.47,7.38 8,7.93 8,7.93 C8,7.93 6.76,9.39 6.76,9.39 C6.69,9.47 6.59,9.51 6.49,9.51 C6.41,9.51 6.33,9.49 6.26,9.43 C6.11,9.3 6.09,9.08 6.22,8.93 C6.22,8.93 7.53,7.38 7.53,7.38 C7.53,7.38 8,6.83 8,6.83 C8,6.83 9.24,5.37 9.24,5.37 C9.37,5.22 9.59,5.2 9.74,5.33 C9.89,5.46 9.91,5.68 9.78,5.83z "/><path id="_R_G_L_13_G_D_8_P_0" stroke="#70a665" stroke-linecap="round" stroke-linejoin="round" fill="none" stroke-width="1" stroke-opacity="1" d=" M9.78 5.83 C9.78,5.83 8.47,7.38 8.47,7.38 C8.47,7.38 8,7.93 8,7.93 C8,7.93 6.76,9.39 6.76,9.39 C6.69,9.47 6.59,9.51 6.49,9.51 C6.41,9.51 6.33,9.49 6.26,9.43 C6.11,9.3 6.09,9.08 6.22,8.93 C6.22,8.93 7.53,7.38 7.53,7.38 C7.53,7.38 8,6.83 8,6.83 C8,6.83 9.24,5.37 9.24,5.37 C9.37,5.22 9.59,5.2 9.74,5.33 C9.89,5.46 9.91,5.68 9.78,5.83z "/></g><g id="_R_G_L_12_G" transform=" translate(267.595, 79.453)"><path id="_R_G_L_12_G_D_0_P_0" fill="#cbe0c6" fill-opacity="1" fill-rule="nonzero" d=" M115.09 31.03 C115.09,31.03 5.58,31.03 5.58,31.03 C2.64,31.03 0.25,28.64 0.25,25.7 C0.25,25.7 0.25,5.58 0.25,5.58 C0.25,2.64 2.64,0.25 5.58,0.25 C5.58,0.25 115.09,0.25 115.09,0.25 C118.04,0.25 120.42,2.64 120.42,5.58 C120.42,5.58 120.42,25.7 120.42,25.7 C120.42,28.64 118.04,31.03 115.09,31.03z "/><path id="_R_G_L_12_G_D_1_P_0" fill="#70a665" fill-opacity="1" fill-rule="nonzero" d=" M107.29 8.66 C107.29,8.66 14.04,8.66 14.04,8.66 C13.84,8.66 13.69,8.5 13.69,8.31 C13.69,8.11 13.84,7.95 14.04,7.95 C14.04,7.95 107.29,7.95 107.29,7.95 C107.49,7.95 107.65,8.11 107.65,8.31 C107.65,8.5 107.49,8.66 107.29,8.66z "/><path id="_R_G_L_12_G_D_2_P_0" stroke="#70a665" stroke-linecap="round" stroke-linejoin="round" fill="none" stroke-width="1" stroke-opacity="1" d=" M107.29 8.66 C107.29,8.66 14.04,8.66 14.04,8.66 C13.84,8.66 13.69,8.5 13.69,8.31 C13.69,8.11 13.84,7.95 14.04,7.95 C14.04,7.95 107.29,7.95 107.29,7.95 C107.49,7.95 107.65,8.11 107.65,8.31 C107.65,8.5 107.49,8.66 107.29,8.66z "/><path id="_R_G_L_12_G_D_3_P_0" fill="#70a665" fill-opacity="1" fill-rule="nonzero" d=" M107.29 16 C107.29,16 14.04,16 14.04,16 C13.84,16 13.69,15.84 13.69,15.64 C13.69,15.44 13.84,15.28 14.04,15.28 C14.04,15.28 107.29,15.28 107.29,15.28 C107.49,15.28 107.65,15.44 107.65,15.64 C107.65,15.84 107.49,16 107.29,16z "/><path id="_R_G_L_12_G_D_4_P_0" stroke="#70a665" stroke-linecap="round" stroke-linejoin="round" fill="none" stroke-width="1" stroke-opacity="1" d=" M107.29 16 C107.29,16 14.04,16 14.04,16 C13.84,16 13.69,15.84 13.69,15.64 C13.69,15.44 13.84,15.28 14.04,15.28 C14.04,15.28 107.29,15.28 107.29,15.28 C107.49,15.28 107.65,15.44 107.65,15.64 C107.65,15.84 107.49,16 107.29,16z "/><path id="_R_G_L_12_G_D_5_P_0" fill="#70a665" fill-opacity="1" fill-rule="nonzero" d=" M106.63 23.33 C106.63,23.33 13.38,23.33 13.38,23.33 C13.19,23.33 13.03,23.17 13.03,22.97 C13.03,22.78 13.19,22.62 13.38,22.62 C13.38,22.62 106.63,22.62 106.63,22.62 C106.83,22.62 106.99,22.78 106.99,22.97 C106.99,23.17 106.83,23.33 106.63,23.33z "/><path id="_R_G_L_12_G_D_6_P_0" stroke="#70a665" stroke-linecap="round" stroke-linejoin="round" fill="none" stroke-width="1" stroke-opacity="1" d=" M106.63 23.33 C106.63,23.33 13.38,23.33 13.38,23.33 C13.19,23.33 13.03,23.17 13.03,22.97 C13.03,22.78 13.19,22.62 13.38,22.62 C13.38,22.62 106.63,22.62 106.63,22.62 C106.83,22.62 106.99,22.78 106.99,22.97 C106.99,23.17 106.83,23.33 106.63,23.33z "/></g><g id="_R_G_L_11_G" transform=" translate(337.262, 109.778)"><path id="_R_G_L_11_G_D_0_P_0" fill="#cbe0c6" fill-opacity="1" fill-rule="nonzero" d=" M64.65 3.75 C64.65,3.75 64.65,35.92 64.65,35.92 C64.65,37.85 62.89,39.41 60.72,39.41 C60.72,39.41 4.18,39.41 4.18,39.41 C2.01,39.41 0.25,37.85 0.25,35.92 C0.25,35.92 0.25,3.75 0.25,3.75 C0.25,1.81 2.01,0.25 4.18,0.25 C4.18,0.25 60.72,0.25 60.72,0.25 C62.89,0.25 64.65,1.81 64.65,3.75z "/><path id="_R_G_L_11_G_D_1_P_0" fill="#70a665" fill-opacity="1" fill-rule="nonzero" d=" M64.65 3.75 C64.65,3.75 64.65,8.67 64.65,8.67 C64.65,8.67 0.25,8.67 0.25,8.67 C0.25,8.67 0.25,3.75 0.25,3.75 C0.25,1.82 2.01,0.25 4.18,0.25 C4.18,0.25 60.72,0.25 60.72,0.25 C62.89,0.25 64.65,1.82 64.65,3.75z "/><path id="_R_G_L_11_G_D_2_P_0" fill="#ffffff" fill-opacity="1" fill-rule="nonzero" d=" M60.89 4.46 C60.89,5.57 59.98,6.47 58.87,6.47 C57.76,6.47 56.86,5.57 56.86,4.46 C56.86,3.35 57.76,2.45 58.87,2.45 C59.98,2.45 60.89,3.35 60.89,4.46z "/><path id="_R_G_L_11_G_D_3_P_0" fill="#faab00" fill-opacity="1" fill-rule="nonzero" d=" M55.32 4.46 C55.32,5.57 54.42,6.47 53.3,6.47 C52.19,6.47 51.29,5.57 51.29,4.46 C51.29,3.35 52.19,2.45 53.3,2.45 C54.42,2.45 55.32,3.35 55.32,4.46z "/><path id="_R_G_L_11_G_D_4_P_0" fill="#dd2120" fill-opacity="1" fill-rule="nonzero" d=" M49.75 4.46 C49.75,5.57 48.85,6.47 47.74,6.47 C46.63,6.47 45.72,5.57 45.72,4.46 C45.72,3.35 46.63,2.45 47.74,2.45 C48.85,2.45 49.75,3.35 49.75,4.46z "/><path id="_R_G_L_11_G_D_5_P_0" fill="#ffffff" fill-opacity="1" fill-rule="nonzero" d=" M36.79 29.55 C36.79,29.55 15.46,29.55 15.46,29.55 C15.46,29.55 15.46,14.79 15.46,14.79 C15.46,14.79 36.79,14.79 36.79,14.79 C36.79,14.79 36.79,29.55 36.79,29.55z "/><path id="_R_G_L_11_G_D_6_P_0" fill="#3c5bbf" fill-opacity="1" fill-rule="nonzero" d=" M50.82 34.07 C50.82,34.07 32,34.07 32,34.07 C32,34.07 32,19.31 32,19.31 C32,19.31 50.82,19.31 50.82,19.31 C50.82,19.31 50.82,34.07 50.82,34.07z "/></g><g id="_R_G_L_10_G" transform=" translate(347.406, 248.019)"><path id="_R_G_L_10_G_D_0_P_0" fill="#70a665" fill-opacity="1" fill-rule="nonzero" d=" M7.54 36.37 C6.79,42.32 6.05,48.27 5.3,54.21 C5.3,54.21 54.3,54.21 54.3,54.21 C60.73,30.67 57.62,9.99 47.72,4.64 C46.62,4.05 40.18,3.09 27.3,1.21 C24.31,0.78 20.34,0.25 16.3,2.21 C14.33,3.16 13,4.39 11.3,6.21 C3.99,14.04 0.34,17.96 0.3,23.21 C0.25,29.76 5.49,34.65 7.54,36.37z "/><path id="_R_G_L_10_G_D_1_P_0" fill="#70a665" fill-opacity="1" fill-rule="nonzero" d=" M47.72 4.64 C47.72,4.64 77.16,18.22 73.78,34.75 C70.41,51.27 31.46,48.91 31.46,48.91 C31.46,48.91 31.46,27.81 31.46,27.81 C31.46,27.81 45.49,26.84 45.49,26.84 C45.49,26.84 47.72,4.64 47.72,4.64z "/></g><g id="_R_G_L_9_G_N_18_N_22_T_0" transform=" translate(347.406, 248.019)"><g id="_R_G_L_9_G_N_18_T_0" transform=" translate(24.671, 16.798)"><g id="_R_G_L_9_G" transform=" translate(12.82, 12.154)"><path id="_R_G_L_9_G_D_0_P_0" fill="#ff9a7d" fill-opacity="1" fill-rule="nonzero" d=" M24.83 44.25 C24.43,41.61 23.5,39.07 22.04,36.84 C19.98,33.71 16.81,29.68 13.86,29.19 C8.94,28.37 1.35,30.33 0.8,33.75 C0.25,37.18 2.07,38.01 2.07,38.01 C2.07,38.01 1.6,40.18 2.45,41.17 C2.45,41.17 3.31,42.15 3.31,42.15 C3.31,42.15 2.67,44.9 5.87,45.33 C9.06,45.76 10.85,45.17 11.42,44.73 C11.99,44.3 12.3,43.86 12.3,43.86 C12.3,43.86 10.46,47.1 14.18,48.67 C17.89,50.24 24.83,44.25 24.83,44.25z "/><path id="_R_G_L_9_G_D_1_P_0" fill="#041126" fill-opacity="1" fill-rule="nonzero" d=" M3.3 42.51 C3.1,42.5 2.94,42.34 2.95,42.14 C2.95,41.94 3.12,41.79 3.32,41.79 C3.37,41.79 8.31,41.91 11.08,40.96 C13.6,40.1 13.27,37.91 13.26,37.82 C13.22,37.62 13.35,37.44 13.55,37.41 C13.74,37.38 13.93,37.5 13.96,37.7 C13.96,37.72 14.42,40.58 11.31,41.64 C8.41,42.63 3.45,42.51 3.3,42.51z "/><path id="_R_G_L_9_G_D_2_P_0" fill="#70a665" fill-opacity="1" fill-rule="nonzero" d=" M10.62 33.47 C10.62,33.47 7.79,33.38 7.79,33.38 C7.79,33.38 8.13,22.36 8.13,22.36 C8.13,22.36 10.96,22.45 10.96,22.45 C10.96,22.45 10.62,33.47 10.62,33.47z "/><path id="_R_G_L_9_G_D_3_P_0" fill="#ffffff" fill-opacity="1" fill-rule="nonzero" d=" M12.85 11.7 C12.66,17.73 10.8,22.57 8.69,22.5 C6.58,22.44 5.03,17.5 5.21,11.47 C5.4,5.44 7.26,0.6 9.37,0.67 C11.48,0.74 13.04,5.68 12.85,11.7z "/><path id="_R_G_L_9_G_D_4_P_0" fill="#ffffff" fill-opacity="1" fill-rule="nonzero" d=" M14.85 11.77 C14.66,17.8 12.8,22.63 10.69,22.56 C8.58,22.5 7.02,17.56 7.21,11.53 C7.4,5.5 9.26,0.67 11.37,0.73 C13.48,0.8 15.04,5.74 14.85,11.77z "/><path id="_R_G_L_9_G_D_5_P_0" fill="#faab00" fill-opacity="1" fill-rule="nonzero" d=" M9 22.87 C6.66,22.8 4.98,17.79 5.17,11.47 C5.37,5.14 7.36,0.25 9.7,0.32 C12.04,0.39 13.72,5.4 13.52,11.73 C13.33,18.05 11.34,22.94 9,22.87z  M9.68 1.04 C8.01,0.98 6.08,5.17 5.89,11.49 C5.69,17.8 7.35,22.1 9.02,22.15 C10.69,22.21 12.61,18.02 12.81,11.7 C13.01,5.39 11.35,1.09 9.68,1.04z "/><path id="_R_G_L_9_G_D_6_P_0" fill="#f9dda5" fill-opacity="1" fill-rule="nonzero" d=" M10.32 19.62 C10.23,19.61 10.14,19.58 10.07,19.51 C9.94,19.36 9.94,19.14 10.08,19 C10.1,18.98 10.92,18.1 11.36,14.97 C11.39,14.78 11.56,14.64 11.77,14.67 C11.96,14.7 12.1,14.88 12.07,15.07 C11.59,18.48 10.68,19.43 10.58,19.52 C10.5,19.59 10.41,19.62 10.32,19.62z "/><path id="_R_G_L_9_G_D_7_P_0" fill="#041126" fill-opacity="1" fill-rule="nonzero" d=" M3.47 38.48 C2.63,38.45 2.08,38.38 2.02,38.37 C1.83,38.34 1.69,38.16 1.72,37.96 C1.75,37.77 1.93,37.63 2.13,37.66 C2.16,37.67 6.07,38.22 9.41,36.77 C11.49,35.87 12.19,35.06 12.15,34.64 C12.13,34.35 11.7,34.08 11.02,33.91 C10.24,33.72 9.6,33.74 8.98,33.75 C7.88,33.78 6.84,33.81 5.39,32.73 C5.23,32.61 5.2,32.38 5.32,32.23 C5.43,32.07 5.66,32.04 5.82,32.15 C7.07,33.09 7.91,33.07 8.96,33.04 C9.6,33.02 10.32,33 11.19,33.21 C12.51,33.54 12.83,34.14 12.87,34.58 C12.94,35.51 11.85,36.49 9.7,37.42 C7.43,38.41 4.97,38.53 3.47,38.48z "/><path id="_R_G_L_9_G_D_8_P_0" fill="#ff9a7d" fill-opacity="1" fill-rule="nonzero" d=" M16.89 32.79 C16.89,32.79 9.96,34.6 10.58,36.17 C11.2,37.74 15.29,37.81 15.29,37.81 C15.29,37.81 11.35,43.51 15.46,46.62 C15.46,46.62 16.89,32.79 16.89,32.79z "/><path id="_R_G_L_9_G_D_9_P_0" fill="#041126" fill-opacity="1" fill-rule="nonzero" d=" M15.45 46.98 C15.38,46.98 15.3,46.96 15.24,46.91 C11.67,44.2 13.79,39.68 14.67,38.14 C13.43,38.05 10.8,37.7 10.25,36.3 C10.15,36.05 10.16,35.77 10.3,35.51 C11.08,33.98 16.21,32.6 16.8,32.45 C16.98,32.39 17.18,32.51 17.23,32.7 C17.28,32.89 17.17,33.09 16.98,33.14 C14.89,33.68 11.41,34.89 10.94,35.83 C10.88,35.94 10.89,36 10.91,36.04 C11.34,37.14 14.27,37.45 15.3,37.45 C15.43,37.46 15.55,37.53 15.61,37.65 C15.67,37.76 15.66,37.9 15.58,38.01 C15.43,38.23 11.88,43.47 15.67,46.34 C15.83,46.46 15.86,46.68 15.74,46.84 C15.67,46.93 15.56,46.98 15.45,46.98z "/></g></g></g><g id="_R_G_L_8_G_N_22_T_0" transform=" translate(347.406, 248.019)"><g id="_R_G_L_8_G" transform=" translate(24.671, 16.798)"><path id="_R_G_L_8_G_D_0_P_0" fill="#70a665" fill-opacity="1" fill-rule="nonzero" d=" M14.77 0.25 C14.77,0.25 0.25,16.45 0.25,16.45 C2.42,20.03 8.61,29.09 20.38,33.44 C24.45,34.94 32.63,37.96 41.65,34.52 C49.97,31.34 56.29,23.7 57.65,15.52 C58.17,12.42 58.8,8.63 56.65,6.52 C52.64,2.58 44.03,9.47 32.53,8.41 C24.7,7.69 18.65,3.59 14.77,0.25z "/></g></g><g id="_R_G_L_7_G_N_22_T_0" transform=" translate(347.406, 248.019)"><g id="_R_G_L_7_G" transform=" translate(70.16, 33.721)"><path id="_R_G_L_7_G_D_0_P_0" fill="#ff9a7d" fill-opacity="1" fill-rule="nonzero" d=" M27.14 7.92 C27.14,7.92 22.11,5.33 18.82,4.96 C15.52,4.59 13.96,7.92 13.96,7.92 C13.96,7.92 11.01,8.85 7.71,9.22 C4.41,9.59 1.81,9.96 1.81,11.07 C1.81,12.18 4.41,12.92 4.41,12.92 C4.41,12.92 0.25,13.48 1.81,15.15 C3.37,16.81 6.15,17.37 6.15,17.37 C6.15,17.37 2.68,18.29 7.36,19.96 C12.05,21.63 22.34,22 27.52,18.11 C32.7,14.22 27.14,7.92 27.14,7.92z "/><path id="_R_G_L_7_G_D_1_P_0" fill="#70a665" fill-opacity="1" fill-rule="nonzero" d=" M66.07 9.47 C66.64,13.51 57.91,19.15 50.84,21.31 C47.95,22.19 44.79,22.45 38.58,22.93 C32.4,23.42 27.28,23.58 23.75,23.63 C23.75,23.63 23.75,2.53 23.75,2.53 C23.75,2.53 37.78,1.56 37.78,1.56 C44.66,1.97 65.24,3.56 66.07,9.47z "/><path id="_R_G_L_7_G_D_2_P_0" fill="#ffffff" fill-opacity="1" fill-rule="nonzero" d=" M23.75 2.89 C23.58,2.89 23.44,2.77 23.4,2.61 C23.35,2.42 23.48,2.23 23.67,2.18 C23.75,2.16 32.27,0.25 40.56,0.48 C40.75,0.48 40.91,0.65 40.91,0.84 C40.9,1.04 40.74,1.19 40.55,1.19 C32.34,0.97 23.91,2.86 23.82,2.88 C23.8,2.89 23.77,2.89 23.75,2.89z "/><path id="_R_G_L_7_G_D_3_P_0" fill="#041126" fill-opacity="1" fill-rule="nonzero" d=" M13.96 8.28 C13.79,8.28 13.65,8.17 13.61,8 C13.57,7.81 13.69,7.62 13.88,7.57 C13.88,7.57 17.85,6.68 17.85,6.68 C18.05,6.64 18.23,6.76 18.28,6.95 C18.32,7.15 18.2,7.34 18.01,7.38 C18.01,7.38 14.04,8.27 14.04,8.27 C14.01,8.28 13.98,8.28 13.96,8.28z "/><path id="_R_G_L_7_G_D_4_P_0" fill="#041126" fill-opacity="1" fill-rule="nonzero" d=" M7.28 13.49 C5.5,13.49 4.43,13.29 4.34,13.27 C4.15,13.23 4.03,13.05 4.06,12.85 C4.1,12.66 4.29,12.53 4.48,12.57 C4.52,12.58 8.26,13.29 13.46,12 C13.65,11.95 13.84,12.07 13.89,12.26 C13.94,12.45 13.82,12.64 13.63,12.69 C11.08,13.32 8.89,13.49 7.28,13.49z "/><path id="_R_G_L_7_G_D_5_P_0" fill="#041126" fill-opacity="1" fill-rule="nonzero" d=" M9.55 18.07 C7.7,18.07 6.18,17.74 6.07,17.72 C5.88,17.67 5.76,17.48 5.8,17.29 C5.84,17.1 6.03,16.97 6.23,17.02 C6.27,17.03 10.98,18.04 13.8,16.46 C13.97,16.36 14.18,16.42 14.28,16.6 C14.38,16.77 14.32,16.99 14.15,17.08 C12.78,17.85 11.05,18.07 9.55,18.07z "/></g></g><g id="_R_G_L_6_G_N_22_T_0" transform=" translate(347.406, 248.019)"><g id="_R_G_L_6_G" transform=" translate(31.391, 5.723)"><path id="_R_G_L_6_G_D_0_P_0" fill="#041126" fill-opacity="1" fill-rule="nonzero" d=" M15.54 17.66 C15.54,17.66 12.88,16.82 11.7,15.18 C10.53,13.54 10.57,9.67 10.57,9.67 C10.57,9.67 5.5,11.91 4.23,11.54 C2.96,11.18 0.79,5.24 2.65,2.85 C4.52,0.46 7.77,3.77 7.77,3.77 C7.77,3.77 8.7,0.25 12.41,1.32 C16.77,2.58 17.63,7.14 17.63,7.14 C17.63,7.14 18.24,2.29 21.18,4.62 C24.12,6.96 22.66,12.47 22.66,12.47 C22.66,12.47 25.05,13.7 24.42,15.98 C23.78,18.27 20.31,20.29 20.31,20.29 C20.31,20.29 15.54,17.66 15.54,17.66z "/><path id="_R_G_L_6_G_D_1_P_0" fill="#ff9a7d" fill-opacity="1" fill-rule="nonzero" d=" M15.54 24.68 C15.54,24.68 15.72,32.07 15.72,32.07 C15.72,32.07 14.39,34.22 9.92,34.66 C6.6,34.98 5.41,34.27 5.41,34.27 C5.41,34.27 5.78,30.52 5.78,30.52 C5.78,30.52 6.15,26.86 6.15,26.86 C6.15,26.86 14.19,25 14.19,25 C14.19,25 15.54,24.68 15.54,24.68z "/><path id="_R_G_L_6_G_D_2_P_0" fill="#000000" fill-opacity="1" fill-rule="nonzero" d=" M14.19 25 C14.18,25.2 14.1,25.44 13.99,25.72 C12.36,29.44 7.7,30.32 5.78,30.52 C5.78,30.52 6.15,26.86 6.15,26.86 C6.15,26.86 14.19,25 14.19,25z "/><path id="_R_G_L_6_G_D_3_P_0" fill="#ff9a7d" fill-opacity="1" fill-rule="nonzero" d=" M4.04 10.05 C4.04,10.05 0.25,19.39 1.96,24.51 C3.66,29.63 8.5,28.65 11.38,27.55 C14.26,26.46 15.54,24.69 15.54,24.69 C15.54,24.69 18.3,25.49 20.02,22.98 C21.75,20.47 20.51,17.7 18.93,17.11 C17.35,16.51 15.54,17.66 15.54,17.66 C15.54,17.66 16.88,14.94 16.88,14.94 C16.88,14.94 10.24,1.55 4.04,10.05z "/><path id="_R_G_L_6_G_D_4_P_0" fill="#000000" fill-opacity="1" fill-rule="nonzero" d=" M15.92 21.71 C15.81,21.71 15.7,21.66 15.63,21.56 C15.51,21.4 15.55,21.18 15.71,21.06 C15.71,21.06 19.09,18.6 19.09,18.6 C19.25,18.49 19.48,18.52 19.59,18.68 C19.71,18.84 19.67,19.07 19.51,19.18 C19.51,19.18 16.13,21.64 16.13,21.64 C16.06,21.69 15.99,21.71 15.92,21.71z "/><path id="_R_G_L_6_G_D_5_P_0" fill="#000000" fill-opacity="1" fill-rule="nonzero" d=" M11.1 14.68 C11,14.68 10.9,14.64 10.83,14.55 C9.81,13.34 8.63,13.75 8.62,13.75 C8.43,13.82 8.23,13.72 8.16,13.53 C8.09,13.35 8.19,13.15 8.37,13.08 C8.44,13.05 10.04,12.5 11.37,14.09 C11.5,14.24 11.48,14.47 11.33,14.6 C11.26,14.65 11.18,14.68 11.1,14.68z "/><path id="_R_G_L_6_G_D_6_P_0" fill="#000000" fill-opacity="1" fill-rule="nonzero" d=" M3.11 13.68 C3,13.68 2.9,13.64 2.83,13.55 C2.71,13.4 2.73,13.18 2.88,13.05 C4.02,12.1 5.26,12.75 5.31,12.78 C5.48,12.88 5.55,13.09 5.45,13.27 C5.36,13.44 5.14,13.5 4.97,13.41 C4.93,13.39 4.1,12.96 3.34,13.6 C3.27,13.66 3.19,13.68 3.11,13.68z "/><path id="_R_G_L_6_G_D_7_P_0" fill="#000000" fill-opacity="1" fill-rule="nonzero" d=" M3.29 17.24 C3.26,17.24 3.23,17.23 3.2,17.22 C3.01,17.18 2.9,16.98 2.95,16.79 C2.95,16.79 3.38,15.09 3.38,15.09 C3.43,14.9 3.62,14.78 3.82,14.83 C4.01,14.88 4.12,15.07 4.07,15.26 C4.07,15.26 3.64,16.97 3.64,16.97 C3.6,17.13 3.45,17.24 3.29,17.24z "/><path id="_R_G_L_6_G_D_8_P_0" fill="#000000" fill-opacity="1" fill-rule="nonzero" d=" M8.8 17.59 C8.77,17.59 8.74,17.58 8.71,17.57 C8.52,17.52 8.41,17.33 8.46,17.14 C8.46,17.14 8.9,15.44 8.9,15.44 C8.95,15.25 9.14,15.13 9.33,15.18 C9.52,15.23 9.64,15.42 9.59,15.61 C9.59,15.61 9.15,17.32 9.15,17.32 C9.11,17.48 8.96,17.59 8.8,17.59z "/><path id="_R_G_L_6_G_D_9_P_0" fill="#000000" fill-opacity="1" fill-rule="nonzero" d=" M7.17 24.16 C6.47,24.16 5.96,23.62 5.94,23.59 C5.86,23.51 5.83,23.4 5.85,23.3 C5.86,23.19 5.93,23.1 6.02,23.04 C6.02,23.04 8.63,21.55 8.63,21.55 C8.76,21.48 8.92,21.49 9.03,21.59 C9.15,21.68 9.19,21.84 9.15,21.98 C8.73,23.25 8.16,23.98 7.45,24.13 C7.35,24.15 7.26,24.16 7.17,24.16z  M6.87 23.38 C7,23.44 7.15,23.47 7.3,23.43 C7.57,23.37 7.83,23.12 8.07,22.7 C8.07,22.7 6.87,23.38 6.87,23.38z "/><path id="_R_G_L_6_G_D_10_P_0" fill="#041126" fill-opacity="1" fill-rule="nonzero" d=" M15.54 17.66 C15.54,17.66 12.67,16.97 11.75,14.52 C10.82,12.08 11.12,9.95 11.12,9.95 C11.12,9.95 9.55,11.47 7.02,11.03 C4.49,10.6 3.96,7.94 3.96,7.94 C3.96,7.94 6.46,5.36 6.46,5.36 C6.46,5.36 15.92,7.99 16.18,7.71 C16.43,7.42 19.52,13.86 19.52,13.86 C19.52,13.86 15.54,17.66 15.54,17.66z "/><path id="_R_G_L_6_G_D_11_P_0" fill="#000000" fill-opacity="1" fill-rule="nonzero" d=" M19.04 21.84 C18.98,21.84 18.91,21.82 18.85,21.79 C18.85,21.79 17.07,20.68 17.07,20.68 C16.9,20.58 16.85,20.36 16.95,20.19 C17.06,20.02 17.28,19.97 17.44,20.07 C17.44,20.07 19.23,21.18 19.23,21.18 C19.4,21.28 19.45,21.5 19.34,21.67 C19.28,21.78 19.16,21.84 19.04,21.84z "/><path id="_R_G_L_6_G_D_12_P_0" fill="#faab00" fill-opacity="1" fill-rule="nonzero" d=" M10.83 19.72 C10.78,19.72 10.74,19.72 10.7,19.72 C10.7,19.72 9.06,19.61 9.06,19.61 C7.93,19.54 7.07,18.57 7.15,17.45 C7.15,17.45 7.25,15.74 7.25,15.74 C7.27,15.48 7.39,15.24 7.58,15.07 C7.78,14.9 8.04,14.81 8.29,14.83 C8.29,14.83 12.06,15.07 12.06,15.07 C12.32,15.08 12.56,15.2 12.73,15.4 C12.9,15.59 12.99,15.85 12.97,16.11 C12.97,16.11 12.86,17.81 12.86,17.81 C12.83,18.35 12.58,18.85 12.18,19.21 C11.8,19.54 11.32,19.72 10.83,19.72z  M9.1 18.9 C9.1,18.9 10.74,19.01 10.74,19.01 C11.11,19.03 11.44,18.91 11.7,18.68 C11.97,18.44 12.13,18.12 12.15,17.76 C12.15,17.76 12.26,16.06 12.26,16.06 C12.26,15.99 12.24,15.92 12.19,15.87 C12.15,15.82 12.08,15.78 12.01,15.78 C12.01,15.78 8.25,15.54 8.25,15.54 C8.18,15.53 8.11,15.56 8.06,15.61 C8,15.65 7.97,15.72 7.97,15.79 C7.97,15.79 7.86,17.49 7.86,17.49 C7.81,18.22 8.37,18.85 9.1,18.9z "/><path id="_R_G_L_6_G_D_13_P_0" fill="#faab00" fill-opacity="1" fill-rule="nonzero" d=" M12.69 17.43 C12.53,17.43 12.38,17.31 12.34,17.15 C12.3,16.95 12.42,16.76 12.61,16.72 C12.74,16.69 15.73,16.03 18.48,16.62 C18.67,16.66 18.8,16.86 18.76,17.05 C18.71,17.24 18.53,17.36 18.33,17.32 C15.73,16.76 12.8,17.41 12.77,17.42 C12.74,17.42 12.71,17.43 12.69,17.43z "/><path id="_R_G_L_6_G_D_14_P_0" fill="#000000" fill-opacity="1" fill-rule="nonzero" d=" M6.07 20.78 C5.92,20.78 5.78,20.69 5.73,20.54 C4.71,17.5 6.1,16.21 6.16,16.16 C6.3,16.03 6.53,16.04 6.66,16.19 C6.79,16.33 6.78,16.56 6.64,16.69 C6.59,16.73 5.55,17.76 6.41,20.31 C6.47,20.5 6.37,20.7 6.18,20.77 C6.14,20.78 6.11,20.78 6.07,20.78z "/><path id="_R_G_L_6_G_D_15_P_0" fill="#faab00" fill-opacity="1" fill-rule="nonzero" d=" M3.65 19.35 C3.62,19.35 3.58,19.35 3.54,19.35 C3.54,19.35 2.62,19.29 2.62,19.29 C2.13,19.26 1.68,19.04 1.36,18.67 C1.03,18.3 0.87,17.83 0.9,17.34 C0.9,17.34 1.03,15.36 1.03,15.36 C1.04,15.12 1.15,14.9 1.33,14.74 C1.51,14.58 1.75,14.5 1.99,14.51 C1.99,14.51 4.77,14.69 4.77,14.69 C5.01,14.7 5.23,14.81 5.39,14.99 C5.55,15.18 5.63,15.41 5.62,15.65 C5.62,15.65 5.49,17.63 5.49,17.63 C5.43,18.6 4.62,19.35 3.65,19.35z  M1.93 15.22 C1.89,15.22 1.84,15.24 1.81,15.27 C1.77,15.31 1.75,15.35 1.74,15.4 C1.74,15.4 1.62,17.38 1.62,17.38 C1.6,17.68 1.7,17.97 1.9,18.2 C2.09,18.42 2.37,18.56 2.67,18.58 C2.67,18.58 3.58,18.64 3.58,18.64 C4.19,18.67 4.74,18.2 4.78,17.58 C4.78,17.58 4.9,15.6 4.9,15.6 C4.91,15.55 4.89,15.5 4.86,15.47 C4.82,15.43 4.77,15.4 4.72,15.4 C4.72,15.4 1.95,15.22 1.95,15.22 C1.95,15.22 1.93,15.22 1.93,15.22z "/><path id="_R_G_L_6_G_D_16_P_0" fill="#faab00" fill-opacity="1" fill-rule="nonzero" d=" M7.74 17.55 C7.68,17.55 7.62,17.53 7.56,17.49 C7.16,17.25 5.99,16.71 5.4,17.17 C5.25,17.29 5.02,17.27 4.9,17.11 C4.78,16.96 4.8,16.73 4.96,16.61 C6.05,15.75 7.85,16.84 7.93,16.88 C8.1,16.99 8.15,17.21 8.05,17.38 C7.98,17.49 7.86,17.55 7.74,17.55z "/></g></g><g id="_R_G_L_5_G" transform=" translate(240.461, 119.607)"><path id="_R_G_L_5_G_D_0_P_0" fill="#faab00" fill-opacity="1" fill-rule="nonzero" d=" M54.57 0.25 C45.74,0.25 38.59,7.4 38.59,16.23 C38.59,25.06 45.74,32.22 54.57,32.22 C63.4,32.22 70.55,25.06 70.55,16.23 C70.55,7.4 63.4,0.25 54.57,0.25z  M54.57 21.45 C51.69,21.45 49.35,19.12 49.35,16.23 C49.35,13.35 51.69,11.01 54.57,11.01 C57.45,11.01 59.79,13.35 59.79,16.23 C59.79,19.12 57.45,21.45 54.57,21.45z "/><path id="_R_G_L_5_G_D_1_P_0" fill="#faab00" fill-opacity="1" fill-rule="nonzero" d=" M42.9 21.45 C42.9,21.45 0.25,21.45 0.25,21.45 C0.25,21.45 0.25,16.02 0.25,16.02 C0.25,13.4 2.38,11.28 5,11.28 C5,11.28 42.9,11.28 42.9,11.28 C42.9,11.28 42.9,21.45 42.9,21.45z "/><path id="_R_G_L_5_G_D_2_P_0" fill="#faab00" fill-opacity="1" fill-rule="nonzero" d=" M0.25 21.45 C0.25,21.45 4.56,27.12 4.56,27.12 C4.56,27.12 7.26,21.45 7.26,21.45 C7.26,21.45 10.46,25.45 10.46,25.45 C10.46,25.45 13.23,21.45 13.23,21.45 C13.23,21.45 13.23,17.45 13.23,17.45 C13.23,17.45 1.64,17.45 1.64,17.45 C1.64,17.45 0.25,21.45 0.25,21.45z "/><path id="_R_G_L_5_G_D_3_P_0" fill="#f9dda5" fill-opacity="1" fill-rule="nonzero" d=" M44.29 7.83 C44.21,7.83 44.13,7.81 44.07,7.76 C43.91,7.64 43.88,7.41 44,7.26 C44.12,7.1 47.02,3.35 50.66,2.55 C50.85,2.51 51.04,2.63 51.08,2.82 C51.12,3.02 51,3.21 50.81,3.25 C47.43,3.99 44.6,7.65 44.57,7.69 C44.5,7.78 44.39,7.83 44.29,7.83z "/><path id="_R_G_L_5_G_D_4_P_0" stroke="#f9dda5" stroke-linecap="round" stroke-linejoin="round" fill="none" stroke-width="1" stroke-opacity="1" d=" M44.29 7.83 C44.21,7.83 44.13,7.81 44.07,7.76 C43.91,7.64 43.88,7.41 44,7.26 C44.12,7.1 47.02,3.35 50.66,2.55 C50.85,2.51 51.04,2.63 51.08,2.82 C51.12,3.02 51,3.21 50.81,3.25 C47.43,3.99 44.6,7.65 44.57,7.69 C44.5,7.78 44.39,7.83 44.29,7.83z "/></g><g id="_R_G_L_4_G_N_8_N_4_T_0" transform=" translate(68.875, 278.206)"><g id="_R_G_L_4_G_N_8_T_0" transform=" translate(57.401, 55.826)"><g id="_R_G_L_4_G" transform=" translate(49.606, 4.386)"><path id="_R_G_L_4_G_D_0_P_0" fill="#ff9a7d" fill-opacity="1" fill-rule="nonzero" d=" M13.55 2.91 C13.55,2.91 15.23,8.17 12.34,9.25 C9.45,10.34 9.44,7.34 9.44,7.34 C9.44,7.34 11.23,3.57 11.23,3.57 C11.23,3.57 13.55,2.91 13.55,2.91z "/><path id="_R_G_L_4_G_D_1_P_0" fill="#ff9a7d" fill-opacity="1" fill-rule="nonzero" d=" M0.25 13.37 C0.25,13.37 4.03,3.64 7.46,1.94 C10.89,0.25 17.43,0.46 18.43,2.24 C19.43,4.02 16.44,4.06 15.66,3.87 C14.88,3.69 12.56,4.2 12,5 C11.45,5.79 11.23,9.13 11.23,9.13 C11.23,9.13 13.77,9.64 14.88,8.72 C15.99,7.79 17.1,6.11 17.88,7.34 C18.65,8.56 15.55,15 13.33,16.77 C11.12,18.54 5.46,20.76 5.46,20.76 C5.46,20.76 0.25,13.37 0.25,13.37z "/><path id="_R_G_L_4_G_D_2_P_0" fill="#041126" fill-opacity="1" fill-rule="nonzero" d=" M11.23 9.49 C11,9.47 10.85,9.29 10.87,9.1 C10.87,9.05 10.98,7.95 11.39,6.12 C11.85,4.1 13.68,3.71 13.76,3.7 C13.96,3.66 14.14,3.78 14.18,3.97 C14.22,4.17 14.09,4.36 13.9,4.4 C13.84,4.41 12.44,4.72 12.09,6.28 C11.69,8.05 11.58,9.15 11.58,9.16 C11.57,9.35 11.41,9.49 11.23,9.49z "/><path id="_R_G_L_4_G_D_3_P_0" fill="#70a665" fill-opacity="1" fill-rule="nonzero" d=" M21.5 10.56 C21.5,10.56 14.8,4.89 14.8,4.89 C14.8,4.89 16.52,2.86 16.52,2.86 C16.52,2.86 21.27,6.88 21.27,6.88 C21.27,6.88 25.14,2.67 25.14,2.67 C25.14,2.67 27.1,4.47 27.1,4.47 C27.1,4.47 21.5,10.56 21.5,10.56z "/></g></g></g><g id="_R_G_L_3_G_N_4_T_0" transform=" translate(68.875, 278.206)"><g id="_R_G_L_3_G" transform=" translate(57.401, 55.826)"><path id="_R_G_L_3_G_D_0_P_0" fill="#70a665" fill-opacity="1" fill-rule="nonzero" d=" M3.45 15.86 C4.18,15.2 4.57,15.22 8.45,13.86 C11.92,12.66 15.01,11.46 16.45,10.86 C20,9.4 20.69,8.62 29.7,3.41 C32.03,2.06 33.96,0.97 35.24,0.25 C35.24,0.25 42.45,19.21 42.45,19.21 C30.67,34.71 16.34,41.12 8.45,36.86 C6.86,36.01 4.24,34.02 2.45,28.86 C1.14,25.09 0.25,18.78 3.45,15.86z "/></g></g><g id="_R_G_L_2_G_N_4_T_0" transform=" translate(68.875, 278.206)"><g id="_R_G_L_2_G" transform=" translate(41.856, 19.413)"><path id="_R_G_L_2_G_D_0_P_0" fill="#041126" fill-opacity="1" fill-rule="nonzero" d=" M24.72 2.9 C24.72,2.9 14.88,0.25 7.57,9.21 C0.25,18.17 4.8,29.2 16.39,28.88 C27.98,28.56 30.67,16.72 30.67,16.72 C30.67,16.72 24.72,2.9 24.72,2.9z "/></g></g><g id="_R_G_L_1_G" transform=" translate(68.875, 278.206)"><path id="_R_G_L_1_G_D_0_P_0" fill="#041126" fill-opacity="1" fill-rule="nonzero" d=" M52.73 19.88 C52.73,19.88 55.53,16.9 54.83,12.2 C54.35,9.01 52.96,7.95 52.96,7.95 C52.96,7.95 55.2,3.66 48.78,3.8 C42.36,3.94 37.1,3.39 34.24,8.91 C32.55,12.16 33.23,19.23 33.23,19.23 C33.23,19.23 52.73,19.88 52.73,19.88z "/><path id="_R_G_L_1_G_D_1_P_0" fill="#ff9a7d" fill-opacity="1" fill-rule="nonzero" d=" M38.55 24.89 C38.55,24.89 38.59,32.72 38.59,32.72 C38.59,32.72 40.02,34.97 44.6,35.31 C48.02,35.57 49.09,33.81 49.09,33.81 C49.09,33.81 48.22,26.96 48.22,26.96 C48.22,26.96 39.94,25.19 39.94,25.19 C39.94,25.19 38.55,24.89 38.55,24.89z "/><path id="_R_G_L_1_G_D_2_P_0" fill="#041126" fill-opacity="1" fill-rule="nonzero" d=" M38.56 24.41 C38.58,24.63 38.66,24.88 38.79,25.17 C40.56,29.07 46.74,30.66 48.71,30.83 C48.71,30.83 48.22,26.96 48.22,26.96 C48.22,26.96 38.56,24.41 38.56,24.41z "/><path id="_R_G_L_1_G_D_3_P_0" fill="#ff9a7d" fill-opacity="1" fill-rule="nonzero" d=" M49.86 9.1 C49.86,9.1 54.03,18.89 52.44,24.36 C50.86,29.83 45.87,28.92 42.89,27.83 C39.91,26.74 38.55,24.89 38.55,24.89 C38.55,24.89 35.74,25.81 33.9,23.2 C32.06,20.59 33.24,17.62 34.84,16.95 C36.44,16.28 38.32,17.45 38.32,17.45 C38.32,17.45 36.86,14.6 36.86,14.6 C36.86,14.6 43.26,0.25 49.86,9.1z "/><path id="_R_G_L_1_G_D_4_P_0" fill="#041126" fill-opacity="1" fill-rule="nonzero" d=" M38.32 17.45 C38.32,17.45 42.5,18.38 45.51,13.76 C48.51,9.15 48.28,7.23 48.28,7.23 C48.28,7.23 51.09,12.11 51.09,12.11 C51.09,12.11 51.81,8.78 50.51,6.62 C49.21,4.47 47.82,4.88 47.82,4.88 C47.82,4.88 38.52,7.01 38.52,7.01 C38.52,7.01 35.95,14.38 35.95,14.38 C35.95,14.38 38.32,17.45 38.32,17.45z "/><path id="_R_G_L_1_G_D_5_P_0" fill="#041126" fill-opacity="1" fill-rule="nonzero" d=" M48.85 21.54 C48.81,21.54 48.78,21.53 48.74,21.52 C48.55,21.46 48.45,21.25 48.51,21.07 C49.1,19.27 48.32,17.29 48.31,17.27 C48.24,17.09 48.32,16.88 48.51,16.81 C48.69,16.73 48.9,16.82 48.97,17 C49.01,17.09 49.86,19.23 49.19,21.29 C49.14,21.44 49,21.54 48.85,21.54z "/><path id="_R_G_L_1_G_D_6_P_0" fill="#041126" fill-opacity="1" fill-rule="nonzero" d=" M37.84 22.06 C37.74,22.06 37.65,22.03 37.58,21.95 C37.58,21.95 34.97,19.1 34.97,19.1 C34.84,18.95 34.85,18.73 34.99,18.59 C35.14,18.46 35.37,18.47 35.5,18.62 C35.5,18.62 38.1,21.47 38.1,21.47 C38.24,21.61 38.23,21.84 38.08,21.97 C38.01,22.03 37.93,22.06 37.84,22.06z "/><path id="_R_G_L_1_G_D_7_P_0" fill="#041126" fill-opacity="1" fill-rule="nonzero" d=" M35.05 21.27 C34.87,21.27 34.72,21.14 34.69,20.96 C34.67,20.76 34.8,20.58 35,20.56 C35,20.56 36.84,20.31 36.84,20.31 C37.03,20.29 37.21,20.42 37.24,20.61 C37.27,20.81 37.13,20.99 36.93,21.01 C36.93,21.01 35.09,21.26 35.09,21.26 C35.08,21.26 35.06,21.27 35.05,21.27z "/><path id="_R_G_L_1_G_D_8_P_0" fill="#041126" fill-opacity="1" fill-rule="nonzero" d=" M51.33 13.58 C51.31,13.58 51.29,13.58 51.26,13.58 C51.26,13.58 49.58,13.25 49.58,13.25 C49.39,13.21 49.26,13.02 49.3,12.83 C49.34,12.64 49.52,12.51 49.72,12.55 C49.72,12.55 51.4,12.88 51.4,12.88 C51.59,12.91 51.72,13.1 51.68,13.29 C51.65,13.46 51.5,13.58 51.33,13.58z "/><path id="_R_G_L_1_G_D_9_P_0" fill="#041126" fill-opacity="1" fill-rule="nonzero" d=" M44.9 13.95 C44.77,13.95 44.64,13.86 44.59,13.73 C44.53,13.56 44.61,13.37 44.79,13.3 C44.79,13.3 46.53,12.65 46.53,12.65 C46.7,12.59 46.9,12.67 46.96,12.85 C47.03,13.02 46.94,13.21 46.77,13.27 C46.77,13.27 45.02,13.93 45.02,13.93 C44.98,13.94 44.94,13.95 44.9,13.95z "/><path id="_R_G_L_1_G_D_10_P_0" fill="#041126" fill-opacity="1" fill-rule="nonzero" d=" M50.39 17.59 C50.24,17.59 50.1,17.48 50.05,17.33 C50.05,17.33 49.54,15.56 49.54,15.56 C49.51,15.44 49.54,15.32 49.62,15.23 C49.62,15.23 50.17,14.57 50.17,14.57 C50.3,14.43 50.52,14.41 50.67,14.53 C50.82,14.66 50.84,14.89 50.71,15.04 C50.71,15.04 50.28,15.54 50.28,15.54 C50.28,15.54 50.74,17.13 50.74,17.13 C50.79,17.32 50.68,17.52 50.49,17.57 C50.46,17.58 50.43,17.59 50.39,17.59z "/><path id="_R_G_L_1_G_D_11_P_0" fill="#041126" fill-opacity="1" fill-rule="nonzero" d=" M45.46 17.96 C45.3,17.96 45.16,17.86 45.11,17.7 C45.11,17.7 44.61,15.93 44.61,15.93 C44.57,15.82 44.6,15.69 44.68,15.6 C44.68,15.6 45.45,14.74 45.45,14.74 C45.58,14.59 45.81,14.58 45.95,14.71 C46.1,14.84 46.11,15.07 45.98,15.21 C45.98,15.21 45.35,15.93 45.35,15.93 C45.35,15.93 45.8,17.51 45.8,17.51 C45.86,17.7 45.75,17.9 45.56,17.95 C45.52,17.96 45.49,17.96 45.46,17.96z "/><path id="_R_G_L_1_G_D_12_P_0" fill="#041126" fill-opacity="1" fill-rule="nonzero" d=" M47.67 24.36 C47.58,24.36 47.5,24.35 47.41,24.34 C46.32,24.16 45.71,22.83 45.68,22.77 C45.63,22.65 45.64,22.5 45.73,22.4 C45.81,22.29 45.95,22.24 46.08,22.28 C46.08,22.28 49.07,22.93 49.07,22.93 C49.19,22.96 49.29,23.05 49.33,23.17 C49.37,23.3 49.34,23.43 49.25,23.52 C48.73,24.08 48.2,24.36 47.67,24.36z  M46.79 23.16 C46.99,23.39 47.25,23.59 47.53,23.64 C47.75,23.67 47.97,23.62 48.21,23.47 C48.21,23.47 46.79,23.16 46.79,23.16z "/><path id="_R_G_L_1_G_D_13_P_0" fill="#70a665" fill-opacity="1" fill-rule="nonzero" d=" M36.54 33.16 C36.54,33.16 37.41,30.12 37.84,30.12 C38.41,30.12 41.59,31.65 44.47,31.63 C47.36,31.61 47.86,30.71 48.72,30.83 C49.57,30.94 49.89,33.16 49.89,33.16 C49.89,33.16 50.22,33.27 50.82,33.46 C50.82,33.46 52.1,33.87 53.33,34.23 C57.38,35.41 58.19,35.35 59.8,36.23 C61.14,36.97 60.88,37.17 63.8,39.23 C65.93,40.74 66.38,40.84 66.8,41.23 C70.1,44.27 67.41,60.11 56.8,64.23 C50.29,66.77 43.88,63.76 42.14,62.88 C42.14,62.88 36.54,33.16 36.54,33.16z "/><path id="_R_G_L_1_G_D_14_P_0" fill="#70a665" fill-opacity="1" fill-rule="nonzero" d=" M37.84 32.94 C37.84,32.94 18.75,33.38 7.78,55 C6.26,57.99 0.25,70.4 6.07,78.89 C6.55,79.59 10.18,84.89 15.8,85.23 C22.33,85.63 24.94,78.94 33.8,74.23 C37.67,72.18 43.75,69.96 52.8,70.23 C53.8,65.9 54.8,61.57 55.8,57.23 C55.8,57.23 52.81,58.62 52.81,58.62 C47.82,50.06 42.83,41.5 37.84,32.94z "/><path id="_R_G_L_1_G_D_15_P_0" fill="#ffffff" fill-opacity="1" fill-rule="nonzero" d=" M42.42 35.44 C39.38,35.44 36.47,33.55 36.34,33.46 C36.18,33.35 36.13,33.13 36.24,32.97 C36.35,32.8 36.57,32.76 36.73,32.87 C36.77,32.89 39.89,34.92 42.86,34.72 C43.06,34.71 43.23,34.85 43.24,35.05 C43.26,35.24 43.11,35.41 42.91,35.43 C42.75,35.44 42.59,35.44 42.42,35.44z "/></g><g id="_R_G_L_0_G" transform=" translate(46.014, 271.416)"><path id="_R_G_L_0_G_D_0_P_0" fill="#ffffff" fill-opacity="1" fill-rule="nonzero" d=" M58.22 28.8 C58.22,28.8 41.68,27.15 41.68,27.15 C41.68,27.15 47.92,0.25 47.92,0.25 C47.92,0.25 64.47,1.9 64.47,1.9 C64.47,1.9 58.22,28.8 58.22,28.8z "/><path id="_R_G_L_0_G_D_1_P_0" fill="#3c5bbf" fill-opacity="1" fill-rule="nonzero" d=" M60.71 29.04 C60.71,29.04 44.16,27.39 44.16,27.39 C44.16,27.39 50.4,0.5 50.4,0.5 C50.4,0.5 66.95,2.15 66.95,2.15 C66.95,2.15 60.71,29.04 60.71,29.04z "/><path id="_R_G_L_0_G_D_2_P_0" fill="#70a665" fill-opacity="1" fill-rule="nonzero" d=" M39.21 12.21 C39.21,12.21 38.53,33.53 38.53,33.53 C38.53,33.53 26.75,36.26 16.88,37.15 C7.01,38.04 0.25,37.15 0.25,37.15 C0.25,37.15 0.25,29.28 0.25,29.28 C0.25,29.28 39.21,12.21 39.21,12.21z "/><path id="_R_G_L_0_G_D_3_P_0" fill="#ff9a7d" fill-opacity="1" fill-rule="nonzero" d=" M37.08 14.87 C37.08,14.87 39.05,10.76 41.05,9.32 C43.04,7.88 46.09,7.89 46.09,7.89 C46.09,7.89 45.48,10.82 45.48,10.82 C45.48,10.82 50.12,11.43 50.91,10.82 C51.69,10.21 55.02,7.55 55.91,7.77 C56.79,7.99 54.91,10.82 54.91,10.82 C54.91,10.82 56.9,8.99 57.57,10.1 C58.23,11.21 55.68,15.64 55.68,15.64 C55.68,15.64 58.01,13.32 57.24,16.98 C56.46,20.63 49.71,24.18 47.38,24.52 C45.04,24.85 35.7,24.88 35.7,24.88 C35.7,24.88 37.08,14.87 37.08,14.87z "/><path id="_R_G_L_0_G_D_4_P_0" fill="#041126" fill-opacity="1" fill-rule="nonzero" d=" M45.48 11.18 C45.46,11.18 45.43,11.18 45.41,11.17 C45.41,11.17 42.97,10.67 42.97,10.67 C42.78,10.63 42.65,10.44 42.69,10.25 C42.73,10.06 42.92,9.93 43.11,9.97 C43.11,9.97 45.55,10.47 45.55,10.47 C45.75,10.51 45.87,10.7 45.83,10.89 C45.8,11.06 45.65,11.18 45.48,11.18z "/><path id="_R_G_L_0_G_D_5_P_0" fill="#041126" fill-opacity="1" fill-rule="nonzero" d=" M47.92 15 C47.73,15 47.57,14.85 47.57,14.66 C47.56,14.47 47.71,14.3 47.9,14.29 C47.93,14.29 50.17,14.17 51.42,13.55 C52.67,12.93 54.61,10.62 54.63,10.59 C54.76,10.44 54.98,10.42 55.14,10.55 C55.29,10.67 55.31,10.9 55.18,11.05 C55.1,11.15 53.12,13.5 51.74,14.19 C50.36,14.88 48.04,15 47.94,15 C47.93,15 47.93,15 47.92,15z "/><path id="_R_G_L_0_G_D_6_P_0" fill="#041126" fill-opacity="1" fill-rule="nonzero" d=" M48.48 19.22 C48.28,19.22 48.12,19.06 48.12,18.87 C48.12,18.67 48.27,18.51 48.47,18.5 C48.49,18.5 50.34,18.45 51.92,17.68 C53.98,16.69 55.43,15.39 55.45,15.38 C55.59,15.24 55.82,15.26 55.95,15.4 C56.08,15.55 56.07,15.78 55.92,15.91 C55.86,15.96 54.38,17.28 52.24,18.32 C50.51,19.16 48.57,19.21 48.49,19.22 C48.49,19.22 48.48,19.22 48.48,19.22z "/><path id="_R_G_L_0_G_D_7_P_0" fill="#ffffff" fill-opacity="1" fill-rule="nonzero" d=" M17.91 12.94 C17.75,12.94 17.6,12.82 17.56,12.66 C17.52,12.47 17.64,12.28 17.83,12.23 C17.92,12.21 26.43,10.3 34.72,10.53 C34.92,10.53 35.07,10.7 35.07,10.89 C35.06,11.09 34.9,11.24 34.71,11.24 C26.5,11.02 18.07,12.91 17.99,12.93 C17.96,12.93 17.93,12.94 17.91,12.94z "/></g></g><g id="time_group"/></svg>