<svg xmlns="http://www.w3.org/2000/svg" xmlns:xlink="http://www.w3.org/1999/xlink" preserveAspectRatio="xMidYMid meet" width="423" height="520" viewBox="0 0 423 520" style="width:100%;height:100%"><defs><animateMotion repeatCount="indefinite" dur="4.004004s" begin="0s" xlink:href="#_R_G_L_23_G" fill="freeze" keyTimes="0;0.5;1" path="M132.37 232.56 C132.37,232.56 144.37,234.56 144.37,234.56 C144.37,234.56 132.37,232.56 132.37,232.56 " keyPoints="0;0.5;1" keySplines="0.333 0 0.667 1;0.333 0 0.667 1" calcMode="spline"/><animateTransform repeatCount="indefinite" dur="4.004004s" begin="0s" xlink:href="#_R_G_L_23_G" fill="freeze" attributeName="transform" from="0" to="0" type="rotate" additive="sum" keyTimes="0;0.175;0.3916667;0.6666666;1" values="0;90;60;-50;0" keySplines="0.333 0 0.667 1;0.333 0 0.833 1;0.167 0 0.833 1;0.163 0 0.795 1" calcMode="spline"/><animateTransform repeatCount="indefinite" dur="4.004004s" begin="0s" xlink:href="#_R_G_L_23_G" fill="freeze" attributeName="transform" from="-30.349 -30.35" to="-30.349 -30.35" type="translate" additive="sum" keyTimes="0;1" values="-30.349 -30.35;-30.349 -30.35" keySplines="0 0 1 1" calcMode="spline"/><animate repeatCount="indefinite" dur="4.004004s" begin="0s" xlink:href="#_R_G_L_22_G" fill="freeze" attributeName="opacity" from="0" to="0" keyTimes="0;0.0833333;0.275;0.8833333;1" values="0;0;1;1;0" keySplines="0.333 0 0.667 1;0.333 0 0.667 1;0.333 0 0.667 1;0.333 0 0.667 1" calcMode="spline"/><animate repeatCount="indefinite" dur="4.004004s" begin="0s" xlink:href="#_R_G_L_20_G" fill="freeze" attributeName="opacity" from="0" to="0" keyTimes="0;0.2916667;0.3916667;0.8833333;1" values="0;0;1;1;0" keySplines="0.333 0 0.667 1;0.333 0 0.667 1;0.167 0 0.833 1;0.167 0 0.833 1" calcMode="spline"/><animate repeatCount="indefinite" dur="4.004004s" begin="0s" xlink:href="#_R_G_L_19_G" fill="freeze" attributeName="opacity" from="0" to="0" keyTimes="0;0.225;0.3416667;0.8833333;1" values="0;0;1;1;0" keySplines="0.333 0 0.667 1;0.333 0 0.667 1;0.167 0 0.833 1;0.167 0 0.833 1" calcMode="spline"/><animate repeatCount="indefinite" dur="4.004004s" begin="0s" xlink:href="#_R_G_L_18_G" fill="freeze" attributeName="opacity" from="0" to="0" keyTimes="0;0.1416667;0.225;0.8833333;1" values="0;0;1;1;0" keySplines="0.333 0 0.667 1;0.333 0 0.667 1;0.167 0 0.833 1;0.167 0 0.833 1" calcMode="spline"/><animate repeatCount="indefinite" dur="4.004004s" begin="0s" xlink:href="#_R_G_L_17_G" fill="freeze" attributeName="opacity" from="0" to="0" keyTimes="0;0.1583333;0.8833333;1" values="0;1;1;0" keySplines="0.333 0 0.667 1;0.167 0 0.833 1;0.167 0 0.833 1" calcMode="spline"/><animate repeatCount="indefinite" dur="4.004004s" begin="0s" xlink:href="#_R_G_L_16_G" fill="freeze" attributeName="opacity" from="0" to="0" keyTimes="0;0.2083333;0.375;0.8833333;1" values="0;0;1;1;0" keySplines="0.333 0 0.667 1;0.333 0 0.667 1;0.167 0 0.833 1;0.167 0 0.833 1" calcMode="spline"/><animate repeatCount="indefinite" dur="4.004004s" begin="0s" xlink:href="#_R_G_L_15_G" fill="freeze" attributeName="opacity" from="0" to="0" keyTimes="0;0.1583333;0.325;0.8833333;1" values="0;0;1;1;0" keySplines="0.333 0 0.667 1;0.333 0 0.667 1;0.167 0 0.833 1;0.167 0 0.833 1" calcMode="spline"/><animate repeatCount="indefinite" dur="4.004004s" begin="0s" xlink:href="#_R_G_L_14_G" fill="freeze" attributeName="opacity" from="0" to="0" keyTimes="0;0.1166667;0.2833333;0.8833333;1" values="0;0;1;1;0" keySplines="0.333 0 0.667 1;0.333 0 0.667 1;0.167 0 0.833 1;0.167 0 0.833 1" calcMode="spline"/><animate repeatCount="indefinite" dur="4.004004s" begin="0s" xlink:href="#_R_G_L_13_G" fill="freeze" attributeName="opacity" from="0" to="0" keyTimes="0;0.05;0.2166667;0.8833333;1" values="0;0;1;1;0" keySplines="0.333 0 0.667 1;0.333 0 0.667 1;0.167 0 0.833 1;0.167 0 0.833 1" calcMode="spline"/><animate repeatCount="indefinite" dur="4.004004s" begin="0s" xlink:href="#_R_G_L_12_G" fill="freeze" attributeName="opacity" from="0" to="0" keyTimes="0;0.1666667;0.8833333;1" values="0;1;1;0" keySplines="0.333 0 0.667 1;0.333 0 0.833 1;0.167 0 0.833 1" calcMode="spline"/><animateTransform repeatCount="indefinite" dur="4.004004s" begin="0s" xlink:href="#_R_G_L_11_G" fill="freeze" attributeName="transform" from="0" to="0" type="rotate" additive="sum" keyTimes="0;0.25;0.5;0.75;1" values="0;12;2;10;0" keySplines="0.333 0 0.667 1;0.333 0 0.667 1;0.333 0 0.667 1;0.333 0 0.667 1" calcMode="spline"/><animateTransform repeatCount="indefinite" dur="4.004004s" begin="0s" xlink:href="#_R_G_L_11_G" fill="freeze" attributeName="transform" from="-109.801 -7.758" to="-109.801 -7.758" type="translate" additive="sum" keyTimes="0;1" values="-109.801 -7.758;-109.801 -7.758" keySplines="0 0 1 1" calcMode="spline"/><animateTransform repeatCount="indefinite" dur="4.004004s" begin="0s" xlink:href="#_R_G_L_11_G_N_16_T_0" fill="freeze" attributeName="transform" from="0" to="0" type="rotate" additive="sum" keyTimes="0;0.25;0.5;0.75;1" values="0;3;0;3;0" keySplines="0.333 0 0.667 1;0.333 0 0.667 1;0.333 0 0.667 1;0.333 0 0.667 1" calcMode="spline"/><animateTransform repeatCount="indefinite" dur="4.004004s" begin="0s" xlink:href="#_R_G_L_11_G_N_16_T_0" fill="freeze" attributeName="transform" from="-30.553 -77.464" to="-30.553 -77.464" type="translate" additive="sum" keyTimes="0;1" values="-30.553 -77.464;-30.553 -77.464" keySplines="0 0 1 1" calcMode="spline"/><animateTransform repeatCount="indefinite" dur="4.004004s" begin="0s" xlink:href="#_R_G_L_10_G" fill="freeze" attributeName="transform" from="0" to="0" type="rotate" additive="sum" keyTimes="0;0.25;0.5;0.75;1" values="0;-8;0;-6;0" keySplines="0.333 0 0.667 1;0.333 0 0.667 1;0.333 0 0.667 1;0.333 0 0.667 1" calcMode="spline"/><animateTransform repeatCount="indefinite" dur="4.004004s" begin="0s" xlink:href="#_R_G_L_10_G" fill="freeze" attributeName="transform" from="-0.602 -3.681" to="-0.602 -3.681" type="translate" additive="sum" keyTimes="0;1" values="-0.602 -3.681;-0.602 -3.681" keySplines="0 0 1 1" calcMode="spline"/><animateTransform repeatCount="indefinite" dur="4.004004s" begin="0s" xlink:href="#_R_G_L_10_G_N_14_T_0" fill="freeze" attributeName="transform" from="-8" to="-8" type="rotate" additive="sum" keyTimes="0;0.25;0.5;0.75;1" values="-8;8;-8;6;-8" keySplines="0.333 0 0.667 1;0.333 0 0.667 1;0.333 0 0.667 1;0.333 0 0.667 1" calcMode="spline"/><animateTransform repeatCount="indefinite" dur="4.004004s" begin="0s" xlink:href="#_R_G_L_10_G_N_14_T_0" fill="freeze" attributeName="transform" from="-18.071 -44.132" to="-18.071 -44.132" type="translate" additive="sum" keyTimes="0;1" values="-18.071 -44.132;-18.071 -44.132" keySplines="0 0 1 1" calcMode="spline"/><animateTransform repeatCount="indefinite" dur="4.004004s" begin="0s" xlink:href="#_R_G_L_10_G_N_14_N_16_T_0" fill="freeze" attributeName="transform" from="0" to="0" type="rotate" additive="sum" keyTimes="0;0.25;0.5;0.75;1" values="0;3;0;3;0" keySplines="0.333 0 0.667 1;0.333 0 0.667 1;0.333 0 0.667 1;0.333 0 0.667 1" calcMode="spline"/><animateTransform repeatCount="indefinite" dur="4.004004s" begin="0s" xlink:href="#_R_G_L_10_G_N_14_N_16_T_0" fill="freeze" attributeName="transform" from="-30.553 -77.464" to="-30.553 -77.464" type="translate" additive="sum" keyTimes="0;1" values="-30.553 -77.464;-30.553 -77.464" keySplines="0 0 1 1" calcMode="spline"/><animateTransform repeatCount="indefinite" dur="4.004004s" begin="0s" xlink:href="#_R_G_L_8_G" fill="freeze" attributeName="transform" from="0" to="0" type="rotate" additive="sum" keyTimes="0;0.25;0.5;0.75;1" values="0;-8;0;-5;0" keySplines="0.333 0 0.667 1;0.333 0 0.667 1;0.333 0 0.667 1;0.333 0 0.667 1" calcMode="spline"/><animateTransform repeatCount="indefinite" dur="4.004004s" begin="0s" xlink:href="#_R_G_L_8_G" fill="freeze" attributeName="transform" from="-12.305 -11.018" to="-12.305 -11.018" type="translate" additive="sum" keyTimes="0;1" values="-12.305 -11.018;-12.305 -11.018" keySplines="0 0 1 1" calcMode="spline"/><animateTransform repeatCount="indefinite" dur="4.004004s" begin="0s" xlink:href="#_R_G_L_7_G" fill="freeze" attributeName="transform" from="0" to="0" type="rotate" additive="sum" keyTimes="0;0.25;0.5;0.75;1" values="0;3;0;3;0" keySplines="0.333 0 0.667 1;0.333 0 0.667 1;0.333 0 0.667 1;0.333 0 0.667 1" calcMode="spline"/><animateTransform repeatCount="indefinite" dur="4.004004s" begin="0s" xlink:href="#_R_G_L_7_G" fill="freeze" attributeName="transform" from="-30.553 -77.464" to="-30.553 -77.464" type="translate" additive="sum" keyTimes="0;1" values="-30.553 -77.464;-30.553 -77.464" keySplines="0 0 1 1" calcMode="spline"/><animateTransform repeatCount="indefinite" dur="4.004004s" begin="0s" xlink:href="#_R_G_L_6_G" fill="freeze" attributeName="transform" from="-8" to="-8" type="rotate" additive="sum" keyTimes="0;0.25;0.5;0.75;1" values="-8;8;-8;6;-8" keySplines="0.333 0 0.667 1;0.333 0 0.667 1;0.333 0 0.667 1;0.333 0 0.667 1" calcMode="spline"/><animateTransform repeatCount="indefinite" dur="4.004004s" begin="0s" xlink:href="#_R_G_L_6_G" fill="freeze" attributeName="transform" from="-18.071 -44.132" to="-18.071 -44.132" type="translate" additive="sum" keyTimes="0;1" values="-18.071 -44.132;-18.071 -44.132" keySplines="0 0 1 1" calcMode="spline"/><animateTransform repeatCount="indefinite" dur="4.004004s" begin="0s" xlink:href="#_R_G_L_6_G_N_16_T_0" fill="freeze" attributeName="transform" from="0" to="0" type="rotate" additive="sum" keyTimes="0;0.25;0.5;0.75;1" values="0;3;0;3;0" keySplines="0.333 0 0.667 1;0.333 0 0.667 1;0.333 0 0.667 1;0.333 0 0.667 1" calcMode="spline"/><animateTransform repeatCount="indefinite" dur="4.004004s" begin="0s" xlink:href="#_R_G_L_6_G_N_16_T_0" fill="freeze" attributeName="transform" from="-30.553 -77.464" to="-30.553 -77.464" type="translate" additive="sum" keyTimes="0;1" values="-30.553 -77.464;-30.553 -77.464" keySplines="0 0 1 1" calcMode="spline"/><animateTransform repeatCount="indefinite" dur="4.004004s" begin="0s" xlink:href="#_R_G_L_5_G_N_16_T_0" fill="freeze" attributeName="transform" from="0" to="0" type="rotate" additive="sum" keyTimes="0;0.25;0.5;0.75;1" values="0;3;0;3;0" keySplines="0.333 0 0.667 1;0.333 0 0.667 1;0.333 0 0.667 1;0.333 0 0.667 1" calcMode="spline"/><animateTransform repeatCount="indefinite" dur="4.004004s" begin="0s" xlink:href="#_R_G_L_5_G_N_16_T_0" fill="freeze" attributeName="transform" from="-30.553 -77.464" to="-30.553 -77.464" type="translate" additive="sum" keyTimes="0;1" values="-30.553 -77.464;-30.553 -77.464" keySplines="0 0 1 1" calcMode="spline"/><animateTransform repeatCount="indefinite" dur="4.004004s" begin="0s" xlink:href="#_R_G_L_3_G" fill="freeze" attributeName="transform" from="0" to="0" type="rotate" additive="sum" keyTimes="0;0.25;0.5;0.75;1" values="0;3;0;3;0" keySplines="0.333 0 0.667 1;0.333 0 0.667 1;0.333 0 0.667 1;0.333 0 0.667 1" calcMode="spline"/><animateTransform repeatCount="indefinite" dur="4.004004s" begin="0s" xlink:href="#_R_G_L_3_G" fill="freeze" attributeName="transform" from="-54.103 -84.018" to="-54.103 -84.018" type="translate" additive="sum" keyTimes="0;1" values="-54.103 -84.018;-54.103 -84.018" keySplines="0 0 1 1" calcMode="spline"/><animateTransform repeatCount="indefinite" dur="4.004004s" begin="0s" xlink:href="#_R_G_L_2_G" fill="freeze" attributeName="transform" from="0" to="0" type="rotate" additive="sum" keyTimes="0;0.25;0.5;0.75;1" values="0;6;0;3;0" keySplines="0.333 0 0.667 1;0.333 0 0.667 1;0.333 0 0.667 1;0.333 0 0.667 1" calcMode="spline"/><animateTransform repeatCount="indefinite" dur="4.004004s" begin="0s" xlink:href="#_R_G_L_2_G" fill="freeze" attributeName="transform" from="-21.473 -52.196" to="-21.473 -52.196" type="translate" additive="sum" keyTimes="0;1" values="-21.473 -52.196;-21.473 -52.196" keySplines="0 0 1 1" calcMode="spline"/><animateTransform repeatCount="indefinite" dur="4.004004s" begin="0s" xlink:href="#_R_G_L_2_G_N_8_T_0" fill="freeze" attributeName="transform" from="0" to="0" type="rotate" additive="sum" keyTimes="0;0.25;0.5;0.75;1" values="0;3;0;3;0" keySplines="0.333 0 0.667 1;0.333 0 0.667 1;0.333 0 0.667 1;0.333 0 0.667 1" calcMode="spline"/><animateTransform repeatCount="indefinite" dur="4.004004s" begin="0s" xlink:href="#_R_G_L_2_G_N_8_T_0" fill="freeze" attributeName="transform" from="-54.103 -84.018" to="-54.103 -84.018" type="translate" additive="sum" keyTimes="0;1" values="-54.103 -84.018;-54.103 -84.018" keySplines="0 0 1 1" calcMode="spline"/><animateTransform repeatCount="indefinite" dur="4.004004s" begin="0s" xlink:href="#_R_G_L_1_G" fill="freeze" attributeName="transform" from="0" to="0" type="rotate" additive="sum" keyTimes="0;0.25;0.5;0.75;1" values="0;6;0;4;0" keySplines="0.333 0 0.667 1;0.333 0 0.667 1;0.333 0 0.667 1;0.333 0 0.667 1" calcMode="spline"/><animateTransform repeatCount="indefinite" dur="4.004004s" begin="0s" xlink:href="#_R_G_L_1_G" fill="freeze" attributeName="transform" from="-11.483 -73.663" to="-11.483 -73.663" type="translate" additive="sum" keyTimes="0;1" values="-11.483 -73.663;-11.483 -73.663" keySplines="0 0 1 1" calcMode="spline"/><animateTransform repeatCount="indefinite" dur="4.004004s" begin="0s" xlink:href="#_R_G_L_1_G_N_8_T_0" fill="freeze" attributeName="transform" from="0" to="0" type="rotate" additive="sum" keyTimes="0;0.25;0.5;0.75;1" values="0;3;0;3;0" keySplines="0.333 0 0.667 1;0.333 0 0.667 1;0.333 0 0.667 1;0.333 0 0.667 1" calcMode="spline"/><animateTransform repeatCount="indefinite" dur="4.004004s" begin="0s" xlink:href="#_R_G_L_1_G_N_8_T_0" fill="freeze" attributeName="transform" from="-54.103 -84.018" to="-54.103 -84.018" type="translate" additive="sum" keyTimes="0;1" values="-54.103 -84.018;-54.103 -84.018" keySplines="0 0 1 1" calcMode="spline"/><animateTransform repeatCount="indefinite" dur="4.004004s" begin="0s" xlink:href="#_R_G_L_0_G_N_8_T_0" fill="freeze" attributeName="transform" from="0" to="0" type="rotate" additive="sum" keyTimes="0;0.25;0.5;0.75;1" values="0;3;0;3;0" keySplines="0.333 0 0.667 1;0.333 0 0.667 1;0.333 0 0.667 1;0.333 0 0.667 1" calcMode="spline"/><animateTransform repeatCount="indefinite" dur="4.004004s" begin="0s" xlink:href="#_R_G_L_0_G_N_8_T_0" fill="freeze" attributeName="transform" from="-54.103 -84.018" to="-54.103 -84.018" type="translate" additive="sum" keyTimes="0;1" values="-54.103 -84.018;-54.103 -84.018" keySplines="0 0 1 1" calcMode="spline"/><animate attributeType="XML" attributeName="opacity" dur="4s" from="0" to="1" xlink:href="#time_group"/></defs><g id="_R_G"><g id="_R_G_L_23_G"><path id="_R_G_L_23_G_D_0_P_0" fill="#cbe0c6" fill-opacity="1" fill-rule="nonzero" d=" M60.45 30.35 C60.45,46.98 46.98,60.45 30.35,60.45 C13.72,60.45 0.25,46.98 0.25,30.35 C0.25,13.72 13.72,0.25 30.35,0.25 C35.6,0.25 40.52,1.59 44.81,3.95 C53.09,8.49 59,16.83 60.21,26.62 C60.38,27.83 60.45,29.09 60.45,30.35z "/><path id="_R_G_L_23_G_D_1_P_0" fill="#70a665" fill-opacity="1" fill-rule="nonzero" d=" M60.21 26.62 C60.21,26.62 30.35,30.35 30.35,30.35 C30.35,30.35 44.81,3.95 44.81,3.95 C53.09,8.49 59,16.83 60.21,26.62z "/></g><g id="_R_G_L_22_G" transform=" translate(267.517, 258.558) translate(-72.663, -57.097)"><path id="_R_G_L_22_G_D_0_P_0" fill="#70a665" fill-opacity="1" fill-rule="nonzero" d=" M139.8 113.94 C139.8,113.94 5.52,113.94 5.52,113.94 C2.61,113.94 0.25,111.58 0.25,108.67 C0.25,108.67 0.25,5.52 0.25,5.52 C0.25,2.61 2.61,0.25 5.52,0.25 C5.52,0.25 139.8,0.25 139.8,0.25 C142.72,0.25 145.08,2.61 145.08,5.52 C145.08,5.52 145.08,108.67 145.08,108.67 C145.08,111.58 142.72,113.94 139.8,113.94z "/><path id="_R_G_L_22_G_D_1_P_0" fill="#ffffff" fill-opacity="1" fill-rule="nonzero" d=" M138.53 9.96 C138.53,9.96 138.53,104.24 138.53,104.24 C138.53,106.75 136.48,108.8 133.95,108.8 C133.95,108.8 11.37,108.8 11.37,108.8 C8.84,108.8 6.81,106.75 6.81,104.24 C6.81,104.24 6.81,9.96 6.81,9.96 C6.81,7.44 8.84,5.4 11.37,5.4 C11.37,5.4 133.95,5.4 133.95,5.4 C136.48,5.4 138.53,7.44 138.53,9.96z "/><path id="_R_G_L_22_G_D_2_P_0" fill="#cbe0c6" fill-opacity="1" fill-rule="nonzero" d=" M47.27 20.93 C47.27,20.93 17.58,20.93 17.58,20.93 C16.71,20.93 16.01,20.23 16.01,19.36 C16.01,18.5 16.71,17.8 17.58,17.8 C17.58,17.8 47.27,17.8 47.27,17.8 C48.13,17.8 48.83,18.5 48.83,19.36 C48.83,20.23 48.13,20.93 47.27,20.93z "/><path id="_R_G_L_22_G_D_3_P_0" fill="#cbe0c6" fill-opacity="1" fill-rule="nonzero" d=" M47.27 29.35 C47.27,29.35 17.58,29.35 17.58,29.35 C16.71,29.35 16.01,28.65 16.01,27.79 C16.01,26.93 16.71,26.23 17.58,26.23 C17.58,26.23 47.27,26.23 47.27,26.23 C48.13,26.23 48.83,26.93 48.83,27.79 C48.83,28.65 48.13,29.35 47.27,29.35z "/><path id="_R_G_L_22_G_D_4_P_0" fill="#cbe0c6" fill-opacity="1" fill-rule="nonzero" d=" M47.27 37.88 C47.27,37.88 17.58,37.88 17.58,37.88 C16.71,37.88 16.01,37.18 16.01,36.32 C16.01,35.46 16.71,34.76 17.58,34.76 C17.58,34.76 47.27,34.76 47.27,34.76 C48.13,34.76 48.83,35.46 48.83,36.32 C48.83,37.18 48.13,37.88 47.27,37.88z "/><path id="_R_G_L_22_G_D_5_P_0" fill="#f7b369" fill-opacity="1" fill-rule="nonzero" d=" M130.62 20.93 C130.62,22.8 129.1,24.33 127.22,24.33 C125.34,24.33 123.82,22.8 123.82,20.93 C123.82,19.05 125.34,17.53 127.22,17.53 C129.1,17.53 130.62,19.05 130.62,20.93z "/><path id="_R_G_L_22_G_D_6_P_0" fill="#a37b90" fill-opacity="1" fill-rule="nonzero" d=" M130.62 34.76 C130.62,36.63 129.1,38.16 127.22,38.16 C125.34,38.16 123.82,36.63 123.82,34.76 C123.82,32.88 125.34,31.36 127.22,31.36 C129.1,31.36 130.62,32.88 130.62,34.76z "/><path id="_R_G_L_22_G_D_7_P_0" fill="#5c69a5" fill-opacity="1" fill-rule="nonzero" d=" M130.62 48.59 C130.62,50.46 129.1,51.98 127.22,51.98 C125.34,51.98 123.82,50.46 123.82,48.59 C123.82,46.71 125.34,45.19 127.22,45.19 C129.1,45.19 130.62,46.71 130.62,48.59z "/><path id="_R_G_L_22_G_D_8_P_0" fill="#cbe0c6" fill-opacity="1" fill-rule="nonzero" d=" M138.53 67.52 C138.53,67.52 138.53,104.24 138.53,104.24 C138.53,106.75 136.48,108.8 133.95,108.8 C133.95,108.8 11.37,108.8 11.37,108.8 C8.84,108.8 6.81,106.75 6.81,104.24 C6.81,104.24 6.81,85.62 6.81,85.62 C6.81,85.62 24.16,66.66 24.16,66.66 C24.16,66.66 44.49,81 44.49,81 C44.49,81 72.67,36.32 72.67,36.32 C72.67,36.32 96.13,67.64 96.13,67.64 C96.13,67.64 102.92,57.1 102.92,57.1 C102.92,57.1 111.67,71.76 111.67,71.76 C111.67,71.76 119.76,58.63 119.76,58.63 C119.76,58.63 130.62,84.4 130.62,84.4 C130.62,84.4 138.53,67.52 138.53,67.52z "/><path id="_R_G_L_22_G_D_9_P_0" fill="#5c69a5" fill-opacity="1" fill-rule="nonzero" d=" M128.01 102.48 C127.89,102.48 127.78,102.42 127.72,102.32 C127.72,102.32 111.66,75.31 111.66,75.31 C111.66,75.31 106.1,83.99 106.1,83.99 C106.04,84.07 105.95,84.13 105.84,84.14 C105.74,84.15 105.64,84.11 105.57,84.03 C105.57,84.03 94.45,71.35 94.45,71.35 C94.45,71.35 82.04,92.35 82.04,92.35 C81.98,92.45 81.87,92.51 81.76,92.51 C81.65,92.5 81.53,92.45 81.47,92.35 C81.47,92.35 68.44,69.75 68.44,69.75 C68.44,69.75 51.41,98.7 51.41,98.7 C51.36,98.79 51.26,98.85 51.16,98.86 C51.06,98.87 50.95,98.83 50.88,98.75 C50.88,98.75 43.11,89.78 43.11,89.78 C43.11,89.78 35.81,98.74 35.81,98.74 C35.75,98.81 35.67,98.85 35.58,98.86 C35.49,98.87 35.4,98.84 35.33,98.78 C35.33,98.78 19.79,85.35 19.79,85.35 C19.79,85.35 7.05,98.76 7.05,98.76 C6.92,98.89 6.71,98.89 6.58,98.77 C6.45,98.64 6.44,98.43 6.57,98.3 C6.57,98.3 19.52,84.66 19.52,84.66 C19.65,84.54 19.85,84.52 19.98,84.64 C19.98,84.64 35.51,98.06 35.51,98.06 C35.51,98.06 42.84,89.06 42.84,89.06 C42.91,88.98 43,88.93 43.1,88.93 C43.2,88.93 43.29,88.98 43.35,89.05 C43.35,89.05 51.08,97.96 51.08,97.96 C51.08,97.96 68.16,68.92 68.16,68.92 C68.22,68.82 68.36,68.76 68.44,68.76 C68.56,68.76 68.67,68.82 68.73,68.92 C68.73,68.92 81.76,91.53 81.76,91.53 C81.76,91.53 94.11,70.62 94.11,70.62 C94.16,70.53 94.26,70.47 94.36,70.46 C94.47,70.45 94.57,70.49 94.64,70.57 C94.64,70.57 105.78,83.26 105.78,83.26 C105.78,83.26 111.4,74.5 111.4,74.5 C111.46,74.41 111.57,74.35 111.68,74.35 C111.79,74.35 111.9,74.41 111.96,74.51 C111.96,74.51 128.02,101.52 128.02,101.52 C128.02,101.52 138.25,85.44 138.25,85.44 C138.35,85.29 138.55,85.24 138.7,85.34 C138.86,85.44 138.9,85.64 138.81,85.8 C138.81,85.8 128.29,102.33 128.29,102.33 C128.23,102.42 128.12,102.48 128.01,102.48z "/><path id="_R_G_L_22_G_D_10_P_0" fill="#faab00" fill-opacity="1" fill-rule="nonzero" d=" M47.89 79.32 C47.89,81.2 46.37,82.72 44.49,82.72 C42.61,82.72 41.09,81.2 41.09,79.32 C41.09,77.44 42.61,75.92 44.49,75.92 C46.37,75.92 47.89,77.44 47.89,79.32z "/><path id="_R_G_L_22_G_D_11_P_0" fill="#dd2120" fill-opacity="1" fill-rule="nonzero" d=" M76.07 37.88 C76.07,39.76 74.54,41.28 72.67,41.28 C70.79,41.28 69.27,39.76 69.27,37.88 C69.27,36 70.79,34.48 72.67,34.48 C74.54,34.48 76.07,36 76.07,37.88z "/><path id="_R_G_L_22_G_D_12_P_0" fill="#3c5bbf" fill-opacity="1" fill-rule="nonzero" d=" M106.33 57.1 C106.33,58.97 104.81,60.49 102.93,60.49 C101.05,60.49 99.53,58.97 99.53,57.1 C99.53,55.22 101.05,53.7 102.93,53.7 C104.81,53.7 106.33,55.22 106.33,57.1z "/></g><g id="_R_G_L_21_G" transform=" translate(201.81, 120.58) translate(-102.495, -60.347)"><path id="_R_G_L_21_G_D_0_P_0" fill="#70a665" fill-opacity="1" fill-rule="nonzero" d=" M200.44 120.44 C200.44,120.44 4.55,120.44 4.55,120.44 C2.18,120.44 0.25,118.52 0.25,116.14 C0.25,116.14 0.25,4.55 0.25,4.55 C0.25,2.18 2.18,0.25 4.55,0.25 C4.55,0.25 200.44,0.25 200.44,0.25 C202.81,0.25 204.74,2.18 204.74,4.55 C204.74,4.55 204.74,116.14 204.74,116.14 C204.74,118.52 202.81,120.44 200.44,120.44z "/><path id="_R_G_L_21_G_D_1_P_0" fill="#ffffff" fill-opacity="1" fill-rule="nonzero" d=" M188.85 113.33 C188.85,113.33 16.15,113.33 16.15,113.33 C14.05,113.33 12.35,111.63 12.35,109.54 C12.35,109.54 12.35,11.16 12.35,11.16 C12.35,9.06 14.05,7.36 16.15,7.36 C16.15,7.36 188.85,7.36 188.85,7.36 C190.94,7.36 192.64,9.06 192.64,11.16 C192.64,11.16 192.64,109.54 192.64,109.54 C192.64,111.63 190.94,113.33 188.85,113.33z "/></g><g id="_R_G_L_20_G" transform=" translate(247, 94) translate(-22.5, -17.5)"><path id="_R_G_L_20_G_D_0_P_0" stroke="#70a665" stroke-linecap="round" stroke-linejoin="round" fill="none" stroke-width="2" stroke-opacity="1" d=" M5 5 C16.67,13.33 28.33,21.67 40,30 "/></g><g id="_R_G_L_19_G" transform=" translate(217.5, 89) translate(-13, -8.5)"><path id="_R_G_L_19_G_D_0_P_0" stroke="#70a665" stroke-linecap="round" stroke-linejoin="round" fill="none" stroke-width="2" stroke-opacity="1" d=" M1 16 C1,16 25,1 25,1 "/></g><g id="_R_G_L_18_G" transform=" translate(191.635, 91.155) translate(-18.865, -10.344)"><path id="_R_G_L_18_G_D_0_P_0" stroke="#70a665" stroke-linecap="round" stroke-linejoin="round" fill="none" stroke-width="2" stroke-opacity="1" d=" M5 5 C14.24,8.56 23.49,12.13 32.73,15.69 "/></g><g id="_R_G_L_17_G" transform=" translate(156.27, 98.311) translate(-22.5, -13.5)"><path id="_R_G_L_17_G_D_0_P_0" stroke="#70a665" stroke-linecap="round" stroke-linejoin="round" fill="none" stroke-width="2" stroke-opacity="1" d=" M1 26 C1,26 44,1 44,1 "/></g><g id="_R_G_L_16_G" transform=" translate(258.083, 143.956) translate(-6.402, -22.43)"><path id="_R_G_L_16_G_D_0_P_0" fill="#cbe0c6" fill-opacity="1" fill-rule="nonzero" d=" M12.55 44.61 C12.55,44.61 0.25,44.61 0.25,44.61 C0.25,44.61 0.25,0.25 0.25,0.25 C0.25,0.25 12.55,0.25 12.55,0.25 C12.55,0.25 12.55,44.61 12.55,44.61z "/></g><g id="_R_G_L_15_G" transform=" translate(229.947, 130.526) translate(-6.402, -36.01)"><path id="_R_G_L_15_G_D_0_P_0" fill="#cbe0c6" fill-opacity="1" fill-rule="nonzero" d=" M12.55 71.77 C12.55,71.77 0.25,71.77 0.25,71.77 C0.25,71.77 0.25,0.25 0.25,0.25 C0.25,0.25 12.55,0.25 12.55,0.25 C12.55,0.25 12.55,71.77 12.55,71.77z "/></g><g id="_R_G_L_14_G" transform=" translate(201.81, 138.973) translate(-6.402, -27.292)"><path id="_R_G_L_14_G_D_0_P_0" fill="#cbe0c6" fill-opacity="1" fill-rule="nonzero" d=" M12.55 54.33 C12.55,54.33 0.25,54.33 0.25,54.33 C0.25,54.33 0.25,0.25 0.25,0.25 C0.25,0.25 12.55,0.25 12.55,0.25 C12.55,0.25 12.55,54.33 12.55,54.33z "/></g><g id="_R_G_L_13_G" transform=" translate(173.674, 144.735) translate(-6.402, -21.53)"><path id="_R_G_L_13_G_D_0_P_0" fill="#cbe0c6" fill-opacity="1" fill-rule="nonzero" d=" M12.55 42.81 C12.55,42.81 0.25,42.81 0.25,42.81 C0.25,42.81 0.25,0.25 0.25,0.25 C0.25,0.25 12.55,0.25 12.55,0.25 C12.55,0.25 12.55,42.81 12.55,42.81z "/></g><g id="_R_G_L_12_G" transform=" translate(145.538, 153.316) translate(-6.402, -13.07)"><path id="_R_G_L_12_G_D_0_P_0" fill="#cbe0c6" fill-opacity="1" fill-rule="nonzero" d=" M12.55 25.89 C12.55,25.89 0.25,25.89 0.25,25.89 C0.25,25.89 0.25,0.25 0.25,0.25 C0.25,0.25 12.55,0.25 12.55,0.25 C12.55,0.25 12.55,25.89 12.55,25.89z "/></g><g id="_R_G_L_11_G_N_16_T_0" transform=" translate(333.757, 198.449)"><g id="_R_G_L_11_G" transform=" translate(42.134, 11.718)"><path id="_R_G_L_11_G_D_0_P_0" fill="#ff9a7d" fill-opacity="1" fill-rule="nonzero" d=" M35.29 13.18 C35.29,13.18 32.5,0.75 29.09,0.5 C25.67,0.25 28.35,10.5 28.35,10.5 C28.35,10.5 19.1,6.96 19.1,6.96 C19.1,6.96 8.58,4.03 6.49,4.94 C4.39,5.86 7.84,9.27 7.84,9.27 C7.84,9.27 0.35,7.02 1.4,10.68 C2.45,14.33 7.58,16.43 7.58,16.43 C7.58,16.43 0.25,13.84 1.9,18.12 C2.8,20.43 18.91,30.18 29.76,29.84 C40.62,29.49 36.29,21.12 36.29,21.12 C36.29,21.12 35.29,13.18 35.29,13.18z "/><path id="_R_G_L_11_G_D_1_P_0" fill="#041126" fill-opacity="1" fill-rule="nonzero" d=" M11.61 18.79 C11.49,18.79 11.37,18.73 11.28,18.63 C11.12,18.45 11.15,18.17 11.33,18.01 C11.33,18.01 20.65,10.05 20.65,10.05 C20.83,9.89 21.11,9.91 21.27,10.1 C21.43,10.28 21.4,10.56 21.22,10.72 C21.22,10.72 11.9,18.68 11.9,18.68 C11.82,18.75 11.72,18.79 11.61,18.79z "/><path id="_R_G_L_11_G_D_2_P_0" fill="#041126" fill-opacity="1" fill-rule="nonzero" d=" M31.21 23.33 C31.04,23.31 27.89,23.03 26.42,20.45 C25.21,18.31 25.55,15.28 27.44,11.47 C27.54,11.25 27.81,11.16 28.03,11.27 C28.24,11.38 28.33,11.64 28.23,11.86 C26.48,15.39 26.12,18.14 27.18,20.01 C28.41,22.19 31.21,22.45 31.24,22.45 C31.48,22.47 31.66,22.68 31.64,22.92 C31.62,23.15 31.43,23.33 31.21,23.33z "/><path id="_R_G_L_11_G_D_3_P_0" fill="#70a665" fill-opacity="1" fill-rule="nonzero" d=" M26.74 32.34 C31.08,36.67 40.53,44.75 54.57,47 C68.73,49.27 87.27,45.54 93.57,35 C95.74,31.36 96.57,28 96.57,28 C98.24,21.19 95.6,18.29 97.57,12 C99.03,7.3 101.35,6.32 100.57,5 C98.09,0.86 77.34,8.68 75.06,9.54 C66.16,12.89 67.25,13.71 62.97,14.48 C50.2,16.77 36.44,10.21 36.44,10.21 C36.44,10.21 26.74,32.34 26.74,32.34z "/></g></g><g id="_R_G_L_10_G_N_14_N_16_T_0" transform=" translate(333.757, 198.449)"><g id="_R_G_L_10_G_N_14_T_0" transform=" translate(36.018, 1.899)"><g id="_R_G_L_10_G" transform=" translate(12.704, 6.138)"><path id="_R_G_L_10_G_D_0_P_0" fill="#041126" fill-opacity="1" fill-rule="nonzero" d=" M0.47 7.7 C1.14,4.83 4.26,3.28 5.41,2.72 C10.41,0.25 17.84,0.63 23.49,4.63 C24.71,5.5 27.85,7.72 29.41,11.72 C31.62,17.38 30,24.91 30,24.91 C30,24.91 43.16,28.51 45.06,45.22 C46.95,61.94 31.06,65.11 31.06,65.11 C31.06,65.11 8.21,51.58 8.21,51.58 C3.94,29.21 0.89,12.84 0.41,9.72 C0.36,9.41 0.25,8.64 0.47,7.7z "/></g></g></g><g id="_R_G_L_9_G" transform=" translate(340.552, 293.529) translate(-41.922, -102.035)"><path id="_R_G_L_9_G_D_0_P_0" fill="#ff9a7d" fill-opacity="1" fill-rule="nonzero" d=" M71.07 155.73 C71.07,155.73 20.06,143.76 14.12,105.21 C6.81,57.79 19.76,34.55 19.76,34.55 C19.76,34.55 53.09,74.31 53.09,74.31 C53.09,74.31 63.09,122.37 63.09,122.37 C63.09,122.37 76.26,131.9 76.26,131.9 C76.26,131.9 83.59,147.44 83.59,147.44 C83.59,147.44 71.07,155.73 71.07,155.73z "/><path id="_R_G_L_9_G_D_1_P_0" fill="#ff9a7d" fill-opacity="1" fill-rule="nonzero" d=" M35.96 74.31 C35.96,74.31 38.88,166.7 42.79,176.47 C46.71,186.24 68.11,176.47 68.11,176.47 C68.11,176.47 73.17,76.37 73.17,76.37 C73.17,76.37 35.96,74.31 35.96,74.31z "/><path id="_R_G_L_9_G_D_2_P_0" fill="#faab00" fill-opacity="1" fill-rule="nonzero" d=" M14.12 7.14 C14.12,7.14 10.5,27.6 10.5,42.86 C10.5,58.12 8.71,74.87 10.5,76.36 C12.29,77.85 30.03,82.85 51.48,81.73 C72.93,80.61 79.36,75.6 79,73.83 C78.64,72.05 76.14,70.56 76.14,70.56 C76.14,70.56 77.57,26.44 71.85,14.64 C66.13,2.83 41.75,0.25 41.75,0.25 C41.75,0.25 15.53,0.25 15.53,0.25 C15.53,0.25 14.12,7.14 14.12,7.14z "/><path id="_R_G_L_9_G_D_3_P_0" fill="#041126" fill-opacity="1" fill-rule="nonzero" d=" M65.98 202.44 C67.86,202.42 69.4,200.84 69.49,198.83 C69.81,190.89 71.52,173.13 70.07,173.07 C68.22,172.99 49.46,177.3 49.46,177.3 C49.46,177.3 49.39,166.27 41.65,167.93 C35.71,169.21 28.62,175.93 25.64,178.98 C24.69,179.95 23.52,180.61 22.23,180.87 C16.7,182.02 1.47,185.89 0.92,193.96 C0.25,203.82 4.26,202.85 6.1,202.93 C7.69,203 53.14,202.56 65.98,202.44z "/><path id="_R_G_L_9_G_D_4_P_0" fill="#ff9a7d" fill-opacity="1" fill-rule="nonzero" d=" M40.47 180.56 C40.29,180.56 40.12,180.44 40.07,180.26 C39.99,180.03 40.12,179.79 40.34,179.72 C40.34,179.72 49.33,176.89 49.33,176.89 C49.56,176.82 49.8,176.94 49.87,177.17 C49.94,177.39 49.82,177.63 49.59,177.7 C49.59,177.7 40.6,180.54 40.6,180.54 C40.56,180.55 40.52,180.56 40.47,180.56z "/></g><g id="_R_G_L_8_G" transform=" translate(376.892, 327.122)"><path id="_R_G_L_8_G_D_0_P_0" fill="#041126" fill-opacity="1" fill-rule="nonzero" d=" M35.48 4.22 C35.37,2.34 33.7,0.89 31.69,0.91 C23.74,1.01 5.92,0.25 5.94,1.7 C5.96,3.55 11.25,22.05 11.25,22.05 C11.25,22.05 0.25,22.72 2.32,30.35 C3.91,36.21 11,42.94 14.21,45.75 C15.23,46.65 15.94,47.79 16.28,49.06 C17.71,54.52 22.39,69.53 30.48,69.64 C40.36,69.78 39.18,65.84 39.16,63.99 C39.14,62.4 36.29,17.04 35.48,4.22z "/><path id="_R_G_L_8_G_D_1_P_0" fill="#ff9a7d" fill-opacity="1" fill-rule="nonzero" d=" M16.06 30.59 C15.91,30.59 15.77,30.52 15.69,30.38 C15.69,30.38 10.88,22.27 10.88,22.27 C10.77,22.07 10.83,21.81 11.04,21.69 C11.24,21.57 11.5,21.63 11.62,21.84 C11.62,21.84 16.43,29.95 16.43,29.95 C16.55,30.15 16.48,30.41 16.28,30.53 C16.21,30.57 16.14,30.59 16.06,30.59z "/></g><g id="_R_G_L_7_G" transform=" translate(333.757, 198.449)"><path id="_R_G_L_7_G_D_0_P_0" fill="#70a665" fill-opacity="1" fill-rule="nonzero" d=" M47.34 76.2 C43.18,76.55 38.48,76.68 33.33,76.35 C23.49,75.74 15.17,73.67 8.79,71.52 C9.95,61.73 11.1,51.94 12.25,42.16 C16.42,34.4 19.24,26.46 16.02,22.45 C12.28,17.79 2.89,21.51 1.79,18.51 C0.25,14.28 17.94,4.07 25.8,1.52 C26.27,1.36 26.74,1.23 26.74,1.23 C26.74,1.23 30.29,0.25 34.79,0.52 C38.87,0.76 45.58,2.34 49.8,4.52 C58.85,9.19 67.15,22.13 68.85,38.95 C61.68,51.37 54.51,63.78 47.34,76.2z "/></g><g id="_R_G_L_6_G_N_16_T_0" transform=" translate(333.757, 198.449)"><g id="_R_G_L_6_G" transform=" translate(36.018, 1.899)"><path id="_R_G_L_6_G_D_0_P_0" fill="#041126" fill-opacity="1" fill-rule="nonzero" d=" M3.85 26.48 C1.05,24.8 0.25,19.57 1.35,15.96 C2.06,13.62 4.08,10.28 4.08,10.28 C4.08,10.28 1.23,4.34 9.94,4.82 C18.66,5.3 23.73,9.65 23.73,9.65 C23.73,9.65 27.74,7.75 29.46,12.42 C31.18,17.09 29.3,23.92 29.3,23.92 C22,23.08 16.53,24.02 12.84,25.07 C8.51,26.29 6.07,27.81 3.85,26.48z "/><path id="_R_G_L_6_G_D_1_P_0" fill="#ff9a7d" fill-opacity="1" fill-rule="nonzero" d=" M22.89 33.93 C22.89,33.93 22.47,44.57 22.47,44.57 C22.47,44.57 20.43,47.56 14.19,47.82 C9.54,48.01 8.16,45.58 8.16,45.58 C8.16,45.58 9.65,36.31 9.65,36.31 C9.65,36.31 20.99,34.28 20.99,34.28 C20.99,34.28 22.89,33.93 22.89,33.93z "/><path id="_R_G_L_6_G_D_2_P_0" fill="#041126" fill-opacity="1" fill-rule="nonzero" d=" M22.9 33.28 C22.86,33.57 22.74,33.91 22.55,34.3 C19.96,39.52 11.5,41.41 8.81,41.54 C8.81,41.54 9.65,36.31 9.65,36.31 C9.65,36.31 22.9,33.28 22.9,33.28z "/><path id="_R_G_L_6_G_D_3_P_0" fill="#ff9a7d" fill-opacity="1" fill-rule="nonzero" d=" M8.23 11.97 C8.23,11.97 2.12,25.09 4.03,32.59 C5.95,40.08 12.76,39.07 16.85,37.73 C20.95,36.38 22.89,33.94 22.89,33.94 C22.89,33.94 26.65,35.31 29.27,31.85 C31.89,28.38 30.42,24.29 28.28,23.31 C26.14,22.33 23.53,23.84 23.53,23.84 C23.53,23.84 25.64,20.03 25.64,20.03 C25.64,20.03 17.6,0.25 8.23,11.97z "/><path id="_R_G_L_6_G_D_4_P_0" fill="#041126" fill-opacity="1" fill-rule="nonzero" d=" M23.53 23.84 C23.53,23.84 17.81,24.91 13.94,18.51 C10.07,12.11 10.46,9.5 10.46,9.5 C10.46,9.5 6.42,16 6.42,16 C6.42,16 5.61,11.45 7.46,8.57 C9.32,5.71 11.2,6.33 11.2,6.33 C11.2,6.33 23.73,9.65 23.73,9.65 C23.73,9.65 26.9,19.77 26.9,19.77 C26.9,19.77 23.53,23.84 23.53,23.84z "/><path id="_R_G_L_6_G_D_5_P_0" fill="#041126" fill-opacity="1" fill-rule="nonzero" d=" M8.45 28.84 C8.26,28.84 8.08,28.72 8.03,28.53 C7.2,25.67 9.25,22.81 9.34,22.69 C9.48,22.5 9.75,22.45 9.95,22.6 C10.14,22.74 10.19,23.01 10.04,23.21 C10.03,23.24 8.16,25.84 8.87,28.28 C8.94,28.51 8.81,28.76 8.57,28.83 C8.53,28.84 8.49,28.84 8.45,28.84z "/><path id="_R_G_L_6_G_D_6_P_0" fill="#041126" fill-opacity="1" fill-rule="nonzero" d=" M23.99 30.08 C23.88,30.08 23.77,30.04 23.69,29.96 C23.51,29.78 23.51,29.51 23.68,29.33 C23.68,29.33 27.35,25.58 27.35,25.58 C27.51,25.4 27.79,25.4 27.97,25.57 C28.14,25.74 28.14,26.02 27.97,26.19 C27.97,26.19 24.31,29.95 24.31,29.95 C24.22,30.03 24.11,30.08 23.99,30.08z "/><path id="_R_G_L_6_G_D_7_P_0" fill="#041126" fill-opacity="1" fill-rule="nonzero" d=" M27.82 29.12 C27.8,29.12 27.77,29.12 27.75,29.12 C27.75,29.12 25.26,28.7 25.26,28.7 C25.03,28.66 24.86,28.43 24.9,28.19 C24.94,27.95 25.18,27.79 25.41,27.83 C25.41,27.83 27.9,28.25 27.9,28.25 C28.13,28.29 28.3,28.52 28.26,28.76 C28.22,28.97 28.03,29.12 27.82,29.12z "/><path id="_R_G_L_6_G_D_8_P_0" fill="#041126" fill-opacity="1" fill-rule="nonzero" d=" M6.05 17.95 C5.84,17.95 5.65,17.79 5.62,17.58 C5.58,17.34 5.74,17.11 5.98,17.08 C5.98,17.08 8.34,16.7 8.34,16.7 C8.59,16.66 8.81,16.83 8.84,17.06 C8.88,17.3 8.72,17.53 8.48,17.57 C8.48,17.57 6.12,17.94 6.12,17.94 C6.09,17.95 6.07,17.95 6.05,17.95z "/><path id="_R_G_L_6_G_D_9_P_0" fill="#041126" fill-opacity="1" fill-rule="nonzero" d=" M15.81 19.63 C15.75,19.63 15.68,19.62 15.61,19.58 C15.61,19.58 11.78,17.57 11.78,17.57 C11.56,17.46 11.48,17.19 11.59,16.98 C11.71,16.76 11.98,16.68 12.18,16.79 C12.18,16.79 16.02,18.8 16.02,18.8 C16.23,18.92 16.32,19.18 16.2,19.4 C16.13,19.55 15.97,19.63 15.81,19.63z "/><path id="_R_G_L_6_G_D_10_P_0" fill="#041126" fill-opacity="1" fill-rule="nonzero" d=" M5.97 23.39 C5.93,23.39 5.88,23.39 5.84,23.37 C5.61,23.3 5.48,23.05 5.56,22.82 C5.56,22.82 6.25,20.66 6.25,20.66 C6.25,20.66 5.68,19.93 5.68,19.93 C5.53,19.74 5.56,19.47 5.75,19.32 C5.94,19.16 6.21,19.2 6.36,19.39 C6.36,19.39 7.09,20.3 7.09,20.3 C7.18,20.41 7.21,20.57 7.16,20.7 C7.16,20.7 6.39,23.09 6.39,23.09 C6.33,23.27 6.16,23.39 5.97,23.39z "/><path id="_R_G_L_6_G_D_11_P_0" fill="#041126" fill-opacity="1" fill-rule="nonzero" d=" M12.66 24.13 C12.62,24.13 12.57,24.12 12.53,24.11 C12.29,24.03 12.17,23.79 12.24,23.56 C12.24,23.56 12.94,21.4 12.94,21.4 C12.94,21.4 12.1,20.39 12.1,20.39 C11.94,20.2 11.96,19.92 12.15,19.77 C12.34,19.61 12.61,19.64 12.77,19.83 C12.77,19.83 13.77,21.03 13.77,21.03 C13.87,21.14 13.89,21.3 13.85,21.44 C13.85,21.44 13.08,23.83 13.08,23.83 C13.02,24.01 12.85,24.13 12.66,24.13z "/><path id="_R_G_L_6_G_D_12_P_0" fill="#041126" fill-opacity="1" fill-rule="nonzero" d=" M10.92 32.08 C10.78,32.08 10.7,32.06 10.68,32.06 C10.44,32.02 10.28,31.79 10.33,31.55 C10.37,31.31 10.6,31.16 10.83,31.19 C10.9,31.21 12.13,31.34 13.27,29.42 C13.4,29.21 13.67,29.14 13.88,29.26 C14.09,29.39 14.15,29.66 14.03,29.87 C12.84,31.86 11.46,32.08 10.92,32.08z "/></g></g><g id="_R_G_L_5_G_N_16_T_0" transform=" translate(333.757, 198.449)"><g id="_R_G_L_5_G" transform=" translate(49.628, 52.013) translate(-38.742, -47.6)"><path id="_R_G_L_5_G_D_0_P_0" fill="#ff9a7d" fill-opacity="1" fill-rule="nonzero" d=" M31.46 66.41 C31.46,66.41 12.14,69.61 8.32,73.12 C4.51,76.64 13.76,90.12 16.14,92.31 C18.52,94.5 35.48,83.4 35.48,83.4 C35.48,83.4 37.93,73.71 37.93,73.71 C37.93,73.71 31.46,66.41 31.46,66.41z "/><path id="_R_G_L_5_G_D_1_P_0" fill="#ff9a7d" fill-opacity="1" fill-rule="nonzero" d=" M8.32 73.12 C8.32,73.12 0.25,84.66 1.58,89.43 C2.92,94.19 12.64,79.47 12.64,79.47 C12.64,79.47 8.32,73.12 8.32,73.12z "/><path id="_R_G_L_5_G_D_2_P_0" fill="#ff9a7d" fill-opacity="1" fill-rule="nonzero" d=" M22.54 89.11 C22.54,89.11 32.54,87.7 30.57,91.32 C28.6,94.95 17.91,94.32 16.14,92.31 C14.37,90.3 19.95,84.83 19.95,84.83 C19.95,84.83 22.54,89.11 22.54,89.11z "/><path id="_R_G_L_5_G_D_3_P_0" fill="#041126" fill-opacity="1" fill-rule="nonzero" d=" M23.84 90.24 C23.66,90.24 23.49,90.13 23.43,89.96 C23.34,89.73 23.45,89.48 23.68,89.39 C23.68,89.39 25.81,88.58 25.81,88.58 C25.81,88.58 24.16,87.37 24.16,87.37 C23.96,87.22 23.92,86.95 24.07,86.75 C24.21,86.56 24.48,86.52 24.68,86.66 C24.68,86.66 26.97,88.35 26.97,88.35 C27.1,88.45 27.17,88.61 27.15,88.77 C27.13,88.93 27.02,89.06 26.87,89.12 C26.87,89.12 23.99,90.21 23.99,90.21 C23.94,90.23 23.89,90.24 23.84,90.24z "/><path id="_R_G_L_5_G_D_4_P_0" fill="#041126" fill-opacity="1" fill-rule="nonzero" d=" M9.48 83.21 C9.43,83.21 9.38,83.2 9.32,83.18 C9.1,83.1 8.99,82.84 9.07,82.62 C9.26,82.14 10.9,77.94 11.89,77.09 C12.07,76.93 12.35,76.96 12.51,77.14 C12.67,77.33 12.65,77.6 12.46,77.76 C11.84,78.29 10.56,81.21 9.89,82.93 C9.83,83.11 9.66,83.21 9.48,83.21z "/><path id="_R_G_L_5_G_D_5_P_0" fill="#041126" fill-opacity="1" fill-rule="nonzero" d=" M12.54 88.09 C12.47,88.09 12.4,88.07 12.34,88.04 C12.12,87.93 12.04,87.67 12.15,87.45 C12.15,87.45 15.62,80.6 15.62,80.6 C15.73,80.38 15.99,80.29 16.21,80.4 C16.42,80.51 16.51,80.78 16.4,80.99 C16.4,80.99 12.93,87.85 12.93,87.85 C12.85,88 12.7,88.09 12.54,88.09z "/><path id="_R_G_L_5_G_D_6_P_0" fill="#70a665" fill-opacity="1" fill-rule="nonzero" d=" M35.91 16.6 C33.2,8.7 31.85,4.74 32.91,3.6 C36.03,0.25 53.9,7.7 64.91,21.6 C67.76,25.2 77.23,37.16 75.91,52.6 C74.37,70.57 58.76,86.71 36.95,92.21 C36.95,92.21 24.32,60.95 24.32,60.95 C24.32,60.95 45.42,48.89 45.42,48.89 C44.91,40.13 42.78,33.79 40.91,29.6 C39.31,26.03 38.04,22.81 35.91,16.6z "/><path id="_R_G_L_5_G_D_7_P_0" fill="#041126" fill-opacity="1" fill-rule="nonzero" d=" M30.21 58.01 C30.08,58.01 29.96,57.95 29.87,57.84 C29.73,57.66 29.76,57.39 29.95,57.24 C30.49,56.83 43.25,47.14 48.35,45.34 C48.58,45.26 48.82,45.37 48.9,45.6 C48.98,45.82 48.86,46.07 48.64,46.15 C43.66,47.91 30.6,57.83 30.47,57.93 C30.4,57.98 30.3,58.01 30.21,58.01z "/></g></g><g id="_R_G_L_4_G" transform=" translate(103.58, 286.334) translate(-71.312, -110.127)"><path id="_R_G_L_4_G_D_0_P_0" fill="#f48462" fill-opacity="1" fill-rule="nonzero" d=" M74.29 175.6 C74.29,175.6 74.29,189.81 74.29,189.81 C74.29,189.81 100.1,188.8 100.1,188.8 C100.1,188.8 100.1,175.6 100.1,175.6 C100.1,175.6 74.29,175.6 74.29,175.6z "/><path id="_R_G_L_4_G_D_1_P_0" fill="#f48462" fill-opacity="1" fill-rule="nonzero" d=" M14.7 174 C14.7,174 14.7,188.21 14.7,188.21 C14.7,188.21 38.59,187.2 38.59,187.2 C38.59,187.2 38.59,174 38.59,174 C38.59,174 14.7,174 14.7,174z "/><path id="_R_G_L_4_G_D_2_P_0" fill="#faab00" fill-opacity="1" fill-rule="nonzero" d=" M66.59 17.45 C66.59,17.45 85.22,48.01 96.25,96.93 C106.32,141.55 108.49,178.45 108.49,178.45 C108.49,178.45 64.94,178.45 64.94,178.45 C64.94,178.45 60.1,142.07 58.81,127.68 C57.52,113.28 53.22,94.01 53.22,94.01 C53.22,94.01 47.25,177.05 45.82,178.45 C44.4,179.86 2.71,178.76 3.16,176.86 C3.6,174.95 16.33,37.24 17.46,28.16 C20.93,0.25 66.59,17.45 66.59,17.45z "/><path id="_R_G_L_4_G_D_3_P_0" fill="#041126" fill-opacity="1" fill-rule="nonzero" d=" M44.52 211.68 C44.52,214.19 43.71,217.06 42.04,217.78 C40.38,218.5 26.91,220 15.12,218.94 C3.83,217.92 1.49,217.06 0.66,216 C0.25,215.45 1.04,212.95 1.95,210.52 C2.01,210.4 2.05,210.26 2.11,210.14 C2.57,208.92 3.06,207.73 3.41,206.89 C3.75,206.09 4.18,205.33 4.68,204.59 C5.9,202.84 8.32,199.23 8.94,197.37 C9.76,194.88 11,189.51 11.83,186.98 C12.66,184.5 14.69,183.97 14.69,183.97 C14.69,183.97 37.9,182.33 39.57,183.77 C41.21,185.2 42.04,197.03 42.04,198.81 C42.04,198.81 42.04,200.6 42.04,200.6 C42.04,202.26 43.15,205.55 43.86,208.28 C44.06,208.96 44.21,209.6 44.33,210.18 C44.44,210.76 44.52,211.26 44.52,211.68z "/><path id="_R_G_L_4_G_D_4_P_0" fill="#041126" fill-opacity="1" fill-rule="nonzero" d=" M141.64 216.8 C140.09,217.46 74.22,219.32 72.69,216.8 C72.22,216.04 71.89,213.45 71.68,210.2 C71.14,202.54 71.14,191.15 71.14,191.15 C71.14,191.15 70.65,187.26 70.75,185.46 C70.83,183.67 102.52,184.36 102.52,184.36 C102.52,184.36 123.11,201.18 123.11,201.18 C123.11,201.18 128.76,200.14 134.94,201.18 C138.21,201.72 140.32,205.87 141.37,209.78 C142.3,213.25 142.37,216.48 141.64,216.8z "/><path id="_R_G_L_4_G_D_5_P_0" fill="#041126" fill-opacity="1" fill-rule="nonzero" d=" M141.64 216.8 C140.09,217.46 74.21,219.32 72.69,216.8 C72.22,216.04 71.89,213.45 71.68,210.2 C84.2,211.12 115.02,212.87 141.37,209.78 C142.3,213.25 142.37,216.48 141.64,216.8z "/><path id="_R_G_L_4_G_D_6_P_0" fill="#041126" fill-opacity="1" fill-rule="nonzero" d=" M44.52 211.68 C44.52,214.19 43.71,217.06 42.04,217.78 C40.38,218.5 26.91,220.01 15.12,218.94 C3.83,217.92 1.49,217.06 0.66,216 C0.25,215.45 1.04,212.95 1.95,210.52 C12.43,211.34 31.34,212.08 43.86,208.28 C44.06,208.96 44.21,209.6 44.33,210.18 C44.44,210.76 44.52,211.26 44.52,211.68z "/><path id="_R_G_L_4_G_D_7_P_0" fill="#ffffff" fill-opacity="1" fill-rule="nonzero" d=" M53.22 94.44 C52.96,94.42 52.78,94.21 52.8,93.98 C52.81,93.8 54.17,75.92 54.56,68 C54.96,60.08 54.97,56.29 54.97,56.26 C54.97,56.09 55.07,55.94 55.22,55.87 C55.22,55.87 69.33,49.36 69.33,49.36 C69.55,49.26 69.8,49.36 69.9,49.57 C70,49.79 69.9,50.04 69.69,50.14 C69.69,50.14 55.83,56.53 55.83,56.53 C55.82,57.53 55.75,61.3 55.42,68.04 C55.02,75.97 53.67,93.86 53.65,94.04 C53.63,94.27 53.45,94.44 53.22,94.44z "/><path id="_R_G_L_4_G_D_8_P_0" fill="#ffffff" fill-opacity="1" fill-rule="nonzero" d=" M15.29 196.32 C15.1,196.32 14.93,196.2 14.88,196.01 C14.81,195.78 14.95,195.54 15.18,195.48 C15.55,195.37 24.5,192.91 29.26,193.75 C29.26,193.75 32.33,194.3 32.33,194.3 C29.88,192.41 24.45,188.73 21.12,190.2 C20.9,190.29 20.65,190.2 20.55,189.98 C20.45,189.76 20.55,189.51 20.77,189.42 C25.65,187.24 33.82,194.38 34.17,194.69 C34.31,194.81 34.35,195.02 34.27,195.19 C34.18,195.37 33.99,195.46 33.81,195.43 C33.81,195.43 29.11,194.59 29.11,194.59 C24.56,193.79 15.5,196.28 15.4,196.3 C15.37,196.32 15.33,196.32 15.29,196.32z "/><path id="_R_G_L_4_G_D_9_P_0" fill="#ffffff" fill-opacity="1" fill-rule="nonzero" d=" M118.17 197.57 C118.13,197.57 106.39,196.32 106.39,196.32 C106.23,196.3 106.1,196.2 106.04,196.06 C105.98,195.91 106,195.74 106.1,195.62 C106.1,195.62 110.2,190.63 110.2,190.63 C110.35,190.45 110.62,190.42 110.8,190.57 C110.98,190.72 111.01,190.99 110.86,191.17 C110.86,191.17 107.27,195.55 107.27,195.55 C107.27,195.55 118.22,196.72 118.22,196.72 C118.45,196.74 118.62,196.95 118.6,197.19 C118.58,197.41 118.39,197.57 118.17,197.57z "/><path id="_R_G_L_4_G_D_10_P_0" fill="#ffffff" fill-opacity="1" fill-rule="nonzero" d=" M18.07 48.29 C17.94,48.29 17.81,48.23 17.73,48.12 C17.59,47.93 17.63,47.66 17.82,47.52 C25.09,42.27 26.99,34.63 27.01,34.55 C27.06,34.32 27.29,34.18 27.52,34.23 C27.76,34.29 27.9,34.52 27.84,34.75 C27.77,35.07 25.86,42.77 18.33,48.21 C18.25,48.27 18.16,48.29 18.07,48.29z "/></g><g id="_R_G_L_3_G" transform=" translate(76.074, 205.455)"><path id="_R_G_L_3_G_D_0_P_0" fill="#70a665" fill-opacity="1" fill-rule="nonzero" d=" M46.83 2.79 C46.83,2.79 33.99,2.75 27.05,9.75 C17.02,19.87 27.94,38.23 25.31,76.87 C25.06,80.6 24.75,83.64 24.53,85.56 C27.91,85.49 33.1,85.4 39.45,85.38 C53.66,85.36 57.15,85.79 63.02,85.22 C68.52,84.7 76.29,83.34 85.53,79.56 C83.91,75.81 81.66,70.11 79.69,62.98 C71.22,32.3 78.74,14.13 68.39,5.54 C65.03,2.75 58.91,0.25 46.83,2.79z "/><path id="_R_G_L_3_G_D_1_P_0" fill="#70a665" fill-opacity="1" fill-rule="nonzero" d=" M67.36 4.21 C67.36,4.21 74.7,7.43 85.09,24.31 C94.6,39.76 95.96,54.03 91.57,62.81 C87.18,71.58 72.46,71.34 72.46,71.34 C72.46,71.34 67.36,4.21 67.36,4.21z "/><path id="_R_G_L_3_G_D_2_P_0" fill="#70a665" fill-opacity="1" fill-rule="nonzero" d=" M38.97 3.77 C38.97,3.77 29.21,2.67 19.78,8.91 C14.13,12.64 11.21,17.34 9.31,20.39 C6.87,24.31 5.43,29.06 2.53,38.56 C0.48,45.3 0.25,47.29 0.53,49.56 C0.99,53.29 2.9,58.64 6.53,60.56 C12.2,63.57 23.17,58.84 30.52,46.5 C33.34,32.26 36.15,18.02 38.97,3.77z "/><path id="_R_G_L_3_G_D_3_P_0" fill="#041126" fill-opacity="1" fill-rule="nonzero" d=" M84.99 40.03 C84.92,40.03 84.84,40.01 84.78,39.98 C75.28,34.55 52.84,33.8 52.62,33.79 C52.38,33.79 52.19,33.59 52.2,33.35 C52.21,33.12 52.4,32.94 52.63,32.94 C53.57,32.97 75.52,33.7 85.2,39.23 C85.41,39.35 85.48,39.61 85.36,39.82 C85.28,39.96 85.14,40.03 84.99,40.03z "/><path id="_R_G_L_3_G_D_4_P_0" fill="#041126" fill-opacity="1" fill-rule="nonzero" d=" M82.94 70.03 C82.69,70.01 61.14,67.98 43.17,59.73 C42.96,59.63 42.86,59.38 42.96,59.16 C43.06,58.95 43.32,58.85 43.53,58.95 C61.36,67.14 82.77,69.16 82.98,69.18 C83.22,69.2 83.39,69.41 83.37,69.64 C83.35,69.86 83.16,70.03 82.94,70.03z "/></g><g id="_R_G_L_2_G_N_8_T_0" transform=" translate(76.074, 205.455)"><g id="_R_G_L_2_G" transform=" translate(49.375, 5.753)"><path id="_R_G_L_2_G_D_0_P_0" fill="#041126" fill-opacity="1" fill-rule="nonzero" d=" M20.16 21.46 C20.16,21.46 30.63,22.39 31.63,12.36 C32.7,1.68 22.84,0.25 18.45,4.4 C14.07,8.56 14.67,12.99 14.67,12.99 C14.67,12.99 11.85,10.23 8.52,13.35 C6.08,15.63 7.13,19.58 7.13,19.58 C7.13,19.58 1.73,19.15 2.04,23.89 C2.35,28.63 5.63,31.17 5.63,31.17 C5.63,31.17 20.16,21.46 20.16,21.46z "/><path id="_R_G_L_2_G_D_1_P_0" fill="#ff9a7d" fill-opacity="1" fill-rule="nonzero" d=" M9.82 39.58 C9.82,39.58 10.46,50.76 10.46,50.76 C10.46,50.76 12.66,53.86 19.23,54.02 C24.13,54.14 25.78,52.94 25.78,52.94 C25.78,52.94 24.78,47.32 24.78,47.32 C24.78,47.32 23.79,41.83 23.79,41.83 C23.79,41.83 11.83,39.9 11.83,39.9 C11.83,39.9 9.82,39.58 9.82,39.58z "/><path id="_R_G_L_2_G_D_2_P_0" fill="#041126" fill-opacity="1" fill-rule="nonzero" d=" M11.83 39.9 C11.88,40.21 12.01,40.56 12.22,40.97 C15.04,46.41 21.95,47.22 24.78,47.32 C24.78,47.32 23.79,41.83 23.79,41.83 C23.79,41.83 11.83,39.9 11.83,39.9z "/><path id="_R_G_L_2_G_D_3_P_0" fill="#ff9a7d" fill-opacity="1" fill-rule="nonzero" d=" M24.84 16.2 C24.84,16.2 31.5,29.89 29.63,37.81 C27.76,45.73 20.58,44.79 16.24,43.46 C11.91,42.12 9.82,39.58 9.82,39.58 C9.82,39.58 5.89,41.1 3.07,37.5 C0.25,33.9 1.72,29.58 3.95,28.51 C6.19,27.44 8.97,28.97 8.97,28.97 C8.97,28.97 6.68,25.01 6.68,25.01 C6.68,25.01 14.75,4.05 24.84,16.2z "/><path id="_R_G_L_2_G_D_4_P_0" fill="#041126" fill-opacity="1" fill-rule="nonzero" d=" M8.87 35.02 C8.79,35.02 8.71,35 8.63,34.96 C8.63,34.96 3.39,31.62 3.39,31.62 C3.18,31.49 3.12,31.21 3.26,31.01 C3.39,30.81 3.66,30.75 3.86,30.88 C3.86,30.88 9.1,34.21 9.1,34.21 C9.31,34.34 9.37,34.62 9.24,34.82 C9.16,34.95 9.01,35.02 8.87,35.02z "/><path id="_R_G_L_2_G_D_5_P_0" fill="#041126" fill-opacity="1" fill-rule="nonzero" d=" M4.27 35.22 C4.09,35.22 3.92,35.1 3.86,34.92 C3.78,34.69 3.91,34.44 4.14,34.37 C4.14,34.37 7.41,33.32 7.41,33.32 C7.64,33.25 7.89,33.37 7.96,33.61 C8.04,33.84 7.91,34.08 7.68,34.16 C7.68,34.16 4.41,35.2 4.41,35.2 C4.36,35.21 4.32,35.22 4.27,35.22z "/><path id="_R_G_L_2_G_D_6_P_0" fill="#041126" fill-opacity="1" fill-rule="nonzero" d=" M15.78 22.62 C15.69,22.62 15.61,22.6 15.53,22.55 C15.33,22.41 15.28,22.14 15.42,21.94 C16.82,19.89 18.86,20.13 19.74,20.55 C19.96,20.65 20.06,20.91 19.95,21.13 C19.85,21.35 19.58,21.44 19.37,21.34 C19.3,21.31 17.46,20.5 16.14,22.43 C16.06,22.56 15.92,22.62 15.78,22.62z "/><path id="_R_G_L_2_G_D_7_P_0" fill="#041126" fill-opacity="1" fill-rule="nonzero" d=" M26.6 21.48 C26.51,21.48 26.41,21.45 26.34,21.4 C25.1,20.49 23.9,21.25 23.85,21.29 C23.65,21.42 23.37,21.37 23.24,21.16 C23.11,20.96 23.16,20.69 23.36,20.56 C23.43,20.51 25.12,19.41 26.86,20.69 C27.05,20.83 27.09,21.11 26.95,21.3 C26.86,21.42 26.73,21.48 26.6,21.48z "/><path id="_R_G_L_2_G_D_8_P_0" fill="#041126" fill-opacity="1" fill-rule="nonzero" d=" M24.58 34.1 C24.55,34.1 24.52,34.1 24.48,34.09 C24.25,34.04 24.1,33.8 24.16,33.56 C25.13,29.43 22.82,26.59 22.8,26.56 C22.64,26.38 22.67,26.1 22.85,25.95 C23.04,25.79 23.31,25.81 23.47,26 C23.58,26.13 26.09,29.19 25.01,33.76 C24.96,33.97 24.78,34.1 24.58,34.1z "/><path id="_R_G_L_2_G_D_9_P_0" fill="#041126" fill-opacity="1" fill-rule="nonzero" d=" M26.85 26.86 C26.67,26.86 26.5,26.74 26.44,26.56 C26.44,26.56 25.59,24.03 25.59,24.03 C25.51,23.8 25.64,23.55 25.87,23.48 C26.1,23.4 26.35,23.52 26.42,23.75 C26.42,23.75 27.27,26.28 27.27,26.28 C27.35,26.51 27.22,26.76 26.99,26.83 C26.95,26.85 26.9,26.86 26.85,26.86z "/><path id="_R_G_L_2_G_D_10_P_0" fill="#041126" fill-opacity="1" fill-rule="nonzero" d=" M19.78 27.4 C19.6,27.4 19.43,27.28 19.37,27.1 C19.37,27.1 18.52,24.57 18.52,24.57 C18.44,24.34 18.57,24.09 18.8,24.02 C19.03,23.94 19.28,24.07 19.35,24.29 C19.35,24.29 20.2,26.82 20.2,26.82 C20.28,27.05 20.15,27.3 19.92,27.38 C19.88,27.39 19.83,27.4 19.78,27.4z "/><path id="_R_G_L_2_G_D_11_P_0" fill="#041126" fill-opacity="1" fill-rule="nonzero" d=" M26.19 19.29 C26.19,19.29 24.85,17.11 22.06,17.25 C19.27,17.39 17.75,19.45 17.75,19.45 C17.75,19.45 19.24,24.08 15.59,26.79 C11.94,29.5 8.97,28.97 8.97,28.97 C8.97,28.97 6.16,28.14 6.16,28.14 C6.16,28.14 3.91,24.24 3.91,24.24 C3.91,24.24 11.38,15.21 11.38,15.21 C11.38,15.21 21.38,9.18 21.38,9.18 C21.38,9.18 26.9,13.65 26.9,13.65 C26.9,13.65 26.19,19.29 26.19,19.29z "/><path id="_R_G_L_2_G_D_12_P_0" fill="#041126" fill-opacity="1" fill-rule="nonzero" d=" M22.44 37.7 C22.37,37.7 22.3,37.69 22.23,37.65 C22.23,37.65 19.58,36.27 19.58,36.27 C19.37,36.16 19.28,35.89 19.39,35.68 C19.51,35.46 19.77,35.38 19.99,35.49 C19.99,35.49 22.64,36.88 22.64,36.88 C22.85,36.99 22.94,37.25 22.83,37.47 C22.75,37.62 22.59,37.7 22.44,37.7z "/></g></g><g id="_R_G_L_1_G_N_8_T_0" transform=" translate(76.074, 205.455)"><g id="_R_G_L_1_G" transform=" translate(10.935, 70.08)"><path id="_R_G_L_1_G_D_0_P_0" fill="#ff9a7d" fill-opacity="1" fill-rule="nonzero" d=" M1.33 54.39 C1.33,54.39 1.91,77.4 20.42,74.7 C41.44,71.65 49.8,29.65 49.8,29.65 C49.8,29.65 56.07,25.66 56.07,25.66 C56.07,25.66 54.87,30.78 59.9,28.02 C64.92,25.27 63.92,20.09 63.92,20.09 C63.92,20.09 58.04,9.67 58.04,9.67 C58.04,9.67 66.72,1.32 64.15,0.9 C60.19,0.25 47.85,8.79 47.85,8.79 C47.85,8.79 48.53,3.64 45.66,4.49 C42.56,5.41 41.47,14.9 41.47,14.9 C41.47,14.9 8.5,52.62 8.5,52.62 C8.5,52.62 1.33,54.39 1.33,54.39z "/><path id="_R_G_L_1_G_D_1_P_0" fill="#041126" fill-opacity="1" fill-rule="nonzero" d=" M56.07 26.1 C55.95,26.1 55.83,26.04 55.74,25.94 C55.61,25.79 55.6,25.57 55.71,25.41 C55.71,25.41 58.01,22.05 58.01,22.05 C58.15,21.85 58.43,21.8 58.62,21.94 C58.82,22.08 58.87,22.35 58.74,22.55 C58.74,22.55 57.37,24.54 57.37,24.54 C57.37,24.54 59.33,23.58 59.33,23.58 C59.55,23.48 59.81,23.57 59.92,23.79 C60.03,24.01 59.93,24.27 59.72,24.38 C59.72,24.38 56.27,26.05 56.27,26.05 C56.2,26.08 56.14,26.1 56.07,26.1z "/><path id="_R_G_L_1_G_D_2_P_0" fill="#041126" fill-opacity="1" fill-rule="nonzero" d=" M55.8 11.67 C55.66,11.67 55.53,11.61 55.44,11.48 C55.3,11.29 55.35,11.01 55.55,10.87 C55.55,10.87 57.79,9.31 57.79,9.31 C57.98,9.17 58.26,9.22 58.4,9.42 C58.54,9.61 58.49,9.89 58.29,10.03 C58.29,10.03 56.05,11.59 56.05,11.59 C55.97,11.65 55.89,11.67 55.8,11.67z "/><path id="_R_G_L_1_G_D_3_P_0" fill="#70a665" fill-opacity="1" fill-rule="nonzero" d=" M39.61 15.13 C39.61,15.13 53.15,32.1 53.15,32.1 C53.15,32.1 47.94,64.77 31.68,74.92 C15.42,85.08 0.25,70.62 1.33,54.39 C2.41,38.16 39.61,15.13 39.61,15.13z "/><path id="_R_G_L_1_G_D_4_P_0" fill="#041126" fill-opacity="1" fill-rule="nonzero" d=" M47.85 9.22 C47.75,9.22 47.65,9.19 47.57,9.12 C47.42,8.99 47.37,8.78 47.45,8.6 C47.46,8.58 48.68,5.78 46.87,3.87 C46.6,3.58 46.39,3.59 46.27,3.61 C45.2,3.86 43.87,6.84 43.28,8.66 C43.2,8.89 42.95,9.01 42.73,8.94 C42.49,8.87 42.37,8.62 42.44,8.39 C42.61,7.86 44.18,3.19 46.08,2.76 C46.44,2.68 46.98,2.7 47.51,3.27 C48.91,4.75 48.86,6.59 48.62,7.77 C48.62,7.77 52.34,5.37 52.34,5.37 C52.55,5.24 52.82,5.3 52.95,5.5 C53.08,5.71 53.02,5.98 52.82,6.11 C52.82,6.11 48.09,9.15 48.09,9.15 C48.02,9.2 47.93,9.22 47.85,9.22z "/><path id="_R_G_L_1_G_D_5_P_0" fill="#041126" fill-opacity="1" fill-rule="nonzero" d=" M53.15 32.53 C53.02,32.53 52.89,32.47 52.81,32.36 C52.81,32.36 39.6,14.99 39.6,14.99 C39.6,14.99 30.97,25.92 30.97,25.92 C30.83,26.11 30.56,26.14 30.37,25.99 C30.19,25.85 30.15,25.58 30.3,25.39 C30.3,25.39 39.27,14.02 39.27,14.02 C39.35,13.92 39.48,13.86 39.61,13.86 C39.74,13.86 39.87,13.92 39.95,14.03 C39.95,14.03 53.49,31.84 53.49,31.84 C53.64,32.03 53.6,32.3 53.41,32.44 C53.33,32.5 53.24,32.53 53.15,32.53z "/></g></g><g id="_R_G_L_0_G_N_8_T_0" transform=" translate(76.074, 205.455)"><g id="_R_G_L_0_G" transform=" translate(16.399, 35.03) translate(-10.598, -8.437)"><path id="_R_G_L_0_G_D_0_P_0" fill="#ff9a7d" fill-opacity="1" fill-rule="nonzero" d=" M20.95 0.37 C20.95,0.37 13.52,0.25 10.08,1.69 C6.63,3.13 0.25,12.05 1.3,13.37 C2.34,14.69 4.64,13.37 4.64,13.37 C4.64,13.37 3.39,16.62 6.31,16.54 C9.24,16.45 20.95,0.37 20.95,0.37z "/><path id="_R_G_L_0_G_D_1_P_0" fill="#041126" fill-opacity="1" fill-rule="nonzero" d=" M4.44 14 C4.33,14 4.23,13.97 4.15,13.9 C3.96,13.74 3.95,13.46 4.11,13.27 C4.11,13.27 10.53,5.93 10.53,5.93 C10.69,5.75 10.97,5.73 11.15,5.89 C11.33,6.05 11.35,6.32 11.19,6.51 C11.19,6.51 4.77,13.86 4.77,13.86 C4.68,13.95 4.56,14 4.44,14z "/></g></g></g><g id="time_group"/></svg>