<svg xmlns="http://www.w3.org/2000/svg" xmlns:xlink="http://www.w3.org/1999/xlink" preserveAspectRatio="xMidYMid meet" width="423" height="520" viewBox="0 0 423 520" style="width:100%;height:100%"><defs><animateTransform repeatCount="indefinite" dur="4.004004s" begin="0s" xlink:href="#_R_G_L_3_G" fill="freeze" attributeName="transform" from="0" to="360" type="rotate" additive="sum" keyTimes="0;1" values="0;360" keySplines="0.167 0.167 0.833 0.833" calcMode="spline"/><animateTransform repeatCount="indefinite" dur="4.004004s" begin="0s" xlink:href="#_R_G_L_3_G" fill="freeze" attributeName="transform" from="-130.009 -129.836" to="-130.009 -129.836" type="translate" additive="sum" keyTimes="0;1" values="-130.009 -129.836;-130.009 -129.836" keySplines="0 0 1 1" calcMode="spline"/><animateTransform repeatCount="indefinite" dur="4.004004s" begin="0s" xlink:href="#_R_G_L_2_G" fill="freeze" attributeName="transform" from="0 0" to="0 0" type="scale" additive="sum" keyTimes="0;0.0416667;0.125;0.15;0.1666667;0.1833333;0.2083333;0.825;0.8416666;0.8583333;0.875;0.9583333;1" values="0 0;0 0;1.11974 1.11974;0.9500000000000001 0.9500000000000001;1.06015 1.06015;0.9500000000000001 0.9500000000000001;1 1;1 1;0.9500000000000001 0.9500000000000001;1 1;1.11974 1.11974;0 0;0 0" keySplines="0.333 0 0.585 1;0.333 0 0.585 1;0.333 0 0.403 1;0.54 0.05 0.453 0.991;0.651 0.026 0.411 1;0.091 0 0.397 0;0.175 0 0.419 1;0.653 0.002 0.662 0.999;0.753 0.065 0.662 1;0.649 0 0.662 1;0.54 0 0.833 1;0 0 0 0" calcMode="spline"/><animateTransform repeatCount="indefinite" dur="4.004004s" begin="0s" xlink:href="#_R_G_L_2_G" fill="freeze" attributeName="transform" from="-95.928 -95.927" to="-95.928 -95.927" type="translate" additive="sum" keyTimes="0;1" values="-95.928 -95.927;-95.928 -95.927" keySplines="0 0 1 1" calcMode="spline"/><animateTransform repeatCount="indefinite" dur="4.004004s" begin="0s" xlink:href="#_R_G_L_1_G" fill="freeze" attributeName="transform" from="0 0" to="0 0" type="scale" additive="sum" keyTimes="0;0.1666667;0.25;0.275;0.2916667;0.3083333;0.3333333;0.825;0.8416666;0.8583333;0.875;0.9583333;1" values="0 0;0 0;1.11974 1.11974;0.9500000000000001 0.9500000000000001;1.06015 1.06015;0.9500000000000001 0.9500000000000001;1 1;1 1;0.9500000000000001 0.9500000000000001;1 1;1.11974 1.11974;0 0;0 0" keySplines="0.333 0 0.585 1;0.333 0 0.585 1;0.333 0 0.403 1;0.54 0.05 0.453 0.991;0.651 0.026 0.411 1;0.091 0 0.397 0;0.175 0 0.419 1;0.653 0.002 0.662 0.999;0.753 0.065 0.662 1;0.649 0 0.662 1;0.54 0 0.833 1;0 0 0 0" calcMode="spline"/><animateTransform repeatCount="indefinite" dur="4.004004s" begin="0s" xlink:href="#_R_G_L_1_G" fill="freeze" attributeName="transform" from="-95.928 -95.927" to="-95.928 -95.927" type="translate" additive="sum" keyTimes="0;1" values="-95.928 -95.927;-95.928 -95.927" keySplines="0 0 1 1" calcMode="spline"/><animate repeatCount="indefinite" dur="4.004004s" begin="0s" xlink:href="#_R_G_L_0_G" fill="freeze" attributeName="opacity" from="0" to="0" keyTimes="0;0.275;0.4166666;0.875;0.9583333;1" values="0;0;1;1;0;0" keySplines="0.333 0 0.667 1;0.333 0 0.667 1;0.333 0 0.833 1;0.167 0 0.833 1;0 0 0 0" calcMode="spline"/><animate attributeType="XML" attributeName="opacity" dur="4s" from="0" to="1" xlink:href="#time_group"/></defs><g id="_R_G"><g id="_R_G_L_3_G" transform=" translate(255.938, 152.468)"><path id="_R_G_L_3_G_D_0_P_0" fill="#cbe0c6" fill-opacity="1" fill-rule="nonzero" d=" M234.04 173.67 C234.54,172.48 235.02,171.29 235.48,170.09 C235.93,168.91 236.37,167.71 236.79,166.49 C237.2,165.32 237.59,164.1 237.98,162.84 C237.98,162.84 238.21,162.09 238.21,162.09 C238.21,162.09 239.01,162.13 239.01,162.13 C239.01,162.13 254.81,162.96 254.81,162.96 C254.81,162.96 254.81,162.95 254.81,162.95 C255.05,162.97 255.26,162.89 255.43,162.76 C255.6,162.63 255.73,162.43 255.77,162.21 C255.77,162.21 255.97,161.17 255.97,161.17 C255.97,161.17 255.97,161.17 255.97,161.17 C255.97,161.17 256.39,158.97 256.39,158.97 C256.39,158.97 259.11,144.58 259.11,144.58 C259.11,144.58 259.72,141.34 259.72,141.34 C259.77,141.11 259.72,140.88 259.61,140.69 C259.49,140.5 259.31,140.35 259.08,140.28 C259.08,140.28 259.07,140.27 259.07,140.27 C259.07,140.27 243.53,135.08 243.53,135.08 C243.53,135.08 242.81,134.84 242.81,134.84 C242.81,134.84 242.83,134.08 242.83,134.08 C242.88,132.8 242.91,131.54 242.91,130.27 C242.92,129.02 242.9,127.75 242.86,126.47 C242.82,125.17 242.76,123.9 242.68,122.66 C242.61,121.45 242.5,120.18 242.37,118.85 C242.37,118.85 242.3,118.09 242.3,118.09 C242.3,118.09 243.01,117.81 243.01,117.81 C243.01,117.81 258.24,111.71 258.24,111.71 C258.46,111.62 258.63,111.46 258.72,111.26 C258.82,111.05 258.85,110.82 258.79,110.59 C258.79,110.59 258.78,110.56 258.78,110.56 C258.78,110.56 257.99,107.43 257.99,107.43 C257.99,107.43 254.4,93.22 254.4,93.22 C254.4,93.22 253.6,90.02 253.6,90.02 C253.54,89.8 253.41,89.61 253.23,89.49 C253.05,89.36 252.82,89.3 252.59,89.33 C252.59,89.33 251.68,89.43 251.68,89.43 C251.68,89.43 251.68,89.43 251.68,89.43 C251.68,89.43 236.88,91.07 236.88,91.07 C236.88,91.07 236.09,91.16 236.09,91.16 C236.09,91.16 235.81,90.42 235.81,90.42 C235.38,89.26 234.92,88.07 234.42,86.87 C233.94,85.69 233.44,84.52 232.92,83.37 C232.41,82.23 231.86,81.07 231.28,79.9 C230.71,78.73 230.12,77.59 229.52,76.47 C229.52,76.47 229.16,75.79 229.16,75.79 C229.16,75.79 229.72,75.26 229.72,75.26 C229.72,75.26 241.43,63.97 241.43,63.97 C241.59,63.81 241.69,63.59 241.7,63.38 C241.72,63.16 241.66,62.94 241.53,62.75 C241.53,62.75 240.94,61.95 240.94,61.95 C240.94,61.95 240.94,61.94 240.94,61.94 C240.94,61.94 239.58,60.09 239.58,60.09 C239.58,60.09 239.58,60.09 239.58,60.09 C239.58,60.09 239.53,60.02 239.53,60.02 C239.53,60.02 239.51,59.99 239.51,59.99 C239.51,59.99 230.91,48.27 230.91,48.27 C230.91,48.27 228.96,45.61 228.96,45.61 C228.81,45.42 228.6,45.3 228.38,45.25 C228.16,45.21 227.92,45.25 227.72,45.38 C227.72,45.38 227.66,45.41 227.66,45.41 C227.66,45.41 213.77,52.94 213.77,52.94 C213.77,52.94 213.08,53.31 213.08,53.31 C213.08,53.31 212.54,52.74 212.54,52.74 C211.65,51.79 210.77,50.88 209.91,50.01 C208.99,49.1 208.07,48.21 207.15,47.35 C206.27,46.53 205.32,45.67 204.3,44.78 C203.3,43.91 202.32,43.08 201.36,42.3 C201.36,42.3 200.76,41.82 200.76,41.82 C200.76,41.82 201.06,41.11 201.06,41.11 C201.06,41.11 207.46,26.08 207.46,26.08 C207.55,25.87 207.55,25.63 207.49,25.43 C207.42,25.22 207.28,25.04 207.08,24.92 C207.08,24.92 206.33,24.48 206.33,24.48 C206.33,24.48 206.33,24.47 206.33,24.47 C206.33,24.47 204.25,23.23 204.25,23.23 C204.25,23.23 191.65,15.73 191.65,15.73 C191.65,15.73 188.82,14.04 188.82,14.04 C188.61,13.92 188.38,13.88 188.17,13.93 C188.17,13.93 188.16,13.92 188.16,13.92 C187.95,13.97 187.75,14.09 187.61,14.27 C187.61,14.27 187.59,14.29 187.59,14.29 C187.59,14.29 177.76,26.62 177.76,26.62 C177.76,26.62 177.27,27.24 177.27,27.24 C177.27,27.24 176.54,26.92 176.54,26.92 C175.37,26.38 174.21,25.88 173.06,25.41 C171.88,24.92 170.69,24.45 169.49,24 C168.31,23.55 167.1,23.12 165.87,22.71 C164.7,22.31 163.48,21.93 162.22,21.55 C162.22,21.55 161.49,21.33 161.49,21.33 C161.49,21.33 161.49,20.57 161.49,20.57 C161.49,20.57 161.54,4.14 161.54,4.14 C161.54,3.9 161.45,3.68 161.3,3.51 C161.15,3.35 160.94,3.23 160.7,3.21 C160.7,3.21 160.66,3.2 160.66,3.2 C160.66,3.2 157.47,2.76 157.47,2.76 C157.47,2.76 142.95,0.73 142.95,0.73 C142.95,0.73 139.68,0.28 139.68,0.28 C139.68,0.28 139.68,0.28 139.68,0.28 C139.45,0.25 139.23,0.3 139.05,0.42 C138.87,0.54 138.73,0.72 138.66,0.94 C138.66,0.94 138.39,1.92 138.39,1.92 C137.78,4.1 137.31,5.9 136.9,7.45 C136.9,7.45 136.89,7.5 136.89,7.5 C136.2,10.09 135.7,11.97 135.24,13.33 C134.74,14.83 134.26,15.73 133.63,16.22 C133.63,16.22 133.57,16.27 133.57,16.27 C133.57,16.27 133.5,16.32 133.5,16.32 C133,16.65 132.32,16.81 131.39,16.89 C130.64,16.95 129.61,16.96 128.3,16.96 C127.11,16.97 125.71,16.98 123.99,17.04 C122.31,17.11 120.36,17.23 118.1,17.47 C118.1,17.47 117.33,17.54 117.33,17.54 C117.33,17.54 117.05,16.83 117.05,16.83 C117.05,16.83 110.98,1.73 110.98,1.73 C110.89,1.51 110.73,1.34 110.53,1.25 C110.32,1.15 110.09,1.12 109.86,1.18 C109.86,1.18 109.83,1.19 109.83,1.19 C109.83,1.19 106.69,1.98 106.69,1.98 C106.69,1.98 92.48,5.54 92.48,5.54 C92.48,5.54 89.28,6.35 89.28,6.35 C89.05,6.4 88.87,6.54 88.74,6.72 C88.74,6.72 88.74,6.72 88.74,6.72 C88.62,6.9 88.55,7.12 88.58,7.35 C88.58,7.35 88.68,8.27 88.68,8.27 C88.68,8.27 88.68,8.27 88.68,8.27 C88.68,8.27 90.35,23.16 90.35,23.16 C90.35,23.16 90.44,23.94 90.44,23.94 C90.44,23.94 89.7,24.22 89.7,24.22 C88.54,24.67 87.35,25.14 86.15,25.64 C84.97,26.13 83.81,26.64 82.65,27.17 C81.5,27.7 80.34,28.26 79.18,28.84 C77.97,29.44 76.84,30.03 75.79,30.6 C75.79,30.6 75.11,30.97 75.11,30.97 C75.11,30.97 74.57,30.41 74.57,30.41 C74.57,30.41 63.35,18.8 63.35,18.8 C63.19,18.63 62.98,18.54 62.76,18.52 C62.54,18.5 62.32,18.56 62.13,18.7 C62.13,18.7 62.13,18.7 62.13,18.7 C62.13,18.7 62.13,18.7 62.13,18.7 C62.13,18.7 61.93,18.84 61.93,18.84 C61.93,18.84 61.39,19.24 61.39,19.24 C61.39,19.24 61.39,19.24 61.39,19.24 C61.39,19.24 59.47,20.65 59.47,20.65 C59.47,20.65 47.65,29.3 47.65,29.3 C47.65,29.3 44.99,31.25 44.99,31.25 C44.99,31.25 44.99,31.25 44.99,31.25 C44.8,31.39 44.68,31.6 44.63,31.82 C44.59,32.04 44.63,32.28 44.76,32.48 C44.76,32.48 44.79,32.54 44.79,32.54 C44.79,32.54 52.39,46.52 52.39,46.52 C52.39,46.52 52.76,47.2 52.76,47.2 C52.76,47.2 52.2,47.74 52.2,47.74 C51.3,48.59 50.39,49.48 49.48,50.41 C48.57,51.33 47.69,52.25 46.84,53.18 C45.97,54.12 45.12,55.08 44.28,56.06 C43.47,57 42.65,57.98 41.84,59 C41.84,59 41.36,59.6 41.36,59.6 C41.36,59.6 40.65,59.3 40.65,59.3 C40.65,59.3 25.72,52.94 25.72,52.94 C25.5,52.85 25.27,52.85 25.07,52.92 C24.86,52.99 24.67,53.13 24.56,53.32 C24.56,53.32 24.12,54.07 24.12,54.07 C24.12,54.07 24.11,54.07 24.11,54.07 C24.11,54.07 22.87,56.15 22.87,56.15 C22.87,56.15 15.37,68.73 15.37,68.73 C15.37,68.73 13.68,71.56 13.68,71.56 C13.56,71.76 13.53,72 13.57,72.21 C13.61,72.43 13.73,72.63 13.91,72.77 C13.91,72.77 13.93,72.79 13.93,72.79 C13.93,72.79 26.37,82.69 26.37,82.69 C26.37,82.69 26.99,83.18 26.99,83.18 C26.99,83.18 26.67,83.89 26.67,83.89 C26.14,85.07 25.64,86.24 25.18,87.4 C24.7,88.58 24.24,89.77 23.8,90.97 C23.37,92.15 22.95,93.36 22.54,94.6 C22.14,95.84 21.76,97.06 21.41,98.25 C21.41,98.25 21.2,98.99 21.2,98.99 C21.2,98.99 20.43,98.98 20.43,98.98 C20.43,98.98 4.12,98.93 4.12,98.93 C3.88,98.93 3.66,99.02 3.5,99.17 C3.33,99.32 3.22,99.53 3.2,99.77 C3.2,99.77 3.19,99.81 3.19,99.81 C3.19,99.81 2.75,102.99 2.75,102.99 C2.75,102.99 0.73,117.5 0.73,117.5 C0.73,117.5 0.28,120.76 0.28,120.76 C0.28,120.76 0.28,120.76 0.28,120.76 C0.25,120.99 0.3,121.22 0.42,121.39 C0.54,121.58 0.73,121.72 0.95,121.78 C0.95,121.78 2.03,122.09 2.03,122.09 C2.03,122.09 16.27,126.08 16.27,126.08 C16.27,126.08 17.03,126.29 17.03,126.29 C17.03,126.29 17.01,127.08 17.01,127.08 C16.98,128.35 16.98,129.62 16.99,130.9 C17.01,132.22 17.04,133.49 17.1,134.71 C17.16,135.93 17.24,137.2 17.34,138.53 C17.45,139.84 17.57,141.12 17.71,142.36 C17.71,142.36 17.8,143.13 17.8,143.13 C17.8,143.13 17.08,143.42 17.08,143.42 C17.08,143.42 2.09,149.43 2.09,149.43 C1.87,149.51 1.7,149.68 1.6,149.88 C1.5,150.08 1.48,150.31 1.54,150.54 C1.54,150.54 1.55,150.57 1.55,150.57 C1.55,150.57 2.34,153.71 2.34,153.71 C2.34,153.71 5.92,167.92 5.92,167.92 C5.92,167.92 6.73,171.11 6.73,171.11 C6.78,171.34 6.92,171.52 7.1,171.65 C7.28,171.77 7.5,171.84 7.73,171.81 C7.73,171.81 8.48,171.73 8.48,171.73 C8.48,171.73 8.48,171.73 8.48,171.73 C8.48,171.73 23.66,170.04 23.66,170.04 C23.66,170.04 24.44,169.95 24.44,169.95 C24.44,169.95 24.72,170.68 24.72,170.68 C25.2,171.89 25.68,173.08 26.18,174.24 C26.7,175.46 27.22,176.62 27.74,177.72 C28.26,178.84 28.83,179.99 29.42,181.16 C30,182.29 30.61,183.42 31.22,184.53 C31.22,184.53 31.61,185.22 31.61,185.22 C31.61,185.22 31.04,185.76 31.04,185.76 C31.04,185.76 19.51,196.88 19.51,196.88 C19.34,197.04 19.25,197.25 19.23,197.47 C19.21,197.69 19.27,197.92 19.4,198.1 C19.4,198.1 19.41,198.1 19.41,198.1 C19.41,198.1 19.41,198.1 19.41,198.1 C19.41,198.1 19.54,198.28 19.54,198.28 C19.54,198.28 19.85,198.69 19.85,198.69 C19.85,198.69 19.85,198.7 19.85,198.7 C19.85,198.7 21.36,200.76 21.36,200.76 C21.36,200.76 30.03,212.58 30.03,212.58 C30.03,212.58 31.98,215.24 31.98,215.24 C32.12,215.43 32.33,215.55 32.56,215.6 C32.78,215.64 33.02,215.6 33.23,215.47 C33.23,215.47 33.28,215.44 33.28,215.44 C33.28,215.44 47.37,207.8 47.37,207.8 C47.37,207.8 48.05,207.43 48.05,207.43 C48.05,207.43 48.58,207.99 48.58,207.99 C49.44,208.87 50.34,209.78 51.29,210.69 C52.21,211.59 53.14,212.46 54.09,213.31 C55.01,214.15 55.97,214.99 56.95,215.82 C57.92,216.63 58.92,217.44 59.94,218.25 C59.94,218.25 60.55,218.73 60.55,218.73 C60.55,218.73 60.25,219.45 60.25,219.45 C60.25,219.45 53.95,234.25 53.95,234.25 C53.86,234.47 53.85,234.7 53.92,234.9 C53.99,235.11 54.13,235.3 54.32,235.41 C54.32,235.41 55.07,235.85 55.07,235.85 C55.07,235.85 55.07,235.86 55.07,235.86 C55.07,235.86 57.16,237.1 57.16,237.1 C57.16,237.1 69.76,244.6 69.76,244.6 C69.76,244.6 72.59,246.29 72.59,246.29 C72.59,246.29 72.59,246.29 72.59,246.29 C72.79,246.41 73.03,246.45 73.24,246.41 C73.24,246.41 73.24,246.41 73.24,246.41 C73.46,246.36 73.66,246.24 73.8,246.06 C73.8,246.06 73.82,246.04 73.82,246.04 C73.82,246.04 83.78,233.54 83.78,233.54 C83.78,233.54 84.27,232.93 84.27,232.93 C84.27,232.93 84.99,233.24 84.99,233.24 C86.16,233.75 87.33,234.24 88.49,234.7 C89.67,235.16 90.87,235.61 92.08,236.04 C92.08,236.04 92.4,236.16 92.4,236.16 C92.4,236.16 92.97,236.36 92.97,236.36 C94,236.72 95.07,237.07 96.18,237.42 C97.28,237.77 98.35,238.09 99.4,238.38 C99.4,238.38 100.15,238.59 100.15,238.59 C100.15,238.59 100.14,239.37 100.14,239.37 C100.14,239.37 100.1,255.54 100.1,255.54 C100.1,255.77 100.19,255.99 100.34,256.16 C100.49,256.33 100.71,256.44 100.95,256.46 C100.95,256.46 100.98,256.47 100.98,256.47 C100.98,256.47 104.17,256.92 104.17,256.92 C104.17,256.92 118.69,258.94 118.69,258.94 C118.69,258.94 121.96,259.39 121.96,259.39 C121.96,259.39 121.96,259.39 121.96,259.39 C122.19,259.42 122.41,259.37 122.59,259.25 C122.77,259.13 122.92,258.95 122.98,258.73 C122.98,258.73 123.28,257.64 123.28,257.64 C123.28,257.64 123.28,257.64 123.28,257.64 C123.28,257.64 127.3,243.32 127.3,243.32 C127.3,243.32 127.51,242.57 127.51,242.57 C127.51,242.57 128.29,242.58 128.29,242.58 C129.53,242.6 130.8,242.59 132.11,242.57 C133.43,242.54 134.71,242.5 135.94,242.43 C135.94,242.43 135.94,242.43 135.94,242.43 C137.23,242.36 138.51,242.27 139.76,242.16 C141.02,242.05 142.3,241.92 143.58,241.77 C143.58,241.77 144.35,241.67 144.35,241.67 C144.35,241.67 144.64,242.4 144.64,242.4 C144.64,242.4 150.62,257.27 150.62,257.27 C150.71,257.49 150.87,257.66 151.07,257.76 C151.28,257.86 151.51,257.88 151.74,257.82 C151.74,257.82 151.77,257.81 151.77,257.81 C151.77,257.81 154.91,257.02 154.91,257.02 C154.91,257.02 167.73,253.81 167.73,253.81 C167.73,253.81 169.13,253.46 169.13,253.46 C169.13,253.46 172.32,252.65 172.32,252.65 C172.55,252.6 172.74,252.46 172.86,252.29 C172.99,252.11 173.05,251.88 173.02,251.65 C173.02,251.65 172.95,251.05 172.95,251.05 C172.95,251.05 172.95,251.05 172.95,251.05 C172.95,251.05 171.22,235.62 171.22,235.62 C171.22,235.62 171.14,234.85 171.14,234.85 C171.14,234.85 171.86,234.57 171.86,234.57 C173.01,234.11 174.19,233.62 175.4,233.09 C176.56,232.58 177.73,232.04 178.9,231.48 C180,230.95 181.14,230.39 182.29,229.78 C183.47,229.17 184.59,228.56 185.66,227.96 C185.66,227.96 186.35,227.57 186.35,227.57 C186.35,227.57 186.89,228.14 186.89,228.14 C186.89,228.14 197.96,239.59 197.96,239.59 C198.12,239.76 198.33,239.85 198.55,239.87 C198.77,239.89 198.99,239.83 199.18,239.7 C199.18,239.7 200.04,239.06 200.04,239.06 C200.04,239.06 200.04,239.07 200.04,239.07 C200.04,239.07 201.84,237.75 201.84,237.75 C201.84,237.75 201.91,237.7 201.91,237.7 C201.91,237.7 201.94,237.68 201.94,237.68 C201.94,237.68 213.66,229.09 213.66,229.09 C213.66,229.09 216.32,227.15 216.32,227.15 C216.32,227.15 216.32,227.15 216.32,227.15 C216.52,227 216.64,226.8 216.68,226.57 C216.72,226.35 216.68,226.11 216.56,225.91 C216.56,225.91 216.52,225.85 216.52,225.85 C216.52,225.85 208.81,211.65 208.81,211.65 C208.81,211.65 208.44,210.98 208.44,210.98 C208.44,210.98 208.98,210.44 208.98,210.44 C209.64,209.8 210.33,209.11 211.03,208.38 C211.74,207.65 212.42,206.93 213.06,206.24 C213.74,205.5 214.39,204.77 215.03,204.04 C215.61,203.38 216.24,202.64 216.91,201.82 C216.91,201.82 217.4,201.24 217.4,201.24 C217.4,201.24 218.1,201.54 218.1,201.54 C218.1,201.54 233.28,208 233.28,208 C233.49,208.09 233.72,208.09 233.93,208.02 C233.93,208.02 233.93,208.02 233.93,208.02 C234.14,207.96 234.32,207.82 234.44,207.62 C234.44,207.62 234.88,206.87 234.88,206.87 C234.88,206.87 234.89,206.87 234.89,206.87 C234.89,206.87 236.13,204.79 236.13,204.79 C236.13,204.79 243.63,192.21 243.63,192.21 C243.63,192.21 245.31,189.38 245.31,189.38 C245.43,189.18 245.47,188.95 245.42,188.73 C245.38,188.51 245.26,188.31 245.08,188.17 C245.08,188.17 245.06,188.15 245.06,188.15 C245.06,188.15 232.78,178.38 232.78,178.38 C232.78,178.38 232.15,177.88 232.15,177.88 C232.15,177.88 232.49,177.15 232.49,177.15 C233.04,175.98 233.56,174.81 234.04,173.67z  M156.1 62.65 C156.1,62.65 156.1,62.65 156.1,62.65 C193.19,77.19 211.46,119.05 196.91,156.13 C182.36,193.22 140.51,211.49 103.42,196.95 C66.34,182.4 48.07,140.54 62.61,103.46 C77.16,66.37 119.01,48.1 156.1,62.65z "/><path id="_R_G_L_3_G_D_1_P_0" fill="#70a665" fill-opacity="1" fill-rule="nonzero" d=" M161.67 48.46 C184.13,57.27 200.89,74.35 209.84,94.84 C218.78,115.33 219.91,139.24 211.1,161.7 C202.29,184.16 185.21,200.93 164.72,209.87 C144.23,218.82 120.32,219.95 97.86,211.14 C75.4,202.33 58.63,185.24 49.69,164.75 C40.74,144.26 39.61,120.35 48.42,97.89 C57.23,75.43 74.31,58.67 94.81,49.72 C115.3,40.77 139.21,39.65 161.67,48.46z  M205.24 96.85 C205.24,96.85 205.24,96.85 205.24,96.85 C196.81,77.53 181.01,61.43 159.84,53.12 C138.66,44.82 116.13,45.88 96.81,54.32 C77.5,62.75 61.4,78.55 53.09,99.72 C44.79,120.9 45.85,143.43 54.28,162.75 C62.72,182.06 78.52,198.16 99.69,206.46 C120.86,214.77 143.4,213.71 162.71,205.27 C182.03,196.84 198.13,181.04 206.43,159.87 C214.74,138.7 213.67,116.16 205.24,96.85z "/></g><g id="_R_G_L_2_G" transform=" translate(133.008, 239.164)"><path id="_R_G_L_2_G_D_0_P_0" fill="#e7efe4" fill-opacity="1" fill-rule="nonzero" d=" M8.82 0.25 C8.82,0.25 183.04,0.25 183.04,0.25 C187.75,0.25 191.61,4.11 191.61,8.82 C191.61,8.82 191.61,183.04 191.61,183.04 C191.61,187.75 187.75,191.6 183.04,191.6 C183.04,191.6 8.82,191.6 8.82,191.6 C4.11,191.6 0.25,187.75 0.25,183.04 C0.25,183.04 0.25,8.82 0.25,8.82 C0.25,4.11 4.11,0.25 8.82,0.25z "/><path id="_R_G_L_2_G_D_1_P_0" fill="#70a665" fill-opacity="1" fill-rule="nonzero" d=" M8.82 0.25 C8.82,0.25 183.04,0.25 183.04,0.25 C187.75,0.25 191.61,4.1 191.61,8.82 C191.61,8.82 191.61,54.04 191.61,54.04 C191.61,54.04 0.25,54.04 0.25,54.04 C0.25,54.04 0.25,8.82 0.25,8.82 C0.25,4.1 4.11,0.25 8.82,0.25z "/><path id="_R_G_L_2_G_D_2_P_0" fill="#e7efe4" fill-opacity="1" fill-rule="nonzero" d=" M119.97 41.9 C127.18,41.9 133.06,36.02 133.06,28.81 C133.06,21.6 127.18,15.72 119.97,15.72 C112.76,15.72 106.88,21.6 106.88,28.81 C106.88,36.02 112.76,41.9 119.97,41.9z "/><path id="_R_G_L_2_G_D_3_P_0" fill="#ff9a7d" fill-opacity="1" fill-rule="nonzero" d=" M156.38 41.9 C163.59,41.9 169.47,36.02 169.47,28.81 C169.47,21.6 163.59,15.72 156.38,15.72 C149.17,15.72 143.29,21.6 143.29,28.81 C143.29,36.02 149.17,41.9 156.38,41.9z "/><path id="_R_G_L_2_G_D_4_P_0" fill="#70a665" fill-opacity="1" fill-rule="nonzero" d=" M21.67 71.81 C21.67,71.81 170.19,71.81 170.19,71.81 C171.68,71.81 172.88,73.02 172.88,74.51 C172.88,74.51 172.88,164 172.88,164 C172.88,165.49 171.68,166.69 170.19,166.69 C170.19,166.69 21.67,166.69 21.67,166.69 C20.18,166.69 18.97,165.49 18.97,164 C18.97,164 18.97,74.51 18.97,74.51 C18.97,73.02 20.18,71.81 21.67,71.81z  M31.37 77.21 C31.37,77.21 95.93,116.11 95.93,116.11 C95.93,116.11 160.48,77.21 160.48,77.21 C160.48,77.21 31.37,77.21 31.37,77.21z  M101.15 119.25 C101.15,119.25 167.49,159.22 167.49,159.22 C167.49,159.22 167.49,79.28 167.49,79.28 C167.49,79.28 101.15,119.25 101.15,119.25z  M160.48 161.3 C160.48,161.3 95.93,122.4 95.93,122.4 C95.93,122.4 31.37,161.3 31.37,161.3 C31.37,161.3 160.48,161.3 160.48,161.3z  M90.71 119.25 C90.71,119.25 24.37,79.28 24.37,79.28 C24.37,79.28 24.37,159.22 24.37,159.22 C24.37,159.22 90.71,119.25 90.71,119.25z "/></g><g id="_R_G_L_1_G" transform=" translate(269.676, 337.418)"><path id="_R_G_L_1_G_D_0_P_0" fill="#e7efe4" fill-opacity="1" fill-rule="nonzero" d=" M8.82 0.25 C8.82,0.25 183.04,0.25 183.04,0.25 C187.75,0.25 191.61,4.1 191.61,8.82 C191.61,8.82 191.61,183.04 191.61,183.04 C191.61,187.75 187.75,191.61 183.04,191.61 C183.04,191.61 8.82,191.61 8.82,191.61 C4.11,191.61 0.25,187.75 0.25,183.04 C0.25,183.04 0.25,8.82 0.25,8.82 C0.25,4.1 4.11,0.25 8.82,0.25z "/><path id="_R_G_L_1_G_D_1_P_0" fill="#70a665" fill-opacity="1" fill-rule="nonzero" d=" M8.82 0.25 C8.82,0.25 183.04,0.25 183.04,0.25 C187.75,0.25 191.61,4.1 191.61,8.82 C191.61,8.82 191.61,54.04 191.61,54.04 C191.61,54.04 0.25,54.04 0.25,54.04 C0.25,54.04 0.25,8.82 0.25,8.82 C0.25,4.1 4.11,0.25 8.82,0.25z "/><path id="_R_G_L_1_G_D_2_P_0" fill="#e7efe4" fill-opacity="1" fill-rule="nonzero" d=" M119.97 41.9 C127.18,41.9 133.06,36.02 133.06,28.81 C133.06,21.6 127.18,15.72 119.97,15.72 C112.76,15.72 106.88,21.6 106.88,28.81 C106.88,36.02 112.76,41.9 119.97,41.9z "/><path id="_R_G_L_1_G_D_3_P_0" fill="#ff9a7d" fill-opacity="1" fill-rule="nonzero" d=" M156.38 41.9 C163.59,41.9 169.47,36.02 169.47,28.81 C169.47,21.6 163.59,15.72 156.38,15.72 C149.17,15.72 143.29,21.6 143.29,28.81 C143.29,36.02 149.17,41.9 156.38,41.9z "/><path id="_R_G_L_1_G_D_4_P_0" fill="#70a665" fill-opacity="1" fill-rule="nonzero" d=" M21.67 71.81 C21.67,71.81 170.19,71.81 170.19,71.81 C171.68,71.81 172.88,73.02 172.88,74.51 C172.88,74.51 172.88,164 172.88,164 C172.88,165.49 171.68,166.69 170.19,166.69 C170.19,166.69 21.67,166.69 21.67,166.69 C20.18,166.69 18.97,165.49 18.97,164 C18.97,164 18.97,74.51 18.97,74.51 C18.97,73.02 20.18,71.81 21.67,71.81z  M31.37 77.21 C31.37,77.21 95.93,116.11 95.93,116.11 C95.93,116.11 160.48,77.21 160.48,77.21 C160.48,77.21 31.37,77.21 31.37,77.21z  M101.15 119.25 C101.15,119.25 167.49,159.22 167.49,159.22 C167.49,159.22 167.49,79.28 167.49,79.28 C167.49,79.28 101.15,119.25 101.15,119.25z  M160.48 161.3 C160.48,161.3 95.93,122.4 95.93,122.4 C95.93,122.4 31.37,161.3 31.37,161.3 C31.37,161.3 160.48,161.3 160.48,161.3z  M90.71 119.25 C90.71,119.25 24.37,79.28 24.37,79.28 C24.37,79.28 24.37,159.22 24.37,159.22 C24.37,159.22 90.71,119.25 90.71,119.25z "/></g><g id="_R_G_L_0_G" transform=" translate(139.004, 339.347) translate(-87.118, -80.092)"><path id="_R_G_L_0_G_D_0_P_0" fill="#faab00" fill-opacity="1" fill-rule="nonzero" d=" M71.03 20.92 C71.03,20.92 86.78,34.22 86.78,34.22 C93.22,39.65 96.54,47.58 96.7,55.98 C96.87,64.38 93.88,73.25 87.7,80.58 C87.7,80.58 87.7,80.58 87.7,80.58 C81.51,87.91 73.26,92.34 64.95,93.59 C56.65,94.83 48.27,92.89 41.84,87.45 C41.84,87.45 26.09,74.16 26.09,74.16 C26.09,74.16 37.76,60.33 37.76,60.33 C37.76,60.33 53.51,73.62 53.51,73.62 C56.59,76.23 60.62,77.16 64.62,76.56 C68.61,75.96 72.58,73.83 75.54,70.32 C75.54,70.32 75.54,70.32 75.54,70.32 C78.51,66.81 79.94,62.55 79.86,58.5 C79.78,54.46 78.19,50.65 75.1,48.04 C75.1,48.04 59.36,34.75 59.36,34.75 C59.36,34.75 71.03,20.92 71.03,20.92z "/><path id="_R_G_L_0_G_D_1_P_0" fill="#fdd834" fill-opacity="1" fill-rule="nonzero" d=" M90.12 77.4 C84.34,82.99 77.24,86.42 70.1,87.49 C61.8,88.73 53.42,86.79 46.98,81.35 C46.98,81.35 31.24,68.06 31.24,68.06 C31.24,68.06 37.76,60.33 37.76,60.33 C37.76,60.33 53.51,73.62 53.51,73.62 C56.59,76.23 60.62,77.16 64.62,76.56 C68.61,75.96 72.58,73.83 75.54,70.32 C75.54,70.32 75.54,70.32 75.54,70.32 C76.43,69.27 77.18,68.15 77.79,67 C78.83,66.2 79.81,65.27 80.69,64.22 C80.69,64.22 80.69,64.22 80.69,64.22 C83.66,60.71 85.09,56.45 85.01,52.41 C84.93,48.36 83.34,44.55 80.25,41.95 C80.25,41.95 64.5,28.65 64.5,28.65 C64.5,28.65 71.03,20.92 71.03,20.92 C71.03,20.92 86.78,34.22 86.78,34.22 C93.22,39.65 96.54,47.58 96.7,55.98 C96.85,63.19 94.66,70.76 90.12,77.4z "/><path id="_R_G_L_0_G_D_2_P_0" fill="#fdd834" fill-opacity="1" fill-rule="nonzero" d=" M85.31 86.61 C85.31,86.61 70.97,74.5 70.97,74.5 C68.63,72.52 68.55,68.72 70.8,66.05 C73.06,63.38 76.82,62.81 79.17,64.79 C79.17,64.79 93.51,76.9 93.51,76.9 C93.51,76.9 85.31,86.61 85.31,86.61z "/><path id="_R_G_L_0_G_D_3_P_0" fill="#faab00" fill-opacity="1" fill-rule="nonzero" d=" M85.31 86.61 C85.31,86.61 70.97,74.5 70.97,74.5 C70.16,73.82 69.62,72.92 69.35,71.92 C69.4,71.85 69.46,71.79 69.51,71.73 C71.76,69.06 75.53,68.49 77.87,70.47 C77.87,70.47 90.17,80.86 90.17,80.86 C90.17,80.86 85.31,86.61 85.31,86.61z "/><path id="_R_G_L_0_G_D_4_P_0" fill="#faab00" fill-opacity="1" fill-rule="nonzero" d=" M91.78 129.61 C85.34,124.18 82.02,116.25 81.85,107.85 C81.68,99.46 84.67,90.58 90.86,83.25 C90.86,83.25 90.86,83.25 90.86,83.25 C97.04,75.93 105.29,71.49 113.6,70.24 C121.91,69 130.28,70.94 136.72,76.38 C136.72,76.38 163.89,99.32 163.89,99.32 C170.33,104.75 173.65,112.68 173.82,121.08 C173.99,129.48 171,138.35 164.81,145.68 C158.63,153.01 150.38,157.45 142.07,158.69 C133.76,159.93 125.39,157.99 118.95,152.56 C118.95,152.56 91.78,129.61 91.78,129.61z  M141.73 141.66 C141.73,141.66 141.73,141.66 141.73,141.66 C145.73,141.06 149.7,138.93 152.66,135.42 C152.66,135.42 152.66,135.42 152.66,135.42 C155.62,131.91 157.05,127.65 156.97,123.61 C156.89,119.56 155.3,115.75 152.22,113.15 C152.22,113.15 125.05,90.21 125.05,90.21 C121.96,87.6 117.94,86.68 113.94,87.27 C109.94,87.87 105.97,90 103.01,93.51 C100.05,97.02 98.62,101.29 98.7,105.33 C98.78,109.37 100.37,113.18 103.45,115.79 C103.45,115.79 130.63,138.72 130.63,138.72 C133.71,141.33 137.73,142.26 141.73,141.66z "/><path id="_R_G_L_0_G_D_5_P_0" fill="#fdd834" fill-opacity="1" fill-rule="nonzero" d=" M167.23 142.5 C161.45,148.09 154.36,151.52 147.22,152.59 C138.91,153.83 130.54,151.89 124.1,146.46 C124.1,146.46 96.93,123.52 96.93,123.52 C90.49,118.08 87.17,110.15 87,101.75 C86.86,94.54 89.04,86.97 93.59,80.33 C99.37,74.74 106.46,71.31 113.6,70.24 C121.91,69 130.28,70.94 136.72,76.38 C136.72,76.38 163.89,99.32 163.89,99.32 C170.33,104.75 173.65,112.68 173.82,121.08 C173.96,128.3 171.78,135.86 167.23,142.5z  M103.01 93.51 C103.01,93.51 103.01,93.51 103.01,93.51 C100.05,97.02 98.62,101.28 98.7,105.33 C98.78,109.37 100.37,113.18 103.45,115.78 C103.45,115.78 130.63,138.73 130.63,138.73 C133.71,141.33 137.74,142.26 141.73,141.66 C145.73,141.06 149.7,138.93 152.66,135.42 C152.66,135.42 152.66,135.42 152.66,135.42 C153.55,134.37 154.3,133.26 154.91,132.1 C155.95,131.3 156.92,130.37 157.81,129.32 C157.81,129.32 157.81,129.32 157.81,129.32 C160.77,125.81 162.2,121.55 162.12,117.51 C162.04,113.47 160.45,109.65 157.37,107.05 C157.37,107.05 130.19,84.11 130.19,84.11 C127.11,81.5 123.08,80.57 119.09,81.17 C115.09,81.77 111.12,83.9 108.16,87.41 C108.16,87.41 108.16,87.41 108.16,87.41 C107.27,88.46 106.53,89.58 105.91,90.73 C104.87,91.53 103.9,92.46 103.01,93.51z "/><path id="_R_G_L_0_G_D_6_P_0" fill="#fdd834" fill-opacity="1" fill-rule="nonzero" d=" M108.02 97.47 C105.77,100.14 102,100.7 99.66,98.72 C99.66,98.72 85.31,86.61 85.31,86.61 C85.31,86.61 93.51,76.9 93.51,76.9 C93.51,76.9 107.85,89.01 107.85,89.01 C110.2,90.99 110.27,94.8 108.02,97.47z "/><path id="_R_G_L_0_G_D_7_P_0" fill="#faab00" fill-opacity="1" fill-rule="nonzero" d=" M108.02 97.47 C105.77,100.14 102,100.7 99.66,98.72 C99.66,98.72 85.31,86.61 85.31,86.61 C85.31,86.61 90.17,80.86 90.17,80.86 C90.17,80.86 106.56,94.69 106.56,94.69 C107.37,95.38 107.91,96.28 108.17,97.28 C108.12,97.34 108.07,97.4 108.02,97.47z "/><path id="_R_G_L_0_G_D_8_P_0" fill="#faab00" fill-opacity="1" fill-rule="nonzero" d=" M71.03 20.92 C71.03,20.92 55.28,7.63 55.28,7.63 C48.85,2.2 40.47,0.25 32.16,1.49 C23.86,2.74 15.61,7.18 9.43,14.5 C9.43,14.5 9.42,14.5 9.42,14.5 C3.24,21.83 0.25,30.71 0.41,39.1 C0.58,47.5 3.9,55.43 10.34,60.87 C10.34,60.87 26.09,74.16 26.09,74.16 C26.09,74.16 37.76,60.33 37.76,60.33 C37.76,60.33 22.02,47.04 22.02,47.04 C18.93,44.43 17.34,40.62 17.26,36.58 C17.18,32.54 18.61,28.27 21.58,24.76 C21.58,24.76 21.58,24.76 21.58,24.76 C24.54,21.25 28.5,19.12 32.5,18.53 C36.5,17.93 40.53,18.86 43.61,21.46 C43.61,21.46 59.36,34.75 59.36,34.75 C59.36,34.75 71.03,20.92 71.03,20.92z "/><path id="_R_G_L_0_G_D_9_P_0" fill="#fdd834" fill-opacity="1" fill-rule="nonzero" d=" M12.15 11.58 C7.61,18.22 5.42,25.79 5.56,33.01 C5.73,41.4 9.05,49.33 15.49,54.77 C15.49,54.77 31.24,68.06 31.24,68.06 C31.24,68.06 37.76,60.33 37.76,60.33 C37.76,60.33 22.02,47.04 22.02,47.04 C18.93,44.43 17.34,40.62 17.26,36.58 C17.18,32.54 18.61,28.27 21.58,24.76 C21.58,24.76 21.58,24.76 21.58,24.76 C22.46,23.71 23.44,22.78 24.48,21.99 C25.09,20.83 25.84,19.71 26.72,18.66 C26.72,18.66 26.72,18.66 26.72,18.66 C29.69,15.15 33.65,13.02 37.65,12.43 C41.65,11.83 45.67,12.76 48.76,15.36 C48.76,15.36 64.51,28.65 64.51,28.65 C64.51,28.65 71.03,20.92 71.03,20.92 C71.03,20.92 55.28,7.63 55.28,7.63 C48.85,2.2 40.47,0.25 32.16,1.49 C25.03,2.56 17.93,5.99 12.15,11.58z "/></g></g><g id="time_group"/></svg>