<svg xmlns="http://www.w3.org/2000/svg" xmlns:xlink="http://www.w3.org/1999/xlink" preserveAspectRatio="xMidYMid meet" width="423" height="520" viewBox="0 0 423 520" style="width:100%;height:100%"><defs><animate repeatCount="indefinite" dur="4.004004s" begin="0s" xlink:href="#_R_G_L_21_G" fill="freeze" attributeName="opacity" from="0" to="0" keyTimes="0;0.075;0.225;0.825;0.95;1" values="0;0;1;1;0;0" keySplines="0.333 0 0.667 1;0.333 0 0.667 1;0.167 0 0.667 1;0.167 0 0.667 1;0 0 0 0" calcMode="spline"/><animate repeatCount="indefinite" dur="4.004004s" begin="0s" xlink:href="#_R_G_L_20_G" fill="freeze" attributeName="opacity" from="0" to="0" keyTimes="0;0.0666667;0.2166667;0.8416666;0.9666667;1" values="0;0;1;1;0;0" keySplines="0.333 0 0.667 1;0.333 0 0.667 1;0.167 0 0.667 1;0.167 0 0.667 1;0 0 0 0" calcMode="spline"/><animate repeatCount="indefinite" dur="4.004004s" begin="0s" xlink:href="#_R_G_L_19_G" fill="freeze" attributeName="opacity" from="0" to="0" keyTimes="0;0.0583333;0.2083333;0.8583333;0.9833333;1" values="0;0;1;1;0;0" keySplines="0.333 0 0.667 1;0.333 0 0.667 1;0.167 0 0.667 1;0.167 0 0.667 1;0 0 0 0" calcMode="spline"/><animate repeatCount="indefinite" dur="4.004004s" begin="0s" xlink:href="#_R_G_L_18_G" fill="freeze" attributeName="opacity" from="0" to="0" keyTimes="0;0.0416667;0.2;0.875;1" values="0;0;1;1;0" keySplines="0.333 0 0.667 1;0.333 0 0.667 1;0.167 0 0.667 1;0.167 0 0.667 1" calcMode="spline"/><animate repeatCount="indefinite" dur="4.004004s" begin="0s" xlink:href="#_R_G_L_17_G" fill="freeze" attributeName="opacity" from="0" to="0" keyTimes="0;0.0333333;0.1833333;0.8916666;0.9833333;1" values="0;0;1;1;0;0" keySplines="0.333 0 0.667 1;0.333 0 0.667 1;0.167 0 0.667 1;0.167 0 0.667 1;0 0 0 0" calcMode="spline"/><animate repeatCount="indefinite" dur="4.004004s" begin="0s" xlink:href="#_R_G_L_16_G" fill="freeze" attributeName="opacity" from="0" to="0" keyTimes="0;0.1666667;0.9083333;0.9916667;1" values="0;1;1;0;0" keySplines="0.333 0 0.667 1;0.167 0 0.667 1;0.167 0 0.667 1;0 0 0 0" calcMode="spline"/><animateTransform repeatCount="indefinite" dur="4.004004s" begin="0s" xlink:href="#_R_G_L_15_G" fill="freeze" attributeName="transform" from="0 0" to="0 0" type="scale" additive="sum" keyTimes="0;0.1583333;0.8333333;1" values="0 0;1 1;1 1;0 0" keySplines="0.333 0 0.667 1;0.333 0 0.667 1;0.333 0 0.667 1" calcMode="spline"/><animateTransform repeatCount="indefinite" dur="4.004004s" begin="0s" xlink:href="#_R_G_L_15_G" fill="freeze" attributeName="transform" from="-1.736 -0.736" to="-1.736 -0.736" type="translate" additive="sum" keyTimes="0;1" values="-1.736 -0.736;-1.736 -0.736" keySplines="0 0 1 1" calcMode="spline"/><animateMotion repeatCount="indefinite" dur="4.004004s" begin="0s" xlink:href="#_R_G_L_14_G" fill="freeze" keyTimes="0;0.1583333;0.8333333;1" path="M140.74 139.4 C164.24,162.57 258.24,255.24 281.74,278.4 C281.74,278.4 281.74,278.4 281.74,278.4 C258.24,255.24 164.24,162.57 140.74,139.4 " keyPoints="0;0.5;0.5;1" keySplines="0.333 0 0.667 1;0.333 0.333 0.667 0.667;0.333 0 0.667 1" calcMode="spline"/><animateTransform repeatCount="indefinite" dur="4.004004s" begin="0s" xlink:href="#_R_G_L_14_G" fill="freeze" attributeName="transform" from="-18.661 -18.748" to="-18.661 -18.748" type="translate" additive="sum" keyTimes="0;1" values="-18.661 -18.748;-18.661 -18.748" keySplines="0 0 1 1" calcMode="spline"/><animateTransform repeatCount="indefinite" dur="4.004004s" begin="0s" xlink:href="#_R_G_L_13_G_N_16_T_0" fill="freeze" attributeName="transform" from="7" to="7" type="rotate" additive="sum" keyTimes="0;0.25;0.5;0.75;1" values="7;0;5;0;7" keySplines="0.333 0 0.667 1;0.333 0 0.667 1;0.333 0 0.667 1;0.333 0 0.667 1" calcMode="spline"/><animateTransform repeatCount="indefinite" dur="4.004004s" begin="0s" xlink:href="#_R_G_L_13_G_N_16_T_0" fill="freeze" attributeName="transform" from="-23.211 -54.047" to="-23.211 -54.047" type="translate" additive="sum" keyTimes="0;1" values="-23.211 -54.047;-23.211 -54.047" keySplines="0 0 1 1" calcMode="spline"/><animateTransform repeatCount="indefinite" dur="4.004004s" begin="0s" xlink:href="#_R_G_L_12_G_N_16_T_0" fill="freeze" attributeName="transform" from="7" to="7" type="rotate" additive="sum" keyTimes="0;0.25;0.5;0.75;1" values="7;0;5;0;7" keySplines="0.333 0 0.667 1;0.333 0 0.667 1;0.333 0 0.667 1;0.333 0 0.667 1" calcMode="spline"/><animateTransform repeatCount="indefinite" dur="4.004004s" begin="0s" xlink:href="#_R_G_L_12_G_N_16_T_0" fill="freeze" attributeName="transform" from="-23.211 -54.047" to="-23.211 -54.047" type="translate" additive="sum" keyTimes="0;1" values="-23.211 -54.047;-23.211 -54.047" keySplines="0 0 1 1" calcMode="spline"/><animateTransform repeatCount="indefinite" dur="4.004004s" begin="0s" xlink:href="#_R_G_L_11_G" fill="freeze" attributeName="transform" from="0" to="0" type="rotate" additive="sum" keyTimes="0;0.25;0.5;0.75;1" values="0;-2;0;-2;0" keySplines="0.333 0 0.667 1;0.333 0 0.667 1;0.333 0 0.667 1;0.333 0 0.667 1" calcMode="spline"/><animateTransform repeatCount="indefinite" dur="4.004004s" begin="0s" xlink:href="#_R_G_L_11_G" fill="freeze" attributeName="transform" from="-53.351 -2.326" to="-53.351 -2.326" type="translate" additive="sum" keyTimes="0;1" values="-53.351 -2.326;-53.351 -2.326" keySplines="0 0 1 1" calcMode="spline"/><animateTransform repeatCount="indefinite" dur="4.004004s" begin="0s" xlink:href="#_R_G_L_9_G" fill="freeze" attributeName="transform" from="8" to="8" type="rotate" additive="sum" keyTimes="0;0.25;0.5;0.75;1" values="8;-5;5;-3;8" keySplines="0.333 0 0.667 1;0.333 0 0.667 1;0.333 0 0.667 1;0.333 0 0.667 1" calcMode="spline"/><animateTransform repeatCount="indefinite" dur="4.004004s" begin="0s" xlink:href="#_R_G_L_9_G" fill="freeze" attributeName="transform" from="-47.17 -1.845" to="-47.17 -1.845" type="translate" additive="sum" keyTimes="0;1" values="-47.17 -1.845;-47.17 -1.845" keySplines="0 0 1 1" calcMode="spline"/><animateTransform repeatCount="indefinite" dur="4.004004s" begin="0s" xlink:href="#_R_G_L_9_G_N_24_T_0" fill="freeze" attributeName="transform" from="0" to="0" type="rotate" additive="sum" keyTimes="0;0.25;0.5;0.75;1" values="0;-2;0;-2;0" keySplines="0.333 0 0.667 1;0.333 0 0.667 1;0.333 0 0.667 1;0.333 0 0.667 1" calcMode="spline"/><animateTransform repeatCount="indefinite" dur="4.004004s" begin="0s" xlink:href="#_R_G_L_9_G_N_24_T_0" fill="freeze" attributeName="transform" from="-53.351 -2.326" to="-53.351 -2.326" type="translate" additive="sum" keyTimes="0;1" values="-53.351 -2.326;-53.351 -2.326" keySplines="0 0 1 1" calcMode="spline"/><animateTransform repeatCount="indefinite" dur="4.004004s" begin="0s" xlink:href="#_R_G_L_8_G" fill="freeze" attributeName="transform" from="0" to="0" type="rotate" additive="sum" keyTimes="0;0.25;0.5;0.75;1" values="0;-8;0;-8;0" keySplines="0.333 0 0.667 1;0.333 0 0.667 1;0.333 0 0.667 1;0.333 0 0.667 1" calcMode="spline"/><animateTransform repeatCount="indefinite" dur="4.004004s" begin="0s" xlink:href="#_R_G_L_8_G" fill="freeze" attributeName="transform" from="-63.608 -88.077" to="-63.608 -88.077" type="translate" additive="sum" keyTimes="0;1" values="-63.608 -88.077;-63.608 -88.077" keySplines="0 0 1 1" calcMode="spline"/><animateTransform repeatCount="indefinite" dur="4.004004s" begin="0s" xlink:href="#_R_G_L_8_G_N_16_T_0" fill="freeze" attributeName="transform" from="7" to="7" type="rotate" additive="sum" keyTimes="0;0.25;0.5;0.75;1" values="7;0;5;0;7" keySplines="0.333 0 0.667 1;0.333 0 0.667 1;0.333 0 0.667 1;0.333 0 0.667 1" calcMode="spline"/><animateTransform repeatCount="indefinite" dur="4.004004s" begin="0s" xlink:href="#_R_G_L_8_G_N_16_T_0" fill="freeze" attributeName="transform" from="-23.211 -54.047" to="-23.211 -54.047" type="translate" additive="sum" keyTimes="0;1" values="-23.211 -54.047;-23.211 -54.047" keySplines="0 0 1 1" calcMode="spline"/><animateTransform repeatCount="indefinite" dur="4.004004s" begin="0s" xlink:href="#_R_G_L_7_G" fill="freeze" attributeName="transform" from="7" to="7" type="rotate" additive="sum" keyTimes="0;0.25;0.5;0.75;1" values="7;0;5;0;7" keySplines="0.333 0 0.667 1;0.333 0 0.667 1;0.333 0 0.667 1;0.333 0 0.667 1" calcMode="spline"/><animateTransform repeatCount="indefinite" dur="4.004004s" begin="0s" xlink:href="#_R_G_L_7_G" fill="freeze" attributeName="transform" from="-23.211 -54.047" to="-23.211 -54.047" type="translate" additive="sum" keyTimes="0;1" values="-23.211 -54.047;-23.211 -54.047" keySplines="0 0 1 1" calcMode="spline"/><animateTransform repeatCount="indefinite" dur="4.004004s" begin="0s" xlink:href="#_R_G_L_6_G" fill="freeze" attributeName="transform" from="0" to="0" type="rotate" additive="sum" keyTimes="0;0.25;0.5;0.75;1" values="0;-3;0;-1.5;0" keySplines="0.333 0 0.667 1;0.333 0 0.667 1;0.333 0 0.667 1;0.333 0 0.667 1" calcMode="spline"/><animateTransform repeatCount="indefinite" dur="4.004004s" begin="0s" xlink:href="#_R_G_L_6_G" fill="freeze" attributeName="transform" from="-4.825 1.097" to="-4.825 1.097" type="translate" additive="sum" keyTimes="0;1" values="-4.825 1.097;-4.825 1.097" keySplines="0 0 1 1" calcMode="spline"/><animateTransform repeatCount="indefinite" dur="4.004004s" begin="0s" xlink:href="#_R_G_L_6_G_N_16_T_0" fill="freeze" attributeName="transform" from="7" to="7" type="rotate" additive="sum" keyTimes="0;0.25;0.5;0.75;1" values="7;0;5;0;7" keySplines="0.333 0 0.667 1;0.333 0 0.667 1;0.333 0 0.667 1;0.333 0 0.667 1" calcMode="spline"/><animateTransform repeatCount="indefinite" dur="4.004004s" begin="0s" xlink:href="#_R_G_L_6_G_N_16_T_0" fill="freeze" attributeName="transform" from="-23.211 -54.047" to="-23.211 -54.047" type="translate" additive="sum" keyTimes="0;1" values="-23.211 -54.047;-23.211 -54.047" keySplines="0 0 1 1" calcMode="spline"/><animateTransform repeatCount="indefinite" dur="4.004004s" begin="0s" xlink:href="#_R_G_L_5_G" fill="freeze" attributeName="transform" from="0" to="0" type="rotate" additive="sum" keyTimes="0;0.25;0.5;0.75;1" values="0;-10;0;-7;0" keySplines="0.333 0 0.667 1;0.333 0 0.667 1;0.333 0 0.667 1;0.333 0 0.667 1" calcMode="spline"/><animateTransform repeatCount="indefinite" dur="4.004004s" begin="0s" xlink:href="#_R_G_L_5_G" fill="freeze" attributeName="transform" from="-7.74 -32.809" to="-7.74 -32.809" type="translate" additive="sum" keyTimes="0;1" values="-7.74 -32.809;-7.74 -32.809" keySplines="0 0 1 1" calcMode="spline"/><animateTransform repeatCount="indefinite" dur="4.004004s" begin="0s" xlink:href="#_R_G_L_5_G_N_16_T_0" fill="freeze" attributeName="transform" from="7" to="7" type="rotate" additive="sum" keyTimes="0;0.25;0.5;0.75;1" values="7;0;5;0;7" keySplines="0.333 0 0.667 1;0.333 0 0.667 1;0.333 0 0.667 1;0.333 0 0.667 1" calcMode="spline"/><animateTransform repeatCount="indefinite" dur="4.004004s" begin="0s" xlink:href="#_R_G_L_5_G_N_16_T_0" fill="freeze" attributeName="transform" from="-23.211 -54.047" to="-23.211 -54.047" type="translate" additive="sum" keyTimes="0;1" values="-23.211 -54.047;-23.211 -54.047" keySplines="0 0 1 1" calcMode="spline"/><animateTransform repeatCount="indefinite" dur="4.004004s" begin="0s" xlink:href="#_R_G_L_4_G_N_16_T_0" fill="freeze" attributeName="transform" from="7" to="7" type="rotate" additive="sum" keyTimes="0;0.25;0.5;0.75;1" values="7;0;5;0;7" keySplines="0.333 0 0.667 1;0.333 0 0.667 1;0.333 0 0.667 1;0.333 0 0.667 1" calcMode="spline"/><animateTransform repeatCount="indefinite" dur="4.004004s" begin="0s" xlink:href="#_R_G_L_4_G_N_16_T_0" fill="freeze" attributeName="transform" from="-23.211 -54.047" to="-23.211 -54.047" type="translate" additive="sum" keyTimes="0;1" values="-23.211 -54.047;-23.211 -54.047" keySplines="0 0 1 1" calcMode="spline"/><animate repeatCount="indefinite" dur="4.004004s" begin="0s" xlink:href="#_R_G_L_3_G" fill="freeze" attributeName="opacity" from="0" to="0" keyTimes="0;0.1583333;0.2916667;0.7083333;0.8333333;1" values="0;0;1;1;0;0" keySplines="0.333 0 0.667 1;0.333 0 0.667 1;0.333 0 0.667 1;0.333 0 0.667 1;0 0 0 0" calcMode="spline"/><animateTransform repeatCount="indefinite" dur="4.004004s" begin="0s" xlink:href="#_R_G_L_3_G_N_32_T_0" fill="freeze" attributeName="transform" from="0 0" to="0 0" type="scale" additive="sum" keyTimes="0;0.1583333;0.8333333;1" values="0 0;1 1;1 1;0 0" keySplines="0.333 0 0.667 1;0.333 0 0.667 1;0.333 0 0.667 1" calcMode="spline"/><animateTransform repeatCount="indefinite" dur="4.004004s" begin="0s" xlink:href="#_R_G_L_3_G_N_32_T_0" fill="freeze" attributeName="transform" from="-1.736 -0.736" to="-1.736 -0.736" type="translate" additive="sum" keyTimes="0;1" values="-1.736 -0.736;-1.736 -0.736" keySplines="0 0 1 1" calcMode="spline"/><animate repeatCount="indefinite" dur="4.004004s" begin="0s" xlink:href="#_R_G_L_2_G" fill="freeze" attributeName="opacity" from="0" to="0" keyTimes="0;0.1583333;0.2916667;0.6666666;0.7916667;1" values="0;0;1;1;0;0" keySplines="0.333 0 0.667 1;0.333 0 0.667 1;0.333 0 0.667 1;0.333 0 0.667 1;0 0 0 0" calcMode="spline"/><animateTransform repeatCount="indefinite" dur="4.004004s" begin="0s" xlink:href="#_R_G_L_2_G" fill="freeze" attributeName="transform" from="0" to="360" type="rotate" additive="sum" keyTimes="0;1" values="0;360" keySplines="0.167 0.167 0.833 0.833" calcMode="spline"/><animateTransform repeatCount="indefinite" dur="4.004004s" begin="0s" xlink:href="#_R_G_L_2_G" fill="freeze" attributeName="transform" from="1.2 1.2" to="1.2 1.2" type="scale" additive="sum" keyTimes="0;1" values="1.2 1.2;1.2 1.2" keySplines="0 0 1 1" calcMode="spline"/><animateTransform repeatCount="indefinite" dur="4.004004s" begin="0s" xlink:href="#_R_G_L_2_G" fill="freeze" attributeName="transform" from="-13.071 -13.065" to="-13.071 -13.065" type="translate" additive="sum" keyTimes="0;1" values="-13.071 -13.065;-13.071 -13.065" keySplines="0 0 1 1" calcMode="spline"/><animate repeatCount="indefinite" dur="4.004004s" begin="0s" xlink:href="#_R_G_L_1_G" fill="freeze" attributeName="opacity" from="0" to="0" keyTimes="0;0.1583333;0.2916667;0.6666666;0.7916667;1" values="0;0;1;1;0;0" keySplines="0.333 0 0.667 1;0.333 0 0.667 1;0.333 0 0.667 1;0.333 0 0.667 1;0 0 0 0" calcMode="spline"/><animateTransform repeatCount="indefinite" dur="4.004004s" begin="0s" xlink:href="#_R_G_L_1_G" fill="freeze" attributeName="transform" from="0" to="-360" type="rotate" additive="sum" keyTimes="0;1" values="0;-360" keySplines="0.167 0.167 0.833 0.833" calcMode="spline"/><animateTransform repeatCount="indefinite" dur="4.004004s" begin="0s" xlink:href="#_R_G_L_1_G" fill="freeze" attributeName="transform" from="1.2 1.2" to="1.2 1.2" type="scale" additive="sum" keyTimes="0;1" values="1.2 1.2;1.2 1.2" keySplines="0 0 1 1" calcMode="spline"/><animateTransform repeatCount="indefinite" dur="4.004004s" begin="0s" xlink:href="#_R_G_L_1_G" fill="freeze" attributeName="transform" from="-9.882 -9.882" to="-9.882 -9.882" type="translate" additive="sum" keyTimes="0;1" values="-9.882 -9.882;-9.882 -9.882" keySplines="0 0 1 1" calcMode="spline"/><animate repeatCount="indefinite" dur="4.004004s" begin="0s" xlink:href="#_R_G_L_0_G" fill="freeze" attributeName="opacity" from="0" to="0" keyTimes="0;0.1583333;0.2916667;0.6666666;0.7916667;1" values="0;0;1;1;0;0" keySplines="0.333 0 0.667 1;0.333 0 0.667 1;0.333 0 0.667 1;0.333 0 0.667 1;0 0 0 0" calcMode="spline"/><animateTransform repeatCount="indefinite" dur="4.004004s" begin="0s" xlink:href="#_R_G_L_0_G" fill="freeze" attributeName="transform" from="0" to="360" type="rotate" additive="sum" keyTimes="0;1" values="0;360" keySplines="0.167 0.167 0.833 0.833" calcMode="spline"/><animateTransform repeatCount="indefinite" dur="4.004004s" begin="0s" xlink:href="#_R_G_L_0_G" fill="freeze" attributeName="transform" from="0.9 0.9" to="0.9 0.9" type="scale" additive="sum" keyTimes="0;1" values="0.9 0.9;0.9 0.9" keySplines="0 0 1 1" calcMode="spline"/><animateTransform repeatCount="indefinite" dur="4.004004s" begin="0s" xlink:href="#_R_G_L_0_G" fill="freeze" attributeName="transform" from="-21.389 -21.389" to="-21.389 -21.389" type="translate" additive="sum" keyTimes="0;1" values="-21.389 -21.389;-21.389 -21.389" keySplines="0 0 1 1" calcMode="spline"/><animate attributeType="XML" attributeName="opacity" dur="4s" from="0" to="1" xlink:href="#time_group"/></defs><g id="_R_G"><g id="_R_G_L_22_G" transform=" translate(211.5, 224) translate(-183.564, -144.279)"><path id="_R_G_L_22_G_D_0_P_0" fill="#cbe0c6" fill-opacity="1" fill-rule="nonzero" d=" M229.24 223.29 C229.24,223.29 137.89,223.29 137.89,223.29 C137.89,223.29 141.67,281.48 123.59,281.48 C123.59,281.48 243.54,281.48 243.54,281.48 C225.45,281.48 229.24,223.29 229.24,223.29z "/><path id="_R_G_L_22_G_D_1_P_0" fill="#70a665" fill-opacity="1" fill-rule="nonzero" d=" M136.85 258.27 C136.85,258.27 228.95,239.61 228.95,239.61 C228.78,230.38 229.24,223.29 229.24,223.29 C229.24,223.29 137.89,223.29 137.89,223.29 C137.89,223.29 139.1,242.05 136.85,258.27z "/><path id="_R_G_L_22_G_D_2_P_0" fill="#cbe0c6" fill-opacity="1" fill-rule="nonzero" d=" M361.31 240.83 C361.31,240.83 5.81,240.83 5.81,240.83 C2.74,240.83 0.25,238.34 0.25,235.27 C0.25,235.27 0.25,5.82 0.25,5.82 C0.25,2.74 2.74,0.25 5.81,0.25 C5.81,0.25 361.31,0.25 361.31,0.25 C364.39,0.25 366.88,2.74 366.88,5.82 C366.88,5.82 366.88,235.27 366.88,235.27 C366.88,238.34 364.39,240.83 361.31,240.83z "/><path id="_R_G_L_22_G_D_3_P_0" fill="#ffffff" fill-opacity="1" fill-rule="nonzero" d=" M354 232.31 C354,232.31 13.13,232.31 13.13,232.31 C11.7,232.31 10.55,231.15 10.55,229.72 C10.55,229.72 10.55,11.37 10.55,11.37 C10.55,9.94 11.7,8.78 13.13,8.78 C13.13,8.78 354,8.78 354,8.78 C355.43,8.78 356.58,9.94 356.58,11.37 C356.58,11.37 356.58,229.72 356.58,229.72 C356.58,231.15 355.43,232.31 354,232.31z "/><path id="_R_G_L_22_G_D_4_P_0" stroke="#70a665" stroke-linecap="round" stroke-linejoin="round" fill="none" stroke-width="1" stroke-opacity="1" d=" M354 232.31 C354,232.31 13.13,232.31 13.13,232.31 C11.7,232.31 10.55,231.15 10.55,229.72 C10.55,229.72 10.55,11.37 10.55,11.37 C10.55,9.94 11.7,8.78 13.13,8.78 C13.13,8.78 354,8.78 354,8.78 C355.43,8.78 356.58,9.94 356.58,11.37 C356.58,11.37 356.58,229.72 356.58,229.72 C356.58,231.15 355.43,232.31 354,232.31z "/><path id="_R_G_L_22_G_D_5_P_0" fill="#e7efe4" fill-opacity="1" fill-rule="nonzero" d=" M344.84 227.79 C344.84,227.79 32,227.79 32,227.79 C28.19,227.79 25.1,224.7 25.1,220.89 C25.1,220.89 25.1,55.51 25.1,55.51 C25.1,51.7 28.19,48.61 32,48.61 C32,48.61 344.84,48.61 344.84,48.61 C348.65,48.61 351.73,51.7 351.73,55.51 C351.73,55.51 351.73,220.89 351.73,220.89 C351.73,224.7 348.65,227.79 344.84,227.79z "/><path id="_R_G_L_22_G_D_6_P_0" fill="#ffffff" fill-opacity="1" fill-rule="nonzero" d=" M339.01 218.83 C339.01,218.83 26.17,218.83 26.17,218.83 C22.37,218.83 19.28,215.74 19.28,211.93 C19.28,211.93 19.28,46.55 19.28,46.55 C19.28,42.74 22.37,39.65 26.17,39.65 C26.17,39.65 339.01,39.65 339.01,39.65 C342.82,39.65 345.91,42.74 345.91,46.55 C345.91,46.55 345.91,211.93 345.91,211.93 C345.91,215.74 342.82,218.83 339.01,218.83z "/><path id="_R_G_L_22_G_D_7_P_0" stroke="#70a665" stroke-linecap="round" stroke-linejoin="round" fill="none" stroke-width="1" stroke-opacity="1" d=" M339.01 218.83 C339.01,218.83 26.17,218.83 26.17,218.83 C22.37,218.83 19.28,215.74 19.28,211.93 C19.28,211.93 19.28,46.55 19.28,46.55 C19.28,42.74 22.37,39.65 26.17,39.65 C26.17,39.65 339.01,39.65 339.01,39.65 C342.82,39.65 345.91,42.74 345.91,46.55 C345.91,46.55 345.91,211.93 345.91,211.93 C345.91,215.74 342.82,218.83 339.01,218.83z "/><path id="_R_G_L_22_G_D_8_P_0" stroke="#70a665" stroke-linecap="round" stroke-linejoin="round" fill="none" stroke-width="1" stroke-opacity="1" d=" M10.55 30.06 C10.55,30.06 356.58,30.06 356.58,30.06 "/><path id="_R_G_L_22_G_D_9_P_0" fill="#e7efe4" fill-opacity="1" fill-rule="nonzero" d=" M315.03 25.23 C315.03,25.23 76.63,25.23 76.63,25.23 C73.36,25.23 70.72,22.58 70.72,19.31 C70.72,16.05 73.36,13.4 76.63,13.4 C76.63,13.4 315.03,13.4 315.03,13.4 C318.29,13.4 320.94,16.05 320.94,19.31 C320.94,22.58 318.29,25.23 315.03,25.23z "/><path id="_R_G_L_22_G_D_10_P_0" fill="#dd2120" fill-opacity="1" fill-rule="nonzero" d=" M32.68 19.32 C32.68,21.06 31.26,22.47 29.52,22.47 C27.78,22.47 26.37,21.06 26.37,19.32 C26.37,17.57 27.78,16.16 29.52,16.16 C31.26,16.16 32.68,17.57 32.68,19.32z "/><path id="_R_G_L_22_G_D_11_P_0" fill="#faab00" fill-opacity="1" fill-rule="nonzero" d=" M44.83 19.32 C44.83,21.06 43.42,22.47 41.67,22.47 C39.93,22.47 38.52,21.06 38.52,19.32 C38.52,17.57 39.93,16.16 41.67,16.16 C43.42,16.16 44.83,17.57 44.83,19.32z "/><path id="_R_G_L_22_G_D_12_P_0" fill="#70a665" fill-opacity="1" fill-rule="nonzero" d=" M56.98 19.32 C56.98,21.06 55.57,22.47 53.82,22.47 C52.08,22.47 50.67,21.06 50.67,19.32 C50.67,17.57 52.08,16.16 53.82,16.16 C55.57,16.16 56.98,17.57 56.98,19.32z "/><path id="_R_G_L_22_G_D_13_P_0" fill="#cbe0c6" fill-opacity="1" fill-rule="nonzero" d=" M259.86 288.31 C259.86,288.31 107.27,288.31 107.27,288.31 C107.27,283.62 111.07,279.82 115.76,279.82 C115.76,279.82 251.37,279.82 251.37,279.82 C256.06,279.82 259.86,283.62 259.86,288.31z "/><path id="_R_G_L_22_G_D_14_P_0" fill="#70a665" fill-opacity="1" fill-rule="nonzero" d=" M348.27 15.37 C348.27,16.06 347.72,16.62 347.03,16.62 C346.34,16.62 345.78,16.06 345.78,15.37 C345.78,14.68 346.34,14.13 347.03,14.13 C347.72,14.13 348.27,14.68 348.27,15.37z "/><path id="_R_G_L_22_G_D_15_P_0" fill="#70a665" fill-opacity="1" fill-rule="nonzero" d=" M348.27 19.31 C348.27,20 347.72,20.56 347.03,20.56 C346.34,20.56 345.78,20 345.78,19.31 C345.78,18.63 346.34,18.07 347.03,18.07 C347.72,18.07 348.27,18.63 348.27,19.31z "/><path id="_R_G_L_22_G_D_16_P_0" fill="#70a665" fill-opacity="1" fill-rule="nonzero" d=" M348.27 23.26 C348.27,23.94 347.72,24.5 347.03,24.5 C346.34,24.5 345.78,23.94 345.78,23.26 C345.78,22.57 346.34,22.01 347.03,22.01 C347.72,22.01 348.27,22.57 348.27,23.26z "/><path id="_R_G_L_22_G_D_17_P_0" stroke="#70a665" stroke-linecap="round" stroke-linejoin="round" fill="none" stroke-width="1" stroke-opacity="1" d=" M239.38 280.27 C239.38,280.27 161.3,280.27 161.3,280.27 "/><path id="_R_G_L_22_G_D_18_P_0" stroke="#70a665" stroke-linecap="round" stroke-linejoin="round" fill="none" stroke-width="1" stroke-opacity="1" d=" M152.54 280.27 C152.54,280.27 127.05,280.27 127.05,280.27 "/><path id="_R_G_L_22_G_D_19_P_0" fill="#e7efe4" fill-opacity="1" fill-rule="nonzero" d=" M316.44 108.45 C316.44,108.45 252.52,108.45 252.52,108.45 C252.52,108.45 252.52,50.42 252.52,50.42 C252.52,48.26 254.27,46.51 256.43,46.51 C256.43,46.51 312.53,46.51 312.53,46.51 C314.69,46.51 316.44,48.26 316.44,50.42 C316.44,50.42 316.44,108.45 316.44,108.45z "/><path id="_R_G_L_22_G_D_20_P_0" fill="#70a665" fill-opacity="1" fill-rule="nonzero" d=" M316.44 54.98 C316.44,54.98 252.52,54.98 252.52,54.98 C252.52,54.98 252.52,54.13 252.52,54.13 C252.52,54.13 316.44,54.13 316.44,54.13 C316.44,54.13 316.44,54.98 316.44,54.98z "/><path id="_R_G_L_22_G_D_21_P_0" fill="#70a665" fill-opacity="1" fill-rule="nonzero" d=" M316.44 68.42 C316.44,68.42 252.52,68.42 252.52,68.42 C252.52,68.42 252.52,67.57 252.52,67.57 C252.52,67.57 316.44,67.57 316.44,67.57 C316.44,67.57 316.44,68.42 316.44,68.42z "/><path id="_R_G_L_22_G_D_22_P_0" fill="#70a665" fill-opacity="1" fill-rule="nonzero" d=" M316.44 81.85 C316.44,81.85 252.52,81.85 252.52,81.85 C252.52,81.85 252.52,81 252.52,81 C252.52,81 316.44,81 316.44,81 C316.44,81 316.44,81.85 316.44,81.85z "/><path id="_R_G_L_22_G_D_23_P_0" fill="#70a665" fill-opacity="1" fill-rule="nonzero" d=" M316.44 95.28 C316.44,95.28 252.52,95.28 252.52,95.28 C252.52,95.28 252.52,94.43 252.52,94.43 C252.52,94.43 316.44,94.43 316.44,94.43 C316.44,94.43 316.44,95.28 316.44,95.28z "/><path id="_R_G_L_22_G_D_24_P_0" fill="#70a665" fill-opacity="1" fill-rule="nonzero" d=" M259.73 64.05 C257.55,64.05 255.87,61.62 255.79,61.52 C255.79,61.52 255.63,61.27 255.63,61.27 C255.63,61.27 255.79,61.04 255.79,61.04 C255.87,60.93 257.55,58.5 259.73,58.5 C261.92,58.5 263.6,60.93 263.67,61.04 C263.67,61.04 263.84,61.27 263.84,61.27 C263.84,61.27 263.67,61.52 263.67,61.52 C263.6,61.62 261.92,64.05 259.73,64.05z  M256.68 61.27 C257.13,61.84 258.36,63.2 259.73,63.2 C261.11,63.2 262.34,61.84 262.79,61.27 C262.34,60.71 261.11,59.35 259.73,59.35 C258.35,59.35 257.13,60.71 256.68,61.27z "/><path id="_R_G_L_22_G_D_25_P_0" fill="#70a665" fill-opacity="1" fill-rule="nonzero" d=" M260.93 61.28 C260.93,61.93 260.39,62.47 259.73,62.47 C259.07,62.47 258.54,61.93 258.54,61.28 C258.54,60.62 259.07,60.08 259.73,60.08 C260.39,60.08 260.93,60.62 260.93,61.28z "/><path id="_R_G_L_22_G_D_26_P_0" fill="#70a665" fill-opacity="1" fill-rule="nonzero" d=" M259.73 77.47 C257.55,77.47 255.87,75.04 255.79,74.94 C255.79,74.94 255.63,74.69 255.63,74.69 C255.63,74.69 255.79,74.46 255.79,74.46 C255.87,74.35 257.55,71.92 259.73,71.92 C261.92,71.92 263.6,74.35 263.67,74.46 C263.67,74.46 263.84,74.69 263.84,74.69 C263.84,74.69 263.67,74.94 263.67,74.94 C263.6,75.04 261.92,77.47 259.73,77.47z  M256.68 74.69 C257.13,75.26 258.36,76.62 259.73,76.62 C261.11,76.62 262.34,75.26 262.79,74.69 C262.34,74.13 261.11,72.77 259.73,72.77 C258.35,72.77 257.13,74.13 256.68,74.69z "/><path id="_R_G_L_22_G_D_27_P_0" fill="#70a665" fill-opacity="1" fill-rule="nonzero" d=" M260.93 74.7 C260.93,75.35 260.39,75.89 259.73,75.89 C259.07,75.89 258.54,75.35 258.54,74.7 C258.54,74.04 259.07,73.5 259.73,73.5 C260.39,73.5 260.93,74.04 260.93,74.7z "/><path id="_R_G_L_22_G_D_28_P_0" fill="#70a665" fill-opacity="1" fill-rule="nonzero" d=" M259.73 90.89 C257.55,90.89 255.87,88.46 255.79,88.36 C255.79,88.36 255.63,88.12 255.63,88.12 C255.63,88.12 255.79,87.88 255.79,87.88 C255.87,87.77 257.55,85.34 259.73,85.34 C261.92,85.34 263.6,87.77 263.67,87.88 C263.67,87.88 263.84,88.12 263.84,88.12 C263.84,88.12 263.67,88.36 263.67,88.36 C263.6,88.46 261.92,90.89 259.73,90.89z  M256.68 88.12 C257.13,88.68 258.36,90.04 259.73,90.04 C261.11,90.04 262.34,88.68 262.79,88.12 C262.34,87.55 261.11,86.19 259.73,86.19 C258.35,86.19 257.13,87.55 256.68,88.12z "/><path id="_R_G_L_22_G_D_29_P_0" fill="#70a665" fill-opacity="1" fill-rule="nonzero" d=" M260.93 88.12 C260.93,88.77 260.39,89.31 259.73,89.31 C259.07,89.31 258.54,88.77 258.54,88.12 C258.54,87.46 259.07,86.92 259.73,86.92 C260.39,86.92 260.93,87.46 260.93,88.12z "/><path id="_R_G_L_22_G_D_30_P_0" fill="#70a665" fill-opacity="1" fill-rule="nonzero" d=" M259.73 104.32 C257.55,104.32 255.87,101.88 255.79,101.78 C255.79,101.78 255.63,101.54 255.63,101.54 C255.63,101.54 255.79,101.3 255.79,101.3 C255.87,101.19 257.55,98.76 259.73,98.76 C261.92,98.76 263.6,101.19 263.67,101.3 C263.67,101.3 263.84,101.54 263.84,101.54 C263.84,101.54 263.67,101.78 263.67,101.78 C263.6,101.88 261.92,104.32 259.73,104.32z  M256.68 101.54 C257.13,102.1 258.36,103.46 259.73,103.46 C261.11,103.46 262.34,102.1 262.79,101.54 C262.34,100.97 261.11,99.61 259.73,99.61 C258.35,99.61 257.13,100.97 256.68,101.54z "/><path id="_R_G_L_22_G_D_31_P_0" fill="#70a665" fill-opacity="1" fill-rule="nonzero" d=" M260.93 101.54 C260.93,102.2 260.39,102.73 259.73,102.73 C259.07,102.73 258.54,102.2 258.54,101.54 C258.54,100.88 259.07,100.35 259.73,100.35 C260.39,100.35 260.93,100.88 260.93,101.54z "/><path id="_R_G_L_22_G_D_32_P_0" fill="#70a665" fill-opacity="1" fill-rule="nonzero" d=" M269.04 66.85 C269.04,66.85 268.19,66.85 268.19,66.85 C268.19,66.85 268.19,55.7 268.19,55.7 C268.19,55.7 269.04,55.7 269.04,55.7 C269.04,55.7 269.04,66.85 269.04,66.85z "/><path id="_R_G_L_22_G_D_33_P_0" fill="#70a665" fill-opacity="1" fill-rule="nonzero" d=" M269.04 80.27 C269.04,80.27 268.19,80.27 268.19,80.27 C268.19,80.27 268.19,69.12 268.19,69.12 C268.19,69.12 269.04,69.12 269.04,69.12 C269.04,69.12 269.04,80.27 269.04,80.27z "/><path id="_R_G_L_22_G_D_34_P_0" fill="#70a665" fill-opacity="1" fill-rule="nonzero" d=" M269.04 93.69 C269.04,93.69 268.19,93.69 268.19,93.69 C268.19,93.69 268.19,82.54 268.19,82.54 C268.19,82.54 269.04,82.54 269.04,82.54 C269.04,82.54 269.04,93.69 269.04,93.69z "/><path id="_R_G_L_22_G_D_35_P_0" fill="#70a665" fill-opacity="1" fill-rule="nonzero" d=" M269.04 107.11 C269.04,107.11 268.19,107.11 268.19,107.11 C268.19,107.11 268.19,95.96 268.19,95.96 C268.19,95.96 269.04,95.96 269.04,95.96 C269.04,95.96 269.04,107.11 269.04,107.11z "/><path id="_R_G_L_22_G_D_36_P_0" fill="#ffffff" fill-opacity="1" fill-rule="nonzero" d="  "/><path id="_R_G_L_22_G_D_37_P_0" fill="#ffffff" fill-opacity="1" fill-rule="nonzero" d="  "/><path id="_R_G_L_22_G_D_38_P_0" fill="#ffffff" fill-opacity="1" fill-rule="nonzero" d=" M183.3 81.64 C182.08,81.45 180.83,81.44 179.54,81.65 C172.91,82.74 168.42,88.97 169.49,95.6 C170.36,100.95 174.6,104.89 179.67,105.66 C180.9,105.85 182.15,105.86 183.44,105.65 C190.07,104.56 194.56,98.33 193.49,91.7 C192.62,86.36 188.38,82.41 183.3,81.64z "/></g><g id="_R_G_L_21_G" transform=" translate(88.462, 253.747) translate(-28.098, -10.277)"><path id="_R_G_L_21_G_D_0_P_0" fill="#f8fcf7" fill-opacity="1" fill-rule="nonzero" d=" M26.07 20.3 C26.07,20.3 0.25,20.3 0.25,20.3 C0.25,20.3 0.25,0.25 0.25,0.25 C0.25,0.25 26.07,0.25 26.07,0.25 C26.07,0.25 26.07,20.3 26.07,20.3z "/><path id="_R_G_L_21_G_D_1_P_0" fill="#f8fcf7" fill-opacity="1" fill-rule="nonzero" d=" M55.95 20.3 C55.95,20.3 30.12,20.3 30.12,20.3 C30.12,20.3 30.12,0.25 30.12,0.25 C30.12,0.25 55.95,0.25 55.95,0.25 C55.95,0.25 55.95,20.3 55.95,20.3z "/></g><g id="_R_G_L_20_G" transform=" translate(88.462, 230.248) translate(-28.098, -10.277)"><path id="_R_G_L_20_G_D_0_P_0" fill="#f1f9ef" fill-opacity="1" fill-rule="nonzero" d=" M26.07 20.3 C26.07,20.3 0.25,20.3 0.25,20.3 C0.25,20.3 0.25,0.25 0.25,0.25 C0.25,0.25 26.07,0.25 26.07,0.25 C26.07,0.25 26.07,20.3 26.07,20.3z "/><path id="_R_G_L_20_G_D_1_P_0" fill="#f1f9ef" fill-opacity="1" fill-rule="nonzero" d=" M55.95 20.3 C55.95,20.3 30.12,20.3 30.12,20.3 C30.12,20.3 30.12,0.25 30.12,0.25 C30.12,0.25 55.95,0.25 55.95,0.25 C55.95,0.25 55.95,20.3 55.95,20.3z "/></g><g id="_R_G_L_19_G" transform=" translate(88.462, 206.749) translate(-28.098, -10.277)"><path id="_R_G_L_19_G_D_0_P_0" fill="#eaf4e9" fill-opacity="1" fill-rule="nonzero" d=" M26.07 20.3 C26.07,20.3 0.25,20.3 0.25,20.3 C0.25,20.3 0.25,0.25 0.25,0.25 C0.25,0.25 26.07,0.25 26.07,0.25 C26.07,0.25 26.07,20.3 26.07,20.3z "/><path id="_R_G_L_19_G_D_1_P_0" fill="#eaf4e9" fill-opacity="1" fill-rule="nonzero" d=" M55.95 20.3 C55.95,20.3 30.12,20.3 30.12,20.3 C30.12,20.3 30.12,0.25 30.12,0.25 C30.12,0.25 55.95,0.25 55.95,0.25 C55.95,0.25 55.95,20.3 55.95,20.3z "/></g><g id="_R_G_L_18_G" transform=" translate(88.462, 183.25) translate(-28.098, -10.277)"><path id="_R_G_L_18_G_D_0_P_0" fill="#e1eddd" fill-opacity="1" fill-rule="nonzero" d=" M26.07 20.3 C26.07,20.3 0.25,20.3 0.25,20.3 C0.25,20.3 0.25,0.25 0.25,0.25 C0.25,0.25 26.07,0.25 26.07,0.25 C26.07,0.25 26.07,20.3 26.07,20.3z "/><path id="_R_G_L_18_G_D_1_P_0" fill="#e1eddd" fill-opacity="1" fill-rule="nonzero" d=" M55.95 20.3 C55.95,20.3 30.12,20.3 30.12,20.3 C30.12,20.3 30.12,0.25 30.12,0.25 C30.12,0.25 55.95,0.25 55.95,0.25 C55.95,0.25 55.95,20.3 55.95,20.3z "/></g><g id="_R_G_L_17_G" transform=" translate(88.462, 159.751) translate(-28.098, -10.277)"><path id="_R_G_L_17_G_D_0_P_0" fill="#dae8d6" fill-opacity="1" fill-rule="nonzero" d=" M26.07 20.3 C26.07,20.3 0.25,20.3 0.25,20.3 C0.25,20.3 0.25,0.25 0.25,0.25 C0.25,0.25 26.07,0.25 26.07,0.25 C26.07,0.25 26.07,20.3 26.07,20.3z "/><path id="_R_G_L_17_G_D_1_P_0" fill="#dae8d6" fill-opacity="1" fill-rule="nonzero" d=" M55.95 20.3 C55.95,20.3 30.12,20.3 30.12,20.3 C30.12,20.3 30.12,0.25 30.12,0.25 C30.12,0.25 55.95,0.25 55.95,0.25 C55.95,0.25 55.95,20.3 55.95,20.3z "/></g><g id="_R_G_L_16_G" transform=" translate(88.462, 136.252) translate(-28.098, -10.277)"><path id="_R_G_L_16_G_D_0_P_0" fill="#cee2c7" fill-opacity="1" fill-rule="nonzero" d=" M26.07 20.3 C26.07,20.3 0.25,20.3 0.25,20.3 C0.25,20.3 0.25,0.25 0.25,0.25 C0.25,0.25 26.07,0.25 26.07,0.25 C26.07,0.25 26.07,20.3 26.07,20.3z "/><path id="_R_G_L_16_G_D_1_P_0" fill="#cee2c7" fill-opacity="1" fill-rule="nonzero" d=" M55.95 20.3 C55.95,20.3 30.12,20.3 30.12,20.3 C30.12,20.3 30.12,0.25 30.12,0.25 C30.12,0.25 55.95,0.25 55.95,0.25 C55.95,0.25 55.95,20.3 55.95,20.3z "/></g><g id="_R_G_L_15_G" transform=" translate(129.962, 126.237)"><path id="_R_G_L_15_G_D_0_P_0" stroke="#70a665" stroke-linecap="round" stroke-linejoin="round" fill="none" stroke-width="1" stroke-opacity="1" d=" M138.97 136.97 C138.97,136.97 138.97,138.97 138.97,138.97 C138.97,138.97 136.97,138.97 136.97,138.97 "/><path id="_R_G_L_15_G_D_1_P_0" stroke="#70a665" stroke-linecap="round" stroke-linejoin="round" fill="none" stroke-width="1" stroke-opacity="1" d=" M132.96 138.97 C132.96,138.97 6.51,138.97 6.51,138.97 "/><path id="_R_G_L_15_G_D_2_P_0" stroke="#70a665" stroke-linecap="round" stroke-linejoin="round" fill="none" stroke-width="1" stroke-opacity="1" d=" M4.5 138.97 C4.5,138.97 2.5,138.97 2.5,138.97 C2.5,138.97 2.5,136.97 2.5,136.97 "/><path id="_R_G_L_15_G_D_3_P_0" stroke="#70a665" stroke-linecap="round" stroke-linejoin="round" fill="none" stroke-width="1" stroke-opacity="1" d=" M2.5 132.96 C2.5,132.96 2.5,6.51 2.5,6.51 "/><path id="_R_G_L_15_G_D_4_P_0" stroke="#70a665" stroke-linecap="round" stroke-linejoin="round" fill="none" stroke-width="1" stroke-opacity="1" d=" M2.5 4.5 C2.5,4.5 2.5,2.5 2.5,2.5 C2.5,2.5 4.5,2.5 4.5,2.5 "/><path id="_R_G_L_15_G_D_5_P_0" stroke="#70a665" stroke-linecap="round" stroke-linejoin="round" fill="none" stroke-width="1" stroke-opacity="1" d=" M8.51 2.5 C8.51,2.5 134.97,2.5 134.97,2.5 "/><path id="_R_G_L_15_G_D_6_P_0" stroke="#70a665" stroke-linecap="round" stroke-linejoin="round" fill="none" stroke-width="1" stroke-opacity="1" d=" M136.97 2.5 C136.97,2.5 138.97,2.5 138.97,2.5 C138.97,2.5 138.97,4.5 138.97,4.5 "/><path id="_R_G_L_15_G_D_7_P_0" stroke="#70a665" stroke-linecap="round" stroke-linejoin="round" fill="none" stroke-width="1" stroke-opacity="1" d=" M138.97 8.51 C138.97,8.51 138.97,134.97 138.97,134.97 "/><path id="_R_G_L_15_G_D_8_P_0" fill="#70a665" fill-opacity="1" fill-rule="nonzero" d=" M4.27 4.27 C4.27,4.27 0.72,4.27 0.72,4.27 C0.72,4.27 0.72,0.72 0.72,0.72 C0.72,0.72 4.27,0.72 4.27,0.72 C4.27,0.72 4.27,4.27 4.27,4.27z "/><path id="_R_G_L_15_G_D_9_P_0" fill="#70a665" fill-opacity="1" fill-rule="nonzero" d=" M140.77 4.27 C140.77,4.27 137.22,4.27 137.22,4.27 C137.22,4.27 137.22,0.72 137.22,0.72 C137.22,0.72 140.77,0.72 140.77,0.72 C140.77,0.72 140.77,4.27 140.77,4.27z "/><path id="_R_G_L_15_G_D_10_P_0" fill="#70a665" fill-opacity="1" fill-rule="nonzero" d=" M4.27 140.75 C4.27,140.75 0.72,140.75 0.72,140.75 C0.72,140.75 0.72,137.2 0.72,137.2 C0.72,137.2 4.27,137.2 4.27,137.2 C4.27,137.2 4.27,140.75 4.27,140.75z "/><path id="_R_G_L_15_G_D_11_P_0" fill="#70a665" fill-opacity="1" fill-rule="nonzero" d=" M140.77 140.75 C140.77,140.75 137.22,140.75 137.22,140.75 C137.22,140.75 137.22,137.2 137.22,137.2 C137.22,137.2 140.77,137.2 140.77,137.2 C140.77,137.2 140.77,140.75 140.77,140.75z "/></g><g id="_R_G_L_14_G"><path id="_R_G_L_14_G_D_0_P_0" fill="#70a665" fill-opacity="1" fill-rule="nonzero" d=" M24.92 20.34 C27.12,22.53 29.27,24.68 31.42,26.82 C32.32,27.73 32.32,28.07 31.43,28.96 C30.45,29.94 29.47,30.92 28.49,31.9 C27.89,32.5 27.39,32.5 26.79,31.89 C24.7,29.81 22.61,27.72 20.53,25.63 C20.4,25.51 20.31,25.36 20.16,25.17 C20.01,25.38 19.92,25.5 19.83,25.63 C18.75,27.17 17.66,28.72 16.59,30.26 C16.32,30.65 16.02,30.93 15.51,30.87 C15.02,30.81 14.79,30.48 14.62,30.06 C13.45,27.15 12.26,24.25 11.08,21.34 C10.46,19.78 9.85,18.21 9.22,16.66 C7.87,13.33 6.49,10.02 5.15,6.69 C5.04,6.41 5,6.05 5.08,5.76 C5.23,5.2 5.85,5 6.49,5.26 C8.7,6.15 10.9,7.05 13.1,7.94 C18.7,10.22 24.3,12.5 29.9,14.76 C30.32,14.93 30.66,15.16 30.72,15.64 C30.79,16.14 30.52,16.45 30.13,16.72 C28.51,17.83 26.89,18.96 25.27,20.08 C25.17,20.15 25.07,20.23 24.92,20.34z  M15.86 27.8 C15.98,27.63 16.07,27.52 16.15,27.4 C17.1,26.05 18.05,24.7 19,23.34 C19.59,22.5 20.16,22.45 20.9,23.18 C23.02,25.31 25.15,27.44 27.28,29.57 C27.39,29.68 27.51,29.79 27.58,29.86 C28.27,29.17 28.93,28.51 29.64,27.81 C29.54,27.73 29.42,27.64 29.3,27.52 C27.13,25.35 24.96,23.19 22.79,21.01 C22.17,20.39 22.23,19.76 22.95,19.26 C24.38,18.27 25.81,17.28 27.24,16.3 C27.36,16.21 27.47,16.12 27.64,15.99 C21,13.3 14.45,10.64 7.79,7.94 C10.5,14.61 13.16,21.17 15.86,27.8z "/><path id="_R_G_L_14_G_D_1_P_0" stroke="#6ea063" stroke-linecap="round" stroke-linejoin="round" fill="none" stroke-width="2" stroke-opacity="1" d=" M24.92 20.34 C27.12,22.53 29.27,24.68 31.42,26.82 C32.32,27.73 32.32,28.07 31.43,28.96 C30.45,29.94 29.47,30.92 28.49,31.9 C27.89,32.5 27.39,32.5 26.79,31.89 C24.7,29.81 22.61,27.72 20.53,25.63 C20.4,25.51 20.31,25.36 20.16,25.17 C20.01,25.38 19.92,25.5 19.83,25.63 C18.75,27.17 17.66,28.72 16.59,30.26 C16.32,30.65 16.02,30.93 15.51,30.87 C15.02,30.81 14.79,30.48 14.62,30.06 C13.45,27.15 12.26,24.25 11.08,21.34 C10.46,19.78 9.85,18.21 9.22,16.66 C7.87,13.33 6.49,10.02 5.15,6.69 C5.04,6.41 5,6.05 5.08,5.76 C5.23,5.2 5.85,5 6.49,5.26 C8.7,6.15 10.9,7.05 13.1,7.94 C18.7,10.22 24.3,12.5 29.9,14.76 C30.32,14.93 30.66,15.16 30.72,15.64 C30.79,16.14 30.52,16.45 30.13,16.72 C28.51,17.83 26.89,18.96 25.27,20.08 C25.17,20.15 25.07,20.23 24.92,20.34z  M15.86 27.8 C15.98,27.63 16.07,27.52 16.15,27.4 C17.1,26.05 18.05,24.7 19,23.34 C19.59,22.5 20.16,22.45 20.9,23.18 C23.02,25.31 25.15,27.44 27.28,29.57 C27.39,29.68 27.51,29.79 27.58,29.86 C28.27,29.17 28.93,28.51 29.64,27.81 C29.54,27.73 29.42,27.64 29.3,27.52 C27.13,25.35 24.96,23.19 22.79,21.01 C22.17,20.39 22.23,19.76 22.95,19.26 C24.38,18.27 25.81,17.28 27.24,16.3 C27.36,16.21 27.47,16.12 27.64,15.99 C21,13.3 14.45,10.64 7.79,7.94 C10.5,14.61 13.16,21.17 15.86,27.8z "/><path id="_R_G_L_14_G_D_2_P_0" fill="#ffffff" fill-opacity="1" fill-rule="nonzero" d=" M15.85 27.8 C15.98,27.63 16.07,27.52 16.15,27.4 C17.1,26.05 18.05,24.7 19,23.35 C19.59,22.5 20.16,22.45 20.9,23.18 C23.02,25.31 25.15,27.44 27.28,29.57 C27.39,29.68 27.51,29.79 27.58,29.86 C28.27,29.18 28.93,28.51 29.64,27.81 C29.54,27.73 29.42,27.64 29.3,27.52 C27.13,25.36 24.96,23.19 22.79,21.02 C22.17,20.39 22.23,19.77 22.95,19.26 C24.38,18.27 25.81,17.28 27.24,16.3 C27.36,16.21 27.47,16.12 27.64,15.99 C21,13.3 14.44,10.64 7.79,7.94 C10.5,14.61 13.16,21.17 15.85,27.8z "/></g><g id="_R_G_L_13_G_N_16_T_0" transform=" translate(337.961, 250.354)"><g id="_R_G_L_13_G" transform=" translate(-15.397, 17.283) rotate(-5) translate(-34.301, -25.931)"><path id="_R_G_L_13_G_D_0_P_0" fill="#ff9a7d" fill-opacity="1" fill-rule="nonzero" d=" M5 13.16 C5,13.16 9.8,23.02 14.08,21.94 C18.36,20.85 21.62,17.15 21.62,17.15 C21.62,17.15 22.04,7.47 16.75,6.24 C10.28,4.73 5,13.16 5,13.16z "/><path id="_R_G_L_13_G_D_1_P_0" fill="#ff9a7d" fill-opacity="1" fill-rule="nonzero" d=" M21.22 12.09 C21.22,12.09 21.13,8.13 20.29,6.74 C19.45,5.35 16.23,2.95 15.06,3.81 C13.9,4.67 16.61,7.67 16.61,7.67 C16.61,7.67 14.16,10.67 14.08,13.99 C14,17.32 18.09,17.99 18.09,17.99 C18.09,17.99 21.22,12.09 21.22,12.09z "/><path id="_R_G_L_13_G_D_2_P_0" fill="#ff9a7d" fill-opacity="1" fill-rule="nonzero" d=" M15.89 6.1 C15.89,6.1 8.89,0.25 7.23,0.33 C5.57,0.4 6.56,2.1 6.56,2.1 C6.56,2.1 3.79,0.25 2.47,0.32 C1.14,0.4 2.47,2.87 2.47,2.87 C2.47,2.87 0.25,1.97 0.36,3.62 C0.47,5.27 5,13.15 5,13.15 C5,13.15 11.65,10.52 11.65,10.52 C11.65,10.52 15.89,6.1 15.89,6.1z "/><path id="_R_G_L_13_G_D_3_P_0" fill="#000000" fill-opacity="1" fill-rule="nonzero" d=" M15.16 15.79 C15.02,15.79 14.9,15.69 14.87,15.56 C14.25,12.24 15.96,9.42 16.41,8.74 C16.41,8.74 14.79,5.54 14.79,5.54 C14.72,5.4 14.77,5.23 14.91,5.16 C15.05,5.09 15.23,5.14 15.3,5.28 C15.3,5.28 17,8.64 17,8.64 C17.05,8.73 17.04,8.85 16.98,8.94 C16.96,8.97 14.79,11.98 15.44,15.45 C15.47,15.6 15.36,15.76 15.21,15.78 C15.19,15.79 15.17,15.79 15.16,15.79z "/><path id="_R_G_L_13_G_D_4_P_0" fill="#000000" fill-opacity="1" fill-rule="nonzero" d=" M6.34 9.06 C6.22,9.06 6.11,8.98 6.07,8.86 C6.02,8.71 6.1,8.54 6.25,8.49 C6.25,8.49 13.99,5.96 13.99,5.96 C14.14,5.91 14.3,6 14.35,6.15 C14.4,6.3 14.32,6.46 14.17,6.51 C14.17,6.51 6.43,9.04 6.43,9.04 C6.4,9.05 6.37,9.06 6.34,9.06z "/><path id="_R_G_L_13_G_D_5_P_0" fill="#70a665" fill-opacity="1" fill-rule="nonzero" d=" M68.26 20.17 C68.14,19.44 64.56,19.25 61.58,19.72 C59.74,20 58.27,20.52 57.28,20.93 C57.28,20.93 49.45,23.33 39.93,23.03 C35.49,22.89 29.3,21.09 21.89,13.54 C21.89,13.54 10.39,21.1 10.39,21.1 C10.39,21.1 17.5,43.39 33.16,47.5 C48.81,51.61 61.56,41.87 61.56,41.87 C59.82,28.31 62.2,23.72 64.81,22.11 C66.17,21.27 68.35,20.76 68.26,20.17z "/></g></g><g id="_R_G_L_12_G_N_16_T_0" transform=" translate(337.961, 250.354)"><g id="_R_G_L_12_G" transform=" translate(55.898, 2.083) rotate(-5) translate(-34.414, -27.61)"><path id="_R_G_L_12_G_D_0_P_0" fill="#ff9a7d" fill-opacity="1" fill-rule="nonzero" d=" M51.49 20.08 C51.49,20.08 42.95,41.42 30.65,48.25 C20.58,53.83 9.32,51.54 9.32,51.54 C9.32,51.54 11.25,31.36 11.25,31.36 C11.25,31.36 22.35,28.6 22.35,28.6 C24.42,27.71 30.4,23.63 32.09,22.14 C32.09,22.14 40.37,12.85 40.37,12.85 C40.37,12.85 51.49,20.08 51.49,20.08z "/><path id="_R_G_L_12_G_D_1_P_0" fill="#ff9a7d" fill-opacity="1" fill-rule="nonzero" d=" M39.97 11.98 C39.97,11.98 41.17,6.66 44.01,4.24 C46.86,1.81 50.22,0.25 49.63,2.41 C49.04,4.57 47.08,8.09 47.08,8.09 C47.08,8.09 52.24,6.72 52.24,6.72 C52.24,6.72 55.6,5.15 58.04,4.5 C60.49,3.85 61.26,5.65 61.26,5.65 C61.26,5.65 63.7,5 64.76,5.72 C65.83,6.43 65.07,7.97 65.07,7.97 C65.07,7.97 68.58,8.04 67.26,10.72 C65.94,13.41 59,17.92 55.64,19.49 C52.27,21.05 44.69,22.07 44.69,22.07 C44.69,22.07 37.88,23.56 39.97,11.98z "/><path id="_R_G_L_12_G_D_2_P_0" fill="#70a665" fill-opacity="1" fill-rule="nonzero" d=" M51.49 22.64 C50.27,27.18 46.23,39.78 34.32,47.08 C30.88,49.19 21.45,54.97 13.36,51.17 C10.99,50.06 9.38,48.43 8.36,47.17 C4.11,41.52 2.26,36.52 1.36,33.17 C0.25,29.01 0.7,27.73 1.36,27.17 C2.69,26.05 5.13,27.64 8.08,28.43 C15.67,30.46 23.07,26.21 25.86,24.6 C32.92,20.55 38.32,13.29 38.32,13.29 C38.32,13.29 51.49,22.64 51.49,22.64z "/></g></g><g id="_R_G_L_11_G" transform=" translate(337.184, 247.553)"><path id="_R_G_L_11_G_D_0_P_0" fill="#ff9a7d" fill-opacity="1" fill-rule="nonzero" d=" M15.32 120.4 C15.32,120.4 1.36,112.34 1.36,112.34 C1.36,112.34 10.69,96.18 10.69,96.18 C10.69,96.18 24.65,104.24 24.65,104.24 C24.65,104.24 15.32,120.4 15.32,120.4z "/><path id="_R_G_L_11_G_D_1_P_0" fill="#faab00" fill-opacity="1" fill-rule="nonzero" d=" M4.65 101.59 C5.06,103.57 25.15,113.82 26.77,113.82 C27.23,113.82 28.87,111.35 30.97,107.83 C34.32,102.21 38.85,93.9 41.71,88.59 C43.36,85.52 44.45,83.45 44.45,83.45 C44.45,83.45 43.19,2.78 43.19,2.78 C43.19,2.78 43.19,2.61 43.19,2.61 C43.19,2.61 34.16,0.25 34.16,0.25 C34.16,0.25 10.82,75.23 4.65,97.74 C3.59,101.63 4.6,101.31 4.65,101.59z "/><path id="_R_G_L_11_G_D_2_P_0" fill="#ffffff" fill-opacity="1" fill-rule="nonzero" d=" M0.75 103.33 C0.75,103.33 26.48,116.45 26.48,116.45 C26.84,116.64 27.28,116.49 27.47,116.13 C27.47,116.13 29.99,111.19 29.99,111.19 C30.17,110.82 30.03,110.39 29.67,110.2 C29.67,110.2 3.94,97.07 3.94,97.07 C3.58,96.89 3.14,97.04 2.96,97.39 C2.96,97.39 0.43,102.34 0.43,102.34 C0.25,102.7 0.39,103.14 0.75,103.33z "/></g><g id="_R_G_L_10_G" transform=" translate(330.578, 317.11) translate(-26.674, -69.026)"><path id="_R_G_L_10_G_D_0_P_0" fill="#ff9a7d" fill-opacity="1" fill-rule="nonzero" d=" M44 117.37 C44,117.37 27.87,117.37 27.87,117.37 C27.87,117.37 27.87,98.71 27.87,98.71 C27.87,98.71 44,98.71 44,98.71 C44,98.71 44,117.37 44,117.37z "/><path id="_R_G_L_10_G_D_1_P_0" fill="#faab00" fill-opacity="1" fill-rule="nonzero" d=" M19.47 0.45 C19.47,0.45 20.34,45.48 20.34,45.48 C20.34,45.48 20.82,67.82 21.64,86.23 C21.91,92.64 22.75,101.49 23.11,105.84 C23.46,110.07 23.32,109.89 23.72,110.13 C25.75,111.34 51.79,110.39 52.19,109.4 C52.26,109.21 51.39,110.3 51.41,105.84 C51.53,86.54 53.1,31.73 52.27,22.48 C51.26,11.12 49.25,0.25 49.25,0.25 C49.25,0.25 23.12,0.42 23.12,0.42 C23.12,0.42 19.47,0.45 19.47,0.45z "/><path id="_R_G_L_10_G_D_2_P_0" fill="#ffffff" fill-opacity="1" fill-rule="nonzero" d=" M46.8 12.88 C41.64,12.88 38.48,6.46 38.45,6.39 C38.38,6.25 38.44,6.08 38.58,6.01 C38.73,5.94 38.9,6 38.97,6.14 C39,6.22 42.57,13.46 48.16,12.14 C48.32,12.1 48.47,12.2 48.51,12.35 C48.54,12.51 48.45,12.66 48.29,12.7 C47.78,12.82 47.28,12.88 46.8,12.88z "/><path id="_R_G_L_10_G_D_3_P_0" fill="#041126" fill-opacity="1" fill-rule="nonzero" d=" M0.84 137.57 C1.46,137.8 16.48,137.54 29.48,136.95 C30.37,136.91 30.98,136.11 30.87,135.23 C30.78,134.57 30.81,133.89 30.98,133.18 C31.45,131.18 33.06,129.56 35.05,129.09 C38.73,128.23 42.15,132.26 42.15,135.79 C42.15,136.38 48.18,135.5 48.41,135.08 C48.71,134.54 48.84,132.74 48.87,130.5 C48.97,125.19 48.56,117.33 48.56,117.33 C48.56,117.33 48.76,114.63 48.63,113.39 C48.63,113.39 26.67,113.78 26.67,113.78 C26.67,113.78 13.06,126.13 13.06,126.13 C13.06,126.13 9.12,125.61 4.89,126.56 C2.66,127.05 1.36,129.98 0.77,132.73 C0.25,135.15 0.32,137.38 0.84,137.57z "/><path id="_R_G_L_10_G_D_4_P_0" fill="#ffffff" fill-opacity="1" fill-rule="nonzero" d=" M16.32 123.45 C16.18,123.45 16.06,123.35 16.04,123.21 C16.01,123.05 16.12,122.91 16.27,122.88 C16.27,122.88 23.8,121.68 23.8,121.68 C23.8,121.68 21.16,118.77 21.16,118.77 C21.05,118.66 21.06,118.48 21.18,118.37 C21.29,118.26 21.48,118.27 21.58,118.39 C21.58,118.39 24.59,121.68 24.59,121.68 C24.66,121.76 24.68,121.87 24.65,121.97 C24.61,122.07 24.52,122.15 24.42,122.16 C24.42,122.16 16.37,123.45 16.37,123.45 C16.35,123.45 16.34,123.45 16.32,123.45z "/><path id="_R_G_L_10_G_D_5_P_0" fill="#ffffff" fill-opacity="1" fill-rule="nonzero" d=" M23.23 111.95 C23.23,111.95 52.1,111.09 52.1,111.09 C52.5,111.08 52.82,110.74 52.81,110.34 C52.81,110.34 52.64,104.79 52.64,104.79 C52.63,104.38 52.29,104.07 51.89,104.08 C51.89,104.08 23.02,104.93 23.02,104.93 C22.61,104.94 22.3,105.28 22.31,105.68 C22.31,105.68 22.47,111.24 22.47,111.24 C22.48,111.64 22.82,111.96 23.23,111.95z "/><path id="_R_G_L_10_G_D_6_P_0" fill="#ffffff" fill-opacity="1" fill-rule="nonzero" d=" M21.75 85.89 C21.59,85.88 21.46,85.75 21.46,85.59 C21.46,85.59 22.82,17.93 22.82,17.93 C22.82,17.93 15.1,12.83 15.1,12.83 C14.97,12.74 14.93,12.56 15.02,12.43 C15.11,12.3 15.29,12.26 15.42,12.35 C15.42,12.35 23.27,17.53 23.27,17.53 C23.35,17.59 23.4,17.68 23.4,17.78 C23.4,17.78 22.04,85.6 22.04,85.6 C22.04,85.76 21.91,85.89 21.75,85.89z "/></g><g id="_R_G_L_9_G_N_24_T_0" transform=" translate(337.184, 247.553)"><g id="_R_G_L_9_G" transform=" translate(16.749, 112.232)"><path id="_R_G_L_9_G_D_0_P_0" fill="#041126" fill-opacity="1" fill-rule="nonzero" d=" M0.72 18.98 C1.28,19.3 15.36,21.66 28.02,23.42 C29.25,23.59 30.42,22.84 30.76,21.64 C31.36,19.58 33.13,17.91 35.56,17.64 C37.6,17.4 39.68,18.4 40.8,20.12 C41.37,21 41.66,21.95 41.71,22.88 C41.77,24.16 42.77,25.2 44.04,25.29 C46.31,25.44 47.75,25.42 47.97,25.15 C48.35,24.67 48.81,22.93 49.25,20.72 C50.3,15.53 51.32,7.72 51.32,7.72 C51.32,7.72 52,5.1 52.09,3.85 C52.09,3.85 30.43,0.25 30.43,0.25 C30.43,0.25 14.82,9.93 14.82,9.93 C14.82,9.93 11.03,8.71 6.71,8.87 C4.42,8.94 2.59,11.6 1.54,14.18 C0.58,16.48 0.25,18.69 0.72,18.98z "/><path id="_R_G_L_9_G_D_1_P_0" fill="#ffffff" fill-opacity="1" fill-rule="nonzero" d=" M26.8 8.08 C26.77,8.09 26.74,8.09 26.7,8.09 C26.7,8.09 18.55,7.9 18.55,7.9 C18.39,7.89 18.27,7.76 18.27,7.6 C18.27,7.44 18.41,7.32 18.56,7.32 C18.56,7.32 26.19,7.5 26.19,7.5 C26.19,7.5 24.11,4.17 24.11,4.17 C24.03,4.03 24.07,3.86 24.2,3.77 C24.34,3.69 24.51,3.73 24.6,3.86 C24.6,3.86 26.95,7.65 26.95,7.65 C27.01,7.74 27.01,7.86 26.96,7.95 C26.93,8.01 26.87,8.06 26.8,8.08z "/></g></g><g id="_R_G_L_8_G_N_16_T_0" transform=" translate(337.961, 250.354)"><g id="_R_G_L_8_G" transform=" translate(71.42, -22.668)"><path id="_R_G_L_8_G_D_0_P_0" fill="#faab00" fill-opacity="1" fill-rule="nonzero" d=" M4.1 22.69 C4.1,22.69 21.63,8.59 21.63,8.59 C21.63,8.59 74.7,75.18 74.7,75.18 C74.7,75.18 57.17,89.28 57.17,89.28 C57.17,89.28 4.1,22.69 4.1,22.69z "/><path id="_R_G_L_8_G_D_1_P_0" fill="#f9dda5" fill-opacity="1" fill-rule="nonzero" d=" M9.34 18.48 C9.34,18.48 16.4,12.8 16.4,12.8 C16.4,12.8 69.46,79.39 69.46,79.39 C69.46,79.39 62.41,85.07 62.41,85.07 C62.41,85.07 9.34,18.48 9.34,18.48z "/><path id="_R_G_L_8_G_D_2_P_0" fill="#70a665" fill-opacity="1" fill-rule="nonzero" d=" M57.17 89.28 C57.17,89.28 74.7,75.18 74.7,75.18 C74.7,75.18 77.28,78.39 77.28,78.39 C77.28,78.39 59.76,92.49 59.76,92.49 C59.76,92.49 57.17,89.28 57.17,89.28z "/><path id="_R_G_L_8_G_D_3_P_0" fill="#f9dda5" fill-opacity="1" fill-rule="nonzero" d=" M70.86 98.13 C70.86,98.13 80.41,90.45 80.41,90.45 C82.62,88.68 82.97,85.46 81.19,83.25 C81.19,83.25 77.28,78.39 77.28,78.39 C77.28,78.39 59.76,92.49 59.76,92.49 C59.76,92.49 63.67,97.35 63.67,97.35 C65.44,99.56 68.66,99.91 70.86,98.13z "/><path id="_R_G_L_8_G_D_4_P_0" fill="#ffdacf" fill-opacity="1" fill-rule="nonzero" d=" M21.63 8.59 C21.63,8.59 2.89,0.78 2.89,0.78 C1.61,0.25 0.25,1.34 0.5,2.71 C0.5,2.71 4.1,22.69 4.1,22.69 C4.1,22.69 21.63,8.59 21.63,8.59z "/><path id="_R_G_L_8_G_D_5_P_0" fill="#ffdacf" fill-opacity="1" fill-rule="nonzero" d=" M16.4 12.8 C16.4,12.8 2.17,1.36 2.17,1.36 C1.2,0.58 0.66,1.02 1.21,2.13 C1.21,2.13 9.34,18.47 9.34,18.47 C9.34,18.47 16.4,12.8 16.4,12.8z "/><path id="_R_G_L_8_G_D_6_P_0" fill="#faab00" fill-opacity="1" fill-rule="nonzero" d=" M3.66 4.19 C4.46,3.54 5.02,2.7 5.33,1.8 C5.33,1.8 2.89,0.78 2.89,0.78 C1.61,0.25 0.25,1.35 0.5,2.71 C0.5,2.71 0.97,5.31 0.97,5.31 C1.92,5.2 2.85,4.84 3.66,4.19z "/></g></g><g id="_R_G_L_7_G" transform=" translate(337.961, 250.354)"><path id="_R_G_L_7_G_D_0_P_0" fill="#70a665" fill-opacity="1" fill-rule="nonzero" d=" M12.25 7.49 C10.89,8.3 9.03,9.41 7.28,11.57 C2.04,18.03 5.09,25.12 2.98,38.6 C2.16,43.84 1.01,48 0.25,50.49 C5.07,52.2 12.9,54.3 22.66,53.91 C30.02,53.61 36.04,51.99 40.25,50.49 C40.58,43.49 40.92,36.49 41.25,29.49 C44.17,20.47 41.09,10.99 34.25,6.49 C24.78,0.25 13.18,6.93 12.25,7.49z "/><path id="_R_G_L_7_G_D_1_P_0" fill="#041126" fill-opacity="1" fill-rule="nonzero" d=" M3.42 35.49 C3.22,35.46 3.11,35.3 3.13,35.13 C3.13,35.13 4.75,22.49 4.75,22.49 C4.77,22.32 4.92,22.2 5.08,22.23 C5.23,22.25 5.34,22.41 5.32,22.58 C5.32,22.58 3.7,35.22 3.7,35.22 C3.68,35.37 3.56,35.49 3.42,35.49z "/></g><g id="_R_G_L_6_G_N_16_T_0" transform=" translate(337.961, 250.354)"><g id="_R_G_L_6_G" transform=" translate(21.237, 6.537)"><path id="_R_G_L_6_G_D_0_P_0" fill="#faab00" fill-opacity="1" fill-rule="nonzero" d=" M7.93 0.67 C7.93,0.67 9.4,2.77 9.28,3.61 C9.16,4.45 6.28,7.32 6.28,7.32 C6.28,7.32 7.82,14.39 7.06,17.74 C6.31,21.1 2.28,33.55 1.58,33.08 C0.88,32.6 0.25,20.02 0.61,17.63 C0.98,15.23 3.87,7.03 3.87,7.03 C3.87,7.03 2.28,3.85 2.33,3.17 C2.4,2.3 4.71,0.63 4.71,0.63 C4.71,0.63 6.74,0.25 7.93,0.67z "/></g></g><g id="_R_G_L_5_G_N_16_T_0" transform=" translate(337.961, 250.354)"><g id="_R_G_L_5_G" transform=" translate(22.859, 6.787)"><path id="_R_G_L_5_G_D_0_P_0" fill="#041126" fill-opacity="1" fill-rule="nonzero" d=" M4.15 10.9 C4.15,10.9 0.94,2.37 4.84,1.31 C8.74,0.25 12.43,5.26 12.43,5.26 C12.43,5.26 20.45,7.4 22.84,12.52 C25.23,17.63 16.4,24.39 16.4,24.39 C16.4,24.39 4.15,10.9 4.15,10.9z "/><path id="_R_G_L_5_G_D_1_P_0" fill="#ff9a7d" fill-opacity="1" fill-rule="nonzero" d=" M15.02 25.23 C15.02,25.23 14.24,33.21 14.24,33.21 C14.24,33.21 12.99,34.52 8.29,34.44 C4.78,34.38 3.22,34.32 3.22,34.32 C3.22,34.32 4.1,30.33 4.1,30.33 C4.1,30.33 4.96,26.43 4.96,26.43 C4.96,26.43 13.57,25.4 13.57,25.4 C13.57,25.4 15.02,25.23 15.02,25.23z "/><path id="_R_G_L_5_G_D_2_P_0" fill="#041126" fill-opacity="1" fill-rule="nonzero" d=" M13.57 25.4 C13.53,25.62 13.42,25.87 13.26,26.15 C11.09,29.96 6.12,30.35 4.1,30.33 C4.1,30.33 4.96,26.43 4.96,26.43 C4.96,26.43 13.57,25.4 13.57,25.4z "/><path id="_R_G_L_5_G_D_3_P_0" fill="#ff9a7d" fill-opacity="1" fill-rule="nonzero" d=" M5.15 8.73 C5.15,8.73 0.25,18.33 1.3,24.05 C2.35,29.77 7.25,29.31 10.23,28.48 C13.21,27.64 14.69,25.89 14.69,25.89 C14.69,25.89 17.32,27.09 19.33,24.6 C21.35,22.11 20.47,18.97 18.98,18.14 C17.5,17.31 15.57,18.33 15.57,18.33 C15.57,18.33 17.23,15.56 17.23,15.56 C17.23,15.56 12.33,0.33 5.15,8.73z "/><path id="_R_G_L_5_G_D_4_P_0" fill="#041126" fill-opacity="1" fill-rule="nonzero" d=" M15.48 22.63 C15.38,22.63 15.29,22.58 15.23,22.5 C15.15,22.36 15.19,22.18 15.33,22.1 C15.33,22.1 18.98,19.87 18.98,19.87 C19.12,19.79 19.29,19.83 19.37,19.96 C19.46,20.1 19.41,20.27 19.28,20.36 C19.28,20.36 15.63,22.59 15.63,22.59 C15.58,22.62 15.53,22.63 15.48,22.63z "/><path id="_R_G_L_5_G_D_5_P_0" fill="#041126" fill-opacity="1" fill-rule="nonzero" d=" M18.59 22.91 C18.56,22.91 18.52,22.9 18.49,22.89 C18.49,22.89 16.3,22.05 16.3,22.05 C16.15,21.99 16.08,21.83 16.13,21.68 C16.19,21.53 16.36,21.46 16.5,21.51 C16.5,21.51 18.7,22.36 18.7,22.36 C18.84,22.41 18.92,22.58 18.86,22.73 C18.82,22.84 18.71,22.91 18.59,22.91z "/><path id="_R_G_L_5_G_D_6_P_0" fill="#041126" fill-opacity="1" fill-rule="nonzero" d=" M11.13 13.56 C11.04,13.56 10.94,13.51 10.89,13.42 C10.04,12 8.78,12.52 8.72,12.54 C8.58,12.6 8.41,12.54 8.34,12.4 C8.28,12.25 8.35,12.08 8.49,12.02 C8.51,12.01 10.27,11.26 11.38,13.13 C11.46,13.27 11.42,13.44 11.28,13.52 C11.24,13.55 11.18,13.56 11.13,13.56z "/><path id="_R_G_L_5_G_D_7_P_0" fill="#041126" fill-opacity="1" fill-rule="nonzero" d=" M3.82 12.43 C3.73,12.43 3.65,12.39 3.59,12.31 C3.5,12.18 3.53,12 3.66,11.91 C4.63,11.22 5.64,11.61 6.03,11.92 C6.16,12.01 6.18,12.19 6.09,12.32 C5.99,12.45 5.81,12.47 5.68,12.37 C5.65,12.35 4.86,11.76 3.99,12.38 C3.94,12.41 3.88,12.43 3.82,12.43z "/><path id="_R_G_L_5_G_D_8_P_0" fill="#041126" fill-opacity="1" fill-rule="nonzero" d=" M4.14 20.4 C4.01,20.4 3.89,20.3 3.86,20.17 C3.24,16.78 5.9,15.73 5.93,15.73 C6.08,15.67 6.24,15.74 6.3,15.89 C6.35,16.04 6.28,16.2 6.13,16.26 C6.04,16.3 3.89,17.16 4.43,20.06 C4.46,20.22 4.35,20.37 4.2,20.39 C4.18,20.4 4.16,20.4 4.14,20.4z "/><path id="_R_G_L_5_G_D_9_P_0" fill="#041126" fill-opacity="1" fill-rule="nonzero" d=" M3.5 16.27 C3.47,16.27 3.44,16.26 3.4,16.25 C3.26,16.2 3.18,16.03 3.23,15.88 C3.23,15.88 3.88,14.1 3.88,14.1 C3.93,13.95 4.09,13.88 4.24,13.93 C4.39,13.98 4.47,14.15 4.42,14.3 C4.42,14.3 3.77,16.08 3.77,16.08 C3.73,16.2 3.62,16.27 3.5,16.27z "/><path id="_R_G_L_5_G_D_10_P_0" fill="#041126" fill-opacity="1" fill-rule="nonzero" d=" M8.28 16.86 C8.25,16.86 8.22,16.86 8.19,16.85 C8.04,16.79 7.96,16.63 8.01,16.48 C8.01,16.48 8.66,14.7 8.66,14.7 C8.71,14.55 8.88,14.47 9.03,14.52 C9.18,14.58 9.25,14.74 9.2,14.89 C9.2,14.89 8.55,16.67 8.55,16.67 C8.51,16.79 8.4,16.86 8.28,16.86z "/><path id="_R_G_L_5_G_D_11_P_0" fill="#041126" fill-opacity="1" fill-rule="nonzero" d=" M4.15 10.9 C4.15,10.9 5.12,9.38 7.01,9.57 C8.9,9.75 9.87,11.26 9.87,11.26 C9.87,11.26 8.73,14.53 11.13,16.57 C13.54,18.62 15.57,18.33 15.57,18.33 C15.57,18.33 17.5,17.82 17.5,17.82 C17.5,17.82 19.13,15.09 19.13,15.09 C19.13,15.09 14.31,8.41 14.31,8.41 C14.31,8.41 7.69,3.82 7.69,3.82 C7.69,3.82 3.82,6.85 3.82,6.85 C3.82,6.85 4.15,10.9 4.15,10.9z "/><path id="_R_G_L_5_G_D_12_P_0" fill="#041126" fill-opacity="1" fill-rule="nonzero" d=" M6.4 23.56 C6.22,23.56 6.05,23.55 5.92,23.52 C5.76,23.49 5.66,23.34 5.7,23.18 C5.73,23.03 5.88,22.93 6.03,22.96 C6.1,22.97 7.58,23.25 8.36,21.87 C8.44,21.73 8.61,21.69 8.75,21.76 C8.89,21.84 8.93,22.02 8.86,22.15 C8.23,23.27 7.15,23.56 6.4,23.56z "/><path id="_R_G_L_5_G_D_13_P_0" fill="#041126" fill-opacity="1" fill-rule="nonzero" d=" M14.36 31.94 C14.36,31.94 15.26,36.41 14.36,36.89 C13.46,37.37 7.29,34.45 7.29,34.45 C7.29,34.45 1.87,36.51 1.15,36.22 C0.43,35.93 3.5,32.42 3.5,32.42 C3.5,32.42 7.3,35.85 14.36,31.94z "/></g></g><g id="_R_G_L_4_G_N_16_T_0" transform=" translate(337.961, 250.354)"><g id="_R_G_L_4_G" transform=" translate(64.812, -18.577) rotate(-5) translate(-5.376, -7.806)"><path id="_R_G_L_4_G_D_0_P_0" fill="#041126" fill-opacity="1" fill-rule="nonzero" d=" M4.07 15.36 C3.96,15.36 3.85,15.3 3.81,15.18 C3.75,15.04 3.82,14.87 3.97,14.81 C8.12,13.14 6.92,9.12 6.87,8.95 C6.82,8.8 6.91,8.64 7.06,8.59 C7.21,8.55 7.37,8.63 7.42,8.78 C7.43,8.83 8.83,13.48 4.18,15.34 C4.14,15.36 4.11,15.36 4.07,15.36z "/><path id="_R_G_L_4_G_D_1_P_0" fill="#ff9a7d" fill-opacity="1" fill-rule="nonzero" d=" M0.25 11.98 C0.25,11.98 1.45,6.66 4.29,4.24 C7.14,1.81 10.5,0.25 9.91,2.41 C9.32,4.56 7.36,8.09 7.36,8.09 C4.99,9.39 2.62,10.69 0.25,11.98z "/></g></g><g id="_R_G_L_3_G_N_32_T_0" transform=" translate(129.962, 126.237)"><g id="_R_G_L_3_G" transform=" translate(63.672, 75.426) translate(-37.501, -37.501)"><path id="_R_G_L_3_G_D_0_P_0" fill="#70a665" fill-opacity="1" fill-rule="nonzero" d="  "/><path id="_R_G_L_3_G_D_1_P_0" fill="#70a665" fill-opacity="1" fill-rule="nonzero" d=" M74.66 35.04 C73.46,16.42 58.57,1.56 39.98,0.33 C39.98,0.33 39.98,0.25 39.98,0.25 C39.98,0.25 35.04,0.25 35.04,0.25 C35.04,0.25 35.04,0.33 35.04,0.33 C16.43,1.56 1.57,16.42 0.32,35.04 C0.32,35.04 0.25,35.04 0.25,35.04 C0.25,35.04 0.25,39.98 0.25,39.98 C0.25,39.98 0.32,39.98 0.32,39.98 C1.57,58.58 16.43,73.45 35.04,74.66 C35.04,74.66 35.04,74.75 35.04,74.75 C35.04,74.75 39.98,74.75 39.98,74.75 C39.98,74.75 39.98,74.66 39.98,74.66 C58.57,73.45 73.46,58.58 74.66,39.98 C74.66,39.98 74.75,39.98 74.75,39.98 C74.75,39.98 74.75,35.04 74.75,35.04 C74.75,35.04 74.66,35.04 74.66,35.04z  M23.59 8.39 C21.17,11.56 19.17,15.56 17.75,20.12 C17.75,20.12 10.28,20.12 10.28,20.12 C13.54,15.08 18.13,10.98 23.59,8.39z  M7.69 25.09 C7.69,25.09 16.43,25.09 16.43,25.09 C15.75,28.22 15.35,31.57 15.19,35.04 C15.19,35.04 5.32,35.04 5.32,35.04 C5.58,31.51 6.42,28.19 7.69,25.09z  M5.32 39.98 C5.32,39.98 15.19,39.98 15.19,39.98 C15.35,43.44 15.75,46.79 16.43,49.91 C16.43,49.91 7.69,49.91 7.69,49.91 C6.42,46.82 5.58,43.5 5.32,39.98z  M10.28 54.88 C10.28,54.88 17.71,54.88 17.71,54.88 C19.16,59.45 21.17,63.46 23.59,66.64 C18.13,64.04 13.54,59.94 10.28,54.88z  M35.04 69.46 C29.91,68.11 25.52,62.64 22.86,54.88 C22.86,54.88 35.04,54.88 35.04,54.88 C35.04,54.88 35.04,69.46 35.04,69.46z  M35.04 49.91 C35.04,49.91 21.45,49.91 21.45,49.91 C20.74,46.82 20.3,43.5 20.18,39.98 C20.18,39.98 35.04,39.98 35.04,39.98 C35.04,39.98 35.04,49.91 35.04,49.91z  M35.04 35.04 C35.04,35.04 20.18,35.04 20.18,35.04 C20.3,31.51 20.74,28.19 21.45,25.09 C21.45,25.09 35.04,25.09 35.04,25.09 C35.04,25.09 35.04,35.04 35.04,35.04z  M35.04 20.12 C35.04,20.12 22.86,20.12 22.86,20.12 C25.52,12.38 29.91,6.91 35.04,5.54 C35.04,5.54 35.04,20.12 35.04,20.12z  M64.72 20.12 C64.72,20.12 57.3,20.12 57.3,20.12 C55.84,15.56 53.84,11.56 51.43,8.39 C56.87,10.98 61.49,15.08 64.72,20.12z  M39.98 5.54 C45.1,6.91 49.48,12.38 52.17,20.12 C52.17,20.12 39.98,20.12 39.98,20.12 C39.98,20.12 39.98,5.54 39.98,5.54z  M39.98 25.09 C39.98,25.09 53.55,25.09 53.55,25.09 C54.26,28.19 54.68,31.51 54.85,35.04 C54.85,35.04 39.98,35.04 39.98,35.04 C39.98,35.04 39.98,25.09 39.98,25.09z  M39.98 39.98 C39.98,39.98 54.85,39.98 54.85,39.98 C54.71,43.5 54.26,46.82 53.55,49.91 C53.55,49.91 39.98,49.91 39.98,49.91 C39.98,49.91 39.98,39.98 39.98,39.98z  M39.98 69.46 C39.98,69.46 39.98,54.88 39.98,54.88 C39.98,54.88 52.17,54.88 52.17,54.88 C49.48,62.64 45.1,68.11 39.98,69.46z  M51.43 66.64 C53.84,63.44 55.84,59.45 57.3,54.88 C57.3,54.88 64.72,54.88 64.72,54.88 C61.49,59.94 56.87,64.04 51.43,66.64z  M67.31 49.91 C67.31,49.91 58.57,49.91 58.57,49.91 C59.25,46.79 59.68,43.44 59.82,39.98 C59.82,39.98 69.69,39.98 69.69,39.98 C69.43,43.5 68.6,46.82 67.31,49.91z  M59.82 35.04 C59.68,31.57 59.25,28.22 58.57,25.09 C58.57,25.09 67.31,25.09 67.31,25.09 C68.6,28.19 69.43,31.51 69.69,35.04 C69.69,35.04 59.82,35.04 59.82,35.04z "/></g></g><g id="_R_G_L_2_G" transform=" translate(238.947, 199.147)"><path id="_R_G_L_2_G_D_0_P_0" fill="#dd2120" fill-opacity="1" fill-rule="nonzero" d=" M24.8 12.87 C25.47,12.76 25.89,11.92 25.75,11 C25.6,10.08 24.93,9.42 24.26,9.53 C23.59,9.65 22.93,9.43 22.79,9.08 C22.65,8.71 22.61,7.45 23.13,7.03 C23.65,6.6 23.61,5.66 23.01,4.94 C22.43,4.22 21.52,3.98 21,4.41 C20.48,4.83 19.26,4.55 18.93,4.34 C18.61,4.14 18.53,3.44 18.77,2.81 C19.01,2.18 18.5,1.39 17.62,1.05 C16.76,0.72 15.86,0.97 15.61,1.61 C15.49,1.94 15.1,2.21 14.69,2.37 C14.34,2.51 13.97,2.6 13.78,2.58 C13.39,2.56 12.99,2 12.88,1.34 C12.78,0.66 11.93,0.25 11.01,0.39 C10.1,0.54 9.43,1.21 9.54,1.87 C9.65,2.55 8.78,3.46 8.44,3.64 C8.09,3.82 7.47,3.53 7.04,3 C6.61,2.48 5.68,2.54 4.96,3.12 C4.24,3.71 3.99,4.61 4.42,5.14 C4.85,5.67 4.56,6.89 4.35,7.22 C4.14,7.54 3.45,7.61 2.82,7.36 C2.18,7.12 1.4,7.64 1.07,8.51 C0.74,9.37 0.98,10.29 1.63,10.52 C2.25,10.76 2.62,11.96 2.6,12.35 C2.57,12.74 2.02,13.14 1.34,13.26 C0.68,13.37 0.25,14.21 0.4,15.12 C0.56,16.03 1.22,16.7 1.89,16.59 C2.56,16.48 3.47,17.35 3.65,17.69 C3.83,18.04 3.53,18.66 3.01,19.09 C2.49,19.52 2.55,20.46 3.13,21.18 C3.71,21.9 4.62,22.13 5.16,21.71 C5.68,21.28 6.9,21.58 7.22,21.78 C7.55,21.99 7.62,22.68 7.38,23.32 C7.14,23.95 7.66,24.73 8.52,25.06 C9.4,25.39 10.3,25.14 10.54,24.52 C10.67,24.18 11.06,23.92 11.46,23.76 C11.82,23.6 12.18,23.53 12.36,23.54 C12.75,23.56 13.15,24.13 13.27,24.79 C13.38,25.45 14.22,25.88 15.13,25.74 C16.04,25.58 16.71,24.92 16.6,24.24 C16.5,23.58 17.36,22.67 17.7,22.49 C18.05,22.31 18.68,22.6 19.1,23.12 C19.54,23.64 20.48,23.59 21.2,23 C21.91,22.42 22.15,21.51 21.72,20.99 C21.29,20.45 21.58,19.23 21.79,18.91 C22.01,18.59 22.69,18.52 23.33,18.76 C23.96,18.99 24.74,18.49 25.07,17.61 C25.41,16.74 25.16,15.84 24.53,15.59 C23.9,15.36 23.53,14.16 23.56,13.77 C23.57,13.38 24.14,12.98 24.8,12.87z  M14.26 20.33 C13.49,20.46 12.72,20.46 11.97,20.35 C8.89,19.88 6.33,17.49 5.81,14.24 C5.16,10.23 7.88,6.45 11.9,5.8 C12.67,5.67 13.44,5.66 14.17,5.78 C17.25,6.24 19.83,8.64 20.35,11.87 C21,15.9 18.27,19.68 14.26,20.33z "/></g><g id="_R_G_L_1_G" transform=" translate(243.591, 171.383)"><path id="_R_G_L_1_G_D_0_P_0" fill="#faab00" fill-opacity="1" fill-rule="nonzero" d=" M1.48 12.54 C1.98,12.45 2.66,13.11 2.8,13.36 C2.93,13.62 2.72,14.09 2.32,14.42 C1.93,14.74 1.97,15.44 2.41,15.98 C2.85,16.52 3.54,16.7 3.93,16.38 C4.32,16.06 5.24,16.28 5.48,16.44 C5.73,16.6 5.78,17.11 5.6,17.59 C5.43,18.06 5.81,18.66 6.46,18.9 C7.12,19.15 7.8,18.96 7.98,18.49 C8.07,18.24 8.37,18.05 8.67,17.92 C8.94,17.81 9.21,17.75 9.35,17.76 C9.64,17.77 9.95,18.2 10.03,18.7 C10.11,19.2 10.74,19.51 11.43,19.4 C12.12,19.29 12.61,18.79 12.53,18.29 C12.45,17.78 13.11,17.1 13.36,16.97 C13.62,16.84 14.1,17.05 14.42,17.44 C14.74,17.83 15.44,17.8 15.98,17.35 C16.52,16.91 16.7,16.23 16.38,15.84 C16.06,15.44 16.28,14.52 16.43,14.28 C16.59,14.03 17.11,13.98 17.59,14.16 C18.06,14.34 18.65,13.96 18.9,13.3 C19.15,12.65 18.96,11.97 18.49,11.79 C18.01,11.61 17.74,10.71 17.75,10.42 C17.77,10.12 18.19,9.82 18.69,9.74 C19.19,9.65 19.51,9.02 19.4,8.33 C19.29,7.65 18.79,7.15 18.29,7.23 C17.79,7.31 17.29,7.16 17.18,6.88 C17.08,6.61 17.05,5.67 17.44,5.35 C17.83,5.03 17.79,4.32 17.35,3.78 C16.91,3.24 16.23,3.06 15.84,3.38 C15.44,3.71 14.52,3.49 14.28,3.33 C14.03,3.17 13.98,2.65 14.16,2.18 C14.34,1.7 13.96,1.11 13.3,0.86 C12.65,0.62 11.97,0.8 11.79,1.28 C11.7,1.53 11.4,1.72 11.1,1.84 C10.83,1.96 10.56,2.01 10.42,2.01 C10.12,2 9.82,1.57 9.74,1.07 C9.65,0.57 9.02,0.25 8.33,0.36 C7.64,0.47 7.15,0.97 7.23,1.47 C7.31,1.98 6.66,2.67 6.4,2.8 C6.14,2.93 5.67,2.72 5.35,2.32 C5.03,1.93 4.32,1.97 3.78,2.41 C3.24,2.85 3.06,3.54 3.39,3.93 C3.71,4.32 3.49,5.24 3.33,5.48 C3.17,5.73 2.66,5.78 2.18,5.6 C1.7,5.42 1.11,5.81 0.86,6.46 C0.62,7.11 0.8,7.8 1.28,7.97 C1.75,8.16 2.02,9.05 2.01,9.35 C1.99,9.64 1.57,9.95 1.07,10.03 C0.57,10.11 0.25,10.74 0.36,11.43 C0.47,12.12 0.98,12.62 1.48,12.54z  M8.99 4.42 C9.58,4.32 10.16,4.32 10.71,4.41 C13.02,4.76 14.95,6.56 15.35,8.99 C15.84,12.01 13.79,14.86 10.77,15.35 C10.19,15.44 9.61,15.44 9.05,15.36 C6.74,15.01 4.81,13.21 4.42,10.77 C3.93,7.75 5.98,4.91 8.99,4.42z "/></g><g id="_R_G_L_0_G" transform=" translate(212.426, 157.369)"><path id="_R_G_L_0_G_D_0_P_0" fill="#3c5bbf" fill-opacity="1" fill-rule="nonzero" d=" M39.84 15.57 C38.74,15.74 37.64,15.4 37.4,14.81 C37.18,14.21 37.12,12.14 37.98,11.45 C38.85,10.74 38.76,9.19 37.79,8 C36.81,6.81 35.32,6.42 34.46,7.13 C33.59,7.83 31.58,7.35 31.03,7 C30.5,6.67 30.38,5.52 30.78,4.48 C31.18,3.44 30.33,2.14 28.9,1.59 C27.46,1.06 25.97,1.46 25.58,2.5 C25.36,3.06 24.72,3.48 24.05,3.75 C23.47,3.99 22.86,4.13 22.56,4.11 C21.92,4.07 21.24,3.16 21.07,2.05 C20.89,0.95 19.51,0.25 18,0.49 C16.48,0.75 15.39,1.84 15.57,2.95 C15.74,4.04 14.31,5.55 13.74,5.85 C13.18,6.13 12.14,5.66 11.43,4.8 C10.74,3.93 9.19,4.03 8,4.99 C6.81,5.96 6.42,7.46 7.13,8.33 C7.83,9.19 7.35,11.21 7,11.74 C6.65,12.28 5.52,12.4 4.47,12 C3.44,11.6 2.14,12.44 1.59,13.88 C1.05,15.32 1.46,16.8 2.5,17.2 C3.55,17.6 4.14,19.57 4.11,20.22 C4.07,20.86 3.14,21.53 2.05,21.71 C0.95,21.89 0.25,23.27 0.49,24.78 C0.75,26.29 1.84,27.39 2.95,27.21 C4.04,27.03 5.55,28.47 5.84,29.02 C6.13,29.59 5.66,30.63 4.8,31.34 C3.93,32.04 4.03,33.59 4.99,34.78 C5.96,35.97 7.46,36.36 8.32,35.65 C9.19,34.94 11.2,35.43 11.74,35.78 C12.28,36.12 12.38,37.26 12,38.31 C11.6,39.34 12.44,40.64 13.89,41.19 C15.32,41.73 16.8,41.32 17.2,40.28 C17.41,39.72 18.06,39.3 18.71,39.03 C19.31,38.79 19.92,38.65 20.22,38.67 C20.86,38.71 21.53,39.63 21.71,40.73 C21.89,41.83 23.27,42.53 24.78,42.29 C26.29,42.04 27.39,40.94 27.21,39.84 C27.03,38.74 28.47,37.23 29.02,36.94 C29.6,36.65 30.63,37.12 31.34,37.98 C32.04,38.85 33.59,38.76 34.78,37.79 C35.97,36.82 36.36,35.32 35.65,34.46 C34.94,33.59 35.43,31.58 35.77,31.05 C36.12,30.5 37.26,30.39 38.31,30.78 C39.34,31.18 40.64,30.33 41.18,28.9 C41.73,27.46 41.32,25.97 40.28,25.58 C39.23,25.18 38.64,23.2 38.67,22.56 C38.71,21.92 39.63,21.24 40.73,21.07 C41.83,20.89 42.53,19.51 42.29,18 C42.04,16.49 40.94,15.39 39.84,15.57z  M23.34 33.39 C22.05,33.6 20.8,33.59 19.56,33.4 C14.5,32.63 10.26,28.69 9.39,23.34 C8.32,16.71 12.81,10.48 19.43,9.39 C20.73,9.18 21.98,9.19 23.2,9.38 C28.28,10.15 32.52,14.1 33.39,19.43 C34.46,26.07 29.97,32.3 23.34,33.39z "/></g></g><g id="time_group"/></svg>