<?xml version="1.0" encoding="UTF-8"?><svg id="Layer_1" xmlns="http://www.w3.org/2000/svg" xmlns:xlink="http://www.w3.org/1999/xlink" viewBox="0 0 350 165.97"><defs><style>.cls-1{fill:url(#linear-gradient);}.cls-2{fill:#fafbfc;}.cls-3{fill:#fff;}.cls-4{fill:#3474bb;}</style><linearGradient id="linear-gradient" x1="-35.81" y1="339.12" x2="-32.42" y2="342.77" gradientTransform="translate(-13144.29 -1359.4) rotate(-90) scale(42.28 39.34)" gradientUnits="userSpaceOnUse"><stop offset="0" stop-color="#fedd57"/><stop offset=".5" stop-color="#f15843"/><stop offset="1" stop-color="#bb469a"/></linearGradient></defs><g><path class="cls-4" d="M143.92,0H20.56C9.22,0,0,9.3,0,20.75v124.48c0,11.44,9.22,20.75,20.56,20.75h123.36c11.34,0,20.56-9.3,20.56-20.75V20.75c0-11.44-9.22-20.75-20.56-20.75Z"/><path class="cls-2" d="M138.78,82.99h-25.7v-20.75c0-5.73,4.61-5.19,10.28-5.19h10.28V31.12h-20.56c-17.03,0-30.84,13.93-30.84,31.12v20.75h-20.56v25.93h20.56v57.05h30.84v-57.05h15.42l10.28-25.93Z"/></g><g><path class="cls-1" d="M196.28,11.52c-12.89,13.51-10.25,27.85-10.25,71.44,0,36.19-6.26,72.48,26.5,81.02,10.23,2.65,100.85,2.65,111.07-.01,13.64-3.55,24.73-14.71,26.25-34.17,.21-2.72,.21-90.9,0-93.67-1.61-20.73-14.26-32.68-30.92-35.1-3.82-.56-4.58-.72-24.18-.76-69.51,.03-84.74-3.09-98.45,11.26h0Z"/><path class="cls-3" d="M268,21.91c-24.81,0-48.37-2.23-57.36,21.08-3.72,9.62-3.18,22.12-3.18,40.02,0,15.71-.5,30.47,3.18,40.01,8.98,23.32,32.73,21.08,57.35,21.08s48.25,2.5,57.36-21.08c3.72-9.72,3.18-22.03,3.18-40.01,0-23.87,1.3-39.28-10.17-50.85-11.61-11.72-27.32-10.25-50.38-10.25h.03Zm-5.42,11.01c51.75-.08,58.33-5.89,54.7,74.75-1.29,28.52-22.81,25.39-49.27,25.39-48.24,0-49.62-1.39-49.62-50.09s3.83-50.03,44.19-50.07h0Zm37.74,10.16c-4.01,0-7.26,3.28-7.26,7.33s3.25,7.33,7.26,7.33,7.26-3.28,7.26-7.33-3.25-7.33-7.26-7.33Zm-32.32,8.57c-17.17,0-31.09,14.05-31.09,31.38s13.92,31.37,31.09,31.37,31.08-14.04,31.08-31.37-13.91-31.38-31.08-31.38h0Zm0,11.01c26.68,0,26.71,40.73,0,40.73s-26.71-40.73,0-40.73Z"/></g></svg>