<svg xmlns="http://www.w3.org/2000/svg" viewBox="0 0 342.06 275.2"><defs><style>.cls-1,.cls-4{fill:none;}.cls-2{fill:#fff;}.cls-3{fill:#f5f5f5;}.cls-4{stroke:#eef0f0;stroke-miterlimit:10;stroke-width:3px;}.cls-5{fill:#3572e0;}.cls-6{fill:#86a2d7;}.cls-7{fill:#f7c546;}.cls-8{fill:#73c1c4;}.cls-9{fill:#e7e7e7;}</style></defs><g id="圖層_2" data-name="圖層 2"><rect class="cls-1" width="425.03" height="275.2"/></g><g id="圖層_4" data-name="圖層 4"><path class="cls-2" d="M325.8,65.89V255.5a10,10,0,0,1-10,10H26.4a10,10,0,0,1-10-10V65.89Z"/><rect class="cls-3" x="178.7" y="84.04" width="127.39" height="91.55"/><rect class="cls-1" x="1.47" width="339.12" height="275.2"/><rect class="cls-4" x="16.43" y="13.78" width="309.37" height="251.69" rx="9.97"/><path class="cls-5" d="M325.8,23.74V65.89H16.43V23.74a10,10,0,0,1,10-10H315.83A10,10,0,0,1,325.8,23.74Z"/><rect class="cls-2" x="75.83" y="28.19" width="172.32" height="26.16"/><rect class="cls-2" x="260.46" y="28.19" width="49.23" height="26.16"/><rect class="cls-2" x="27.32" y="28.19" width="11.55" height="26.16"/><rect class="cls-2" x="42.99" y="37.37" width="5.77" height="16.98"/><rect class="cls-2" x="52.45" y="37.37" width="5.77" height="16.98"/><rect class="cls-2" x="61.92" y="37.37" width="5.77" height="16.98"/><path class="cls-5" d="M292.22,46.48,288,42.24a5.58,5.58,0,0,0,.82-2.92A5.64,5.64,0,1,0,286,44.19l4.26,4.26a1.4,1.4,0,0,0,2,0h0A1.38,1.38,0,0,0,292.22,46.48Zm-12.44-7.16a3.38,3.38,0,1,1,3.38,3.38A3.38,3.38,0,0,1,279.78,39.32Z"/><rect class="cls-6" x="197.99" y="95.04" width="83.57" height="11.32"/><rect class="cls-7" x="197.99" y="118.19" width="29.13" height="18.59"/><rect class="cls-8" x="234.03" y="125.46" width="48.9" height="11.32"/><rect class="cls-9" x="197.99" y="143.85" width="85.18" height="11.32"/><rect class="cls-6" x="38.87" y="84.04" width="127.89" height="91.55" rx="5.06"/><rect class="cls-9" x="38.87" y="187.8" width="127.89" height="18.15" rx="3.9"/><rect class="cls-9" x="38.87" y="218.16" width="127.89" height="18.15" rx="3.9"/></g></svg>