<?xml version="1.0" encoding="UTF-8"?><svg id="Layer_2" xmlns="http://www.w3.org/2000/svg" viewBox="0 0 326.26 343.55"><defs><style>.cls-1{fill:none;stroke:#000;stroke-linecap:round;stroke-linejoin:round;stroke-width:13px;}</style></defs><path class="cls-1" d="M64.33,254.22c-2.68,1.8-7.5,4.54-14.09,5.72-3.82,.69-11.33,1.42-19.65-1.82-12.94-5.03-18.55-16.06-19.98-18.99-1.38-2.82-5.48-11.5-3.63-22.6,1.17-7,4.22-12.14,6.22-14.94,3.15-4.43,6.68-7.27,9.08-8.92,10.64-7.27,21.28-14.53,31.93-21.8,14.04,20.5,28.07,40.99,42.11,61.49-10.66,7.28-21.32,14.57-31.98,21.85Z"/><path class="cls-1" d="M107.26,63.38c-17.69,35.83-35.37,71.67-53.06,107.5,14.09,20.52,28.17,41.04,42.26,61.56,38.99-3.02,77.98-6.05,116.97-9.07"/><ellipse class="cls-1" cx="169.89" cy="137.37" rx="44.09" ry="99.29" transform="translate(-47.74 118.18) rotate(-33.92)"/><path class="cls-1" d="M141.72,120.9c13.58-8.54,31.58-4.83,40.52,8.03,9.24,13.29,5.91,32.16-7.72,41.62"/><line class="cls-1" x1="225.92" y1="6.5" x2="221.32" y2="56.49"/><line class="cls-1" x1="254.85" y1="86.32" x2="300.58" y2="55.83"/><line class="cls-1" x1="263.28" y1="130.48" x2="319.76" y2="140.72"/><path class="cls-1" d="M123.5,329.74c1.44,1.59,5.73,5.88,12.66,7.05,1.22,.2,10.97,1.68,18-5.28,4.66-4.61,5.44-10.25,5.67-12.11,.83-6.7-1.73-11.78-2.7-13.49"/><path class="cls-1" d="M109.69,236.38c15.82,23.17,31.63,46.35,47.45,69.52"/><path class="cls-1" d="M73.85,256.85c16.55,24.3,33.1,48.59,49.65,72.89"/></svg>