<?xml version="1.0" encoding="UTF-8"?><svg id="Layer_2" xmlns="http://www.w3.org/2000/svg" viewBox="0 0 342.23 342.67"><defs><style>.cls-1,.cls-2{fill:none;stroke:#000;stroke-linejoin:round;stroke-width:12px;}.cls-2{stroke-linecap:round;}</style></defs><circle class="cls-2" cx="143.1" cy="143.1" r="137.1"/><circle class="cls-2" cx="143.1" cy="143.1" r="113.73"/><circle class="cls-2" cx="80.56" cy="126.48" r="16.73"/><circle class="cls-2" cx="137.32" cy="183.66" r="16.73"/><circle class="cls-2" cx="205.75" cy="114.68" r="16.73"/><circle class="cls-2" cx="285.72" cy="35.59" r="16.73"/><line class="cls-2" x1="32.4" y1="126.48" x2="63.83" y2="126.48"/><line class="cls-2" x1="97.29" y1="143.28" x2="125.29" y2="171.27"/><line class="cls-2" x1="191.59" y1="129.39" x2="150.68" y2="170.3"/><line class="cls-2" x1="222.48" y1="98" x2="237.59" y2="82.9"/><line class="cls-2" x1="258.31" y1="62.67" x2="273.73" y2="47.25"/><line class="cls-1" x1="305.54" y1="35.59" x2="342.22" y2="35.59"/><line class="cls-2" x1="245.35" y1="280.2" x2="279.55" y2="246"/><path class="cls-2" d="M223.22,257.95l69.47,69.47c10.67,12.31,29.17,11.82,38.11,1.53,7.96-9.16,7.36-24.97-3.14-34.76l-68.92-69.05,68.92,69.05"/></svg>