<svg xmlns="http://www.w3.org/2000/svg" xmlns:xlink="http://www.w3.org/1999/xlink" preserveAspectRatio="xMidYMid meet" width="423" height="520" viewBox="0 0 423 520" style="width:100%;height:100%"><defs><animate repeatCount="indefinite" dur="4.004004s" begin="0s" xlink:href="#_R_G_L_16_G" fill="freeze" attributeName="opacity" from="0" to="0" keyTimes="0;0.1666667;0.4333333;0.75;1" values="0;0;1;1;0" keySplines="0.333 0 0.667 1;0.333 0 0.667 1;0.333 0 0.667 1;0.333 0 0.667 1" calcMode="spline"/><animate repeatCount="indefinite" dur="4.004004s" begin="0s" xlink:href="#_R_G_L_15_G" fill="freeze" attributeName="opacity" from="0" to="0" keyTimes="0;0.2666667;0.75;1" values="0;1;1;0" keySplines="0.333 0 0.667 1;0.333 0 0.667 1;0.333 0 0.667 1" calcMode="spline"/><animateTransform repeatCount="indefinite" dur="4.004004s" begin="0s" xlink:href="#_R_G_L_14_G" fill="freeze" attributeName="transform" from="0 0" to="0 0" type="scale" additive="sum" keyTimes="0;0.2416667;0.325;0.35;0.3666667;0.3833333;0.4083333;0.825;0.8416666;0.8583333;0.875;0.9583333;1" values="0 0;0 0;1.11974 1.11974;0.9500000000000001 0.9500000000000001;1.06015 1.06015;0.9500000000000001 0.9500000000000001;1 1;1 1;0.9500000000000001 0.9500000000000001;1 1;1.11974 1.11974;0 0;0 0" keySplines="0.333 0 0.585 1;0.333 0 0.585 1;0.333 0 0.403 1;0.54 0.05 0.453 0.991;0.651 0.026 0.411 1;0.091 0 0.397 0;0.175 0 0.419 1;0.653 0.002 0.662 0.999;0.753 0.065 0.662 1;0.649 0 0.662 1;0.54 0 0.833 1;0 0 0 0" calcMode="spline"/><animateTransform repeatCount="indefinite" dur="4.004004s" begin="0s" xlink:href="#_R_G_L_14_G" fill="freeze" attributeName="transform" from="-25.63 -31.501" to="-25.63 -31.501" type="translate" additive="sum" keyTimes="0;1" values="-25.63 -31.501;-25.63 -31.501" keySplines="0 0 1 1" calcMode="spline"/><animateTransform repeatCount="indefinite" dur="4.004004s" begin="0s" xlink:href="#_R_G_L_13_G" fill="freeze" attributeName="transform" from="0 0" to="0 0" type="scale" additive="sum" keyTimes="0;0.2416667;0.325;0.35;0.3666667;0.3833333;0.4083333;0.825;0.8416666;0.8583333;0.875;0.9583333;1" values="0 0;0 0;1.11974 1.11974;0.9500000000000001 0.9500000000000001;1.06015 1.06015;0.9500000000000001 0.9500000000000001;1 1;1 1;0.9500000000000001 0.9500000000000001;1 1;1.11974 1.11974;0 0;0 0" keySplines="0.333 0 0.585 1;0.333 0 0.585 1;0.333 0 0.403 1;0.54 0.05 0.453 0.991;0.651 0.026 0.411 1;0.091 0 0.397 0;0.175 0 0.419 1;0.653 0.002 0.662 0.999;0.753 0.065 0.662 1;0.649 0 0.662 1;0.54 0 0.833 1;0 0 0 0" calcMode="spline"/><animateTransform repeatCount="indefinite" dur="4.004004s" begin="0s" xlink:href="#_R_G_L_13_G" fill="freeze" attributeName="transform" from="-12.431 -11.217" to="-12.431 -11.217" type="translate" additive="sum" keyTimes="0;1" values="-12.431 -11.217;-12.431 -11.217" keySplines="0 0 1 1" calcMode="spline"/><animateTransform repeatCount="indefinite" dur="4.004004s" begin="0s" xlink:href="#_R_G_L_12_G" fill="freeze" attributeName="transform" from="0 0" to="0 0" type="scale" additive="sum" keyTimes="0;0.2416667;0.325;0.35;0.3666667;0.3833333;0.4083333;0.825;0.8416666;0.8583333;0.875;0.9583333;1" values="0 0;0 0;1.11974 1.11974;0.9500000000000001 0.9500000000000001;1.06015 1.06015;0.9500000000000001 0.9500000000000001;1 1;1 1;0.9500000000000001 0.9500000000000001;1 1;1.11974 1.11974;0 0;0 0" keySplines="0.333 0 0.585 1;0.333 0 0.585 1;0.333 0 0.403 1;0.54 0.05 0.453 0.991;0.651 0.026 0.411 1;0.091 0 0.397 0;0.175 0 0.419 1;0.653 0.002 0.662 0.999;0.753 0.065 0.662 1;0.649 0 0.662 1;0.54 0 0.833 1;0 0 0 0" calcMode="spline"/><animateTransform repeatCount="indefinite" dur="4.004004s" begin="0s" xlink:href="#_R_G_L_12_G" fill="freeze" attributeName="transform" from="-18.735 -17.009" to="-18.735 -17.009" type="translate" additive="sum" keyTimes="0;1" values="-18.735 -17.009;-18.735 -17.009" keySplines="0 0 1 1" calcMode="spline"/><animateTransform repeatCount="indefinite" dur="4.004004s" begin="0s" xlink:href="#_R_G_L_11_G" fill="freeze" attributeName="transform" from="0 0" to="0 0" type="scale" additive="sum" keyTimes="0;0.2416667;0.325;0.35;0.3666667;0.3833333;0.4083333;0.825;0.8416666;0.8583333;0.875;0.9583333;1" values="0 0;0 0;1.11974 1.11974;0.9500000000000001 0.9500000000000001;1.06015 1.06015;0.9500000000000001 0.9500000000000001;1 1;1 1;0.9500000000000001 0.9500000000000001;1 1;1.11974 1.11974;0 0;0 0" keySplines="0.333 0 0.585 1;0.333 0 0.585 1;0.333 0 0.403 1;0.54 0.05 0.453 0.991;0.651 0.026 0.411 1;0.091 0 0.397 0;0.175 0 0.419 1;0.653 0.002 0.662 0.999;0.753 0.065 0.662 1;0.649 0 0.662 1;0.54 0 0.833 1;0 0 0 0" calcMode="spline"/><animateTransform repeatCount="indefinite" dur="4.004004s" begin="0s" xlink:href="#_R_G_L_11_G" fill="freeze" attributeName="transform" from="-10.969 -9.968" to="-10.969 -9.968" type="translate" additive="sum" keyTimes="0;1" values="-10.969 -9.968;-10.969 -9.968" keySplines="0 0 1 1" calcMode="spline"/><animateTransform repeatCount="indefinite" dur="4.004004s" begin="0s" xlink:href="#_R_G_L_10_G" fill="freeze" attributeName="transform" from="0 0" to="0 0" type="scale" additive="sum" keyTimes="0;0.2833333;0.3666667;0.3916667;0.4083333;0.425;0.45;0.8666666;0.8833333;0.9;0.9166666;1" values="0 0;0 0;1.11974 1.11974;0.9500000000000001 0.9500000000000001;1.06015 1.06015;0.9500000000000001 0.9500000000000001;1 1;1 1;0.9500000000000001 0.9500000000000001;1 1;1.11974 1.11974;0 0" keySplines="0.333 0 0.585 1;0.333 0 0.585 1;0.333 0 0.403 1;0.54 0.05 0.453 0.991;0.651 0.026 0.411 1;0.091 0 0.397 0;0.175 0 0.419 1;0.653 0.002 0.662 0.999;0.753 0.065 0.662 1;0.649 0 0.662 1;0.54 0 0.833 1" calcMode="spline"/><animateTransform repeatCount="indefinite" dur="4.004004s" begin="0s" xlink:href="#_R_G_L_10_G" fill="freeze" attributeName="transform" from="-18.203 -16.239" to="-18.203 -16.239" type="translate" additive="sum" keyTimes="0;1" values="-18.203 -16.239;-18.203 -16.239" keySplines="0 0 1 1" calcMode="spline"/><animateTransform repeatCount="indefinite" dur="4.004004s" begin="0s" xlink:href="#_R_G_L_9_G" fill="freeze" attributeName="transform" from="0 0" to="0 0" type="scale" additive="sum" keyTimes="0;0.2833333;0.3666667;0.3916667;0.4083333;0.425;0.45;0.8666666;0.8833333;0.9;0.9166666;1" values="0 0;0 0;1.11974 1.11974;0.9500000000000001 0.9500000000000001;1.06015 1.06015;0.9500000000000001 0.9500000000000001;1 1;1 1;0.9500000000000001 0.9500000000000001;1 1;1.11974 1.11974;0 0" keySplines="0.333 0 0.585 1;0.333 0 0.585 1;0.333 0 0.403 1;0.54 0.05 0.453 0.991;0.651 0.026 0.411 1;0.091 0 0.397 0;0.175 0 0.419 1;0.653 0.002 0.662 0.999;0.753 0.065 0.662 1;0.649 0 0.662 1;0.54 0 0.833 1" calcMode="spline"/><animateTransform repeatCount="indefinite" dur="4.004004s" begin="0s" xlink:href="#_R_G_L_9_G" fill="freeze" attributeName="transform" from="-24.652 -22.64" to="-24.652 -22.64" type="translate" additive="sum" keyTimes="0;1" values="-24.652 -22.64;-24.652 -22.64" keySplines="0 0 1 1" calcMode="spline"/><animate repeatCount="indefinite" dur="4.004004s" begin="0s" xlink:href="#_R_G_L_8_G" fill="freeze" attributeName="opacity" from="0" to="0" keyTimes="0;0.1666667;0.8333333;1" values="0;1;1;0" keySplines="0.333 0 0.667 1;0.333 0 0.667 1;0.333 0 0.667 1" calcMode="spline"/><animateTransform repeatCount="indefinite" dur="4.004004s" begin="0s" xlink:href="#_R_G_L_7_G" fill="freeze" attributeName="transform" from="0" to="0" type="rotate" additive="sum" keyTimes="0;0.125;0.1666667;0.2083333;0.25;0.5;0.625;0.6666666;0.7083333;0.75;1" values="0;4;0;1;0;0;4;0;1;0;0" keySplines="0.333 0 0.667 1;0.333 0 0.667 1;0.333 0 0.667 1;0.333 0 0.667 1;0.167 0 0.667 1;0.333 0 0.667 1;0.333 0 0.667 1;0.333 0 0.667 1;0.333 0 0.667 1;0 0 0 0" calcMode="spline"/><animateTransform repeatCount="indefinite" dur="4.004004s" begin="0s" xlink:href="#_R_G_L_7_G" fill="freeze" attributeName="transform" from="-100.163 -20.312" to="-100.163 -20.312" type="translate" additive="sum" keyTimes="0;1" values="-100.163 -20.312;-100.163 -20.312" keySplines="0 0 1 1" calcMode="spline"/><animateTransform repeatCount="indefinite" dur="4.004004s" begin="0s" xlink:href="#_R_G_L_7_G_N_14_T_0" fill="freeze" attributeName="transform" from="0" to="0" type="rotate" additive="sum" keyTimes="0;0.25;0.5;0.75;1" values="0;-3;0;-3;0" keySplines="0.333 0 0.667 1;0.333 0 0.667 1;0.333 0 0.667 1;0.333 0 0.667 1" calcMode="spline"/><animateTransform repeatCount="indefinite" dur="4.004004s" begin="0s" xlink:href="#_R_G_L_7_G_N_14_T_0" fill="freeze" attributeName="transform" from="-51.926 -135.44" to="-51.926 -135.44" type="translate" additive="sum" keyTimes="0;1" values="-51.926 -135.44;-51.926 -135.44" keySplines="0 0 1 1" calcMode="spline"/><animateTransform repeatCount="indefinite" dur="4.004004s" begin="0s" xlink:href="#_R_G_L_6_G" fill="freeze" attributeName="transform" from="0" to="0" type="rotate" additive="sum" keyTimes="0;0.25;0.5;0.75;1" values="0;-3;0;-3;0" keySplines="0.333 0 0.667 1;0.333 0 0.667 1;0.333 0 0.667 1;0.333 0 0.667 1" calcMode="spline"/><animateTransform repeatCount="indefinite" dur="4.004004s" begin="0s" xlink:href="#_R_G_L_6_G" fill="freeze" attributeName="transform" from="-51.926 -135.44" to="-51.926 -135.44" type="translate" additive="sum" keyTimes="0;1" values="-51.926 -135.44;-51.926 -135.44" keySplines="0 0 1 1" calcMode="spline"/><animateTransform repeatCount="indefinite" dur="4.004004s" begin="0s" xlink:href="#_R_G_L_5_G_N_14_T_0" fill="freeze" attributeName="transform" from="0" to="0" type="rotate" additive="sum" keyTimes="0;0.25;0.5;0.75;1" values="0;-3;0;-3;0" keySplines="0.333 0 0.667 1;0.333 0 0.667 1;0.333 0 0.667 1;0.333 0 0.667 1" calcMode="spline"/><animateTransform repeatCount="indefinite" dur="4.004004s" begin="0s" xlink:href="#_R_G_L_5_G_N_14_T_0" fill="freeze" attributeName="transform" from="-51.926 -135.44" to="-51.926 -135.44" type="translate" additive="sum" keyTimes="0;1" values="-51.926 -135.44;-51.926 -135.44" keySplines="0 0 1 1" calcMode="spline"/><animateTransform repeatCount="indefinite" dur="4.004004s" begin="0s" xlink:href="#_R_G_L_4_G" fill="freeze" attributeName="transform" from="0" to="0" type="rotate" additive="sum" keyTimes="0;0.25;0.5;0.75;1" values="0;25;-3;22;0" keySplines="0.333 0 0.667 1;0.333 0 0.667 1;0.333 0 0.667 1;0.333 0 0.667 1" calcMode="spline"/><animateTransform repeatCount="indefinite" dur="4.004004s" begin="0s" xlink:href="#_R_G_L_4_G" fill="freeze" attributeName="transform" from="-5.438 -0.886" to="-5.438 -0.886" type="translate" additive="sum" keyTimes="0;1" values="-5.438 -0.886;-5.438 -0.886" keySplines="0 0 1 1" calcMode="spline"/><animateTransform repeatCount="indefinite" dur="4.004004s" begin="0s" xlink:href="#_R_G_L_4_G_N_14_T_0" fill="freeze" attributeName="transform" from="0" to="0" type="rotate" additive="sum" keyTimes="0;0.25;0.5;0.75;1" values="0;-3;0;-3;0" keySplines="0.333 0 0.667 1;0.333 0 0.667 1;0.333 0 0.667 1;0.333 0 0.667 1" calcMode="spline"/><animateTransform repeatCount="indefinite" dur="4.004004s" begin="0s" xlink:href="#_R_G_L_4_G_N_14_T_0" fill="freeze" attributeName="transform" from="-51.926 -135.44" to="-51.926 -135.44" type="translate" additive="sum" keyTimes="0;1" values="-51.926 -135.44;-51.926 -135.44" keySplines="0 0 1 1" calcMode="spline"/><animateTransform repeatCount="indefinite" dur="4.004004s" begin="0s" xlink:href="#_R_G_L_2_G" fill="freeze" attributeName="transform" from="-20" to="-20" type="rotate" additive="sum" keyTimes="0;0.25;0.5;0.75;1" values="-20;-5;-20;-5;-20" keySplines="0.333 0 0.667 1;0.333 0 0.667 1;0.333 0 0.667 1;0.333 0 0.667 1" calcMode="spline"/><animateTransform repeatCount="indefinite" dur="4.004004s" begin="0s" xlink:href="#_R_G_L_2_G" fill="freeze" attributeName="transform" from="-9.658 -42.253" to="-9.658 -42.253" type="translate" additive="sum" keyTimes="0;1" values="-9.658 -42.253;-9.658 -42.253" keySplines="0 0 1 1" calcMode="spline"/><animateTransform repeatCount="indefinite" dur="4.004004s" begin="0s" xlink:href="#_R_G_L_2_G_N_4_T_0" fill="freeze" attributeName="transform" from="0" to="0" type="rotate" additive="sum" keyTimes="0;0.25;0.5;0.75;1" values="0;6;-2;6;0" keySplines="0.333 0 0.667 1;0.333 0 0.667 1;0.333 0 0.667 1;0.333 0 0.667 1" calcMode="spline"/><animateTransform repeatCount="indefinite" dur="4.004004s" begin="0s" xlink:href="#_R_G_L_2_G_N_4_T_0" fill="freeze" attributeName="transform" from="-4.785 -79.166" to="-4.785 -79.166" type="translate" additive="sum" keyTimes="0;1" values="-4.785 -79.166;-4.785 -79.166" keySplines="0 0 1 1" calcMode="spline"/><animateTransform repeatCount="indefinite" dur="4.004004s" begin="0s" xlink:href="#_R_G_L_1_G" fill="freeze" attributeName="transform" from="0" to="0" type="rotate" additive="sum" keyTimes="0;0.25;0.5;0.75;1" values="0;6;-2;6;0" keySplines="0.333 0 0.667 1;0.333 0 0.667 1;0.333 0 0.667 1;0.333 0 0.667 1" calcMode="spline"/><animateTransform repeatCount="indefinite" dur="4.004004s" begin="0s" xlink:href="#_R_G_L_1_G" fill="freeze" attributeName="transform" from="-4.785 -79.166" to="-4.785 -79.166" type="translate" additive="sum" keyTimes="0;1" values="-4.785 -79.166;-4.785 -79.166" keySplines="0 0 1 1" calcMode="spline"/><animate repeatCount="indefinite" dur="4.004004s" begin="0s" xlink:href="#_R_G_L_0_G" fill="freeze" attributeName="opacity" from="0" to="0" keyTimes="0;0.1666667;0.3333333;0.8333333;1" values="0;0;1;1;0" keySplines="0.333 0 0.667 1;0.333 0 0.667 1;0.333 0 0.667 1;0.333 0 0.667 1" calcMode="spline"/><animate attributeType="XML" attributeName="opacity" dur="4s" from="0" to="1" xlink:href="#time_group"/></defs><g id="_R_G"><g id="_R_G_L_16_G" transform=" translate(115.124, 139.429) translate(-79.132, -53.244)"><path id="_R_G_L_16_G_D_0_P_0" fill="#cbe0c6" fill-opacity="1" fill-rule="nonzero" d=" M145.84 90.47 C145.45,75.91 143.36,7.67 143.33,7.67 C61.99,10.68 0.25,25.34 0.25,42.97 C0.25,56.78 38.74,106.24 93.53,95.83 C93.53,95.83 93.53,94.07 93.53,94.07 C109.64,92.33 127.24,91.1 145.84,90.47z "/><path id="_R_G_L_16_G_D_1_P_0" fill="#a1c697" fill-opacity="1" fill-rule="nonzero" d=" M93.53 95.82 C93.53,95.82 93.53,94.07 93.53,94.07 C109.34,92.36 126.6,91.14 144.81,90.5 C144.12,67.57 143.35,42.66 143.33,42.66 C83.19,44.88 33.77,53.47 12.09,64.93 C27.51,82.96 56.87,102.79 93.53,95.82z "/><path id="_R_G_L_16_G_D_2_P_0" fill="#70a665" fill-opacity="1" fill-rule="nonzero" d=" M46.54 84.56 C46.24,84.56 45.94,84.45 45.72,84.21 C45.28,83.76 45.29,83.03 45.75,82.59 C45.75,82.59 82.02,47.83 82.02,47.83 C82.33,47.53 82.75,47.38 83.18,47.43 C83.61,47.47 83.99,47.7 84.24,48.05 C84.24,48.05 91.84,59.06 91.84,59.06 C91.84,59.06 120.06,22.82 120.06,22.82 C120.39,22.4 120.91,22.19 121.44,22.27 C121.96,22.35 122.4,22.71 122.59,23.21 C122.59,23.21 127.36,35.92 127.36,35.92 C127.36,35.92 154.19,2.95 154.19,2.95 C154.59,2.46 155.31,2.38 155.8,2.78 C156.29,3.18 156.36,3.9 155.96,4.39 C155.96,4.39 128.22,38.48 128.22,38.48 C127.89,38.89 127.37,39.09 126.85,39 C126.34,38.92 125.9,38.56 125.72,38.07 C125.72,38.07 120.96,25.4 120.96,25.4 C120.96,25.4 92.96,61.36 92.96,61.36 C92.67,61.72 92.21,61.93 91.76,61.92 C91.3,61.91 90.87,61.67 90.6,61.29 C90.6,61.29 82.91,50.15 82.91,50.15 C82.91,50.15 47.34,84.25 47.34,84.25 C47.11,84.46 46.83,84.56 46.54,84.56z "/><path id="_R_G_L_16_G_D_3_P_0" fill="#70a665" fill-opacity="1" fill-rule="nonzero" d=" M155.67 12.61 C155.62,12.61 155.58,12.61 155.53,12.6 C154.9,12.53 154.45,11.95 154.53,11.33 C154.53,11.33 155.53,2.99 155.53,2.99 C155.53,2.99 147.45,5.64 147.45,5.64 C146.85,5.84 146.2,5.51 146,4.91 C145.8,4.31 146.13,3.66 146.73,3.46 C146.73,3.46 156.05,0.41 156.05,0.41 C156.53,0.25 157.04,0.35 157.43,0.67 C157.82,0.98 158.01,1.47 157.95,1.97 C157.95,1.97 156.8,11.6 156.8,11.6 C156.73,12.18 156.24,12.61 155.67,12.61z "/></g><g id="_R_G_L_15_G" transform=" translate(328.846, 138.411) translate(-55.403, -42.877)"><path id="_R_G_L_15_G_D_0_P_0" fill="#cbe0c6" fill-opacity="1" fill-rule="nonzero" d=" M110.56 33.62 C110.56,18.48 65.03,5.53 0.66,0.27 C0.4,0.25 0.25,60.8 0.27,79.06 C19.18,80.59 36.48,82.78 51.49,85.5 C87.42,76.45 110.56,44.32 110.56,33.62z "/><path id="_R_G_L_15_G_D_1_P_0" fill="#a1c697" fill-opacity="1" fill-rule="nonzero" d=" M96.65 57.9 C78.47,49.13 43.79,42.15 0.66,38.63 C0.51,38.61 0.39,58.6 0.33,79.07 C19.22,80.6 36.49,82.79 51.49,85.5 C70.75,80.65 86.33,69.16 96.65,57.9z "/></g><g id="_R_G_L_14_G" transform=" translate(134.414, 105.024)"><path id="_R_G_L_14_G_D_0_P_0" fill="#faab00" fill-opacity="1" fill-rule="nonzero" d=" M48.5 62.75 C48.5,62.75 2.76,62.75 2.76,62.75 C1.37,62.75 0.25,61.63 0.25,60.25 C0.25,60.25 0.25,2.76 0.25,2.76 C0.25,1.37 1.37,0.25 2.76,0.25 C2.76,0.25 48.5,0.25 48.5,0.25 C49.89,0.25 51.01,1.37 51.01,2.76 C51.01,2.76 51.01,60.25 51.01,60.25 C51.01,61.63 49.89,62.75 48.5,62.75z "/><path id="_R_G_L_14_G_D_1_P_0" fill="#ffffff" fill-opacity="1" fill-rule="nonzero" d=" M36.57 17.16 C36.57,17.16 36.57,7.51 36.57,7.51 C31.25,7.51 26.93,11.83 26.93,17.16 C26.93,22.48 31.25,26.8 36.57,26.8 C41.9,26.8 46.21,22.48 46.21,17.16 C46.21,17.16 36.57,17.16 36.57,17.16z "/><path id="_R_G_L_14_G_D_2_P_0" fill="#eb602e" fill-opacity="1" fill-rule="nonzero" d=" M46.64 14.57 C46.64,10.02 42.95,6.33 38.4,6.33 C38.4,6.33 38.4,14.57 38.4,14.57 C38.4,14.57 46.64,14.57 46.64,14.57z "/><path id="_R_G_L_14_G_D_3_P_0" fill="#ffffff" fill-opacity="1" fill-rule="nonzero" d=" M22.09 10.1 C22.09,10.1 6.62,10.1 6.62,10.1 C6.4,10.1 6.23,9.93 6.23,9.72 C6.23,9.51 6.4,9.34 6.62,9.34 C6.62,9.34 22.09,9.34 22.09,9.34 C22.3,9.34 22.47,9.51 22.47,9.72 C22.47,9.93 22.3,10.1 22.09,10.1z "/><path id="_R_G_L_14_G_D_4_P_0" fill="#ffffff" fill-opacity="1" fill-rule="nonzero" d=" M38.9 53.56 C38.9,53.56 25.99,53.56 25.99,53.56 C25.78,53.56 25.6,53.39 25.6,53.18 C25.6,52.97 25.78,52.8 25.99,52.8 C25.99,52.8 38.9,52.8 38.9,52.8 C39.11,52.8 39.28,52.97 39.28,53.18 C39.28,53.39 39.11,53.56 38.9,53.56z "/><path id="_R_G_L_14_G_D_5_P_0" fill="#ffffff" fill-opacity="1" fill-rule="nonzero" d=" M20.49 19.56 C20.49,19.56 6.62,19.56 6.62,19.56 C6.4,19.56 6.23,19.39 6.23,19.18 C6.23,18.97 6.4,18.8 6.62,18.8 C6.62,18.8 20.49,18.8 20.49,18.8 C20.71,18.8 20.88,18.97 20.88,19.18 C20.88,19.39 20.71,19.56 20.49,19.56z "/><path id="_R_G_L_14_G_D_6_P_0" fill="#ffffff" fill-opacity="1" fill-rule="nonzero" d=" M24.35 27.18 C24.35,27.18 6.62,27.18 6.62,27.18 C6.4,27.18 6.23,27.01 6.23,26.8 C6.23,26.59 6.4,26.42 6.62,26.42 C6.62,26.42 24.35,26.42 24.35,26.42 C24.56,26.42 24.73,26.59 24.73,26.8 C24.73,27.01 24.56,27.18 24.35,27.18z "/><path id="_R_G_L_14_G_D_7_P_0" fill="#ffffff" fill-opacity="1" fill-rule="nonzero" d=" M38.9 34.87 C38.9,34.87 6.62,34.87 6.62,34.87 C6.4,34.87 6.23,34.7 6.23,34.49 C6.23,34.28 6.4,34.11 6.62,34.11 C6.62,34.11 38.9,34.11 38.9,34.11 C39.11,34.11 39.28,34.28 39.28,34.49 C39.28,34.7 39.11,34.87 38.9,34.87z "/><path id="_R_G_L_14_G_D_8_P_0" fill="#ffffff" fill-opacity="1" fill-rule="nonzero" d=" M38.9 43.18 C38.9,43.18 6.62,43.18 6.62,43.18 C6.4,43.18 6.23,43.01 6.23,42.8 C6.23,42.59 6.4,42.42 6.62,42.42 C6.62,42.42 38.9,42.42 38.9,42.42 C39.11,42.42 39.28,42.59 39.28,42.8 C39.28,43.01 39.11,43.18 38.9,43.18z "/></g><g id="_R_G_L_13_G" transform=" translate(281.748, 132.173)"><path id="_R_G_L_13_G_D_0_P_0" fill="#ffffff" fill-opacity="1" fill-rule="nonzero" d=" M19.89 12.36 C19.89,17.79 15.5,22.19 10.07,22.19 C4.65,22.19 0.25,17.79 0.25,12.36 C0.25,6.94 4.65,2.54 10.07,2.54 C15.5,2.54 19.89,6.94 19.89,12.36z "/><path id="_R_G_L_13_G_D_1_P_0" fill="#70a665" fill-opacity="1" fill-rule="nonzero" d=" M9.87 15.14 C9.63,15.14 9.4,15.05 9.22,14.87 C9.22,14.87 5.71,11.37 5.71,11.37 C5.56,11.22 5.56,10.98 5.71,10.83 C5.86,10.68 6.1,10.68 6.25,10.83 C6.25,10.83 9.75,14.33 9.75,14.33 C9.82,14.4 9.93,14.4 9.99,14.33 C9.99,14.33 19.17,5.15 19.17,5.15 C19.32,5 19.56,5 19.71,5.15 C19.86,5.3 19.86,5.54 19.71,5.69 C19.71,5.69 10.53,14.87 10.53,14.87 C10.35,15.05 10.11,15.14 9.87,15.14z "/><path id="_R_G_L_13_G_D_2_P_0" stroke="#70a665" stroke-linecap="round" stroke-linejoin="round" fill="none" stroke-width="2" stroke-opacity="1" d=" M9.87 15.14 C9.63,15.14 9.4,15.05 9.22,14.87 C9.22,14.87 5.71,11.37 5.71,11.37 C5.56,11.22 5.56,10.98 5.71,10.83 C5.86,10.68 6.1,10.68 6.25,10.83 C6.25,10.83 9.75,14.33 9.75,14.33 C9.82,14.4 9.93,14.4 9.99,14.33 C9.99,14.33 19.17,5.15 19.17,5.15 C19.32,5 19.56,5 19.71,5.15 C19.86,5.3 19.86,5.54 19.71,5.69 C19.71,5.69 10.53,14.87 10.53,14.87 C10.35,15.05 10.11,15.14 9.87,15.14z "/></g><g id="_R_G_L_12_G" transform=" translate(297.875, 96.788)"><path id="_R_G_L_12_G_D_0_P_0" fill="#faab00" fill-opacity="1" fill-rule="nonzero" d=" M2.94 0.25 C1.46,0.25 0.25,1.46 0.25,2.94 C0.25,2.94 0.25,21.36 0.25,21.36 C0.25,22.85 1.46,24.05 2.94,24.05 C2.94,24.05 7.86,24.05 7.86,24.05 C9.98,24.05 11.7,25.78 11.7,27.9 C11.7,27.9 11.7,32.27 11.7,32.27 C11.7,33.08 12.32,33.4 12.51,33.48 C12.7,33.56 13.36,33.77 13.94,33.19 C13.94,33.19 21.95,25.18 21.95,25.18 C22.67,24.46 23.66,24.05 24.67,24.05 C24.67,24.05 34.53,24.05 34.53,24.05 C36.01,24.05 37.22,22.85 37.22,21.36 C37.22,21.36 37.22,2.94 37.22,2.94 C37.22,1.46 36.01,0.25 34.53,0.25 C34.53,0.25 2.94,0.25 2.94,0.25z "/><path id="_R_G_L_12_G_D_1_P_0" fill="#ffffff" fill-opacity="1" fill-rule="nonzero" d=" M10.49 15.49 C9.06,15.49 7.9,14.33 7.9,12.9 C7.9,11.48 9.06,10.32 10.49,10.32 C11.91,10.32 13.07,11.48 13.07,12.9 C13.07,14.33 11.91,15.49 10.49,15.49z  M10.49 11.08 C9.48,11.08 8.66,11.9 8.66,12.9 C8.66,13.91 9.48,14.73 10.49,14.73 C11.49,14.73 12.31,13.91 12.31,12.9 C12.31,11.9 11.49,11.08 10.49,11.08z "/><path id="_R_G_L_12_G_D_2_P_0" fill="#ffffff" fill-opacity="1" fill-rule="nonzero" d=" M18.69 15.49 C17.27,15.49 16.11,14.33 16.11,12.9 C16.11,11.48 17.27,10.32 18.69,10.32 C20.12,10.32 21.28,11.48 21.28,12.9 C21.28,14.33 20.12,15.49 18.69,15.49z  M18.69 11.08 C17.69,11.08 16.87,11.9 16.87,12.9 C16.87,13.91 17.69,14.73 18.69,14.73 C19.7,14.73 20.52,13.91 20.52,12.9 C20.52,11.9 19.7,11.08 18.69,11.08z "/><path id="_R_G_L_12_G_D_3_P_0" fill="#ffffff" fill-opacity="1" fill-rule="nonzero" d=" M26.81 15.49 C25.38,15.49 24.22,14.33 24.22,12.9 C24.22,11.48 25.38,10.32 26.81,10.32 C28.23,10.32 29.39,11.48 29.39,12.9 C29.39,14.33 28.23,15.49 26.81,15.49z  M26.81 11.08 C25.8,11.08 24.98,11.9 24.98,12.9 C24.98,13.91 25.8,14.73 26.81,14.73 C27.81,14.73 28.63,13.91 28.63,12.9 C28.63,11.9 27.81,11.08 26.81,11.08z "/></g><g id="_R_G_L_11_G" transform=" translate(79.256, 107.31)"><path id="_R_G_L_11_G_D_0_P_0" fill="#dd2120" fill-opacity="1" fill-rule="nonzero" d=" M1.81 0.25 C0.95,0.25 0.25,0.95 0.25,1.81 C0.25,1.81 0.25,12.49 0.25,12.49 C0.25,13.35 0.95,14.05 1.81,14.05 C1.81,14.05 7.53,14.05 7.53,14.05 C8.12,14.05 8.69,14.29 9.1,14.71 C9.1,14.71 13.75,19.35 13.75,19.35 C14.09,19.69 14.47,19.56 14.58,19.52 C14.69,19.47 15.05,19.29 15.05,18.82 C15.05,18.82 15.05,16.28 15.05,16.28 C15.05,15.05 16.05,14.05 17.28,14.05 C17.28,14.05 20.13,14.05 20.13,14.05 C20.99,14.05 21.69,13.35 21.69,12.49 C21.69,12.49 21.69,1.81 21.69,1.81 C21.69,0.95 20.99,0.25 20.13,0.25 C20.13,0.25 1.81,0.25 1.81,0.25z "/><path id="_R_G_L_11_G_D_1_P_0" fill="#ffffff" fill-opacity="1" fill-rule="nonzero" d=" M15.75 9.25 C14.84,9.25 14.09,8.5 14.09,7.59 C14.09,6.67 14.84,5.93 15.75,5.93 C16.67,5.93 17.41,6.67 17.41,7.59 C17.41,8.5 16.67,9.25 15.75,9.25z  M15.75 6.69 C15.26,6.69 14.86,7.09 14.86,7.59 C14.86,8.08 15.26,8.48 15.75,8.48 C16.25,8.48 16.65,8.08 16.65,7.59 C16.65,7.09 16.25,6.69 15.75,6.69z "/><path id="_R_G_L_11_G_D_2_P_0" fill="#ffffff" fill-opacity="1" fill-rule="nonzero" d=" M10.99 9.25 C10.08,9.25 9.33,8.5 9.33,7.59 C9.33,6.67 10.08,5.93 10.99,5.93 C11.91,5.93 12.65,6.67 12.65,7.59 C12.65,8.5 11.91,9.25 10.99,9.25z  M10.99 6.69 C10.5,6.69 10.1,7.09 10.1,7.59 C10.1,8.08 10.5,8.48 10.99,8.48 C11.49,8.48 11.89,8.08 11.89,7.59 C11.89,7.09 11.49,6.69 10.99,6.69z "/><path id="_R_G_L_11_G_D_3_P_0" fill="#ffffff" fill-opacity="1" fill-rule="nonzero" d=" M6.29 9.25 C5.37,9.25 4.63,8.5 4.63,7.59 C4.63,6.67 5.37,5.93 6.29,5.93 C7.2,5.93 7.95,6.67 7.95,7.59 C7.95,8.5 7.2,9.25 6.29,9.25z  M6.29 6.69 C5.79,6.69 5.39,7.09 5.39,7.59 C5.39,8.08 5.79,8.48 6.29,8.48 C6.78,8.48 7.19,8.08 7.19,7.59 C7.19,7.09 6.78,6.69 6.29,6.69z "/></g><g id="_R_G_L_10_G" transform=" translate(107.696, 131.31)"><path id="_R_G_L_10_G_D_0_P_0" fill="#3c5bbf" fill-opacity="1" fill-rule="nonzero" d=" M33.01 31.85 C33.01,31.85 3.39,31.85 3.39,31.85 C1.87,31.85 0.63,30.61 0.63,29.09 C0.63,29.09 0.63,3.39 0.63,3.39 C0.63,1.87 1.87,0.63 3.39,0.63 C3.39,0.63 33.01,0.63 33.01,0.63 C34.54,0.63 35.78,1.87 35.78,3.39 C35.78,3.39 35.78,29.09 35.78,29.09 C35.78,30.61 34.54,31.85 33.01,31.85z "/><path id="_R_G_L_10_G_D_1_P_0" fill="#3c5bbf" fill-opacity="1" fill-rule="nonzero" d=" M33.67 32.23 C33.67,32.23 2.74,32.23 2.74,32.23 C1.37,32.23 0.25,31.11 0.25,29.74 C0.25,29.74 0.25,2.74 0.25,2.74 C0.25,1.37 1.37,0.25 2.74,0.25 C2.74,0.25 33.67,0.25 33.67,0.25 C35.04,0.25 36.16,1.37 36.16,2.74 C36.16,2.74 36.16,29.74 36.16,29.74 C36.16,31.11 35.04,32.23 33.67,32.23z  M2.74 1.01 C1.79,1.01 1.01,1.79 1.01,2.74 C1.01,2.74 1.01,29.74 1.01,29.74 C1.01,30.69 1.79,31.47 2.74,31.47 C2.74,31.47 33.67,31.47 33.67,31.47 C34.62,31.47 35.39,30.69 35.39,29.74 C35.39,29.74 35.39,2.74 35.39,2.74 C35.39,1.79 34.62,1.01 33.67,1.01 C33.67,1.01 2.74,1.01 2.74,1.01z "/><path id="_R_G_L_10_G_D_2_P_0" fill="#ffffff" fill-opacity="1" fill-rule="nonzero" d=" M28.04 23.35 C28.04,23.35 8.66,23.35 8.66,23.35 C7.82,23.35 7.14,22.67 7.14,21.84 C7.14,21.84 7.14,8.99 7.14,8.99 C7.14,8.16 7.82,7.48 8.66,7.48 C8.66,7.48 28.04,7.48 28.04,7.48 C28.88,7.48 29.55,8.16 29.55,8.99 C29.55,8.99 29.55,21.84 29.55,21.84 C29.55,22.67 28.88,23.35 28.04,23.35z "/><path id="_R_G_L_10_G_D_3_P_0" fill="#3c5bbf" fill-opacity="1" fill-rule="nonzero" d=" M7.14 24.29 C7.03,24.29 6.92,24.24 6.85,24.15 C6.71,23.99 6.74,23.75 6.9,23.62 C6.9,23.62 17.81,14.48 17.81,14.48 C17.95,14.36 18.16,14.36 18.3,14.48 C18.3,14.48 29.5,23.51 29.5,23.51 C29.67,23.64 29.69,23.88 29.56,24.04 C29.43,24.21 29.19,24.23 29.02,24.1 C29.02,24.1 18.06,15.27 18.06,15.27 C18.06,15.27 7.39,24.2 7.39,24.2 C7.32,24.26 7.23,24.29 7.14,24.29z "/><path id="_R_G_L_10_G_D_4_P_0" fill="#ffffff" fill-opacity="1" fill-rule="nonzero" d=" M7.14 7.83 C7.14,7.83 15.56,14.54 15.56,14.54 C17.11,15.77 19.29,15.76 20.83,14.52 C20.83,14.52 29.26,7.75 29.26,7.75 "/><path id="_R_G_L_10_G_D_5_P_0" fill="#3c5bbf" fill-opacity="1" fill-rule="nonzero" d=" M18.19 15.84 C17.18,15.84 16.17,15.51 15.33,14.84 C15.33,14.84 6.9,8.13 6.9,8.13 C6.74,8 6.71,7.76 6.84,7.6 C6.98,7.43 7.21,7.4 7.38,7.54 C7.38,7.54 15.8,14.24 15.8,14.24 C17.21,15.37 19.19,15.36 20.59,14.23 C20.59,14.23 29.03,7.45 29.03,7.45 C29.19,7.32 29.43,7.34 29.56,7.51 C29.69,7.67 29.67,7.91 29.5,8.04 C29.5,8.04 21.07,14.82 21.07,14.82 C20.22,15.5 19.21,15.84 18.19,15.84z "/></g><g id="_R_G_L_9_G" transform=" translate(346.504, 104.527)"><path id="_R_G_L_9_G_D_0_P_0" fill="#3c5bbf" fill-opacity="1" fill-rule="nonzero" d=" M45.91 44.65 C45.91,44.65 3.39,44.65 3.39,44.65 C1.87,44.65 0.63,43.41 0.63,41.89 C0.63,41.89 0.63,3.39 0.63,3.39 C0.63,1.87 1.87,0.63 3.39,0.63 C3.39,0.63 45.91,0.63 45.91,0.63 C47.44,0.63 48.67,1.87 48.67,3.39 C48.67,3.39 48.67,41.89 48.67,41.89 C48.67,43.41 47.44,44.65 45.91,44.65z "/><path id="_R_G_L_9_G_D_1_P_0" fill="#3c5bbf" fill-opacity="1" fill-rule="nonzero" d=" M46.56 45.03 C46.56,45.03 2.74,45.03 2.74,45.03 C1.37,45.03 0.25,43.91 0.25,42.54 C0.25,42.54 0.25,2.74 0.25,2.74 C0.25,1.37 1.37,0.25 2.74,0.25 C2.74,0.25 46.56,0.25 46.56,0.25 C47.94,0.25 49.05,1.37 49.05,2.74 C49.05,2.74 49.05,42.54 49.05,42.54 C49.05,43.91 47.94,45.03 46.56,45.03z  M2.74 1.01 C1.79,1.01 1.01,1.79 1.01,2.74 C1.01,2.74 1.01,42.54 1.01,42.54 C1.01,43.49 1.79,44.27 2.74,44.27 C2.74,44.27 46.56,44.27 46.56,44.27 C47.52,44.27 48.29,43.49 48.29,42.54 C48.29,42.54 48.29,2.74 48.29,2.74 C48.29,1.79 47.52,1.01 46.56,1.01 C46.56,1.01 2.74,1.01 2.74,1.01z "/><path id="_R_G_L_9_G_D_2_P_0" fill="#ffffff" fill-opacity="1" fill-rule="nonzero" d=" M38.7 22.64 C38.7,30.4 32.41,36.69 24.65,36.69 C16.89,36.69 10.6,30.4 10.6,22.64 C10.6,14.88 16.89,8.59 24.65,8.59 C32.41,8.59 38.7,14.88 38.7,22.64z "/><path id="_R_G_L_9_G_D_3_P_0" fill="#3c5bbf" fill-opacity="1" fill-rule="nonzero" d=" M29.48 23.02 C29.48,23.02 24.27,23.02 24.27,23.02 C24.27,23.02 24.27,14.81 24.27,14.81 C24.27,14.6 24.44,14.43 24.65,14.43 C24.86,14.43 25.03,14.6 25.03,14.81 C25.03,14.81 25.03,22.26 25.03,22.26 C25.03,22.26 29.48,22.26 29.48,22.26 C29.7,22.26 29.87,22.43 29.87,22.64 C29.87,22.85 29.7,23.02 29.48,23.02z "/></g><g id="_R_G_L_8_G" transform=" translate(350.288, 188.318) translate(-33.961, -59.411)"><path id="_R_G_L_8_G_D_0_P_0" fill="#70a665" fill-opacity="1" fill-rule="nonzero" d=" M67.67 0.25 C67.67,0.25 67.67,90.26 67.67,90.26 C67.67,101.66 41.85,111.82 1.61,118.39 C0.47,118.57 0.25,28.6 1.22,28.44 C41.69,21.88 67.67,11.69 67.67,0.25z "/><path id="_R_G_L_8_G_D_1_P_0" fill="#cbe0c6" fill-opacity="1" fill-rule="nonzero" d=" M39.66 37.81 C39.48,37.81 39.33,37.69 39.28,37.52 C39.24,37.31 39.36,37.11 39.57,37.06 C49.13,34.79 56.29,32.2 60.87,29.37 C61.05,29.26 61.28,29.32 61.39,29.5 C61.5,29.68 61.45,29.91 61.27,30.02 C56.63,32.89 49.39,35.51 39.74,37.8 C39.71,37.81 39.68,37.81 39.66,37.81z "/><path id="_R_G_L_8_G_D_2_P_0" fill="#cbe0c6" fill-opacity="1" fill-rule="nonzero" d=" M40.2 50.11 C40.03,50.11 39.87,49.99 39.83,49.81 C39.78,49.61 39.91,49.4 40.11,49.36 C49.43,47.14 56.41,44.62 60.87,41.86 C61.05,41.75 61.28,41.81 61.39,41.99 C61.5,42.17 61.45,42.4 61.27,42.52 C56.74,45.32 49.69,47.86 40.29,50.1 C40.26,50.1 40.23,50.11 40.2,50.11z "/><path id="_R_G_L_8_G_D_3_P_0" fill="#cbe0c6" fill-opacity="1" fill-rule="nonzero" d=" M15.46 97.26 C15.46,97.26 8.5,97.26 8.5,97.26 C8.5,97.26 8.5,40.52 8.5,40.52 C8.5,40.52 15.46,40.52 15.46,40.52 C15.46,40.52 15.46,97.26 15.46,97.26z  M9.27 96.49 C9.27,96.49 14.7,96.49 14.7,96.49 C14.7,96.49 14.7,41.28 14.7,41.28 C14.7,41.28 9.27,41.28 9.27,41.28 C9.27,41.28 9.27,96.49 9.27,96.49z "/><path id="_R_G_L_8_G_D_4_P_0" fill="#cbe0c6" fill-opacity="1" fill-rule="nonzero" d=" M26.55 96.88 C26.55,96.88 20.35,96.88 20.35,96.88 C20.35,96.88 20.35,32.41 20.35,32.41 C20.35,32.41 26.55,32.41 26.55,32.41 C26.55,32.41 26.55,96.88 26.55,96.88z "/><path id="_R_G_L_8_G_D_5_P_0" fill="#faab00" fill-opacity="1" fill-rule="nonzero" d=" M26.55 96.88 C26.55,96.88 20.35,96.88 20.35,96.88 C20.35,96.88 20.35,54.78 20.35,54.78 C20.35,54.78 26.55,54.78 26.55,54.78 C26.55,54.78 26.55,96.88 26.55,96.88z "/><path id="_R_G_L_8_G_D_6_P_0" fill="#faab00" fill-opacity="1" fill-rule="nonzero" d=" M26.93 97.26 C26.93,97.26 19.97,97.26 19.97,97.26 C19.97,97.26 19.97,54.4 19.97,54.4 C19.97,54.4 26.93,54.4 26.93,54.4 C26.93,54.4 26.93,97.26 26.93,97.26z  M20.74 96.49 C20.74,96.49 26.17,96.49 26.17,96.49 C26.17,96.49 26.17,55.16 26.17,55.16 C26.17,55.16 20.74,55.16 20.74,55.16 C20.74,55.16 20.74,96.49 20.74,96.49z "/></g><g id="_R_G_L_7_G_N_14_T_0" transform=" translate(216.056, 242.446)"><g id="_R_G_L_7_G" transform=" translate(77.178, 37.115)"><path id="_R_G_L_7_G_D_0_P_0" fill="#041126" fill-opacity="1" fill-rule="nonzero" d=" M136.49 59.49 C134.24,25.77 44.4,0.25 36.28,13.55 C36.04,13.95 35.97,14.28 35.81,14.65 C31.86,23.51 25.95,29.72 17.43,36.12 C17.43,36.12 16.27,36.99 16.27,36.99 C0.55,48.81 0.25,70.43 10.97,80.61 C10.97,80.61 14.06,83.57 14.06,83.57 C14.54,84.03 15.04,84.47 15.55,84.89 C17.4,86.43 18.27,88.59 17.84,90.79 C17.05,94.88 17.07,99.15 18.14,103.52 C22.13,119.74 39.5,131.37 59.19,130.86 C72.84,130.5 84.75,124.72 92.27,116.13 C101.25,105.87 111.95,96.78 122.97,88.04 C134.74,78.71 137.07,68.22 136.49,59.49z "/></g></g><g id="_R_G_L_6_G" transform=" translate(216.056, 242.446)"><path id="_R_G_L_6_G_D_0_P_0" fill="#041126" fill-opacity="1" fill-rule="nonzero" d=" M112.01 72.19 C110.94,64.72 107.14,58.22 101.59,53.22 C100.31,51.88 99.09,50.68 97.97,49.62 C94.08,45.92 88.77,42.22 88.5,37.16 C87.57,19.72 60.37,6.4 51.59,14 C51.35,14.21 43.86,10.31 33.48,12.5 C18.61,18.39 11.62,25.8 8.87,33.28 C8.66,33.28 8.49,34.32 8.47,34.42 C8.36,35.04 6.92,38.63 2.37,48.99 C23.2,103.3 52.78,136.17 71.81,131.75 C81.42,129.52 86.31,114.55 100.5,101.6 C108.99,93.86 113.6,83.19 112.01,72.19z "/><path id="_R_G_L_6_G_D_1_P_0" fill="#ff9a7d" fill-opacity="1" fill-rule="nonzero" d=" M89.16 79.24 C89.16,79.24 86.41,48.92 86.41,48.92 C86.41,48.92 72.96,48.68 72.96,48.68 C72.96,48.68 72.41,38.75 72.41,38.75 C72.41,38.75 68.33,48.18 68.33,48.18 C68.33,48.18 56.48,46.81 56.48,46.81 C56.48,46.81 53.75,42.11 53.75,42.11 C53.09,40.97 51.92,40.49 50.8,40.57 C49.87,51.47 44.71,61 39.45,61.85 C39.45,61.85 32.35,60.31 32.35,60.31 C32.35,60.31 32.36,60.17 32.36,60.17 C32.36,60.17 30.12,60.22 30.12,60.22 C24.25,60.35 19.55,65.27 19.68,71.14 C19.68,71.14 19.69,71.38 19.69,71.38 C19.82,77.26 24.73,81.95 30.6,81.82 C30.6,81.82 34.96,81.73 34.96,81.73 C34.96,81.73 33.4,120.88 33.4,120.88 C33.34,131.45 42.81,137.52 52.63,137.57 C52.63,137.57 53.03,137.57 53.03,137.57 C62.85,137.63 70.93,129.03 70.99,118.47 C70.99,118.47 71.07,104.69 71.07,104.69 C82.37,101.89 90.25,91.19 89.16,79.24z "/><path id="_R_G_L_6_G_D_2_P_0" fill="#041126" fill-opacity="1" fill-rule="nonzero" d=" M29.22 74.71 C28.96,74.71 28.72,74.58 28.57,74.36 C28.35,74 28.45,73.53 28.81,73.3 C28.81,73.3 31.57,71.55 31.57,71.55 C31.57,71.55 28.48,68.03 28.48,68.03 C28.2,67.71 28.24,67.23 28.55,66.95 C28.87,66.67 29.35,66.71 29.63,67.02 C29.63,67.02 33.3,71.21 33.3,71.21 C33.45,71.38 33.52,71.6 33.49,71.83 C33.45,72.05 33.33,72.24 33.14,72.36 C33.14,72.36 29.62,74.59 29.62,74.59 C29.5,74.67 29.36,74.71 29.22,74.71z "/><path id="_R_G_L_6_G_D_3_P_0" fill="#041126" fill-opacity="1" fill-rule="nonzero" d=" M71.94 104.98 C71.94,104.98 50.98,105.85 47.52,98.37 C44.05,90.89 47.52,98.37 47.52,98.37 C47.52,98.37 46.5,109.74 71.72,115.82 C71.72,115.82 71.94,104.98 71.94,104.98z "/><path id="_R_G_L_6_G_D_4_P_0" fill="#041126" fill-opacity="1" fill-rule="nonzero" d=" M85.45 63.65 C85.42,64.79 84.47,65.69 83.33,65.67 C82.19,65.64 81.29,64.69 81.31,63.55 C81.34,62.41 82.29,61.5 83.43,61.53 C84.57,61.56 85.48,62.51 85.45,63.65z "/><path id="_R_G_L_6_G_D_5_P_0" fill="#041126" fill-opacity="1" fill-rule="nonzero" d=" M63.56 63.65 C63.54,64.79 62.59,65.69 61.45,65.67 C60.3,65.64 59.4,64.69 59.43,63.55 C59.46,62.41 60.4,61.5 61.55,61.53 C62.69,61.56 63.59,62.51 63.56,63.65z "/><path id="_R_G_L_6_G_D_6_P_0" fill="#ffffff" fill-opacity="1" fill-rule="nonzero" d=" M59.2 74.59 C53.77,74.59 49.33,69.49 49.29,63.19 C49.26,59.45 54.22,57.74 59.14,57.71 C64.07,57.67 69.05,59.32 69.07,63.06 C69.07,63.06 69.07,63.06 69.07,63.06 C69.11,69.39 64.71,74.56 59.25,74.59 C59.25,74.59 59.2,74.59 59.2,74.59z  M59.28 60 C59.24,60 59.2,60 59.16,60 C54.9,60.02 51.56,61.42 51.58,63.17 C51.61,68.22 55.02,72.3 59.2,72.3 C59.2,72.3 59.24,72.3 59.24,72.3 C63.43,72.27 66.81,68.14 66.78,63.08 C66.77,61.34 63.49,60 59.28,60z "/><path id="_R_G_L_6_G_D_7_P_0" fill="#ffffff" fill-opacity="1" fill-rule="nonzero" d=" M83.28 74.12 C80.63,74.12 78.13,72.92 76.26,70.74 C74.42,68.6 73.39,65.75 73.37,62.72 C73.35,58.97 78.31,57.27 83.23,57.24 C85.67,57.22 87.98,57.62 89.71,58.36 C91.92,59.31 93.15,60.81 93.16,62.6 C93.18,65.62 92.19,68.48 90.38,70.65 C88.52,72.87 86.02,74.1 83.34,74.12 C83.34,74.12 83.28,74.12 83.28,74.12z  M83.37 59.53 C83.33,59.53 83.29,59.53 83.25,59.53 C78.98,59.55 75.65,60.95 75.66,62.71 C75.68,65.19 76.51,67.51 77.99,69.25 C79.44,70.93 81.33,71.85 83.32,71.83 C85.32,71.82 87.2,70.88 88.62,69.18 C90.09,67.43 90.88,65.09 90.87,62.61 C90.86,60.87 87.57,59.53 83.37,59.53z "/><path id="_R_G_L_6_G_D_8_P_0" fill="#041126" fill-opacity="1" fill-rule="nonzero" d=" M68.71 76.47 C68.3,76.47 67.96,76.14 67.95,75.72 C67.94,75.3 68.27,74.95 68.7,74.94 C68.7,74.94 71.08,74.9 71.08,74.9 C72.26,74.87 73.36,74.4 74.17,73.55 C74.99,72.7 75.43,71.58 75.4,70.4 C75.39,70.05 75.25,69.72 75,69.47 C74.74,69.23 74.41,69.1 74.05,69.11 C74.05,69.11 72.53,69.14 72.53,69.14 C71.89,69.14 71.33,68.92 70.89,68.5 C70.45,68.07 70.2,67.5 70.19,66.89 C70.19,66.89 70.05,60.03 70.05,60.03 C70.04,59.61 70.38,59.26 70.8,59.25 C70.8,59.25 70.81,59.25 70.81,59.25 C71.23,59.25 71.57,59.58 71.58,60 C71.58,60 71.71,66.86 71.71,66.86 C71.72,67.06 71.8,67.25 71.95,67.4 C72.1,67.54 72.28,67.62 72.5,67.61 C72.5,67.61 74.02,67.58 74.02,67.58 C74.78,67.56 75.5,67.85 76.05,68.37 C76.6,68.9 76.91,69.61 76.93,70.37 C76.96,71.96 76.37,73.46 75.27,74.6 C74.17,75.75 72.69,76.39 71.11,76.42 C71.11,76.42 68.73,76.47 68.73,76.47 C68.73,76.47 68.71,76.47 68.71,76.47z "/><path id="_R_G_L_6_G_D_9_P_0" fill="#ffffff" fill-opacity="1" fill-rule="nonzero" d=" M50.34 65.21 C50.23,65.21 50.12,65.19 50.01,65.16 C50.01,65.16 33.96,60.28 33.96,60.28 C33.35,60.09 33.01,59.45 33.19,58.85 C33.38,58.24 34.02,57.9 34.62,58.09 C34.62,58.09 50.67,62.96 50.67,62.96 C51.28,63.15 51.62,63.79 51.43,64.39 C51.28,64.89 50.83,65.21 50.34,65.21z "/><path id="_R_G_L_6_G_D_10_P_0" fill="#ffffff" fill-opacity="1" fill-rule="nonzero" d=" M67.82 65.9 C67.46,65.9 67.11,65.73 66.88,65.42 C66.52,64.9 66.64,64.19 67.15,63.82 C68.65,62.76 72.28,61.39 75.33,63.82 C75.82,64.21 75.9,64.93 75.51,65.43 C75.11,65.92 74.39,66 73.9,65.61 C71.45,63.65 68.6,65.61 68.48,65.69 C68.28,65.83 68.05,65.9 67.82,65.9z "/><path id="_R_G_L_6_G_D_11_P_0" fill="#041126" fill-opacity="1" fill-rule="nonzero" d=" M72.65 94.3 C72.56,94.33 72.46,94.32 72.36,94.28 C72.27,94.24 69.97,93.28 68.31,95.1 C68.15,95.28 67.88,95.29 67.7,95.13 C67.53,94.97 67.51,94.7 67.67,94.52 C69.75,92.24 72.68,93.48 72.71,93.49 C72.92,93.59 73.02,93.84 72.93,94.06 C72.87,94.18 72.77,94.27 72.65,94.3z "/><path id="_R_G_L_6_G_D_12_P_0" fill="#041126" fill-opacity="1" fill-rule="nonzero" d=" M54.08 55.6 C54.9,55.76 55.85,55.46 56.79,55.23 C57.73,54.97 58.68,54.74 59.51,54.56 C60.35,54.39 61.31,54.22 62.28,54.08 C63.23,53.92 64.23,53.8 64.9,53.32 C65.55,52.87 65.66,51.94 64.59,51.05 C63.58,50.18 61.26,49.49 58.5,50.06 C55.74,50.65 53.93,52.21 53.38,53.41 C52.79,54.64 53.29,55.44 54.08,55.6z "/><path id="_R_G_L_6_G_D_13_P_0" fill="#041126" fill-opacity="1" fill-rule="nonzero" d=" M88.34 55.24 C87.7,55.4 86.94,55.2 86.2,55.04 C85.45,54.87 84.69,54.71 84.03,54.6 C83.37,54.49 82.61,54.39 81.85,54.3 C81.09,54.21 80.3,54.15 79.76,53.79 C79.23,53.46 79.12,52.73 79.93,52 C80.7,51.28 82.51,50.67 84.69,51.03 C86.88,51.41 88.35,52.58 88.82,53.5 C89.32,54.46 88.95,55.1 88.34,55.24z "/><path id="_R_G_L_6_G_D_14_P_0" fill="#041126" fill-opacity="1" fill-rule="nonzero" d=" M33.48 12.5 C31.44,5.43 24.93,0.25 17.19,0.25 C7.83,0.25 0.25,7.84 0.25,17.2 C0.25,23.68 3.89,29.31 9.24,32.16 C15.06,35.3 22.15,34.84 27.37,30.99 C33.03,26.83 35.49,19.41 33.48,12.5z "/></g><g id="_R_G_L_5_G_N_14_T_0" transform=" translate(216.056, 242.446)"><g id="_R_G_L_5_G" transform=" translate(64.354, 81.21) translate(-5.677, -3.386)"><path id="_R_G_L_5_G_D_0_P_0" fill="#041126" fill-opacity="1" fill-rule="nonzero" d=" M10.32 6.52 C10.3,6.52 10.29,6.52 10.27,6.52 C10.27,6.52 4.31,6.15 4.31,6.15 C2.03,6.02 0.25,4.11 0.26,1.82 C0.26,1.82 0.27,1.01 0.27,1.01 C0.27,0.59 0.61,0.25 1.03,0.25 C1.03,0.25 1.03,0.25 1.03,0.25 C1.45,0.25 1.79,0.59 1.79,1.02 C1.79,1.02 1.79,1.83 1.79,1.83 C1.78,3.31 2.93,4.54 4.41,4.63 C4.41,4.63 10.36,5 10.36,5 C10.78,5.02 11.1,5.39 11.08,5.81 C11.05,6.21 10.72,6.52 10.32,6.52z "/></g></g><g id="_R_G_L_4_G_N_14_T_0" transform=" translate(216.056, 242.446)"><g id="_R_G_L_4_G" transform=" translate(28.535, 76.167)"><path id="_R_G_L_4_G_D_0_P_0" fill="#ffffff" fill-opacity="1" fill-rule="nonzero" d=" M5.89 11.52 C5.75,11.52 5.61,11.52 5.47,11.51 C4,11.4 2.65,10.72 1.69,9.6 C0.72,8.48 0.25,7.06 0.36,5.58 C0.58,2.54 3.23,0.25 6.29,0.47 C9.33,0.69 11.63,3.35 11.4,6.4 C11.19,9.3 8.75,11.52 5.89,11.52z  M5.88 3.51 C4.59,3.51 3.5,4.5 3.4,5.81 C3.36,6.47 3.57,7.11 4,7.61 C4.43,8.11 5.04,8.41 5.7,8.46 C7.06,8.56 8.26,7.54 8.36,6.17 C8.46,4.81 7.43,3.62 6.06,3.52 C6,3.51 5.94,3.51 5.88,3.51z "/></g></g><g id="_R_G_L_3_G" transform=" translate(232.776, 321.652) translate(-107.389, -95.382)"><path id="_R_G_L_3_G_D_0_P_0" fill="#041126" fill-opacity="1" fill-rule="nonzero" d=" M172 179.35 C173.14,162.09 167.5,145 155.93,130.64 C155.93,130.64 149.69,122.9 149.69,122.9 C149.69,122.9 143.73,115.51 143.73,115.51 C143.73,115.51 139.46,110.21 139.46,110.21 C139.46,110.21 97.13,112.73 97.13,112.73 C97.13,112.73 54.79,110.21 54.79,110.21 C54.79,110.21 50.52,115.51 50.52,115.51 C50.52,115.51 44.56,122.9 44.56,122.9 C44.56,122.9 38.32,130.64 38.32,130.64 C29.88,141.11 24.6,153.04 22.8,165.43 C22.72,165.99 21.76,176.69 20.42,189.75 C20.42,189.75 171.7,189.75 171.7,189.75 C171.7,189.75 172,179.35 172,179.35z "/><path id="_R_G_L_3_G_D_1_P_0" fill="#ffffff" fill-opacity="1" fill-rule="nonzero" d=" M41.06 190.51 C41.03,190.51 41.01,190.51 40.98,190.51 C40.56,190.47 40.25,190.09 40.3,189.67 C41.16,181.23 41.86,173.83 42.28,169.41 C42.54,166.65 42.65,165.53 42.68,165.32 C44.5,152.79 49.92,140.63 58.36,130.16 C58.63,129.83 59.11,129.78 59.44,130.04 C59.76,130.31 59.82,130.79 59.55,131.12 C51.28,141.38 45.97,153.28 44.19,165.54 C44.16,165.72 44.01,167.33 43.8,169.55 C43.38,173.98 42.68,181.38 41.82,189.83 C41.78,190.22 41.44,190.51 41.06,190.51z "/><path id="_R_G_L_3_G_D_2_P_0" fill="#ff9a7d" fill-opacity="1" fill-rule="nonzero" d=" M73.28 34.67 C73.28,34.67 116.2,34.42 116.2,34.42 C116.2,34.42 116.47,33.75 116.47,33.75 C116.47,33.75 129.54,0.89 129.54,0.89 C129.6,0.74 129.75,0.65 129.91,0.64 C129.91,0.64 59.74,0.63 59.74,0.63 C59.74,0.63 72.92,33.75 72.92,33.75 C72.92,33.75 73.28,34.67 73.28,34.67z "/><path id="_R_G_L_3_G_D_3_P_0" fill="#eb8d2e" fill-opacity="1" fill-rule="nonzero" d=" M92.35 82.58 C92.78,83.66 93.72,84.2 94.69,84.27 C95.67,84.2 96.61,83.66 97.04,82.58 C97.04,82.58 116.2,34.42 116.2,34.42 C116.2,34.42 73.28,34.67 73.28,34.67 C73.28,34.67 92.35,82.58 92.35,82.58z "/><path id="_R_G_L_3_G_D_4_P_0" fill="#faab00" fill-opacity="1" fill-rule="nonzero" d=" M194.81 58.77 C194.81,58.77 159.98,18.11 159.98,18.11 C149.94,6.68 145.15,1 130.19,0.64 C130.18,0.64 130.17,0.64 130.15,0.64 C130.08,0.64 130.01,0.64 129.93,0.64 C129.92,0.64 129.91,0.64 129.91,0.64 C129.75,0.65 129.6,0.74 129.54,0.89 C129.54,0.89 116.47,33.75 116.47,33.75 C116.47,33.75 116.2,34.42 116.2,34.42 C116.2,34.42 97.04,82.58 97.04,82.58 C96.61,83.66 95.67,84.2 94.69,84.26 C93.72,84.2 92.78,83.66 92.35,82.58 C92.35,82.58 73.28,34.67 73.28,34.67 C73.28,34.67 72.92,33.75 72.92,33.75 C72.92,33.75 59.74,0.63 59.74,0.63 C59.74,0.63 59.74,0.63 59.74,0.63 C59.61,0.63 59.49,0.64 59.37,0.64 C59.34,0.64 59.31,0.64 59.28,0.64 C45.72,0.88 30.1,6.47 18.21,15.51 C6.43,24.46 0.67,39.05 2.47,53.46 C2.84,56.43 3.6,59.33 4.6,62.16 C4.6,62.16 5.36,64.32 5.36,64.32 C7.92,71.59 10.79,78.75 13.97,85.77 C15.13,88.32 16.04,90.32 16.05,90.34 C16.05,90.34 24.52,91.88 24.52,91.88 C24.68,92.05 24.96,92.05 25.11,91.86 C25.11,91.86 47.55,120.28 47.55,120.28 C47.55,120.45 47.66,120.6 47.81,120.65 C47.81,120.65 65.39,127.13 65.39,127.13 C74.87,130.4 84.78,132 94.69,131.92 C104.61,132 114.52,130.4 124,127.13 C124,127.13 145.82,118.63 145.82,118.63 C146,118.55 146.11,118.35 146.06,118.16 C146.06,118.16 164.71,92.05 164.87,91.87 C164.87,91.87 194.8,59.3 194.8,59.3 C194.94,59.15 194.94,58.92 194.81,58.77z "/><path id="_R_G_L_3_G_D_5_P_0" fill="#faab00" fill-opacity="1" fill-rule="nonzero" d=" M93.95 132.3 C84.15,132.3 74.5,130.68 65.26,127.49 C65.26,127.49 47.68,121.01 47.68,121.01 C47.43,120.92 47.24,120.7 47.19,120.43 C47.19,120.43 25.01,92.36 25.01,92.36 C24.95,92.37 24.89,92.38 24.82,92.38 C24.66,92.39 24.48,92.33 24.34,92.23 C24.34,92.23 15.98,90.71 15.98,90.71 C15.91,90.7 15.83,90.66 15.78,90.6 C15.71,90.53 15.71,90.53 13.62,85.93 C10.45,78.92 7.55,71.7 5,64.45 C5,64.45 4.24,62.28 4.24,62.28 C3.14,59.15 2.43,56.28 2.09,53.51 C0.25,38.72 6.34,24.05 17.98,15.2 C29.8,6.22 45.62,0.49 59.27,0.26 C59.27,0.26 59.37,0.64 59.37,0.64 C59.37,0.64 59.36,0.26 59.36,0.26 C59.36,0.26 59.73,0.25 59.73,0.25 C59.92,0.27 60.04,0.34 60.09,0.49 C60.09,0.49 92.7,82.44 92.7,82.44 C93.04,83.28 93.79,83.82 94.72,83.88 C95.6,83.82 96.35,83.28 96.69,82.44 C96.69,82.44 129.19,0.75 129.19,0.75 C129.3,0.48 129.55,0.3 129.84,0.27 C129.88,0.26 129.93,0.25 129.96,0.26 C129.96,0.26 130.16,0.26 130.16,0.26 C145.13,0.61 150.06,6.23 159.88,17.42 C159.88,17.42 160.27,17.86 160.27,17.86 C160.27,17.86 195.1,58.52 195.1,58.52 C195.35,58.82 195.35,59.27 195.08,59.56 C195.08,59.56 165.15,92.13 165.15,92.13 C164.87,92.49 152.85,109.31 146.45,118.26 C146.45,118.57 146.25,118.86 145.95,118.98 C145.95,118.98 124.14,127.48 124.14,127.48 C114.65,130.76 104.74,132.39 94.69,132.3 C94.44,132.3 94.19,132.3 93.95,132.3z  M94.69 131.53 C104.66,131.63 114.49,130.01 123.87,126.77 C123.87,126.77 145.68,118.27 145.68,118.27 C145.65,118.16 145.68,118.03 145.75,117.94 C150.13,111.81 164.43,91.79 164.59,91.61 C164.59,91.61 194.52,59.04 194.52,59.04 C194.52,59.04 194.81,58.77 194.81,58.77 C194.81,58.77 194.52,59.02 194.52,59.02 C194.52,59.02 159.3,17.92 159.3,17.92 C149.63,6.9 144.78,1.37 130.18,1.03 C130.18,1.03 129.97,1.02 129.97,1.02 C129.96,1.02 129.95,1.02 129.94,1.02 C129.94,1.02 116.56,34.56 116.56,34.56 C116.56,34.56 97.4,82.72 97.4,82.72 C96.95,83.85 95.95,84.57 94.72,84.64 C93.44,84.57 92.44,83.85 91.99,82.72 C91.99,82.72 59.48,1.02 59.48,1.02 C59.48,1.02 59.37,1.02 59.37,1.02 C59.37,1.02 59.28,1.02 59.28,1.02 C45.79,1.25 30.14,6.92 18.44,15.81 C7.02,24.49 1.04,38.9 2.85,53.41 C3.18,56.13 3.87,58.95 4.96,62.03 C4.96,62.03 5.72,64.2 5.72,64.2 C8.26,71.42 11.15,78.63 14.32,85.61 C15.66,88.57 16.15,89.64 16.31,90 C16.31,90 24.58,91.5 24.58,91.5 C24.66,91.52 24.74,91.56 24.79,91.62 C24.87,91.53 25,91.48 25.11,91.48 C25.22,91.48 25.34,91.54 25.41,91.63 C25.41,91.63 47.85,120.04 47.85,120.04 C47.9,120.11 47.93,120.19 47.93,120.28 C47.93,120.28 65.52,126.77 65.52,126.77 C74.9,130.01 84.69,131.62 94.69,131.53z "/><path id="_R_G_L_3_G_D_6_P_0" fill="#dd2120" fill-opacity="1" fill-rule="nonzero" d=" M137.17 124.63 C137.17,124.63 93.11,124.63 93.11,124.63 C89.25,124.63 86.12,121.5 86.12,117.64 C86.12,117.64 86.12,57.43 86.12,57.43 C86.12,53.57 89.25,50.44 93.11,50.44 C93.11,50.44 137.17,50.44 137.17,50.44 C141.03,50.44 144.16,53.57 144.16,57.43 C144.16,57.43 144.16,117.64 144.16,117.64 C144.16,121.5 141.03,124.63 137.17,124.63z "/><path id="_R_G_L_3_G_D_7_P_0" fill="#ffffff" fill-opacity="1" fill-rule="nonzero" d=" M123.16 51.22 C123.16,51.22 107.12,51.22 107.12,51.22 C105.44,51.22 104.09,49.87 104.09,48.2 C104.09,48.2 104.09,47.7 104.09,47.7 C104.09,46.03 105.44,44.68 107.12,44.68 C107.12,44.68 123.16,44.68 123.16,44.68 C124.83,44.68 126.18,46.03 126.18,47.7 C126.18,47.7 126.18,48.2 126.18,48.2 C126.18,49.87 124.83,51.22 123.16,51.22z "/><path id="_R_G_L_3_G_D_8_P_0" fill="#ffffff" fill-opacity="1" fill-rule="nonzero" d=" M123.88 51.61 C123.88,51.61 106.4,51.61 106.4,51.61 C104.92,51.61 103.71,50.4 103.71,48.91 C103.71,48.91 103.71,46.98 103.71,46.98 C103.71,45.5 104.92,44.29 106.4,44.29 C106.4,44.29 123.88,44.29 123.88,44.29 C125.36,44.29 126.57,45.5 126.57,46.98 C126.57,46.98 126.57,48.91 126.57,48.91 C126.57,50.4 125.36,51.61 123.88,51.61z  M106.4 45.06 C105.34,45.06 104.47,45.92 104.47,46.98 C104.47,46.98 104.47,48.91 104.47,48.91 C104.47,49.98 105.34,50.84 106.4,50.84 C106.4,50.84 123.88,50.84 123.88,50.84 C124.94,50.84 125.8,49.98 125.8,48.91 C125.8,48.91 125.8,46.98 125.8,46.98 C125.8,45.92 124.94,45.06 123.88,45.06 C123.88,45.06 106.4,45.06 106.4,45.06z "/><path id="_R_G_L_3_G_D_9_P_0" fill="#ffffff" fill-opacity="1" fill-rule="nonzero" d=" M129.08 53.61 C129.08,53.61 101.2,53.61 101.2,53.61 C100.67,53.61 100.24,53.18 100.24,52.65 C100.24,52.65 100.24,51.5 100.24,51.5 C100.24,50.97 100.67,50.54 101.2,50.54 C101.2,50.54 129.08,50.54 129.08,50.54 C129.61,50.54 130.04,50.97 130.04,51.5 C130.04,51.5 130.04,52.65 130.04,52.65 C130.04,53.18 129.61,53.61 129.08,53.61z "/><path id="_R_G_L_3_G_D_10_P_0" fill="#ffffff" fill-opacity="1" fill-rule="nonzero" d=" M129.3 54 C129.3,54 100.97,54 100.97,54 C100.36,54 99.85,53.5 99.85,52.88 C99.85,52.88 99.85,51.27 99.85,51.27 C99.85,50.66 100.36,50.16 100.97,50.16 C100.97,50.16 129.3,50.16 129.3,50.16 C129.92,50.16 130.42,50.66 130.42,51.27 C130.42,51.27 130.42,52.88 130.42,52.88 C130.42,53.5 129.92,54 129.3,54z  M100.97 50.92 C100.78,50.92 100.62,51.08 100.62,51.27 C100.62,51.27 100.62,52.88 100.62,52.88 C100.62,53.07 100.78,53.23 100.97,53.23 C100.97,53.23 129.3,53.23 129.3,53.23 C129.5,53.23 129.66,53.07 129.66,52.88 C129.66,52.88 129.66,51.27 129.66,51.27 C129.66,51.08 129.5,50.92 129.3,50.92 C129.3,50.92 100.97,50.92 100.97,50.92z "/><path id="_R_G_L_3_G_D_11_P_0" fill="#ffa485" fill-opacity="1" fill-rule="nonzero" d=" M99.1 96.27 C99.83,99.19 102.5,99.05 105.11,98.39 C103.56,99.04 102.41,100.08 102.97,102.01 C103.58,105.58 106.97,105.73 109.81,104.93 C107.36,106.48 110.47,110.23 114.26,110.17 C119.58,110.37 124.85,110.54 130.17,110.84 C133.92,111.05 137.48,110.87 140.79,109.04 C140.79,109.04 144.84,109.21 144.84,109.21 C144.84,109.21 143.99,81.21 143.99,81.21 C143.99,81.21 137.34,82.44 137.34,82.44 C136.56,81.91 135.76,81.39 134.95,80.93 C134.95,80.93 120.89,74.63 115.77,73.42 C115.22,73.29 114.65,73.17 114.09,73.23 C113.53,73.29 112.96,73.56 112.68,74.05 C112.32,74.69 112.52,75.49 112.81,76.17 C113.72,78.26 114.52,80.08 115.33,81.67 C113.34,81.78 112.8,81.79 110.47,81.87 C105.58,82.38 97.41,82.23 98.45,88.59 C99,90.77 100.78,91.11 102.62,90.86 C100.11,91.71 97.85,93.22 99.1,96.27z  M103.05 99.19 C103.47,99.06 103.86,98.96 104.2,98.89 C103.87,98.99 103.47,99.08 103.05,99.19z "/><path id="_R_G_L_3_G_D_12_P_0" fill="#e06a4b" fill-opacity="1" fill-rule="nonzero" d=" M115.33 81.67 C115.33,81.67 128.08,81.97 128.08,81.97 C128.08,81.97 115.87,78.42 113.85,78.53 C113.85,78.53 115.33,81.67 115.33,81.67z "/><path id="_R_G_L_3_G_D_13_P_0" fill="#f2f1ec" fill-opacity="1" fill-rule="nonzero" d=" M144.89 114.22 C144.89,114.22 150.2,114.23 150.2,114.23 C151.56,114.23 152.67,113.13 152.67,111.77 C152.67,111.77 152.74,79.4 152.74,79.4 C152.74,78.03 151.64,76.93 150.28,76.92 C150.28,76.92 144.97,76.91 144.97,76.91 C143.6,76.91 142.5,78.01 142.5,79.37 C142.5,79.37 142.43,111.75 142.43,111.75 C142.42,113.11 143.53,114.22 144.89,114.22z "/><path id="_R_G_L_3_G_D_14_P_0" fill="#faab00" fill-opacity="1" fill-rule="nonzero" d=" M148.49 76.95 C148.49,76.95 148.49,114.69 148.49,114.69 C148.49,116.62 150.23,118.08 152.13,117.75 C152.13,117.75 182.33,112.41 182.33,112.41 C205.55,107.82 214.53,79.39 198.15,62.3 C198.15,62.3 195.24,59.26 195.24,59.26 C195.24,59.26 151.68,72.63 151.68,72.63 C149.78,73.22 148.49,74.97 148.49,76.95z "/><path id="_R_G_L_3_G_D_15_P_0" fill="#f2f1ec" fill-opacity="1" fill-rule="nonzero" d=" M156.4 109.09 C156.9,110.1 156.48,111.33 155.47,111.83 C154.45,112.33 153.22,111.92 152.72,110.9 C152.22,109.89 152.64,108.66 153.65,108.16 C154.67,107.66 155.89,108.07 156.4,109.09z "/><path id="_R_G_L_3_G_D_16_P_0" fill="#faab00" fill-opacity="1" fill-rule="nonzero" d=" M151.59 118.18 C150.78,118.18 149.99,117.89 149.36,117.36 C148.56,116.7 148.11,115.72 148.11,114.69 C148.11,114.69 148.11,76.95 148.11,76.95 C148.11,74.78 149.5,72.9 151.57,72.27 C151.57,72.27 195.13,58.9 195.13,58.9 C195.27,58.85 195.42,58.89 195.52,59 C195.52,59 198.43,62.03 198.43,62.03 C206.22,70.16 208.84,81.42 205.45,92.16 C202.06,102.89 193.45,110.6 182.4,112.78 C182.4,112.78 152.2,118.12 152.2,118.12 C152,118.16 151.79,118.18 151.59,118.18z  M195.13 59.69 C195.13,59.69 151.79,73 151.79,73 C150.05,73.53 148.87,75.12 148.87,76.95 C148.87,76.95 148.87,114.69 148.87,114.69 C148.87,115.5 149.23,116.26 149.85,116.78 C150.46,117.29 151.27,117.51 152.07,117.37 C152.07,117.37 182.26,112.03 182.26,112.03 C193.02,109.91 201.42,102.39 204.73,91.93 C208.03,81.46 205.47,70.49 197.88,62.56 C197.88,62.56 195.13,59.69 195.13,59.69z "/><path id="_R_G_L_3_G_D_17_P_0" fill="#c0644b" fill-opacity="1" fill-rule="nonzero" d=" M109.97 89.76 C109.97,89.76 102.15,90.91 102.15,90.91 "/><path id="_R_G_L_3_G_D_18_P_0" fill="#f16f5f" fill-opacity="1" fill-rule="nonzero" d=" M102.14 91.29 C101.96,91.29 101.8,91.15 101.77,90.96 C101.74,90.76 101.88,90.56 102.09,90.53 C102.09,90.53 109.91,89.39 109.91,89.39 C110.11,89.36 110.31,89.5 110.34,89.71 C110.37,89.92 110.23,90.11 110.02,90.14 C110.02,90.14 102.2,91.29 102.2,91.29 C102.18,91.29 102.16,91.29 102.14,91.29z "/><path id="_R_G_L_3_G_D_19_P_0" fill="#c0644b" fill-opacity="1" fill-rule="nonzero" d=" M111.52 96.89 C111.52,96.89 105.11,98.39 105.11,98.39 "/><path id="_R_G_L_3_G_D_20_P_0" fill="#f16f5f" fill-opacity="1" fill-rule="nonzero" d=" M105.11 98.77 C104.94,98.77 104.78,98.65 104.74,98.47 C104.69,98.27 104.82,98.06 105.03,98.01 C105.03,98.01 111.44,96.52 111.44,96.52 C111.65,96.47 111.85,96.6 111.9,96.8 C111.94,97.01 111.82,97.21 111.61,97.26 C111.61,97.26 105.2,98.76 105.2,98.76 C105.17,98.77 105.14,98.77 105.11,98.77z "/><path id="_R_G_L_3_G_D_21_P_0" fill="#c0644b" fill-opacity="1" fill-rule="nonzero" d=" M115.62 103.52 C115.62,103.52 109.47,105.2 109.47,105.2 "/><path id="_R_G_L_3_G_D_22_P_0" fill="#f16f5f" fill-opacity="1" fill-rule="nonzero" d=" M109.47 105.58 C109.3,105.58 109.14,105.47 109.1,105.3 C109.04,105.1 109.16,104.89 109.36,104.83 C109.36,104.83 115.52,103.15 115.52,103.15 C115.73,103.09 115.93,103.21 115.99,103.42 C116.04,103.62 115.92,103.83 115.72,103.88 C115.72,103.88 109.57,105.57 109.57,105.57 C109.53,105.58 109.5,105.58 109.47,105.58z "/><path id="_R_G_L_3_G_D_23_P_0" fill="#111111" fill-opacity="1" fill-rule="nonzero" d=" M148.49 83.42 C148.28,83.42 148.11,83.25 148.11,83.04 C148.11,83.04 148.11,77.33 148.11,77.33 C148.11,74.73 149.86,72.44 152.37,71.77 C152.37,71.77 177.4,65.01 177.4,65.01 C177.6,64.95 177.81,65.08 177.87,65.28 C177.92,65.48 177.8,65.69 177.6,65.75 C177.6,65.75 152.57,72.5 152.57,72.5 C150.39,73.09 148.87,75.08 148.87,77.33 C148.87,77.33 148.87,83.04 148.87,83.04 C148.87,83.25 148.7,83.42 148.49,83.42z "/><path id="_R_G_L_3_G_D_24_P_0" fill="#111111" fill-opacity="1" fill-rule="nonzero" d=" M156.61 71.4 C156.48,71.4 156.35,71.33 156.28,71.21 C156.28,71.21 146.88,55.31 146.88,55.31 C146.77,55.13 146.83,54.89 147.01,54.79 C147.19,54.68 147.43,54.74 147.54,54.92 C147.54,54.92 156.94,70.82 156.94,70.82 C157.04,71.01 156.98,71.24 156.8,71.35 C156.74,71.38 156.67,71.4 156.61,71.4z "/><path id="_R_G_L_3_G_D_25_P_0" fill="#faab00" fill-opacity="1" fill-rule="nonzero" d=" M18.93 96.6 C20.28,99.15 22.22,102.52 24.43,106.22 C31.3,117.72 44.53,122.7 56.6,119.88 C57.92,119.57 59.23,119.17 60.52,118.67 C60.52,118.67 65.46,116.75 68.95,113.64 C73.13,109.91 68.87,89.09 53.5,64.93 C53.5,64.93 9.75,73.48 9.75,73.48 C9.75,73.48 15.12,89.38 18.93,96.6z "/><path id="_R_G_L_3_G_D_26_P_0" fill="#faab00" fill-opacity="1" fill-rule="nonzero" d=" M49.8 121.05 C39.41,121.05 29.61,115.65 24.1,106.42 C21.69,102.38 19.84,99.13 18.59,96.78 C14.81,89.62 9.44,73.76 9.38,73.6 C9.35,73.5 9.36,73.38 9.42,73.29 C9.47,73.19 9.56,73.13 9.67,73.11 C9.67,73.11 53.33,64.58 53.33,64.58 C68.37,89.31 73.35,110.2 69.19,113.93 C66.36,116.47 62.31,118.33 62.31,118.33 C60.51,119.15 58.64,119.79 56.69,120.25 C54.39,120.79 52.08,121.05 49.8,121.05z  M10.25 73.77 C11.12,76.32 15.85,89.96 19.27,96.42 C20.51,98.76 22.35,102 24.76,106.02 C31.31,117 44.07,122.42 56.51,119.51 C58.39,119.07 60.2,118.45 61.93,117.66 C61.93,117.66 65.89,115.86 68.7,113.35 C72.76,109.72 68.2,89.35 53.76,65.22 C53.71,65.26 53.64,65.29 53.58,65.31 C53.58,65.31 10.25,73.77 10.25,73.77z "/><path id="_R_G_L_3_G_D_27_P_0" stroke="#041126" stroke-linecap="round" stroke-linejoin="round" fill="none" stroke-width="1" stroke-opacity="1" d=" M33.61 41.73 C33.61,41.73 53.11,76.23 53.11,76.23 "/></g><g id="_R_G_L_2_G_N_4_T_0" transform=" translate(152.445, 334.744)"><g id="_R_G_L_2_G" transform=" translate(82.168, 17.222)"><path id="_R_G_L_2_G_D_0_P_0" fill="#ff9a7d" fill-opacity="1" fill-rule="nonzero" d=" M0.25 32.97 C0.25,32.97 8.4,19.77 8.4,19.77 C11,15.57 14.73,12.19 19.17,10.02 C19.17,10.02 33.55,2.98 33.55,2.98 C35.61,1.98 37.92,1.59 40.2,1.87 C40.2,1.87 67.92,0.29 67.92,0.29 C68.59,0.25 69.07,0.94 68.79,1.55 C68.79,1.57 68.78,1.59 68.77,1.6 C68.06,3.23 66.52,4.36 64.76,4.57 C64.76,4.57 51.74,6.17 51.74,6.17 C51.74,6.17 52.38,6.23 52.38,6.23 C54.13,6.39 55.64,7.55 56.24,9.21 C56.24,9.21 57.31,12.15 57.31,12.15 C57.31,12.15 58.22,13.11 58.22,13.11 C59.47,14.44 59.84,16.37 59.18,18.06 C59.18,18.06 52.71,34.48 52.71,34.48 C52.32,35.48 51.15,35.93 50.18,35.46 C47.79,34.3 46.63,31.54 47.48,29.02 C47.48,29.02 49.33,23.53 49.33,23.53 C49.33,23.53 40.41,34.49 40.41,34.49 C38.94,36.29 37.06,37.72 34.94,38.65 C34.94,38.65 28.06,41.68 28.06,41.68 C28.06,41.68 23.21,55.26 23.21,55.26 C23.21,55.26 0.25,32.97 0.25,32.97z "/><path id="_R_G_L_2_G_D_1_P_0" fill="#c0644b" fill-opacity="1" fill-rule="nonzero" d=" M42.17 6.92 C42.17,6.92 51.65,6.5 51.65,6.5 "/><path id="_R_G_L_2_G_D_2_P_0" fill="#e06a4b" fill-opacity="1" fill-rule="nonzero" d=" M51.85 6.92 C51.8,6.95 51.73,6.96 51.67,6.97 C51.67,6.97 42.19,7.38 42.19,7.38 C41.94,7.39 41.72,7.2 41.71,6.94 C41.7,6.69 41.9,6.47 42.15,6.46 C42.15,6.46 51.62,6.04 51.62,6.04 C51.88,6.03 52.1,6.23 52.11,6.48 C52.12,6.67 52.01,6.84 51.85,6.92z "/><path id="_R_G_L_2_G_D_3_P_0" fill="#c0644b" fill-opacity="1" fill-rule="nonzero" d=" M45.42 13.39 C45.42,13.39 56.95,12.19 56.95,12.19 "/><path id="_R_G_L_2_G_D_4_P_0" fill="#e06a4b" fill-opacity="1" fill-rule="nonzero" d=" M57.15 12.6 C57.1,12.63 57.05,12.64 56.99,12.65 C56.99,12.65 45.47,13.85 45.47,13.85 C45.22,13.88 44.99,13.69 44.96,13.44 C44.93,13.18 45.12,12.95 45.37,12.93 C45.37,12.93 56.9,11.73 56.9,11.73 C57.15,11.7 57.38,11.89 57.41,12.14 C57.43,12.34 57.32,12.52 57.15,12.6z "/><path id="_R_G_L_2_G_D_5_P_0" fill="#c0644b" fill-opacity="1" fill-rule="nonzero" d=" M50.58 20.38 C50.58,20.38 49.33,23.53 49.33,23.53 "/><path id="_R_G_L_2_G_D_6_P_0" fill="#e06a4b" fill-opacity="1" fill-rule="nonzero" d=" M49.53 23.95 C49.42,24 49.29,24.01 49.16,23.96 C48.92,23.87 48.8,23.6 48.9,23.36 C48.9,23.36 50.15,20.2 50.15,20.2 C50.24,19.97 50.51,19.85 50.75,19.95 C50.99,20.04 51.1,20.31 51.01,20.55 C51.01,20.55 49.76,23.7 49.76,23.7 C49.72,23.81 49.63,23.9 49.53,23.95z "/><path id="_R_G_L_2_G_D_7_P_0" stroke="#e06a4b" stroke-linecap="round" stroke-linejoin="round" fill="none" stroke-width="1" stroke-opacity="1" d=" M24.01 6.99 C19.54,8.89 16.74,11.23 15.01,12.99 C14.09,13.94 13.47,14.73 8.01,21.99 C6.99,23.36 5.94,24.75 5.01,25.99 "/></g></g><g id="_R_G_L_1_G" transform=" translate(152.445, 334.744)"><path id="_R_G_L_1_G_D_0_P_0" fill="#f2f1ec" fill-opacity="1" fill-rule="nonzero" d=" M101.39 28.06 C101.39,28.06 97.41,32.33 97.41,32.33 C96.48,33.33 94.92,33.38 93.92,32.45 C93.92,32.45 68.83,9.06 68.83,9.06 C67.83,8.13 67.78,6.57 68.71,5.57 C68.71,5.57 72.69,1.3 72.69,1.3 C73.62,0.3 75.18,0.25 76.17,1.18 C76.17,1.18 101.27,24.58 101.27,24.58 C102.27,25.5 102.32,27.07 101.39,28.06z "/><path id="_R_G_L_1_G_D_1_P_0" fill="#faab00" fill-opacity="1" fill-rule="nonzero" d=" M0.84 71.92 C2.53,81.8 12.87,86.94 14.84,87.92 C16.12,88.56 21.07,90.91 27.84,90.92 C35.97,90.94 42.02,87.55 44.84,85.92 C47.32,84.49 49.2,82.95 52.84,79.92 C59.01,74.8 63.14,70.61 64.84,68.92 C72.59,61.26 97.87,38.56 100.18,35.94 C100.43,35.65 101.15,34.82 101.16,33.76 C101.16,32.92 100.83,32.14 100.21,31.57 C100.21,31.57 70.67,4.16 70.67,4.16 C69.88,3.43 68.67,3.41 67.86,4.12 C56.47,14.05 43.75,22.47 32.84,32.92 C17.76,47.37 10.45,46.33 4.12,57.88 C0.66,64.19 0.25,68.48 0.84,71.92z "/><path id="_R_G_L_1_G_D_2_P_0" fill="#f2f1ec" fill-opacity="1" fill-rule="nonzero" d=" M92.16 32.61 C92.67,33.63 92.25,34.85 91.23,35.36 C90.22,35.86 88.99,35.44 88.49,34.43 C87.99,33.41 88.4,32.18 89.42,31.68 C90.43,31.18 91.66,31.6 92.16,32.61z "/><path id="_R_G_L_1_G_D_3_P_0" stroke="#041126" stroke-linecap="round" stroke-linejoin="round" fill="none" stroke-width="1" stroke-opacity="1" d=" M55.34 14.42 C42.34,25.09 29.34,35.76 16.34,46.42 "/><path id="_R_G_L_1_G_D_4_P_0" stroke="#041126" stroke-linecap="round" stroke-linejoin="round" fill="none" stroke-width="1" stroke-opacity="1" d=" M24.34 90.42 C29.55,90.83 33.63,90.12 36.34,89.42 C44.79,87.23 50.43,82.55 55.34,78.42 C59.22,75.16 62.19,71.98 64.34,69.42 "/></g><g id="_R_G_L_0_G" transform=" translate(82.88, 190.049) translate(-46.888, -61.142)"><path id="_R_G_L_0_G_D_0_P_0" fill="#70a665" fill-opacity="1" fill-rule="nonzero" d=" M0.25 0.25 C0.25,0.25 0.25,90.26 0.25,90.26 C0.25,104.06 38.08,116.04 93.53,122.03 C93.53,122.03 93.53,58.48 93.53,58.48 C93.53,58.48 93.53,32.03 93.53,32.03 C38.08,26.03 0.25,14.05 0.25,0.25z "/><path id="_R_G_L_0_G_D_1_P_0" fill="#cbe0c6" fill-opacity="1" fill-rule="nonzero" d=" M83.8 51.19 C83.78,51.19 83.77,51.19 83.76,51.18 C38.01,46.24 9.6,36.46 9.6,25.66 C9.6,25.45 9.77,25.28 9.98,25.28 C10.19,25.28 10.36,25.45 10.36,25.66 C10.36,35.88 39.2,45.6 83.84,50.43 C84.05,50.45 84.2,50.64 84.18,50.85 C84.15,51.04 83.99,51.19 83.8,51.19z "/><path id="_R_G_L_0_G_D_2_P_0" fill="#cbe0c6" fill-opacity="1" fill-rule="nonzero" d=" M44.54 59.69 C44.51,59.69 44.49,59.69 44.46,59.68 C37.33,58.02 31.14,56.19 26.07,54.24 C25.88,54.17 25.78,53.94 25.85,53.75 C25.93,53.55 26.15,53.45 26.35,53.53 C31.38,55.47 37.53,57.29 44.63,58.94 C44.83,58.99 44.96,59.19 44.91,59.4 C44.87,59.57 44.72,59.69 44.54,59.69z "/><path id="_R_G_L_0_G_D_3_P_0" fill="#cbe0c6" fill-opacity="1" fill-rule="nonzero" d=" M83.8 66.03 C83.78,66.03 83.77,66.03 83.76,66.03 C73.99,64.97 64.84,63.68 56.55,62.17 C56.34,62.13 56.2,61.93 56.24,61.73 C56.28,61.52 56.48,61.38 56.68,61.42 C64.96,62.92 74.1,64.22 83.84,65.27 C84.05,65.3 84.2,65.48 84.18,65.69 C84.15,65.89 83.99,66.03 83.8,66.03z "/><path id="_R_G_L_0_G_D_4_P_0" fill="#faab00" fill-opacity="1" fill-rule="nonzero" d=" M12.09 89.6 C12.09,89.6 22.63,92.97 22.63,92.97 C22.63,92.97 22.63,77.95 22.63,77.95 C22.63,77.95 12.09,73.9 12.09,73.9 C12.09,73.9 12.09,89.6 12.09,89.6z "/><path id="_R_G_L_0_G_D_5_P_0" fill="#cbe0c6" fill-opacity="1" fill-rule="nonzero" d=" M23.01 93.49 C23.01,93.49 11.71,89.87 11.71,89.87 C11.71,89.87 11.71,64.15 11.71,64.15 C11.71,64.15 23.01,68.5 23.01,68.5 C23.01,68.5 23.01,93.49 23.01,93.49z  M12.47 89.32 C12.47,89.32 22.25,92.45 22.25,92.45 C22.25,92.45 22.25,69.02 22.25,69.02 C22.25,69.02 12.47,65.26 12.47,65.26 C12.47,65.26 12.47,89.32 12.47,89.32z "/><path id="_R_G_L_0_G_D_6_P_0" fill="#cbe0c6" fill-opacity="1" fill-rule="nonzero" d=" M38.2 98.18 C38.2,98.18 26.9,94.57 26.9,94.57 C26.9,94.57 26.9,80.29 26.9,80.29 C26.9,80.29 38.2,84.64 38.2,84.64 C38.2,84.64 38.2,98.18 38.2,98.18z  M27.66 94.01 C27.66,94.01 37.43,97.14 37.43,97.14 C37.43,97.14 37.43,85.16 37.43,85.16 C37.43,85.16 27.66,81.4 27.66,81.4 C27.66,81.4 27.66,94.01 27.66,94.01z "/></g></g><g id="time_group"/></svg>