<svg xmlns="http://www.w3.org/2000/svg" xmlns:xlink="http://www.w3.org/1999/xlink" preserveAspectRatio="xMidYMid meet" width="423" height="520" viewBox="0 0 423 520" style="width:100%;height:100%"><defs><animateTransform repeatCount="indefinite" dur="4.004004s" begin="0s" xlink:href="#_R_G_L_8_G" fill="freeze" attributeName="transform" from="0" to="0" type="rotate" additive="sum" keyTimes="0;0.25;0.5;0.75;1" values="0;-15;5;-8;0" keySplines="0.333 0 0.667 1;0.333 0 0.667 1;0.333 0 0.667 1;0.333 0 0.667 1" calcMode="spline"/><animateTransform repeatCount="indefinite" dur="4.004004s" begin="0s" xlink:href="#_R_G_L_8_G" fill="freeze" attributeName="transform" from="-4.26 -9.604" to="-4.26 -9.604" type="translate" additive="sum" keyTimes="0;1" values="-4.26 -9.604;-4.26 -9.604" keySplines="0 0 1 1" calcMode="spline"/><animateTransform repeatCount="indefinite" dur="4.004004s" begin="0s" xlink:href="#_R_G_L_8_G_N_14_T_0" fill="freeze" attributeName="transform" from="0" to="0" type="rotate" additive="sum" keyTimes="0;0.25;0.5;0.75;1" values="0;-4;2;-2;0" keySplines="0.333 0 0.667 1;0.333 0 0.667 1;0.333 0 0.667 1;0.333 0 0.667 1" calcMode="spline"/><animateTransform repeatCount="indefinite" dur="4.004004s" begin="0s" xlink:href="#_R_G_L_8_G_N_14_T_0" fill="freeze" attributeName="transform" from="-193.469 -288.265" to="-193.469 -288.265" type="translate" additive="sum" keyTimes="0;1" values="-193.469 -288.265;-193.469 -288.265" keySplines="0 0 1 1" calcMode="spline"/><animateTransform repeatCount="indefinite" dur="4.004004s" begin="0s" xlink:href="#_R_G_L_7_G" fill="freeze" attributeName="transform" from="0" to="0" type="rotate" additive="sum" keyTimes="0;0.25;0.5;0.75;1" values="0;15;-5;8;0" keySplines="0.333 0 0.667 1;0.333 0 0.667 1;0.333 0 0.667 1;0.333 0 0.667 1" calcMode="spline"/><animateTransform repeatCount="indefinite" dur="4.004004s" begin="0s" xlink:href="#_R_G_L_7_G" fill="freeze" attributeName="transform" from="-45.908 -4.96" to="-45.908 -4.96" type="translate" additive="sum" keyTimes="0;1" values="-45.908 -4.96;-45.908 -4.96" keySplines="0 0 1 1" calcMode="spline"/><animateTransform repeatCount="indefinite" dur="4.004004s" begin="0s" xlink:href="#_R_G_L_7_G_N_14_T_0" fill="freeze" attributeName="transform" from="0" to="0" type="rotate" additive="sum" keyTimes="0;0.25;0.5;0.75;1" values="0;-4;2;-2;0" keySplines="0.333 0 0.667 1;0.333 0 0.667 1;0.333 0 0.667 1;0.333 0 0.667 1" calcMode="spline"/><animateTransform repeatCount="indefinite" dur="4.004004s" begin="0s" xlink:href="#_R_G_L_7_G_N_14_T_0" fill="freeze" attributeName="transform" from="-193.469 -288.265" to="-193.469 -288.265" type="translate" additive="sum" keyTimes="0;1" values="-193.469 -288.265;-193.469 -288.265" keySplines="0 0 1 1" calcMode="spline"/><animateTransform repeatCount="indefinite" dur="4.004004s" begin="0s" xlink:href="#_R_G_L_6_G" fill="freeze" attributeName="transform" from="0" to="0" type="rotate" additive="sum" keyTimes="0;0.25;0.5;0.75;1" values="0;-4;2;-2;0" keySplines="0.333 0 0.667 1;0.333 0 0.667 1;0.333 0 0.667 1;0.333 0 0.667 1" calcMode="spline"/><animateTransform repeatCount="indefinite" dur="4.004004s" begin="0s" xlink:href="#_R_G_L_6_G" fill="freeze" attributeName="transform" from="-193.469 -288.265" to="-193.469 -288.265" type="translate" additive="sum" keyTimes="0;1" values="-193.469 -288.265;-193.469 -288.265" keySplines="0 0 1 1" calcMode="spline"/><animateTransform repeatCount="indefinite" dur="4.004004s" begin="0s" xlink:href="#_R_G_L_5_G" fill="freeze" attributeName="transform" from="0" to="0" type="rotate" additive="sum" keyTimes="0;0.25;0.5;0.75;1" values="0;25;-5;15;0" keySplines="0.167 0.167 0.833 0.833;0.167 0.167 0.833 0.833;0.167 0.167 0.833 0.833;0.167 0.167 0.833 0.833" calcMode="spline"/><animateTransform repeatCount="indefinite" dur="4.004004s" begin="0s" xlink:href="#_R_G_L_5_G" fill="freeze" attributeName="transform" from="-10.985 -11.593" to="-10.985 -11.593" type="translate" additive="sum" keyTimes="0;1" values="-10.985 -11.593;-10.985 -11.593" keySplines="0 0 1 1" calcMode="spline"/><animateTransform repeatCount="indefinite" dur="4.004004s" begin="0s" xlink:href="#_R_G_L_5_G_N_14_T_0" fill="freeze" attributeName="transform" from="0" to="0" type="rotate" additive="sum" keyTimes="0;0.25;0.5;0.75;1" values="0;-4;2;-2;0" keySplines="0.333 0 0.667 1;0.333 0 0.667 1;0.333 0 0.667 1;0.333 0 0.667 1" calcMode="spline"/><animateTransform repeatCount="indefinite" dur="4.004004s" begin="0s" xlink:href="#_R_G_L_5_G_N_14_T_0" fill="freeze" attributeName="transform" from="-193.469 -288.265" to="-193.469 -288.265" type="translate" additive="sum" keyTimes="0;1" values="-193.469 -288.265;-193.469 -288.265" keySplines="0 0 1 1" calcMode="spline"/><animateTransform repeatCount="indefinite" dur="4.004004s" begin="0s" xlink:href="#_R_G_L_4_G_N_14_T_0" fill="freeze" attributeName="transform" from="0" to="0" type="rotate" additive="sum" keyTimes="0;0.25;0.5;0.75;1" values="0;-4;2;-2;0" keySplines="0.333 0 0.667 1;0.333 0 0.667 1;0.333 0 0.667 1;0.333 0 0.667 1" calcMode="spline"/><animateTransform repeatCount="indefinite" dur="4.004004s" begin="0s" xlink:href="#_R_G_L_4_G_N_14_T_0" fill="freeze" attributeName="transform" from="-193.469 -288.265" to="-193.469 -288.265" type="translate" additive="sum" keyTimes="0;1" values="-193.469 -288.265;-193.469 -288.265" keySplines="0 0 1 1" calcMode="spline"/><animateTransform repeatCount="indefinite" dur="4.004004s" begin="0s" xlink:href="#_R_G_L_3_G_N_14_T_0" fill="freeze" attributeName="transform" from="0" to="0" type="rotate" additive="sum" keyTimes="0;0.25;0.5;0.75;1" values="0;-4;2;-2;0" keySplines="0.333 0 0.667 1;0.333 0 0.667 1;0.333 0 0.667 1;0.333 0 0.667 1" calcMode="spline"/><animateTransform repeatCount="indefinite" dur="4.004004s" begin="0s" xlink:href="#_R_G_L_3_G_N_14_T_0" fill="freeze" attributeName="transform" from="-193.469 -288.265" to="-193.469 -288.265" type="translate" additive="sum" keyTimes="0;1" values="-193.469 -288.265;-193.469 -288.265" keySplines="0 0 1 1" calcMode="spline"/><animateTransform repeatCount="indefinite" dur="4.004004s" begin="0s" xlink:href="#_R_G_L_2_G" fill="freeze" attributeName="transform" from="0" to="0" type="rotate" additive="sum" keyTimes="0;0.25;0.5;0.75;1" values="0;22;-15;18;0" keySplines="0.333 0 0.667 1;0.333 0 0.667 1;0.333 0 0.667 1;0.333 0 0.667 1" calcMode="spline"/><animateTransform repeatCount="indefinite" dur="4.004004s" begin="0s" xlink:href="#_R_G_L_2_G" fill="freeze" attributeName="transform" from="-8.172 -0.69" to="-8.172 -0.69" type="translate" additive="sum" keyTimes="0;1" values="-8.172 -0.69;-8.172 -0.69" keySplines="0 0 1 1" calcMode="spline"/><animateTransform repeatCount="indefinite" dur="4.004004s" begin="0s" xlink:href="#_R_G_L_2_G_N_14_T_0" fill="freeze" attributeName="transform" from="0" to="0" type="rotate" additive="sum" keyTimes="0;0.25;0.5;0.75;1" values="0;-4;2;-2;0" keySplines="0.333 0 0.667 1;0.333 0 0.667 1;0.333 0 0.667 1;0.333 0 0.667 1" calcMode="spline"/><animateTransform repeatCount="indefinite" dur="4.004004s" begin="0s" xlink:href="#_R_G_L_2_G_N_14_T_0" fill="freeze" attributeName="transform" from="-193.469 -288.265" to="-193.469 -288.265" type="translate" additive="sum" keyTimes="0;1" values="-193.469 -288.265;-193.469 -288.265" keySplines="0 0 1 1" calcMode="spline"/><animateTransform repeatCount="indefinite" dur="4.004004s" begin="0s" xlink:href="#_R_G_L_1_G" fill="freeze" attributeName="transform" from="0" to="0" type="rotate" additive="sum" keyTimes="0;0.25;0.5;0.75;1" values="0;12;-2;5;0" keySplines="0.333 0 0.667 1;0.333 0 0.667 1;0.333 0 0.667 1;0.333 0 0.667 1" calcMode="spline"/><animateTransform repeatCount="indefinite" dur="4.004004s" begin="0s" xlink:href="#_R_G_L_1_G" fill="freeze" attributeName="transform" from="-33.742 -16.868" to="-33.742 -16.868" type="translate" additive="sum" keyTimes="0;1" values="-33.742 -16.868;-33.742 -16.868" keySplines="0 0 1 1" calcMode="spline"/><animate attributeType="XML" attributeName="opacity" dur="4s" from="0" to="1" xlink:href="#time_group"/></defs><g id="_R_G"><g id="_R_G_L_9_G" transform=" translate(219.997, 341.652) translate(-147.089, -62.598)"><path id="_R_G_L_9_G_D_0_P_0" fill="#ff9a7d" fill-opacity="1" fill-rule="nonzero" d=" M227.04 124.57 C227.04,124.57 194.1,0.25 194.1,0.25 C194.1,0.25 91.5,10.04 91.5,10.04 C91.5,10.04 61.45,124.57 61.45,124.57 C61.45,124.57 227.04,124.57 227.04,124.57z "/><path id="_R_G_L_9_G_D_1_P_0" fill="#041126" fill-opacity="1" fill-rule="nonzero" d=" M199.63 21.1 C199.63,21.1 194.23,0.73 194.23,0.73 C194.23,0.73 170.2,2.53 170.2,2.53 C170.2,2.53 91.5,10.04 91.5,10.04 C91.5,10.04 87.23,26.31 87.23,26.31 C87.23,26.31 199.63,21.1 199.63,21.1z "/><path id="_R_G_L_9_G_D_2_P_0" fill="#faab00" fill-opacity="1" fill-rule="nonzero" d=" M227.04 124.57 C227.04,124.57 200.66,24.98 200.66,24.98 C200.66,24.98 85.47,33.02 85.47,33.02 C85.47,33.02 61.45,124.57 61.45,124.57 C61.45,124.57 227.04,124.57 227.04,124.57z "/><path id="_R_G_L_9_G_D_3_P_0" fill="#041126" fill-opacity="1" fill-rule="nonzero" d=" M123.96 43.16 C121.11,43.16 118.8,40.84 118.8,37.99 C118.8,35.14 121.11,32.82 123.96,32.82 C126.81,32.82 129.13,35.14 129.13,37.99 C129.13,40.84 126.81,43.16 123.96,43.16z  M123.96 33.91 C121.71,33.91 119.88,35.74 119.88,37.99 C119.88,40.24 121.71,42.07 123.96,42.07 C126.21,42.07 128.04,40.24 128.04,37.99 C128.04,35.74 126.21,33.91 123.96,33.91z "/><path id="_R_G_L_9_G_D_4_P_0" fill="#041126" fill-opacity="1" fill-rule="nonzero" d=" M203.46 42.58 C203.45,42.28 203.2,42.05 202.89,42.07 C202.89,42.07 81.44,48.38 81.44,48.38 C81.44,48.38 81.15,49.49 81.15,49.49 C81.15,49.49 202.95,43.16 202.95,43.16 C203.25,43.14 203.48,42.88 203.46,42.58z "/><path id="_R_G_L_9_G_D_5_P_0" fill="#041126" fill-opacity="1" fill-rule="nonzero" d=" M108.46 114.1 C108.48,114.1 108.5,114.1 108.51,114.1 C108.79,114.1 109.03,113.89 109.05,113.6 C109.05,113.6 116.29,30.87 116.29,30.87 C116.29,30.87 115.19,30.94 115.19,30.94 C115.19,30.94 107.97,113.51 107.97,113.51 C107.94,113.81 108.17,114.07 108.46,114.1z "/><path id="_R_G_L_9_G_D_6_P_0" fill="#041126" fill-opacity="1" fill-rule="nonzero" d=" M129.03 86.4 C129.33,86.43 129.6,86.21 129.62,85.91 C129.62,85.91 134.55,29.59 134.55,29.59 C134.55,29.59 133.45,29.67 133.45,29.67 C133.45,29.67 128.54,85.81 128.54,85.81 C128.51,86.11 128.73,86.37 129.03,86.4z "/><path id="_R_G_L_9_G_D_7_P_0" fill="#041126" fill-opacity="1" fill-rule="nonzero" d=" M293.55 124.95 C293.55,124.95 0.63,124.95 0.63,124.95 C0.42,124.95 0.25,124.78 0.25,124.57 C0.25,124.36 0.42,124.19 0.63,124.19 C0.63,124.19 293.55,124.19 293.55,124.19 C293.76,124.19 293.93,124.36 293.93,124.57 C293.93,124.78 293.76,124.95 293.55,124.95z "/></g><g id="_R_G_L_8_G_N_14_T_0" transform=" translate(214.492, 355.279)"><g id="_R_G_L_8_G" transform=" translate(213.142, 57.44)"><path id="_R_G_L_8_G_D_0_P_0" fill="#041126" fill-opacity="1" fill-rule="nonzero" d=" M52.78 26.03 C52.78,26.03 69.72,21.08 69.72,21.08 C69.72,21.08 70.27,28.63 70.27,28.63 C70.27,28.63 64.3,30.59 64.3,30.59 C64.3,30.59 69.12,34.65 69.12,34.65 C69.12,34.65 65.75,40.96 65.75,40.96 C65.75,40.96 49.71,33.75 49.71,33.75 C49.71,33.75 52.78,26.03 52.78,26.03z "/><path id="_R_G_L_8_G_D_1_P_0" fill="#041126" fill-opacity="1" fill-rule="nonzero" d=" M1.24 9.64 C2.24,3.89 9,0.25 16.34,1.52 C23.68,2.79 28.83,8.48 27.83,14.24 C26.84,19.99 20.08,23.63 12.74,22.36 C5.4,21.09 0.25,15.4 1.24,9.64z "/><path id="_R_G_L_8_G_D_2_P_0" fill="#041126" fill-opacity="1" fill-rule="nonzero" d=" M40.94 24.11 C42.67,18.62 39.13,12.62 33.03,10.7 C26.94,8.78 20.59,11.68 18.87,17.17 C17.14,22.66 20.68,28.66 26.78,30.58 C32.88,32.5 39.22,29.6 40.94,24.11z "/><path id="_R_G_L_8_G_D_3_P_0" fill="#faab00" fill-opacity="1" fill-rule="nonzero" d=" M46.37 34.7 C46.37,34.7 49.27,23.54 49.27,23.54 C52.12,24.28 53.83,27.19 53.09,30.04 C53.09,30.04 52.87,30.88 52.87,30.88 C52.13,33.73 49.22,35.44 46.37,34.7z "/><path id="_R_G_L_8_G_D_4_P_0" fill="#041126" fill-opacity="1" fill-rule="nonzero" d=" M51.31 29.03 C52.85,24.16 50.46,19.07 45.99,17.67 C41.51,16.26 36.65,19.07 35.11,23.94 C33.58,28.81 35.97,33.9 40.44,35.31 C44.91,36.72 49.78,33.91 51.31,29.03z "/></g></g><g id="_R_G_L_7_G_N_14_T_0" transform=" translate(214.492, 355.279)"><g id="_R_G_L_7_G" transform=" translate(165.815, 71.011)"><path id="_R_G_L_7_G_D_0_P_0" fill="#041126" fill-opacity="1" fill-rule="nonzero" d=" M17.03 39.48 C17.03,39.48 19.07,53.67 19.07,53.67 C19.07,53.67 11.58,52.71 11.58,52.71 C11.58,52.71 10.65,47.67 10.65,47.67 C10.65,47.67 5.88,50.7 5.88,50.7 C5.88,50.7 0.25,46.89 0.25,46.89 C0.25,46.89 9.98,35.65 9.98,35.65 C9.98,35.65 17.03,39.48 17.03,39.48z "/><path id="_R_G_L_7_G_D_1_P_0" fill="#041126" fill-opacity="1" fill-rule="nonzero" d=" M41.65 2.09 C47.12,3.94 49.57,9.91 47.1,15.43 C44.64,20.95 38.21,23.93 32.73,22.09 C27.26,20.25 24.82,14.28 27.28,8.75 C29.74,3.23 36.18,0.25 41.65,2.09z "/><path id="_R_G_L_7_G_D_2_P_0" fill="#041126" fill-opacity="1" fill-rule="nonzero" d=" M20.88 30.55 C25.97,32.92 32.45,31.25 35.34,26.82 C38.23,22.4 36.44,16.89 31.35,14.52 C26.26,12.15 19.78,13.82 16.89,18.25 C14,22.67 15.79,28.18 20.88,30.55z "/><path id="_R_G_L_7_G_D_3_P_0" fill="#faab00" fill-opacity="1" fill-rule="nonzero" d=" M9.6 32.85 C9.6,32.85 20.06,37.18 20.06,37.18 C20.06,37.18 19.66,37.87 19.66,37.87 C18.68,39.59 16.11,40.25 13.92,39.34 C13.92,39.34 11.39,38.29 11.39,38.29 C9.2,37.38 8.23,35.25 9.21,33.53 C9.21,33.53 9.6,32.85 9.6,32.85z "/><path id="_R_G_L_7_G_D_4_P_0" fill="#041126" fill-opacity="1" fill-rule="nonzero" d=" M14.33 37.77 C18.85,39.87 24.24,38.94 26.36,35.7 C28.48,32.45 26.53,28.11 22.01,26.01 C17.5,23.91 12.11,24.84 9.99,28.09 C7.87,31.33 9.81,35.67 14.33,37.77z "/></g></g><g id="_R_G_L_6_G" transform=" translate(214.492, 355.279)"><path id="_R_G_L_6_G_D_0_P_0" fill="#ff9a7d" fill-opacity="1" fill-rule="nonzero" d=" M92.98 96.7 C92.98,96.7 98.13,96.87 100.72,98.88 C103.31,100.9 92.95,105.05 92.95,105.05 C92.95,105.05 92.98,96.7 92.98,96.7z "/><path id="_R_G_L_6_G_D_1_P_0" fill="#ff9a7d" fill-opacity="1" fill-rule="nonzero" d=" M83.89 131.6 C83.89,131.6 95.52,123.24 95.27,105.05 C95.15,96.23 111.59,85.62 111.59,85.62 C111.59,85.62 128.77,82.17 128.77,82.17 C128.77,82.17 130.55,102.8 130.55,102.8 C130.55,102.8 113.67,138.55 113.67,138.55 C113.67,138.55 107.48,148.43 107.48,148.43 C107.48,148.43 88.59,157.11 88.59,157.11 C88.59,157.11 83.89,131.6 83.89,131.6z "/><path id="_R_G_L_6_G_D_2_P_0" fill="#041126" fill-opacity="1" fill-rule="nonzero" d=" M216.92 88.55 C216.92,88.55 168.71,93.24 168.71,93.24 C168.71,93.24 169.9,105.05 169.9,105.05 C169.9,105.05 199.99,103.06 199.99,103.06 C199.99,103.06 209.91,98.91 209.91,98.91 C209.91,98.91 216.92,88.55 216.92,88.55z "/><path id="_R_G_L_6_G_D_3_P_0" fill="#ff9a7d" fill-opacity="1" fill-rule="nonzero" d=" M178.47 71.8 C178.47,71.8 203.49,71.8 203.49,71.8 C203.49,71.8 203.49,146.87 203.49,146.87 C203.49,146.87 178.47,146.87 178.47,146.87 C178.47,146.87 178.47,71.8 178.47,71.8z "/><path id="_R_G_L_6_G_D_4_P_0" fill="#70a665" fill-opacity="1" fill-rule="nonzero" d=" M212.57 100.71 C212.57,100.71 236.29,97.68 236.29,97.68 C258.01,94.91 279.77,102.44 295.13,118.04 C295.13,118.04 365.75,189.77 365.75,189.77 C388.69,213.07 385.69,251.33 359.33,270.66 C339.26,285.37 305.51,294.28 268.89,284.61 C267.56,280.83 266.23,277.05 264.91,273.27 C262.86,267.44 260.81,261.61 258.76,255.77 C272.45,244.82 286.14,233.87 299.83,222.91 C299.83,222.91 276.04,206.2 276.04,206.2 C276.04,206.2 277.17,224.61 277.17,224.61 C277.17,224.61 107.77,238.49 107.77,238.49 C107.77,238.49 107.48,198.29 107.48,198.29 C107.48,198.29 97.83,148.86 97.83,148.86 C97.83,148.86 114.37,119.64 114.37,119.64 C114.37,119.64 169.9,105.05 169.9,105.05 C169.9,105.05 168.64,93.25 168.64,93.25 C168.64,93.25 180.93,100.31 180.93,100.31 C180.93,100.31 179.84,135.75 179.84,135.75 C179.84,135.75 190.37,101.06 190.37,101.06 C190.37,101.06 216.87,88.6 216.87,88.6 C216.87,88.6 212.57,100.71 212.57,100.71z "/><path id="_R_G_L_6_G_D_5_P_0" fill="#041126" fill-opacity="1" fill-rule="nonzero" d=" M178.47 75.37 C178.47,75.37 178.47,89.5 178.47,89.5 C187.75,93.25 198.03,86.73 203.49,82.34 C203.49,82.34 203.49,72.33 203.49,72.33 C203.49,72.33 188.55,73.42 188.55,73.42 C188.55,73.42 178.47,75.37 178.47,75.37z "/><path id="_R_G_L_6_G_D_6_P_0" fill="#ff9a7d" fill-opacity="1" fill-rule="nonzero" d=" M146.98 41.12 C146.98,18.59 164.51,0.32 186.14,0.32 C207.77,0.32 225.31,18.59 225.31,41.12 C225.31,63.65 207.77,81.91 186.14,81.91 C164.51,81.91 146.98,63.65 146.98,41.12z "/><path id="_R_G_L_6_G_D_7_P_0" fill="#ff9a7d" fill-opacity="1" fill-rule="nonzero" d=" M223.46 41.4 C223.46,41.4 232.97,32.05 237.59,41.12 C243.03,51.82 227.35,61.3 222.52,51.8 C217.69,42.31 223.46,41.4 223.46,41.4z "/><path id="_R_G_L_6_G_D_8_P_0" fill="#041126" fill-opacity="1" fill-rule="nonzero" d=" M183.05 48 C182.96,48 182.88,47.97 182.81,47.92 C182.65,47.79 182.62,47.55 182.75,47.38 C182.75,47.38 185.99,43.37 185.99,43.37 C186.11,43.22 186.32,43.18 186.49,43.29 C186.49,43.29 191.9,46.74 191.9,46.74 C192.07,46.86 192.12,47.09 192.01,47.27 C191.9,47.45 191.66,47.5 191.49,47.38 C191.49,47.38 186.36,44.11 186.36,44.11 C186.36,44.11 183.35,47.86 183.35,47.86 C183.27,47.95 183.16,48 183.05,48z "/><path id="_R_G_L_6_G_D_9_P_0" fill="#041126" fill-opacity="1" fill-rule="nonzero" d=" M185.78 67.63 C185.59,67.63 185.42,67.48 185.4,67.28 C185.38,67.07 185.53,66.89 185.74,66.87 C193.77,66.1 200.08,58.28 200.15,58.2 C200.28,58.04 200.52,58.01 200.68,58.14 C200.84,58.27 200.87,58.51 200.74,58.67 C200.68,58.76 199.09,60.73 196.46,62.84 C194.02,64.79 190.19,67.2 185.82,67.63 C185.8,67.63 185.79,67.63 185.78,67.63z "/><path id="_R_G_L_6_G_D_10_P_0" fill="#041126" fill-opacity="1" fill-rule="nonzero" d=" M193.14 26.68 C193.07,26.68 192.99,26.66 192.93,26.62 C192.75,26.51 192.7,26.27 192.82,26.1 C192.86,26.04 193.78,24.63 196.04,23.21 C198.1,21.92 201.71,20.39 207.23,20.39 C207.44,20.39 207.61,20.56 207.61,20.77 C207.61,20.98 207.44,21.15 207.23,21.15 C201.92,21.15 198.45,22.61 196.49,23.83 C194.36,25.16 193.47,26.5 193.46,26.51 C193.38,26.62 193.26,26.68 193.14,26.68z "/><path id="_R_G_L_6_G_D_11_P_0" fill="#041126" fill-opacity="1" fill-rule="nonzero" d=" M224.72 49.09 C224.66,49.09 224.6,49.07 224.54,49.04 C224.36,48.94 224.29,48.71 224.39,48.53 C226.39,44.9 228.91,43.27 230.68,42.55 C232.6,41.76 234.05,41.84 234.11,41.85 C234.32,41.86 234.48,42.04 234.47,42.25 C234.46,42.46 234.28,42.62 234.07,42.61 C234.04,42.6 232.69,42.54 230.93,43.27 C229.29,43.95 226.94,45.48 225.06,48.89 C224.99,49.02 224.86,49.09 224.72,49.09z "/><path id="_R_G_L_6_G_D_12_P_0" fill="#041126" fill-opacity="1" fill-rule="nonzero" d=" M229.99 52.74 C229.87,52.74 229.75,52.68 229.68,52.57 C229.68,52.57 225.89,46.85 225.89,46.85 C225.78,46.67 225.83,46.44 226,46.32 C226.18,46.2 226.41,46.25 226.53,46.43 C226.53,46.43 230.31,52.15 230.31,52.15 C230.43,52.32 230.38,52.56 230.2,52.67 C230.14,52.72 230.07,52.74 229.99,52.74z "/><path id="_R_G_L_6_G_D_13_P_0" fill="#041126" fill-opacity="1" fill-rule="nonzero" d=" M186.15 0.25 C167.35,0.25 151.65,14.04 147.85,32.44 C179.58,31.98 193.14,6.54 193.14,6.54 C197.54,20.68 217.68,29.82 224.46,32.55 C220.71,14.1 204.98,0.25 186.15,0.25z "/><path id="_R_G_L_6_G_D_14_P_0" fill="#3c5bbf" fill-opacity="1" fill-rule="nonzero" d=" M102.86 115.21 C102.86,115.21 132.65,61.91 132.65,61.91 C133.08,61.15 134.03,60.88 134.79,61.3 C134.79,61.3 141.91,65.28 141.91,65.28 C142.66,65.7 142.94,66.66 142.51,67.42 C142.51,67.42 112.72,120.72 112.72,120.72 C112.3,121.48 111.34,121.75 110.58,121.33 C110.58,121.33 103.47,117.35 103.47,117.35 C102.71,116.93 102.44,115.97 102.86,115.21z "/><path id="_R_G_L_6_G_D_15_P_0" fill="#3c5bbf" fill-opacity="1" fill-rule="nonzero" d=" M151.23 69.53 C146.33,69.53 141.48,68.28 137.08,65.82 C130.3,62.03 125.4,55.82 123.28,48.35 C121.17,40.87 122.09,33.01 125.88,26.23 C129.67,19.45 135.87,14.55 143.35,12.43 C150.83,10.31 158.68,11.24 165.47,15.03 C172.25,18.82 177.15,25.02 179.27,32.5 C181.38,39.98 180.46,47.83 176.67,54.61 C172.88,61.4 166.67,66.3 159.2,68.41 C156.57,69.16 153.89,69.53 151.23,69.53z  M130.63 28.88 C130.63,28.88 130.63,28.88 130.63,28.88 C127.54,34.4 126.8,40.78 128.52,46.86 C130.24,52.94 134.22,57.99 139.74,61.07 C143.31,63.07 147.25,64.09 151.24,64.09 C153.4,64.09 155.58,63.79 157.72,63.18 C163.79,61.46 168.84,57.48 171.92,51.96 C175,46.45 175.75,40.06 174.03,33.98 C172.31,27.9 168.33,22.86 162.81,19.77 C157.3,16.69 150.91,15.94 144.83,17.66 C138.75,19.38 133.71,23.37 130.63,28.88z "/><path id="_R_G_L_6_G_D_16_P_0" fill="#ff9a7d" fill-opacity="1" fill-rule="nonzero" d=" M105.06 145.97 C105.06,145.97 115.33,134.46 115.33,134.46 C115.33,134.46 126.61,133.77 133.36,120.4 C137.17,112.87 136.67,104.77 139.98,95.76 C141.05,92.84 142.14,89.58 142.95,87.18 C143.65,85.14 142.77,82.9 140.88,81.86 C138.08,80.32 134.56,81.28 132.92,84.03 C129.76,89.35 124.37,99.94 123.7,105.05 C123.32,107.93 119.21,113 114.49,118.86 C103.03,133.09 84.83,151.57 84.83,151.57 C84.83,151.57 105.06,145.97 105.06,145.97z "/><path id="_R_G_L_6_G_D_17_P_0" fill="#041126" fill-opacity="1" fill-rule="nonzero" d=" M264.16 149.93 C264.14,149.93 264.12,149.93 264.1,149.93 C263.9,149.9 263.75,149.7 263.78,149.5 C266.07,134.13 273.36,120.53 285.46,109.06 C285.61,108.91 285.85,108.92 286,109.07 C286.14,109.23 286.13,109.47 285.98,109.61 C274.01,120.96 266.8,134.42 264.54,149.61 C264.51,149.8 264.35,149.93 264.16,149.93z "/><path id="_R_G_L_6_G_D_18_P_0" fill="#041126" fill-opacity="1" fill-rule="nonzero" d=" M276.3 207.07 C276.17,207.07 276.05,207.01 275.98,206.89 C275.91,206.79 269.36,196.13 265.61,180.92 C265.56,180.71 265.69,180.51 265.89,180.46 C266.1,180.41 266.3,180.53 266.35,180.74 C270.07,195.83 276.56,206.39 276.62,206.49 C276.73,206.67 276.68,206.9 276.5,207.01 C276.44,207.05 276.37,207.07 276.3,207.07z "/><path id="_R_G_L_6_G_D_19_P_0" fill="#041126" fill-opacity="1" fill-rule="nonzero" d=" M173.68 234.7 C173.47,234.7 173.3,234.53 173.3,234.32 C173.3,214.78 173.85,185.85 176.5,158.94 C178.09,142.83 179.7,134.99 179.71,134.91 C179.76,134.7 179.96,134.57 180.16,134.61 C180.37,134.66 180.5,134.86 180.46,135.06 C180.44,135.14 178.84,142.96 177.26,159.03 C175.8,173.87 174.06,198.97 174.06,234.32 C174.06,234.53 173.89,234.7 173.68,234.7z "/><path id="_R_G_L_6_G_D_20_P_0" fill="#ff9a7d" fill-opacity="1" fill-rule="nonzero" d=" M117.54 85.2 C117.54,85.2 111.59,70.8 111.59,70.8 C110.42,67.97 111.76,64.73 114.59,63.56 C117.42,62.39 120.67,63.74 121.84,66.57 C121.84,66.57 127.78,80.96 127.78,80.96 C128.95,83.79 127.61,87.03 124.78,88.2 C121.95,89.37 118.71,88.02 117.54,85.2z "/><path id="_R_G_L_6_G_D_21_P_0" fill="#ff9a7d" fill-opacity="1" fill-rule="nonzero" d=" M112.25 100.03 C112.25,100.03 102.7,83.11 102.7,83.11 C101.1,80.27 102.27,76.68 105.24,75.33 C105.24,75.33 106.76,74.63 106.76,74.63 C109.55,73.36 112.84,74.59 114.11,77.38 C114.11,77.38 122.14,95 122.14,95 C123.41,97.79 122.18,101.08 119.39,102.35 C116.77,103.55 113.67,102.54 112.25,100.03z "/><path id="_R_G_L_6_G_D_22_P_0" fill="#041126" fill-opacity="1" fill-rule="nonzero" d=" M117.09 103.07 C116.49,103.07 115.88,102.98 115.3,102.79 C113.92,102.34 112.77,101.4 112.06,100.14 C112,100.03 112.04,99.9 112.14,99.84 C112.25,99.78 112.38,99.82 112.44,99.93 C113.1,101.09 114.16,101.96 115.43,102.38 C116.71,102.79 118.08,102.71 119.3,102.16 C121.97,100.94 123.16,97.77 121.94,95.09 C121.94,95.09 113.91,77.48 113.91,77.48 C113.86,77.37 113.91,77.24 114.02,77.19 C114.13,77.14 114.26,77.19 114.31,77.3 C114.31,77.3 122.33,94.91 122.33,94.91 C123.65,97.81 122.37,101.23 119.48,102.55 C118.72,102.9 117.9,103.07 117.09,103.07z "/><path id="_R_G_L_6_G_D_23_P_0" fill="#ff9a7d" fill-opacity="1" fill-rule="nonzero" d=" M103.78 106.7 C103.78,106.7 96.81,94.99 96.81,94.99 C95.24,92.36 96.11,88.96 98.74,87.39 C101.37,85.82 104.77,86.69 106.34,89.32 C106.34,89.32 113.31,101.02 113.31,101.02 C114.88,103.65 114.01,107.06 111.38,108.62 C108.75,110.19 105.35,109.33 103.78,106.7z "/><path id="_R_G_L_6_G_D_24_P_0" fill="#041126" fill-opacity="1" fill-rule="nonzero" d=" M108.56 109.62 C106.59,109.62 104.67,108.62 103.6,106.81 C103.54,106.71 103.57,106.57 103.67,106.51 C103.78,106.45 103.91,106.48 103.97,106.59 C104.7,107.81 105.86,108.68 107.24,109.02 C108.62,109.37 110.05,109.17 111.27,108.44 C113.8,106.93 114.63,103.66 113.12,101.14 C113.12,101.14 106.15,89.43 106.15,89.43 C106.09,89.33 106.12,89.19 106.23,89.13 C106.33,89.07 106.46,89.1 106.52,89.21 C106.52,89.21 113.5,100.91 113.5,100.91 C115.12,103.64 114.23,107.18 111.49,108.81 C110.57,109.36 109.56,109.62 108.56,109.62z "/><path id="_R_G_L_6_G_D_25_P_0" fill="#041126" fill-opacity="1" fill-rule="nonzero" d=" M299.37 223.56 C299.28,223.56 299.19,223.53 299.11,223.46 C298.96,223.31 298.95,223.07 299.09,222.92 C299.14,222.87 303.95,217.78 312.01,212.4 C316.74,209.24 321.67,206.61 326.64,204.56 C332.85,202 339.16,200.36 345.39,199.69 C345.6,199.66 345.79,199.82 345.81,200.02 C345.83,200.23 345.68,200.42 345.47,200.44 C339.32,201.11 333.08,202.73 326.94,205.26 C322.02,207.28 317.14,209.9 312.45,213.02 C306.05,217.29 301.28,221.7 299.65,223.44 C299.58,223.52 299.47,223.56 299.37,223.56z "/><path id="_R_G_L_6_G_D_26_P_0" fill="#041126" fill-opacity="1" fill-rule="nonzero" d=" M300.11 220.36 C300.07,220.36 300.03,220.36 300,220.35 C299.8,220.29 299.68,220.08 299.74,219.87 C299.74,219.87 304.78,202.69 304.78,202.69 C304.84,202.49 305.05,202.38 305.26,202.44 C305.46,202.5 305.57,202.71 305.51,202.91 C305.51,202.91 300.47,220.09 300.47,220.09 C300.42,220.25 300.27,220.36 300.11,220.36z "/><path id="_R_G_L_6_G_D_27_P_0" fill="#70a665" fill-opacity="1" fill-rule="nonzero" d=" M86.02 129.69 C86.02,129.69 75.37,138.94 75.37,138.94 C75.37,138.94 61.21,130.78 30.74,159.1 C24.27,165.11 17.91,172.99 12.29,180.84 C0.25,197.66 3.38,220.95 19.44,233.99 C19.44,233.99 19.44,233.99 19.44,233.99 C29.49,242.14 43.29,243.88 55.04,238.47 C55.04,238.47 116.48,210.16 116.48,210.16 C116.48,210.16 113.23,143.74 113.23,143.74 C113.23,143.74 91.55,150.9 86.02,129.69z "/><path id="_R_G_L_6_G_D_28_P_0" fill="#041126" fill-opacity="1" fill-rule="nonzero" d=" M64.51 226.15 C64.41,226.15 64.31,226.11 64.24,226.04 C64.09,225.89 64.09,225.64 64.24,225.5 C64.29,225.45 69.08,220.77 74.82,214.47 C80.12,208.67 87.33,200.27 91.63,193.22 C94.16,189.09 95.87,184.73 96.73,180.25 C97.41,176.67 97.55,173.02 97.14,169.38 C96.44,163.18 94.36,159.15 94.34,159.11 C94.27,158.97 94.29,158.81 94.38,158.69 C94.38,158.69 106.15,144 106.15,144 C106.28,143.84 106.52,143.81 106.69,143.94 C106.85,144.07 106.88,144.31 106.75,144.48 C106.75,144.48 95.13,158.98 95.13,158.98 C95.59,159.92 97.26,163.7 97.89,169.26 C98.32,172.98 98.18,176.72 97.48,180.37 C96.61,184.95 94.86,189.4 92.28,193.62 C87.95,200.72 80.7,209.16 75.38,214.99 C69.62,221.3 64.82,225.99 64.77,226.04 C64.7,226.11 64.6,226.15 64.51,226.15z "/><path id="_R_G_L_6_G_D_29_P_0" fill="#ff9a7d" fill-opacity="1" fill-rule="nonzero" d=" M119.73 84.68 C120.72,87.08 123,88.42 124.82,87.66 C126.64,86.91 127.31,84.36 126.32,81.96 C125.33,79.56 123.05,78.22 121.23,78.98 C119.41,79.73 118.74,82.28 119.73,84.68z "/><path id="_R_G_L_6_G_D_30_P_0" fill="#ff9a7d" fill-opacity="1" fill-rule="nonzero" d=" M113.73 98.91 C114.73,101.31 117.24,102.54 119.35,101.67 C121.47,100.8 122.38,98.14 121.39,95.75 C120.4,93.35 117.88,92.11 115.76,92.98 C113.65,93.86 112.74,96.51 113.73,98.91z "/><path id="_R_G_L_6_G_D_31_P_0" fill="#ff9a7d" fill-opacity="1" fill-rule="nonzero" d=" M106.51 105.02 C107.5,107.42 109.78,108.75 111.61,108 C113.43,107.24 114.11,104.69 113.12,102.29 C112.12,99.89 109.84,98.56 108.02,99.31 C106.19,100.07 105.52,102.62 106.51,105.02z "/><path id="_R_G_L_6_G_D_32_P_0" fill="#ff9a7d" fill-opacity="1" fill-rule="nonzero" d=" M96.24 111.94 C96.24,111.94 89.31,104.58 89.31,104.58 C87.54,102.7 87.63,99.73 89.51,97.96 C91.39,96.19 94.35,96.28 96.12,98.17 C96.12,98.17 103.06,105.53 103.06,105.53 C104.83,107.41 104.74,110.37 102.86,112.14 C100.98,113.92 98.02,113.83 96.24,111.94z "/><path id="_R_G_L_6_G_D_33_P_0" fill="#ff9a7d" fill-opacity="1" fill-rule="nonzero" d=" M97.79 110.48 C99.2,112.25 101.43,112.82 102.78,111.75 C104.13,110.68 104.09,108.38 102.68,106.6 C101.27,104.83 99.04,104.26 97.69,105.33 C96.34,106.4 96.39,108.7 97.79,110.48z "/><path id="_R_G_L_6_G_D_34_P_0" fill="#041126" fill-opacity="1" fill-rule="nonzero" d=" M99.65 113.63 C99.6,113.63 99.55,113.63 99.5,113.63 C98.2,113.59 96.98,113.05 96.09,112.09 C96,112.01 96.01,111.87 96.1,111.79 C96.18,111.7 96.32,111.71 96.4,111.8 C98.09,113.59 100.92,113.67 102.71,111.99 C103.58,111.17 104.07,110.06 104.11,108.87 C104.15,107.68 103.72,106.55 102.9,105.68 C102.9,105.68 95.96,98.31 95.96,98.31 C95.88,98.23 95.89,98.09 95.97,98.01 C96.06,97.92 96.2,97.93 96.28,98.02 C96.28,98.02 103.22,105.38 103.22,105.38 C104.11,106.33 104.58,107.58 104.54,108.89 C104.5,110.19 103.96,111.41 103.01,112.3 C102.09,113.16 100.91,113.63 99.65,113.63z "/><path id="_R_G_L_6_G_D_35_P_0" fill="#ff9a7d" fill-opacity="1" fill-rule="nonzero" d=" M130.43 28.77 C136.86,17.26 151.41,13.14 162.92,19.58 C174.44,26.01 178.55,40.56 172.12,52.07 C165.69,63.58 151.14,67.7 139.63,61.27 C128.11,54.83 123.99,40.29 130.43,28.77z "/></g><g id="_R_G_L_5_G_N_14_T_0" transform=" translate(214.492, 355.279)"><g id="_R_G_L_5_G" transform=" translate(192.117, 0.949)"><path id="_R_G_L_5_G_D_0_P_0" fill="#041126" fill-opacity="1" fill-rule="nonzero" d=" M10.81 11.94 C10.79,11.94 10.76,11.93 10.74,11.93 C10.66,11.92 8.71,11.56 6.53,10.69 C3.55,9.5 1.67,7.99 0.95,6.19 C0.25,4.46 0.66,2.53 2.16,0.46 C2.28,0.29 2.52,0.25 2.69,0.38 C2.86,0.5 2.9,0.74 2.78,0.91 C1.44,2.75 1.06,4.44 1.65,5.91 C3.2,9.76 10.8,11.17 10.88,11.18 C11.08,11.22 11.22,11.42 11.18,11.63 C11.15,11.81 10.99,11.94 10.81,11.94z "/></g></g><g id="_R_G_L_4_G_N_14_T_0" transform=" translate(214.492, 355.279)"><g id="_R_G_L_4_G" transform=" translate(207.744, 35.662) translate(-11.236, -14.959)"><path id="_R_G_L_4_G_D_0_P_0" fill="#ffffff" fill-opacity="1" fill-rule="nonzero" d=" M0.31 23.57 C0.31,23.57 0.25,0.25 22.22,13.65 C22.22,13.65 17.55,29.67 0.31,23.57z "/><path id="_R_G_L_4_G_D_1_P_0" fill="#041126" fill-opacity="1" fill-rule="nonzero" d=" M0.57 20.62 C2.26,22.75 4.88,24.12 7.81,24.12 C12.92,24.12 17.07,19.97 17.07,14.86 C17.07,13.31 16.69,11.86 16.02,10.58 C4.29,6.34 1.32,15.61 0.57,20.62z "/></g></g><g id="_R_G_L_3_G_N_14_T_0" transform=" translate(214.492, 355.279)"><g id="_R_G_L_3_G" transform=" translate(152.041, 35.75) translate(-21.667, -29.993)"><path id="_R_G_L_3_G_D_0_P_0" fill="#ffffff" fill-opacity="1" fill-rule="nonzero" d=" M43.09 40.63 C43.09,40.63 31.6,0.25 0.25,34.34 C0.25,34.34 16.29,59.74 43.09,40.63z "/><path id="_R_G_L_3_G_D_1_P_0" fill="#041126" fill-opacity="1" fill-rule="nonzero" d=" M30.38 45.3 C35.46,43.84 39.3,40.18 41.18,35.66 C37.38,27.35 27.64,12.78 9.45,25.95 C8.93,28.5 9,31.21 9.77,33.88 C12.31,42.73 21.54,47.84 30.38,45.3z "/></g></g><g id="_R_G_L_2_G_N_14_T_0" transform=" translate(214.492, 355.279)"><g id="_R_G_L_2_G" transform=" translate(176.718, 133.714)"><path id="_R_G_L_2_G_D_0_P_0" fill="#faab00" fill-opacity="1" fill-rule="nonzero" d=" M8.52 1.91 C8.52,1.91 1.1,13.92 1.1,13.92 C0.25,15.3 1.24,17.08 2.86,17.08 C2.86,17.08 11.86,17.13 11.86,17.13 C13.12,17.13 14.09,16.02 13.93,14.78 C13.93,14.78 12.35,2.73 12.35,2.73 C12.09,0.8 9.55,0.25 8.52,1.91z "/></g></g><g id="_R_G_L_1_G" transform=" translate(286.912, 323.853)"><path id="_R_G_L_1_G_D_0_P_0" fill="#ff9a7d" fill-opacity="1" fill-rule="nonzero" d=" M1.09 12.19 C1.64,13.74 3.99,14.31 6.35,13.48 C8.7,12.64 10.17,10.71 9.62,9.16 C9.07,7.62 6.71,7.04 4.36,7.88 C2,8.72 0.54,10.65 1.09,12.19z "/><path id="_R_G_L_1_G_D_1_P_0" fill="#ff9a7d" fill-opacity="1" fill-rule="nonzero" d=" M34.73 16.48 C34.73,16.48 34.6,13.65 33.66,10.02 C32.08,3.87 25.72,0.25 19.61,1.99 C19.61,1.99 3.31,6.62 3.31,6.62 C1.28,7.19 0.25,9.44 1.14,11.35 C1.7,12.56 2.61,13.53 3.71,14.16 C5.04,14.91 6.61,15.13 8.1,14.82 C8.1,14.82 19.27,12.5 19.27,12.5 C18.8,16.44 21.2,20.13 24.83,21.27 C28.74,22.49 33.11,20.44 34.73,16.48z "/></g><g id="_R_G_L_0_G" transform=" translate(274.541, 335.346) translate(-21.454, -19.904)"><path id="_R_G_L_0_G_D_0_P_0" fill="#ff9a7d" fill-opacity="1" fill-rule="nonzero" d=" M4.22 18.38 C5.35,20.08 8.2,20.18 10.61,18.6 C13.01,17.02 14.04,14.35 12.92,12.65 C11.8,10.94 8.94,10.84 6.54,12.42 C4.14,14 3.1,16.67 4.22,18.38z "/><path id="_R_G_L_0_G_D_1_P_0" fill="#ff9a7d" fill-opacity="1" fill-rule="nonzero" d=" M10.8 25.87 C11.9,27.24 14.45,27.01 16.5,25.36 C18.54,23.71 19.31,21.26 18.2,19.9 C17.1,18.53 14.55,18.76 12.5,20.41 C10.46,22.06 9.7,24.5 10.8,25.87z "/><path id="_R_G_L_0_G_D_2_P_0" fill="#ff9a7d" fill-opacity="1" fill-rule="nonzero" d=" M16.92 31.21 C17.95,32.48 20.33,32.27 22.24,30.73 C24.15,29.19 24.86,26.9 23.83,25.63 C22.8,24.35 20.42,24.56 18.51,26.11 C16.6,27.65 15.89,29.93 16.92,31.21z "/><path id="_R_G_L_0_G_D_3_P_0" fill="#ff9a7d" fill-opacity="1" fill-rule="nonzero" d=" M37.68 19.65 C37.68,19.65 39.04,13.06 39.04,13.06 C39.23,12.12 39.23,11.14 39,10.21 C38.05,6.31 34.99,3.2 30.99,2.26 C30.99,2.26 27.92,1.53 27.92,1.53 C23.55,0.5 18.96,1.61 15.54,4.51 C15.54,4.51 5.23,13.25 5.23,13.25 C0.25,17.47 5.3,22.12 10.67,21.36 C11.24,21.28 11.78,21.16 12.28,21.01 C16.93,19.64 25.16,12.69 25.16,12.69 C25.16,12.69 37.68,19.65 37.68,19.65z "/><path id="_R_G_L_0_G_D_4_P_0" fill="#ff9a7d" fill-opacity="1" fill-rule="nonzero" d=" M39.18 23.8 C39.18,23.8 39.2,14.53 36.9,11.89 C32.99,7.42 26.28,7.02 22.06,10.99 C22.06,10.99 10.78,21.58 10.78,21.58 C9.38,22.9 9.5,25.2 11.04,26.43 C12,27.2 13.16,27.63 14.32,27.7 C15.72,27.78 17.08,27.31 18.17,26.44 C18.17,26.44 26.26,19.9 26.26,19.9 C26.26,19.9 39.18,23.8 39.18,23.8z "/><path id="_R_G_L_0_G_D_5_P_0" fill="#ef7b60" fill-opacity="1" fill-rule="nonzero" d=" M33.04 20.02 C32,21.53 30.96,23.05 29.91,24.56 C31.25,29.56 32.58,34.56 33.91,39.56 C34.57,39.09 38.26,36.38 38.85,31.53 C39.4,27.08 37.12,22.58 33.04,20.02z "/><path id="_R_G_L_0_G_D_6_P_0" fill="#ff9a7d" fill-opacity="1" fill-rule="nonzero" d=" M39.33 21.76 C36.74,16.62 30.96,15.27 27.18,18.42 C27.18,18.42 17.08,26.84 17.08,26.84 C15.83,27.88 15.75,30.14 16.92,31.58 C17.66,32.49 18.58,33.1 19.53,33.36 C20.67,33.68 21.83,33.45 22.79,32.78 C22.79,32.78 27.77,28.9 27.77,28.9 C34.75,24.01 32.69,27.71 36.82,36.18 C36.82,36.18 42.66,28.36 39.33,21.76z "/><path id="_R_G_L_0_G_D_7_P_0" fill="#041126" fill-opacity="1" fill-rule="nonzero" d=" M16.92 31.8 C16.86,31.8 16.8,31.77 16.75,31.72 C15.51,30.19 15.61,27.79 16.94,26.67 C16.94,26.67 27.04,18.26 27.04,18.26 C28.8,16.79 31.11,16.21 33.37,16.68 C35.96,17.22 38.2,19.03 39.53,21.66 C39.58,21.77 39.54,21.9 39.43,21.95 C39.32,22 39.19,21.96 39.14,21.85 C37.87,19.35 35.74,17.62 33.28,17.11 C31.12,16.66 29,17.19 27.32,18.59 C27.32,18.59 17.22,27.01 17.22,27.01 C16.06,27.98 15.99,30.09 17.09,31.45 C17.17,31.54 17.15,31.68 17.06,31.75 C17.02,31.79 16.97,31.8 16.92,31.8z "/><path id="_R_G_L_0_G_D_8_P_0" fill="#041126" fill-opacity="1" fill-rule="nonzero" d=" M10.78 21.8 C10.72,21.8 10.67,21.78 10.62,21.73 C10.54,21.64 10.55,21.51 10.63,21.42 C10.63,21.42 21.91,10.83 21.91,10.83 C24.49,8.41 28.7,7.43 32.16,8.45 C34.45,9.12 37.45,10.95 38.67,15.82 C38.7,15.94 38.63,16.06 38.51,16.09 C38.39,16.12 38.27,16.05 38.24,15.93 C37.08,11.25 34.22,9.51 32.03,8.86 C28.72,7.89 24.68,8.83 22.21,11.15 C22.21,11.15 10.93,21.74 10.93,21.74 C10.89,21.78 10.84,21.8 10.78,21.8z "/><path id="_R_G_L_0_G_D_9_P_0" fill="#041126" fill-opacity="1" fill-rule="nonzero" d=" M35.65 4.92 C35.62,4.92 35.58,4.91 35.55,4.89 C35.5,4.87 30.88,2.46 27.87,1.75 C23.46,0.71 19.13,1.75 15.67,4.68 C15.58,4.76 15.45,4.75 15.37,4.66 C15.29,4.56 15.3,4.43 15.39,4.35 C18.95,1.33 23.42,0.25 27.97,1.32 C31.03,2.04 35.56,4.41 35.75,4.51 C35.86,4.56 35.9,4.69 35.84,4.8 C35.81,4.87 35.73,4.92 35.65,4.92z "/></g></g><g id="time_group"/></svg>