<svg xmlns="http://www.w3.org/2000/svg" xmlns:xlink="http://www.w3.org/1999/xlink" preserveAspectRatio="xMidYMid meet" width="423" height="520" viewBox="0 0 423 520" style="width:100%;height:100%"><defs><animate repeatCount="indefinite" dur="4.004004s" begin="0s" xlink:href="#_R_G_L_18_G" fill="freeze" attributeName="opacity" from="0" to="0" keyTimes="0;0.1666667;0.3333333;0.8333333;1" values="0;0;1;1;0" keySplines="0.333 0 0.667 1;0.333 0 0.667 1;0.333 0 0.667 1;0.333 0 0.667 1" calcMode="spline"/><animate repeatCount="indefinite" dur="4.004004s" begin="0s" xlink:href="#_R_G_L_17_G" fill="freeze" attributeName="opacity" from="0" to="0" keyTimes="0;0.6166666;0.6666666;0.8333333;1" values="0;0;1;1;0" keySplines="0.333 0 0.667 1;0.333 0 0.667 1;0.333 0 0.667 1;0.333 0 0.667 1" calcMode="spline"/><animate repeatCount="indefinite" dur="4.004004s" begin="0s" xlink:href="#_R_G_L_16_G" fill="freeze" attributeName="opacity" from="0" to="0" keyTimes="0;0.4916666;0.5416666;0.8333333;1" values="0;0;1;1;0" keySplines="0.333 0 0.667 1;0.333 0 0.667 1;0.333 0 0.667 1;0.333 0 0.667 1" calcMode="spline"/><animate repeatCount="indefinite" dur="4.004004s" begin="0s" xlink:href="#_R_G_L_15_G" fill="freeze" attributeName="opacity" from="0" to="0" keyTimes="0;0.4333333;0.4833333;0.8333333;1" values="0;0;1;1;0" keySplines="0.333 0 0.667 1;0.333 0 0.667 1;0.333 0 0.667 1;0.333 0 0.667 1" calcMode="spline"/><animate repeatCount="indefinite" dur="4.004004s" begin="0s" xlink:href="#_R_G_L_14_G" fill="freeze" attributeName="opacity" from="0" to="0" keyTimes="0;0.3;0.35;0.8333333;1" values="0;0;1;1;0" keySplines="0.333 0 0.667 1;0.333 0 0.667 1;0.333 0 0.667 1;0.333 0 0.667 1" calcMode="spline"/><animate repeatCount="indefinite" dur="4.004004s" begin="0s" xlink:href="#_R_G_L_13_G" fill="freeze" attributeName="opacity" from="0" to="0" keyTimes="0;0.25;0.3;0.8333333;1" values="0;0;1;1;0" keySplines="0.333 0 0.667 1;0.333 0 0.667 1;0.333 0 0.667 1;0.333 0 0.667 1" calcMode="spline"/><animate repeatCount="indefinite" dur="4.004004s" begin="0s" xlink:href="#_R_G_L_12_G" fill="freeze" attributeName="opacity" from="0" to="0" keyTimes="0;0.125;0.2916667;0.8333333;1" values="0;0;1;1;0" keySplines="0.333 0 0.667 1;0.333 0 0.667 1;0.333 0 0.667 1;0.333 0 0.667 1" calcMode="spline"/><animate repeatCount="indefinite" dur="4.004004s" begin="0s" xlink:href="#_R_G_L_11_G" fill="freeze" attributeName="opacity" from="0" to="0" keyTimes="0;0.1666667;0.8333333;1" values="0;1;1;0" keySplines="0.333 0 0.667 1;0.333 0 0.667 1;0.333 0 0.667 1" calcMode="spline"/><animateTransform repeatCount="indefinite" dur="4.004004s" begin="0s" xlink:href="#_R_G_L_10_G" fill="freeze" attributeName="transform" from="-2" to="-2" type="rotate" additive="sum" keyTimes="0;0.25;0.5;0.75;0.9916667;1" values="-2;5;-2;5;-2;-2" keySplines="0.333 0 0.667 1;0.333 0 0.667 1;0.333 0 0.667 1;0.333 0 0.667 1;0 0 0 0" calcMode="spline"/><animateTransform repeatCount="indefinite" dur="4.004004s" begin="0s" xlink:href="#_R_G_L_10_G" fill="freeze" attributeName="transform" from="-19.375 -53.696" to="-19.375 -53.696" type="translate" additive="sum" keyTimes="0;1" values="-19.375 -53.696;-19.375 -53.696" keySplines="0 0 1 1" calcMode="spline"/><animateTransform repeatCount="indefinite" dur="4.004004s" begin="0s" xlink:href="#_R_G_L_9_G" fill="freeze" attributeName="transform" from="0" to="0" type="rotate" additive="sum" keyTimes="0;0.25;0.5;0.75;1" values="0;4;0;4;0" keySplines="0.333 0 0.667 1;0.333 0 0.667 1;0.333 0 0.667 1;0.333 0 0.667 1" calcMode="spline"/><animateTransform repeatCount="indefinite" dur="4.004004s" begin="0s" xlink:href="#_R_G_L_9_G" fill="freeze" attributeName="transform" from="-0.042 -20.831" to="-0.042 -20.831" type="translate" additive="sum" keyTimes="0;1" values="-0.042 -20.831;-0.042 -20.831" keySplines="0 0 1 1" calcMode="spline"/><animateTransform repeatCount="indefinite" dur="4.004004s" begin="0s" xlink:href="#_R_G_L_8_G" fill="freeze" attributeName="transform" from="0" to="0" type="rotate" additive="sum" keyTimes="0;0.25;0.5;0.75;1" values="0;-3;0;-3;0" keySplines="0.333 0 0.667 1;0.333 0 0.667 1;0.333 0 0.667 1;0.333 0 0.667 1" calcMode="spline"/><animateTransform repeatCount="indefinite" dur="4.004004s" begin="0s" xlink:href="#_R_G_L_8_G" fill="freeze" attributeName="transform" from="-50.038 -23.225" to="-50.038 -23.225" type="translate" additive="sum" keyTimes="0;1" values="-50.038 -23.225;-50.038 -23.225" keySplines="0 0 1 1" calcMode="spline"/><animateTransform repeatCount="indefinite" dur="4.004004s" begin="0s" xlink:href="#_R_G_L_7_G_N_22_T_0" fill="freeze" attributeName="transform" from="-2" to="-2" type="rotate" additive="sum" keyTimes="0;0.25;0.5;0.75;0.9916667;1" values="-2;5;-2;5;-2;-2" keySplines="0.333 0 0.667 1;0.333 0 0.667 1;0.333 0 0.667 1;0.333 0 0.667 1;0 0 0 0" calcMode="spline"/><animateTransform repeatCount="indefinite" dur="4.004004s" begin="0s" xlink:href="#_R_G_L_7_G_N_22_T_0" fill="freeze" attributeName="transform" from="-19.375 -53.696" to="-19.375 -53.696" type="translate" additive="sum" keyTimes="0;1" values="-19.375 -53.696;-19.375 -53.696" keySplines="0 0 1 1" calcMode="spline"/><animateTransform repeatCount="indefinite" dur="4.004004s" begin="0s" xlink:href="#_R_G_L_4_G" fill="freeze" attributeName="transform" from="8" to="8" type="rotate" additive="sum" keyTimes="0;0.25;0.5;0.75;1" values="8;-14;8;-10;8" keySplines="0.333 0 0.667 1;0.333 0 0.667 1;0.333 0 0.667 1;0.333 0 0.667 1" calcMode="spline"/><animateTransform repeatCount="indefinite" dur="4.004004s" begin="0s" xlink:href="#_R_G_L_4_G" fill="freeze" attributeName="transform" from="-15.56 -23.884" to="-15.56 -23.884" type="translate" additive="sum" keyTimes="0;1" values="-15.56 -23.884;-15.56 -23.884" keySplines="0 0 1 1" calcMode="spline"/><animateTransform repeatCount="indefinite" dur="4.004004s" begin="0s" xlink:href="#_R_G_L_3_G" fill="freeze" attributeName="transform" from="0" to="0" type="rotate" additive="sum" keyTimes="0;0.25;0.5;0.75;1" values="0;15;-2;8;0" keySplines="0.333 0 0.667 1;0.333 0 0.667 1;0.333 0 0.667 1;0.333 0 0.667 1" calcMode="spline"/><animateTransform repeatCount="indefinite" dur="4.004004s" begin="0s" xlink:href="#_R_G_L_3_G" fill="freeze" attributeName="transform" from="-19.193 -5.81" to="-19.193 -5.81" type="translate" additive="sum" keyTimes="0;1" values="-19.193 -5.81;-19.193 -5.81" keySplines="0 0 1 1" calcMode="spline"/><animateTransform repeatCount="indefinite" dur="4.004004s" begin="0s" xlink:href="#_R_G_L_2_G" fill="freeze" attributeName="transform" from="0" to="0" type="rotate" additive="sum" keyTimes="0;0.25;0.5;0.75;1" values="0;-10;0;-6;0" keySplines="0.333 0 0.667 1;0.333 0 0.667 1;0.333 0 0.667 1;0.333 0 0.667 1" calcMode="spline"/><animateTransform repeatCount="indefinite" dur="4.004004s" begin="0s" xlink:href="#_R_G_L_2_G" fill="freeze" attributeName="transform" from="-20.383 -49.26" to="-20.383 -49.26" type="translate" additive="sum" keyTimes="0;1" values="-20.383 -49.26;-20.383 -49.26" keySplines="0 0 1 1" calcMode="spline"/><animateTransform repeatCount="indefinite" dur="4.004004s" begin="0s" xlink:href="#_R_G_L_1_G" fill="freeze" attributeName="transform" from="0" to="0" type="rotate" additive="sum" keyTimes="0;0.25;0.5;0.75;1" values="0;5;0;5;0" keySplines="0.333 0 0.667 1;0.333 0 0.667 1;0.333 0 0.667 1;0.333 0 0.667 1" calcMode="spline"/><animateTransform repeatCount="indefinite" dur="4.004004s" begin="0s" xlink:href="#_R_G_L_1_G" fill="freeze" attributeName="transform" from="-26.673 -2.016" to="-26.673 -2.016" type="translate" additive="sum" keyTimes="0;1" values="-26.673 -2.016;-26.673 -2.016" keySplines="0 0 1 1" calcMode="spline"/><animate attributeType="XML" attributeName="opacity" dur="4s" from="0" to="1" xlink:href="#time_group"/></defs><g id="_R_G"><g id="_R_G_L_19_G" transform=" translate(211.547, 233.643) translate(-203.701, -95.668)"><path id="_R_G_L_19_G_D_0_P_0" fill="#70a665" fill-opacity="1" fill-rule="nonzero" d=" M330.73 180.44 C330.73,180.44 78.86,177.55 78.86,177.55 C73.47,177.49 69.13,173.1 69.13,167.71 C69.13,167.71 69.13,13.98 69.13,13.98 C69.13,8.6 73.44,4.22 78.82,4.14 C78.82,4.14 327.44,0.33 327.44,0.33 C332.86,0.25 337.32,4.56 337.43,9.97 C337.43,9.97 340.68,170.4 340.68,170.4 C340.8,175.96 336.29,180.51 330.73,180.44z "/><path id="_R_G_L_19_G_D_1_P_0" fill="#eaeaea" fill-opacity="1" fill-rule="nonzero" d=" M316.48 149.95 C316.48,149.95 90.37,149.95 90.37,149.95 C84.16,149.95 79.13,144.92 79.13,138.71 C79.13,138.71 79.13,27.06 79.13,27.06 C79.13,20.85 84.16,15.82 90.37,15.82 C90.37,15.82 316.48,15.82 316.48,15.82 C322.68,15.82 327.72,20.85 327.72,27.06 C327.72,27.06 327.72,138.71 327.72,138.71 C327.72,144.92 322.68,149.95 316.48,149.95z "/><path id="_R_G_L_19_G_D_2_P_0" fill="#4d933d" fill-opacity="1" fill-rule="nonzero" d=" M75.14 158.17 C75.14,158.17 3.76,180.45 3.76,180.45 C3.76,180.45 403.56,181.03 403.56,181.03 C403.56,181.03 340.44,158.17 340.44,158.17 C340.44,158.17 75.14,158.17 75.14,158.17z "/><path id="_R_G_L_19_G_D_3_P_0" fill="#faab00" fill-opacity="1" fill-rule="nonzero" d=" M0.25 183.74 C0.25,183.74 0.25,187.8 0.25,187.8 C0.25,189.61 1.82,191.09 3.75,191.09 C3.75,191.09 400.15,191.09 400.15,191.09 C403.82,191.09 406.85,188.38 407.03,184.93 C407.03,184.93 407.05,184.48 407.05,184.48 C407.15,182.6 405.56,181.03 403.56,181.03 C403.56,181.03 3.76,180.45 3.76,180.45 C1.82,180.45 0.25,181.92 0.25,183.74z "/><path id="_R_G_L_19_G_D_4_P_0" fill="#041126" fill-opacity="1" fill-rule="nonzero" d=" M195.83 9.19 C195.83,7.59 197.13,6.3 198.72,6.3 C200.32,6.3 201.61,7.59 201.61,9.19 C201.61,10.78 200.32,12.07 198.72,12.07 C197.13,12.07 195.83,10.78 195.83,9.19z "/><path id="_R_G_L_19_G_D_5_P_0" fill="#70a665" fill-opacity="1" fill-rule="nonzero" d=" M239.12 138.24 C239.12,138.24 105.55,138.24 105.55,138.24 C97.82,138.24 91.55,131.97 91.55,124.24 C91.55,124.24 91.55,41.62 91.55,41.62 C91.55,33.89 97.82,27.62 105.55,27.62 C105.55,27.62 239.12,27.62 239.12,27.62 C246.86,27.62 253.12,33.89 253.12,41.62 C253.12,41.62 253.12,124.24 253.12,124.24 C253.12,131.97 246.86,138.24 239.12,138.24z "/><path id="_R_G_L_19_G_D_6_P_0" fill="#041126" fill-opacity="1" fill-rule="nonzero" d=" M352.9 175.25 C352.9,175.25 59.8,175.25 59.8,175.25 C58.87,175.25 58.32,174.57 58.2,173.9 C58.07,173.22 58.34,172.39 59.22,172.05 C59.22,172.05 87.7,161.06 87.7,161.06 C88.71,160.67 89.76,160.48 90.84,160.48 C90.84,160.48 325.12,160.48 325.12,160.48 C326.17,160.48 327.2,160.69 328.16,161.12 C328.16,161.12 353.51,172.29 353.51,172.29 C354.29,172.64 354.51,173.41 354.39,174.03 C354.26,174.63 353.75,175.25 352.9,175.25z  M90.84 160.74 C89.79,160.74 88.77,160.93 87.79,161.3 C87.79,161.3 59.31,172.29 59.31,172.29 C58.57,172.57 58.35,173.28 58.45,173.85 C58.55,174.38 58.96,174.99 59.8,174.99 C59.8,174.99 352.9,174.99 352.9,174.99 C353.65,174.99 354.04,174.44 354.13,173.98 C354.23,173.5 354.1,172.84 353.4,172.53 C353.4,172.53 328.06,161.36 328.06,161.36 C327.13,160.94 326.14,160.74 325.12,160.74 C325.12,160.74 90.84,160.74 90.84,160.74z "/></g><g id="_R_G_L_18_G" transform=" translate(271.669, 167.907) translate(-2.59, -2.561)"><path id="_R_G_L_18_G_D_0_P_0" fill="#cbe0c6" fill-opacity="1" fill-rule="nonzero" d=" M40.88 110.87 C40.88,110.87 14.3,110.87 14.3,110.87 C6.54,110.87 0.25,104.58 0.25,96.82 C0.25,96.82 0.25,14.3 0.25,14.3 C0.25,6.54 6.54,0.25 14.3,0.25 C14.3,0.25 40.88,0.25 40.88,0.25 C48.64,0.25 54.93,6.54 54.93,14.3 C54.93,14.3 54.93,96.82 54.93,96.82 C54.93,104.58 48.64,110.87 40.88,110.87z "/></g><g id="_R_G_L_17_G" transform=" translate(296.669, 256.42) translate(-19.357, -5.465)"><path id="_R_G_L_17_G_D_0_P_0" fill="#70a665" fill-opacity="1" fill-rule="nonzero" d=" M21.35 1.74 C21.35,1.74 0.25,1.74 0.25,1.74 C0.25,1.74 0.25,0.25 0.25,0.25 C0.25,0.25 21.35,0.25 21.35,0.25 C21.35,0.25 21.35,1.74 21.35,1.74z "/><path id="_R_G_L_17_G_D_1_P_0" fill="#70a665" fill-opacity="1" fill-rule="nonzero" d=" M13.87 10.68 C13.87,10.68 0.25,10.68 0.25,10.68 C0.25,10.68 0.25,9.19 0.25,9.19 C0.25,9.19 13.87,9.19 13.87,9.19 C13.87,9.19 13.87,10.68 13.87,10.68z "/><path id="_R_G_L_17_G_D_2_P_0" fill="#70a665" fill-opacity="1" fill-rule="nonzero" d=" M32.08 10.68 C32.08,10.68 16.18,10.68 16.18,10.68 C16.18,10.68 16.18,9.19 16.18,9.19 C16.18,9.19 32.08,9.19 32.08,9.19 C32.08,9.19 32.08,10.68 32.08,10.68z "/><path id="_R_G_L_17_G_D_3_P_0" fill="#70a665" fill-opacity="1" fill-rule="nonzero" d=" M38.46 1.74 C38.46,1.74 25.69,1.74 25.69,1.74 C25.69,1.74 25.69,0.25 25.69,0.25 C25.69,0.25 38.46,0.25 38.46,0.25 C38.46,0.25 38.46,1.74 38.46,1.74z "/><path id="_R_G_L_17_G_D_4_P_0" fill="#70a665" fill-opacity="1" fill-rule="nonzero" d=" M30.65 6.21 C30.65,6.21 0.25,6.21 0.25,6.21 C0.25,6.21 0.25,4.72 0.25,4.72 C0.25,4.72 30.65,4.72 30.65,4.72 C30.65,4.72 30.65,6.21 30.65,6.21z "/></g><g id="_R_G_L_16_G" transform=" translate(296.669, 238.486) translate(-19.357, -5.465)"><path id="_R_G_L_16_G_D_0_P_0" fill="#70a665" fill-opacity="1" fill-rule="nonzero" d=" M21.35 1.74 C21.35,1.74 0.25,1.74 0.25,1.74 C0.25,1.74 0.25,0.25 0.25,0.25 C0.25,0.25 21.35,0.25 21.35,0.25 C21.35,0.25 21.35,1.74 21.35,1.74z "/><path id="_R_G_L_16_G_D_1_P_0" fill="#70a665" fill-opacity="1" fill-rule="nonzero" d=" M13.87 10.68 C13.87,10.68 0.25,10.68 0.25,10.68 C0.25,10.68 0.25,9.19 0.25,9.19 C0.25,9.19 13.87,9.19 13.87,9.19 C13.87,9.19 13.87,10.68 13.87,10.68z "/><path id="_R_G_L_16_G_D_2_P_0" fill="#70a665" fill-opacity="1" fill-rule="nonzero" d=" M32.08 10.68 C32.08,10.68 16.18,10.68 16.18,10.68 C16.18,10.68 16.18,9.19 16.18,9.19 C16.18,9.19 32.08,9.19 32.08,9.19 C32.08,9.19 32.08,10.68 32.08,10.68z "/><path id="_R_G_L_16_G_D_3_P_0" fill="#70a665" fill-opacity="1" fill-rule="nonzero" d=" M38.46 1.74 C38.46,1.74 25.69,1.74 25.69,1.74 C25.69,1.74 25.69,0.25 25.69,0.25 C25.69,0.25 38.46,0.25 38.46,0.25 C38.46,0.25 38.46,1.74 38.46,1.74z "/><path id="_R_G_L_16_G_D_4_P_0" fill="#70a665" fill-opacity="1" fill-rule="nonzero" d=" M30.65 6.21 C30.65,6.21 0.25,6.21 0.25,6.21 C0.25,6.21 0.25,4.72 0.25,4.72 C0.25,4.72 30.65,4.72 30.65,4.72 C30.65,4.72 30.65,6.21 30.65,6.21z "/></g><g id="_R_G_L_15_G" transform=" translate(296.669, 218.721) translate(-19.357, -5.465)"><path id="_R_G_L_15_G_D_0_P_0" fill="#70a665" fill-opacity="1" fill-rule="nonzero" d=" M21.35 1.74 C21.35,1.74 0.25,1.74 0.25,1.74 C0.25,1.74 0.25,0.25 0.25,0.25 C0.25,0.25 21.35,0.25 21.35,0.25 C21.35,0.25 21.35,1.74 21.35,1.74z "/><path id="_R_G_L_15_G_D_1_P_0" fill="#70a665" fill-opacity="1" fill-rule="nonzero" d=" M13.87 10.68 C13.87,10.68 0.25,10.68 0.25,10.68 C0.25,10.68 0.25,9.19 0.25,9.19 C0.25,9.19 13.87,9.19 13.87,9.19 C13.87,9.19 13.87,10.68 13.87,10.68z "/><path id="_R_G_L_15_G_D_2_P_0" fill="#70a665" fill-opacity="1" fill-rule="nonzero" d=" M32.08 10.68 C32.08,10.68 16.18,10.68 16.18,10.68 C16.18,10.68 16.18,9.19 16.18,9.19 C16.18,9.19 32.08,9.19 32.08,9.19 C32.08,9.19 32.08,10.68 32.08,10.68z "/><path id="_R_G_L_15_G_D_3_P_0" fill="#70a665" fill-opacity="1" fill-rule="nonzero" d=" M38.46 1.74 C38.46,1.74 25.69,1.74 25.69,1.74 C25.69,1.74 25.69,0.25 25.69,0.25 C25.69,0.25 38.46,0.25 38.46,0.25 C38.46,0.25 38.46,1.74 38.46,1.74z "/><path id="_R_G_L_15_G_D_4_P_0" fill="#70a665" fill-opacity="1" fill-rule="nonzero" d=" M30.65 6.21 C30.65,6.21 0.25,6.21 0.25,6.21 C0.25,6.21 0.25,4.72 0.25,4.72 C0.25,4.72 30.65,4.72 30.65,4.72 C30.65,4.72 30.65,6.21 30.65,6.21z "/></g><g id="_R_G_L_14_G" transform=" translate(296.669, 198.567) translate(-19.357, -5.464)"><path id="_R_G_L_14_G_D_0_P_0" fill="#70a665" fill-opacity="1" fill-rule="nonzero" d=" M21.35 1.74 C21.35,1.74 0.25,1.74 0.25,1.74 C0.25,1.74 0.25,0.25 0.25,0.25 C0.25,0.25 21.35,0.25 21.35,0.25 C21.35,0.25 21.35,1.74 21.35,1.74z "/><path id="_R_G_L_14_G_D_1_P_0" fill="#70a665" fill-opacity="1" fill-rule="nonzero" d=" M13.87 10.68 C13.87,10.68 0.25,10.68 0.25,10.68 C0.25,10.68 0.25,9.19 0.25,9.19 C0.25,9.19 13.87,9.19 13.87,9.19 C13.87,9.19 13.87,10.68 13.87,10.68z "/><path id="_R_G_L_14_G_D_2_P_0" fill="#70a665" fill-opacity="1" fill-rule="nonzero" d=" M32.08 10.68 C32.08,10.68 16.18,10.68 16.18,10.68 C16.18,10.68 16.18,9.19 16.18,9.19 C16.18,9.19 32.08,9.19 32.08,9.19 C32.08,9.19 32.08,10.68 32.08,10.68z "/><path id="_R_G_L_14_G_D_3_P_0" fill="#70a665" fill-opacity="1" fill-rule="nonzero" d=" M38.46 1.74 C38.46,1.74 25.69,1.74 25.69,1.74 C25.69,1.74 25.69,0.25 25.69,0.25 C25.69,0.25 38.46,0.25 38.46,0.25 C38.46,0.25 38.46,1.74 38.46,1.74z "/><path id="_R_G_L_14_G_D_4_P_0" fill="#70a665" fill-opacity="1" fill-rule="nonzero" d=" M30.65 6.21 C30.65,6.21 0.25,6.21 0.25,6.21 C0.25,6.21 0.25,4.72 0.25,4.72 C0.25,4.72 30.65,4.72 30.65,4.72 C30.65,4.72 30.65,6.21 30.65,6.21z "/></g><g id="_R_G_L_13_G" transform=" translate(296.669, 178.412) translate(-19.357, -5.464)"><path id="_R_G_L_13_G_D_0_P_0" fill="#70a665" fill-opacity="1" fill-rule="nonzero" d=" M21.35 1.74 C21.35,1.74 0.25,1.74 0.25,1.74 C0.25,1.74 0.25,0.25 0.25,0.25 C0.25,0.25 21.35,0.25 21.35,0.25 C21.35,0.25 21.35,1.74 21.35,1.74z "/><path id="_R_G_L_13_G_D_1_P_0" fill="#70a665" fill-opacity="1" fill-rule="nonzero" d=" M13.87 10.68 C13.87,10.68 0.25,10.68 0.25,10.68 C0.25,10.68 0.25,9.19 0.25,9.19 C0.25,9.19 13.87,9.19 13.87,9.19 C13.87,9.19 13.87,10.68 13.87,10.68z "/><path id="_R_G_L_13_G_D_2_P_0" fill="#70a665" fill-opacity="1" fill-rule="nonzero" d=" M32.08 10.68 C32.08,10.68 16.18,10.68 16.18,10.68 C16.18,10.68 16.18,9.19 16.18,9.19 C16.18,9.19 32.08,9.19 32.08,9.19 C32.08,9.19 32.08,10.68 32.08,10.68z "/><path id="_R_G_L_13_G_D_3_P_0" fill="#70a665" fill-opacity="1" fill-rule="nonzero" d=" M38.46 1.74 C38.46,1.74 25.69,1.74 25.69,1.74 C25.69,1.74 25.69,0.25 25.69,0.25 C25.69,0.25 38.46,0.25 38.46,0.25 C38.46,0.25 38.46,1.74 38.46,1.74z "/><path id="_R_G_L_13_G_D_4_P_0" fill="#70a665" fill-opacity="1" fill-rule="nonzero" d=" M30.65 6.21 C30.65,6.21 0.25,6.21 0.25,6.21 C0.25,6.21 0.25,4.72 0.25,4.72 C0.25,4.72 30.65,4.72 30.65,4.72 C30.65,4.72 30.65,6.21 30.65,6.21z "/></g><g id="_R_G_L_12_G" transform=" translate(154.023, 242.965) translate(-47.185, -19.686)"><path id="_R_G_L_12_G_D_0_P_0" fill="#cbe0c6" fill-opacity="1" fill-rule="nonzero" d=" M40.53 3.23 C40.53,3.23 0.25,3.23 0.25,3.23 C0.25,3.23 0.25,0.25 0.25,0.25 C0.25,0.25 40.53,0.25 40.53,0.25 C40.53,0.25 40.53,3.23 40.53,3.23z "/><path id="_R_G_L_12_G_D_1_P_0" fill="#cbe0c6" fill-opacity="1" fill-rule="nonzero" d=" M84.54 3.23 C84.54,3.23 44.26,3.23 44.26,3.23 C44.26,3.23 44.26,0.25 44.26,0.25 C44.26,0.25 84.54,0.25 84.54,0.25 C84.54,0.25 84.54,3.23 84.54,3.23z "/><path id="_R_G_L_12_G_D_2_P_0" fill="#cbe0c6" fill-opacity="1" fill-rule="nonzero" d=" M67.54 31.87 C67.54,31.87 8.38,31.87 8.38,31.87 C8.38,31.87 8.38,28.89 8.38,28.89 C8.38,28.89 67.54,28.89 67.54,28.89 C67.54,28.89 67.54,31.87 67.54,31.87z "/><path id="_R_G_L_12_G_D_3_P_0" fill="#cbe0c6" fill-opacity="1" fill-rule="nonzero" d=" M86.86 39.12 C86.86,39.12 27.7,39.12 27.7,39.12 C27.7,39.12 27.7,36.14 27.7,36.14 C27.7,36.14 86.86,36.14 86.86,36.14 C86.86,36.14 86.86,39.12 86.86,39.12z "/><path id="_R_G_L_12_G_D_4_P_0" fill="#cbe0c6" fill-opacity="1" fill-rule="nonzero" d=" M63.86 10.45 C63.86,10.45 24.66,10.45 24.66,10.45 C24.66,10.45 24.66,7.47 24.66,7.47 C24.66,7.47 63.86,7.47 63.86,7.47 C63.86,7.47 63.86,10.45 63.86,10.45z "/><path id="_R_G_L_12_G_D_5_P_0" fill="#cbe0c6" fill-opacity="1" fill-rule="nonzero" d=" M94.12 10.45 C94.12,10.45 68.08,10.45 68.08,10.45 C68.08,10.45 68.08,7.47 68.08,7.47 C68.08,7.47 94.12,7.47 94.12,7.47 C94.12,7.47 94.12,10.45 94.12,10.45z "/><path id="_R_G_L_12_G_D_6_P_0" fill="#cbe0c6" fill-opacity="1" fill-rule="nonzero" d=" M76.23 16.7 C76.23,16.7 42.59,16.7 42.59,16.7 C42.59,16.7 42.59,13.72 42.59,13.72 C42.59,13.72 76.23,13.72 76.23,13.72 C76.23,13.72 76.23,16.7 76.23,16.7z "/></g><g id="_R_G_L_11_G" transform=" translate(175.319, 193.877) translate(-68.481, -20.93)"><path id="_R_G_L_11_G_D_0_P_0" fill="#cbe0c6" fill-opacity="1" fill-rule="nonzero" d=" M54.8 3.23 C54.8,3.23 0.25,3.23 0.25,3.23 C0.25,3.23 0.25,0.25 0.25,0.25 C0.25,0.25 54.8,0.25 54.8,0.25 C54.8,0.25 54.8,3.23 54.8,3.23z "/><path id="_R_G_L_11_G_D_1_P_0" fill="#cbe0c6" fill-opacity="1" fill-rule="nonzero" d=" M59.41 27.11 C59.41,27.11 0.25,27.11 0.25,27.11 C0.25,27.11 0.25,24.13 0.25,24.13 C0.25,24.13 59.41,24.13 59.41,24.13 C59.41,24.13 59.41,27.11 59.41,27.11z "/><path id="_R_G_L_11_G_D_2_P_0" fill="#cbe0c6" fill-opacity="1" fill-rule="nonzero" d=" M54.43 35.34 C54.43,35.34 25.81,35.34 25.81,35.34 C25.81,35.34 25.81,32.36 25.81,32.36 C25.81,32.36 54.43,32.36 54.43,32.36 C54.43,32.36 54.43,35.34 54.43,35.34z "/><path id="_R_G_L_11_G_D_3_P_0" fill="#cbe0c6" fill-opacity="1" fill-rule="nonzero" d=" M84.9 41.61 C84.9,41.61 36.8,41.61 36.8,41.61 C36.8,41.61 36.8,38.63 36.8,38.63 C36.8,38.63 84.9,38.63 84.9,38.63 C84.9,38.63 84.9,41.61 84.9,41.61z "/><path id="_R_G_L_11_G_D_4_P_0" fill="#cbe0c6" fill-opacity="1" fill-rule="nonzero" d=" M81.71 35.34 C81.71,35.34 58.93,35.34 58.93,35.34 C58.93,35.34 58.93,32.36 58.93,32.36 C58.93,32.36 81.71,32.36 81.71,32.36 C81.71,32.36 81.71,35.34 81.71,35.34z "/><path id="_R_G_L_11_G_D_5_P_0" fill="#cbe0c6" fill-opacity="1" fill-rule="nonzero" d=" M108.93 35.34 C108.93,35.34 85.85,35.34 85.85,35.34 C85.85,35.34 85.85,32.36 85.85,32.36 C85.85,32.36 108.93,32.36 108.93,32.36 C108.93,32.36 108.93,35.34 108.93,35.34z "/><path id="_R_G_L_11_G_D_6_P_0" fill="#cbe0c6" fill-opacity="1" fill-rule="nonzero" d=" M81.51 12.61 C81.51,12.61 22.35,12.61 22.35,12.61 C22.35,12.61 22.35,9.63 22.35,9.63 C22.35,9.63 81.51,9.63 81.51,9.63 C81.51,9.63 81.51,12.61 81.51,12.61z "/><path id="_R_G_L_11_G_D_7_P_0" fill="#cbe0c6" fill-opacity="1" fill-rule="nonzero" d=" M127.69 12.61 C127.69,12.61 86.86,12.61 86.86,12.61 C86.86,12.61 86.86,9.63 86.86,9.63 C86.86,9.63 127.69,9.63 127.69,9.63 C127.69,9.63 127.69,12.61 127.69,12.61z "/><path id="_R_G_L_11_G_D_8_P_0" fill="#cbe0c6" fill-opacity="1" fill-rule="nonzero" d=" M136.71 3.23 C136.71,3.23 102.62,3.23 102.62,3.23 C102.62,3.23 102.62,0.25 102.62,0.25 C102.62,0.25 136.71,0.25 136.71,0.25 C136.71,0.25 136.71,3.23 136.71,3.23z "/></g><g id="_R_G_L_10_G" transform=" translate(88.323, 297.002)"><path id="_R_G_L_10_G_D_0_P_0" fill="#ff9a7d" fill-opacity="1" fill-rule="nonzero" d=" M36.01 25.04 C36.59,26.08 42.5,35.24 41.26,44.19 C41.26,44.19 34.84,41.86 34.84,41.86 C34.84,41.86 31.9,29.8 31.9,29.8 C31.9,29.8 36.01,25.04 36.01,25.04z "/><path id="_R_G_L_10_G_D_1_P_0" fill="#faab00" fill-opacity="1" fill-rule="nonzero" d=" M10.33 21.29 C10.33,21.29 14.28,14.2 23.9,16.16 C33.51,18.12 38.76,31.88 36.15,59.14 C36.15,59.14 20.88,53.07 1.01,57.97 C1.01,57.97 4.28,31.56 10.33,21.29z "/><path id="_R_G_L_10_G_D_2_P_0" fill="#faab00" fill-opacity="1" fill-rule="nonzero" d=" M3 18.42 C3,18.42 9.76,25.17 9.76,25.17 C9.76,25.17 27.08,29.85 31.9,29.8 C36.71,29.74 38.6,26.22 38.6,26.22 C38.6,26.22 34.54,19.79 26.32,16.88 C25.55,16.6 24.74,16.36 23.9,16.16 C22.48,15.82 21.04,15.62 19.6,15.54 C11.1,15.03 3,18.42 3,18.42z "/><path id="_R_G_L_10_G_D_3_P_0" fill="#041126" fill-opacity="1" fill-rule="nonzero" d=" M3 18.42 C1.92,19.6 3.58,20.88 5.45,22.74 C7.32,24.61 9.24,25.69 9.75,25.17 C10.27,24.65 9.17,22.71 7.3,20.85 C5.44,18.99 3.49,17.88 3,18.42z "/><path id="_R_G_L_10_G_D_4_P_0" fill="#ff9a7d" fill-opacity="1" fill-rule="nonzero" d=" M8.86 25.2 C8.86,25.2 8.96,23.85 7.26,22.13 C6.24,21.09 4.95,20.42 4.09,20.04 C3.57,19.82 2.98,20.07 2.77,20.6 C2.77,20.6 2.23,21.99 2.23,21.99 C2.23,21.99 4.75,23.62 4.75,23.62 C4.75,23.62 8.86,25.2 8.86,25.2z "/><path id="_R_G_L_10_G_D_5_P_0" fill="#ff9a7d" fill-opacity="1" fill-rule="nonzero" d=" M22.04 50.73 C23.73,50.73 25.13,50.3 26.26,49.45 C28.39,47.84 28.78,45.28 28.47,43.57 C28.47,43.57 26.43,42.39 26.43,42.39 C26.33,41.83 22.4,43.91 22.4,43.91 C22.38,43.91 20.52,44.45 14.07,41.15 C9.58,38.86 7.32,35.6 7.15,31.19 C7.03,27.87 8.51,26.01 8.86,25.2 C8.9,25.09 6.69,22.87 6.75,22.64 C6.75,22.64 5.09,21.8 5.09,21.8 C5.14,21.61 3.49,20.95 3.51,20.9 C3.51,20.9 2.23,21.99 2.23,21.99 C1.6,23.46 0.25,26.82 0.42,31.45 C0.6,36.26 2.59,42.9 11.03,47.22 C15.63,49.57 19.25,50.73 22.04,50.73z "/><path id="_R_G_L_10_G_D_6_P_0" fill="#041126" fill-opacity="1" fill-rule="nonzero" d=" M34.78 29.28 C34.78,29.28 33.72,26.05 33.72,26.05 C33.72,26.05 34,25.96 34,25.96 C34,25.96 35.06,29.19 35.06,29.19 C35.06,29.19 34.78,29.28 34.78,29.28z "/><path id="_R_G_L_10_G_D_7_P_0" fill="#ff9a7d" fill-opacity="1" fill-rule="nonzero" d=" M19.45 15.52 C20.64,15.49 21.53,15.37 22.21,14.57 C22.21,14.57 24.32,12.09 24.32,12.09 C24.32,12.09 24.93,11.37 24.93,11.37 C24.93,11.37 28.53,7.13 28.53,7.13 C28.53,7.13 26.64,12.09 26.64,12.09 C26.64,12.09 25.51,15.06 25.51,15.06 C25.51,15.06 25.15,16 25.15,16 C24.9,16.64 25.22,16.94 25.45,17.69 C25.54,17.99 26.16,19.85 24.55,19.87 C22.53,19.88 19.98,17.54 19.42,15.52 C19.43,15.52 19.44,15.52 19.45,15.52z "/><path id="_R_G_L_10_G_D_8_P_0" fill="#041126" fill-opacity="1" fill-rule="nonzero" d=" M23.73 10.5 C23.73,10.5 19.77,6.69 22.06,3.47 C24.34,0.25 24.92,8.63 24.92,8.63 C24.92,8.63 24.28,10.57 24.28,10.57 C24.28,10.57 23.73,10.5 23.73,10.5z "/><path id="_R_G_L_10_G_D_9_P_0" fill="#131f2d" fill-opacity="1" fill-rule="nonzero" d=" M24.34 12 C24.33,12.03 24.33,12.06 24.32,12.09 C23.95,13.76 25.49,15.07 25.49,15.07 C25.49,15.07 25.51,15.06 25.51,15.06 C25.51,15.06 26.64,12.09 26.64,12.09 C26.16,11.72 25.45,11.29 24.93,11.37 C24.66,11.41 24.44,11.59 24.34,12z "/><path id="_R_G_L_10_G_D_10_P_0" fill="#ff9a7d" fill-opacity="1" fill-rule="nonzero" d=" M32.74 9.93 C33.63,6.95 32.37,3.93 29.93,3.18 C27.48,2.43 24.77,4.24 23.88,7.22 C22.98,10.2 24.24,13.22 26.69,13.97 C29.13,14.72 31.84,12.91 32.74,9.93z "/><path id="_R_G_L_10_G_D_11_P_0" fill="#080435" fill-opacity="1" fill-rule="nonzero" d=" M29.19 8.72 C29.22,8.72 29.25,8.7 29.26,8.68 C29.29,8.63 29.27,8.57 29.23,8.55 C29.2,8.53 28.62,8.13 27.99,8.66 C27.95,8.7 27.94,8.75 27.97,8.8 C28.01,8.84 28.06,8.83 28.11,8.81 C28.57,8.57 29.11,8.7 29.14,8.71 C29.15,8.72 29.17,8.73 29.19,8.72z "/><path id="_R_G_L_10_G_D_12_P_0" fill="#080435" fill-opacity="1" fill-rule="nonzero" d=" M28.33 9.66 C28.29,9.88 28.39,10.09 28.55,10.11 C28.71,10.14 28.87,9.98 28.91,9.76 C28.94,9.53 28.84,9.33 28.68,9.3 C28.52,9.28 28.36,9.44 28.33,9.66z "/><path id="_R_G_L_10_G_D_13_P_0" fill="#080435" fill-opacity="1" fill-rule="nonzero" d=" M32.47 9.91 C32.49,9.92 32.52,9.91 32.54,9.89 C32.57,9.86 32.58,9.8 32.56,9.76 C32.54,9.73 32.27,9.17 31.64,9.46 C31.6,9.48 31.58,9.53 31.59,9.58 C31.59,9.63 31.63,9.64 31.67,9.64 C32.08,9.57 32.42,9.86 32.44,9.88 C32.45,9.9 32.46,9.91 32.47,9.91z "/><path id="_R_G_L_10_G_D_14_P_0" fill="#080435" fill-opacity="1" fill-rule="nonzero" d=" M31.3 10.44 C31.18,10.63 31.2,10.86 31.34,10.94 C31.47,11.03 31.68,10.94 31.8,10.75 C31.92,10.56 31.9,10.33 31.76,10.25 C31.62,10.16 31.41,10.25 31.3,10.44z "/><path id="_R_G_L_10_G_D_15_P_0" fill="#020202" fill-opacity="1" fill-rule="nonzero" d=" M28.61 12.81 C28.05,12.81 27.2,12.65 26.69,11.76 C26.67,11.72 26.68,11.68 26.71,11.67 C26.75,11.65 26.79,11.66 26.8,11.69 C27.56,13.02 29.08,12.65 29.15,12.63 C29.18,12.62 29.22,12.64 29.23,12.68 C29.24,12.71 29.22,12.75 29.18,12.76 C29.17,12.76 28.94,12.81 28.61,12.81z "/><path id="_R_G_L_10_G_D_16_P_0" fill="#020202" fill-opacity="1" fill-rule="nonzero" d=" M26.56 11.99 C26.55,11.99 26.54,11.99 26.53,11.98 C26.5,11.97 26.48,11.93 26.49,11.9 C26.55,11.74 26.69,11.58 26.93,11.45 C26.96,11.43 27,11.44 27.02,11.47 C27.04,11.5 27.04,11.53 27.01,11.55 C27.01,11.55 26.99,11.56 26.99,11.56 C26.74,11.71 26.65,11.85 26.62,11.94 C26.61,11.97 26.58,11.99 26.56,11.99z "/><path id="_R_G_L_10_G_D_17_P_0" fill="#ffffff" fill-opacity="1" fill-rule="nonzero" d=" M31.82 13.63 C31.48,13.63 31.18,13.51 30.93,13.26 C30.14,12.48 30.18,10.66 31.02,9.21 C31.53,8.32 32.25,7.73 32.95,7.64 C33.36,7.58 33.74,7.7 34.03,7.99 C34.82,8.78 34.79,10.6 33.95,12.05 C33.43,12.94 32.71,13.53 32.01,13.62 C31.95,13.63 31.89,13.63 31.82,13.63z  M33.14 7.82 C33.09,7.82 33.03,7.82 32.98,7.83 C32.34,7.91 31.67,8.47 31.18,9.31 C30.39,10.69 30.34,12.4 31.07,13.12 C31.32,13.37 31.64,13.47 31.99,13.43 C32.62,13.34 33.29,12.79 33.78,11.95 C34.58,10.57 34.63,8.86 33.89,8.13 C33.68,7.93 33.43,7.82 33.14,7.82z "/><path id="_R_G_L_10_G_D_18_P_0" fill="#ffffff" fill-opacity="1" fill-rule="nonzero" d=" M26.3 7.08 C25.62,8.52 25.81,10.28 26.72,11 C27.63,11.72 28.92,11.14 29.59,9.7 C30.27,8.25 30.08,6.5 29.18,5.78 C28.27,5.06 26.98,5.64 26.3,7.08z "/><path id="_R_G_L_10_G_D_19_P_0" fill="#ffffff" fill-opacity="1" fill-rule="nonzero" d=" M30.95 9.33 C30.27,10.78 30.36,12.53 31.15,13.25 C31.95,13.97 33.14,13.38 33.82,11.93 C34.5,10.48 34.41,8.73 33.62,8.01 C32.82,7.29 31.63,7.88 30.95,9.33z "/><path id="_R_G_L_10_G_D_20_P_0" fill="#ffffff" fill-opacity="1" fill-rule="nonzero" d=" M27.74 11.39 C27.38,11.39 27.05,11.27 26.75,11.04 C25.74,10.25 25.52,8.36 26.26,6.82 C26.68,5.93 27.35,5.31 28.08,5.14 C28.58,5.02 29.05,5.13 29.46,5.44 C30.46,6.23 30.68,8.12 29.95,9.66 C29.53,10.55 28.86,11.17 28.13,11.34 C28,11.37 27.87,11.39 27.74,11.39z  M28.47 5.29 C28.35,5.29 28.24,5.3 28.12,5.33 C27.46,5.49 26.83,6.08 26.43,6.91 C25.74,8.37 25.93,10.15 26.87,10.88 C27.23,11.16 27.65,11.25 28.09,11.15 C28.75,10.99 29.38,10.4 29.78,9.57 C30.47,8.11 30.27,6.33 29.34,5.6 C29.08,5.39 28.78,5.29 28.47,5.29z "/><path id="_R_G_L_10_G_D_21_P_0" fill="#ffffff" fill-opacity="1" fill-rule="nonzero" d=" M31.07 9.94 C31.01,9.94 30.96,9.92 30.92,9.87 C30.9,9.85 30.52,9.38 29.7,9.36 C29.6,9.36 29.52,9.27 29.52,9.17 C29.52,9.07 29.61,9 29.71,8.99 C30.72,9.02 31.19,9.62 31.21,9.65 C31.27,9.73 31.26,9.84 31.17,9.91 C31.14,9.93 31.1,9.94 31.07,9.94z "/></g><g id="_R_G_L_9_G" transform=" translate(89.288, 302.452)"><path id="_R_G_L_9_G_D_0_P_0" fill="#041126" fill-opacity="1" fill-rule="nonzero" d=" M0.25 11.63 C0.25,11.63 28.02,0.25 33.52,7.36 C39.83,15.54 33.78,29.41 4.5,24.45 C4.5,24.45 0.94,20.58 0.94,20.58 C0.94,20.58 0.25,11.63 0.25,11.63z "/></g><g id="_R_G_L_8_G" transform=" translate(107.176, 304.422)"><path id="_R_G_L_8_G_D_0_P_0" fill="#041126" fill-opacity="1" fill-rule="nonzero" d=" M34.11 11.55 C34.11,11.55 13.26,0.25 5.78,12.58 C0.25,21.7 8.57,30.2 39.42,29.34 C39.42,29.34 42.46,27.91 41.72,20.5 C41.43,17.57 34.11,11.55 34.11,11.55z "/><path id="_R_G_L_8_G_D_1_P_0" fill="#faab00" fill-opacity="1" fill-rule="nonzero" d=" M41.9 22.54 C41.9,22.54 47.02,22.75 49.42,23.93 C51.83,25.11 50.54,27.98 45.66,27.91 C40.78,27.83 41.15,27.1 41.15,27.1 C41.15,27.1 42.08,24.58 41.9,22.54z "/></g><g id="_R_G_L_7_G_N_22_T_0" transform=" translate(88.323, 297.002)"><g id="_R_G_L_7_G" transform=" translate(17.443, 4.392) scale(1.01994, 1) translate(4.209, -5.407)"><path id="_R_G_L_7_G_D_0_P_0" fill="#041126" fill-opacity="1" fill-rule="nonzero" d=" M2.91 7.55 C2.91,7.55 4.17,8.47 5.23,7.69 C6.29,6.91 7.04,6.18 9.41,7.37 C11.78,8.56 14.37,8.03 14.85,6.68 C15.33,5.34 14.21,4.31 12.72,4.38 C11.23,4.45 13.03,3.63 11.99,2.22 C10.96,0.8 8.33,2.26 7.03,1.56 C5.73,0.86 1.09,0.25 0.25,4.23 C0.25,4.23 2.91,7.55 2.91,7.55z "/></g></g><g id="_R_G_L_6_G" transform=" translate(216.513, 217.825) translate(-58.286, -94.064)"><path id="_R_G_L_6_G_D_0_P_0" fill="#faab00" fill-opacity="1" fill-rule="nonzero" d=" M22.34 42.55 C22.34,42.55 23.12,46.36 22.33,48.74 C21.81,50.3 20.03,53.69 22.23,53.78 C23.98,53.86 25.85,49.94 26.53,48.88 C27.22,47.82 28.15,45.96 27.41,44.94 C25.88,42.82 25,39.77 25,39.77 C25,39.77 22.34,42.55 22.34,42.55z "/><path id="_R_G_L_6_G_D_1_P_0" fill="#041126" fill-opacity="1" fill-rule="nonzero" d=" M21.24 45.24 C0.25,31.24 1.29,18.97 4.2,14.18 C7.57,8.6 12.92,4.2 21.12,2.23 C23.31,1.71 25.39,1.41 27.13,1.23 C29.64,0.98 31.81,2.99 31.74,5.52 C31.74,5.52 31.56,12.66 31.56,12.66 C31.56,12.66 31.57,12.66 31.57,12.66 C28.07,12.59 17.45,13.66 14.66,19.32 C14.08,20.5 28.21,37.09 27.69,40.07 C27.09,43.44 23.29,46.61 21.24,45.24z "/><path id="_R_G_L_6_G_D_2_P_0" fill="#041126" fill-opacity="1" fill-rule="nonzero" d=" M13.34 21.55 C12.27,18.74 17.69,14.28 21.7,10.99 C24.55,8.65 27.96,6.56 31.83,4.78 C38.28,1.82 42.92,2.23 42.92,2.23 C42.92,2.23 46.45,7.43 46.45,7.43 C46.44,7.43 46.45,7.53 46.46,7.72 C46.66,11.52 43.43,15.38 39.99,17.33 C36.17,19.49 34.83,17.74 29.77,20.24 C26.84,21.69 27.02,22.41 24.77,23.24 C20.39,24.85 14.3,24.08 13.34,21.55z "/><path id="_R_G_L_6_G_D_3_P_0" fill="#ff9a7d" fill-opacity="1" fill-rule="nonzero" d=" M30.39 1.84 C30.39,1.84 25.39,0.25 23.81,1 C22.22,1.75 20.76,3.91 21.84,3.66 C22.92,3.4 24.22,2.69 24.22,2.69 C24.22,2.69 21.53,4.34 22.18,4.8 C22.84,5.26 25.17,3.81 25.17,3.81 C25.17,3.81 22.12,6.02 22.89,6.26 C23.65,6.49 25.95,4.79 25.95,4.79 C25.95,4.79 23.2,6.97 24.09,7.22 C24.98,7.47 26.35,5.41 27.01,5.87 C27.67,6.33 29.35,8.46 30.85,6.79 C30.85,6.79 30.39,1.84 30.39,1.84z "/><path id="_R_G_L_6_G_D_4_P_0" fill="#ff9a7d" fill-opacity="1" fill-rule="nonzero" d=" M24.26 2.74 C24.26,2.74 24.17,2.64 24.17,2.64 C24.2,2.61 24.9,2.03 25.46,2.19 C25.46,2.19 25.42,2.32 25.42,2.32 C24.93,2.18 24.26,2.73 24.26,2.74z "/><path id="_R_G_L_6_G_D_5_P_0" fill="#ff9a7d" fill-opacity="1" fill-rule="nonzero" d=" M25.21 3.85 C25.21,3.85 25.12,3.76 25.12,3.76 C25.15,3.73 25.82,3.16 26.63,3.22 C26.63,3.22 26.62,3.35 26.62,3.35 C25.87,3.29 25.22,3.85 25.21,3.85z "/><path id="_R_G_L_6_G_D_6_P_0" fill="#ff9a7d" fill-opacity="1" fill-rule="nonzero" d=" M25.99 4.84 C25.99,4.84 25.91,4.74 25.91,4.74 C25.94,4.71 26.77,4.03 27.34,4.25 C27.34,4.25 27.3,4.37 27.3,4.37 C26.79,4.18 26,4.84 25.99,4.84z "/><path id="_R_G_L_6_G_D_7_P_0" fill="#020202" fill-opacity="1" fill-rule="nonzero" d=" M20.4 44.63 C20.4,44.63 20.27,44.63 20.27,44.63 C20.32,37.17 22.77,31.41 22.79,31.35 C22.79,31.35 22.91,31.4 22.91,31.4 C22.89,31.46 20.45,37.2 20.4,44.63z "/><path id="_R_G_L_6_G_D_8_P_0" fill="#faab00" fill-opacity="1" fill-rule="nonzero" d=" M86.56 181.26 C86.56,181.26 86.45,183.43 84.96,184.01 C83.47,184.58 79.19,185.02 80.75,186.45 C81.64,187.28 85.96,186.88 87.18,186.91 C88.39,186.94 89.52,187.5 90.45,186.72 C91.47,185.85 90.59,181.37 90.59,181.37 C90.59,181.37 89.53,181.89 88.59,181.84 C87.23,181.77 86.56,181.26 86.56,181.26z "/><path id="_R_G_L_6_G_D_9_P_0" fill="#041126" fill-opacity="1" fill-rule="nonzero" d=" M75.88 126.57 C76.17,131.08 76.7,136.92 77.7,144.07 C79.59,157.7 81.89,171.45 83.03,178.04 C83.43,180.4 85.36,182.16 87.7,182.32 C87.7,182.32 88.96,182.4 88.96,182.4 C91.49,182.57 93.4,181.64 93.4,177.63 C93.4,177.63 93.28,141 93.28,141 C93.28,141 91.32,126.37 91.32,126.37 C91.32,126.37 75.42,119.18 75.88,126.57z "/><path id="_R_G_L_6_G_D_10_P_0" fill="#faab00" fill-opacity="1" fill-rule="nonzero" d=" M100.5 181.64 C100.5,181.64 100.38,183.81 98.9,184.38 C97.41,184.95 93.13,185.39 94.68,186.83 C95.58,187.66 99.9,187.25 101.12,187.29 C102.33,187.32 103.46,187.88 104.39,187.09 C105.41,186.22 104.53,181.75 104.53,181.75 C104.53,181.75 103.47,182.26 102.52,182.21 C101.16,182.14 100.5,181.64 100.5,181.64z "/><path id="_R_G_L_6_G_D_11_P_0" fill="#041126" fill-opacity="1" fill-rule="nonzero" d=" M89.57 115.78 C89.57,115.78 89.01,125.57 91.64,144.45 C93.53,158.08 95.83,171.82 96.96,178.41 C97.37,180.77 99.3,182.54 101.64,182.69 C101.64,182.69 102.9,182.78 102.9,182.78 C105.42,182.95 107.54,180.83 107.42,178.25 C107.42,178.25 105.44,133.81 105.44,133.81 C105.44,133.81 105.05,119.2 105.05,119.2 C105.05,119.2 89.57,115.78 89.57,115.78z "/><path id="_R_G_L_6_G_D_12_P_0" fill="#131f2d" fill-opacity="1" fill-rule="nonzero" d=" M93.33 156.65 C93.32,155.98 93.14,140.17 93.96,137.28 C94.77,134.37 98.42,131.94 98.58,131.84 C98.58,131.84 98.68,132 98.68,132 C98.64,132.02 94.94,134.49 94.14,137.33 C93.33,140.19 93.52,156.48 93.52,156.65 C93.52,156.65 93.33,156.65 93.33,156.65z "/><path id="_R_G_L_6_G_D_13_P_0" fill="#ff9a7d" fill-opacity="1" fill-rule="nonzero" d=" M92.31 85.68 C92.31,85.68 91.33,82.76 91.33,82.76 C91.33,82.76 91.04,81.9 91.04,81.9 C91.04,81.9 89.37,76.89 89.37,76.89 C89.37,76.89 89.15,81.88 89.15,81.88 C89.15,81.88 89.01,84.87 89.01,84.87 C89.01,84.87 88.97,85.82 88.97,85.82 C88.94,86.46 88.52,86.6 88.01,87.16 C87.8,87.38 86.46,88.75 87.98,89.38 C89.87,90.15 93.39,88.98 94.73,87.44 C94.72,87.44 92.62,86.63 92.31,85.68z "/><path id="_R_G_L_6_G_D_14_P_0" fill="#ff9a7d" fill-opacity="1" fill-rule="nonzero" d=" M84.86 78.18 C85.27,75.24 87.75,73.11 90.38,73.43 C93.01,73.75 94.81,76.4 94.39,79.34 C93.97,82.28 91.5,84.41 88.87,84.09 C86.24,83.77 84.44,81.12 84.86,78.18z "/><path id="_R_G_L_6_G_D_15_P_0" fill="#041126" fill-opacity="1" fill-rule="nonzero" d=" M86.92 76.89 C84.17,76.98 82.83,75.51 82.8,74.15 C82.76,72.41 83.95,70.86 85.33,71.51 C86.71,72.16 86.12,70.57 87.44,70.4 C89.93,70.08 90.39,71.72 92.42,71.8 C95.1,71.9 98.15,76.04 95.91,79.06 C95.91,79.06 89.09,76.81 86.92,76.89z "/><path id="_R_G_L_6_G_D_16_P_0" fill="#041126" fill-opacity="1" fill-rule="nonzero" d=" M84.47 75.13 C84.47,75.13 87.41,77.75 87.02,79.22 C86.63,80.7 86.73,81.28 88.44,82.06 C90.16,82.85 88.65,84.13 90.93,84.22 C93.22,84.31 96.02,81.81 96.02,77.69 C96.02,75.4 94.59,73.89 94.59,73.89 C94.59,73.89 84.47,75.13 84.47,75.13z "/><path id="_R_G_L_6_G_D_17_P_0" fill="#ff9a7d" fill-opacity="1" fill-rule="nonzero" d=" M85.54 79.16 C85.87,78.72 86.48,78.59 86.9,78.86 C87.33,79.14 87.4,79.72 87.06,80.16 C86.73,80.59 86.12,80.72 85.7,80.45 C85.28,80.17 85.2,79.6 85.54,79.16z "/><path id="_R_G_L_6_G_D_18_P_0" fill="#041126" fill-opacity="1" fill-rule="nonzero" d=" M97.01 80.19 C96.98,80.19 96.95,80.17 96.94,80.14 C96.81,79.58 96.24,79.27 96.23,79.27 C96.2,79.25 96.19,79.21 96.21,79.17 C96.23,79.14 96.27,79.13 96.3,79.15 C96.33,79.16 96.93,79.5 97.08,80.11 C97.09,80.15 97.06,80.18 97.03,80.19 C97.02,80.19 97.02,80.19 97.01,80.19z "/><path id="_R_G_L_6_G_D_19_P_0" fill="#041126" fill-opacity="1" fill-rule="nonzero" d=" M96.27 78.96 C96.23,78.96 96.2,78.93 96.2,78.89 C96.2,78.85 96.23,78.82 96.26,78.82 C96.27,78.82 97.02,78.77 97.12,78.24 C97.13,78.2 97.16,78.18 97.2,78.18 C97.24,78.19 97.26,78.23 97.26,78.26 C97.13,78.9 96.31,78.95 96.27,78.96 C96.27,78.96 96.27,78.96 96.27,78.96z "/><path id="_R_G_L_6_G_D_20_P_0" fill="#041126" fill-opacity="1" fill-rule="nonzero" d=" M85.74 71.41 C85.7,71.41 85.65,71.4 85.6,71.39 C85.37,71.32 85.2,71.21 85.04,71.11 C84.73,70.91 84.46,70.74 83.89,70.91 C83.85,70.93 83.81,70.9 83.8,70.87 C83.79,70.83 83.81,70.79 83.85,70.78 C84.49,70.59 84.8,70.8 85.11,70.99 C85.27,71.1 85.43,71.2 85.63,71.26 C85.75,71.29 85.85,71.27 85.93,71.21 C86.23,71.01 86.3,70.36 86.3,70.35 C86.31,70.31 86.34,70.29 86.38,70.29 C86.42,70.29 86.44,70.33 86.44,70.37 C86.44,70.4 86.36,71.08 86.01,71.32 C85.93,71.38 85.84,71.41 85.74,71.41z "/><path id="_R_G_L_6_G_D_21_P_0" fill="#041126" fill-opacity="1" fill-rule="nonzero" d=" M92.21 71.58 C91.24,71.58 90.48,70.93 90.45,70.9 C90.42,70.88 90.42,70.83 90.44,70.8 C90.47,70.78 90.51,70.77 90.54,70.8 C90.55,70.8 91.45,71.58 92.5,71.43 C92.54,71.42 92.57,71.44 92.58,71.48 C92.59,71.52 92.56,71.55 92.52,71.56 C92.42,71.58 92.31,71.58 92.21,71.58z "/><path id="_R_G_L_6_G_D_22_P_0" fill="#131f2d" fill-opacity="1" fill-rule="nonzero" d=" M86.27 80.64 C86.16,80.64 86.08,80.62 86.08,80.62 C86.07,80.61 86.05,80.6 86.06,80.58 C86.07,80.56 86.08,80.55 86.1,80.56 C86.13,80.56 86.72,80.74 87.15,79.96 C87.15,79.95 87.18,79.94 87.19,79.95 C87.21,79.96 87.21,79.98 87.2,79.99 C86.9,80.55 86.5,80.64 86.27,80.64z "/><path id="_R_G_L_6_G_D_23_P_0" fill="#041126" fill-opacity="1" fill-rule="nonzero" d=" M75.88 126.57 C75.88,126.57 95.82,125.49 105.28,127.76 C105.28,127.76 105.42,125.07 105.42,125.07 C105.42,125.07 92.16,121.15 92.16,121.15 C92.16,121.15 81.44,121.41 81.44,121.41 C81.44,121.41 78.15,122.11 78.15,122.11 C78.15,122.11 75.83,125.69 75.83,125.69 C75.83,125.69 75.88,126.57 75.88,126.57z "/><path id="_R_G_L_6_G_D_24_P_0" fill="#faab00" fill-opacity="1" fill-rule="nonzero" d=" M103.51 93.78 C103.51,93.78 101.76,86.25 91.02,86.25 C72.31,86.25 77.56,101.48 75.83,125.69 C75.83,125.69 87.89,123.08 105.35,126.56 C105.35,126.56 107.04,113.44 104.85,102.36 C104.27,99.43 104.37,96.32 103.51,93.78z "/><path id="_R_G_L_6_G_D_25_P_0" fill="#faab00" fill-opacity="1" fill-rule="nonzero" d=" M115.45 108.41 C113.69,95.44 98.9,88.12 98.9,88.12 C98.9,88.12 95.75,104.38 95.75,104.38 C95.75,104.38 101.91,106.33 101.91,106.33 C105.07,107.34 106.37,111.13 104.45,113.84 C102,117.29 100.56,121.93 103.1,121.07 C107.43,119.62 116.32,114.1 115.45,108.41z "/><path id="_R_G_L_6_G_D_26_P_0" fill="#041126" fill-opacity="1" fill-rule="nonzero" d=" M105.9 120.65 C105.9,120.65 105.77,120.64 105.77,120.64 C106.29,111.14 104.6,101.42 104.59,101.32 C104.59,101.32 104.72,101.3 104.72,101.3 C104.74,101.4 106.42,111.14 105.9,120.65z "/><path id="_R_G_L_6_G_D_27_P_0" fill="#041126" fill-opacity="1" fill-rule="nonzero" d=" M76.32 111.09 C76.32,111.09 76.26,110.97 76.26,110.97 C79.78,108.9 84.37,103.43 84.42,103.37 C84.42,103.37 84.52,103.46 84.52,103.46 C84.47,103.51 79.87,109 76.32,111.09z "/></g><g id="_R_G_L_5_G" transform=" translate(241.135, 217.661) translate(-17.868, -4.1)"><path id="_R_G_L_5_G_D_0_P_0" fill="#faab00" fill-opacity="1" fill-rule="nonzero" d=" M17.73 0.94 C16.05,0.25 13.05,3.51 11.73,4.94 C9.82,7.01 10.24,7.34 8.73,8.94 C5.27,12.6 1.88,11.85 0.94,14.57 C0.25,16.54 1.48,18.52 1.73,18.94 C3.54,21.85 7.15,21.94 7.73,21.94 C10.03,21.95 11.71,20.89 12.36,20.42 C17.04,15.8 18.31,11.3 18.73,8.94 C19.18,6.41 19.49,1.66 17.73,0.94z "/></g><g id="_R_G_L_4_G" transform=" translate(233.571, 233.072)"><path id="_R_G_L_4_G_D_0_P_0" fill="#ff9a7d" fill-opacity="1" fill-rule="nonzero" d=" M4.15 8.31 C4.15,8.31 3.82,8.46 3.82,8.46 C3.52,8.6 3.16,8.47 3.02,8.17 C3.02,8.17 1.53,5.05 1.53,5.05 C1.39,4.75 1.52,4.39 1.82,4.25 C1.82,4.25 2.14,4.1 2.14,4.1 C2.44,3.95 2.81,4.08 2.95,4.38 C2.95,4.38 4.43,7.5 4.43,7.5 C4.58,7.8 4.45,8.16 4.15,8.31z "/><path id="_R_G_L_4_G_D_1_P_0" fill="#ff9a7d" fill-opacity="1" fill-rule="nonzero" d=" M5.38 7.42 C5.38,7.42 5.04,7.58 5.04,7.58 C4.74,7.72 4.39,7.6 4.25,7.3 C4.25,7.3 2.67,3.98 2.67,3.98 C2.53,3.69 2.66,3.33 2.95,3.19 C2.95,3.19 3.29,3.03 3.29,3.03 C3.59,2.89 3.94,3.02 4.08,3.31 C4.08,3.31 5.66,6.63 5.66,6.63 C5.8,6.93 5.68,7.28 5.38,7.42z "/><path id="_R_G_L_4_G_D_2_P_0" fill="#ff9a7d" fill-opacity="1" fill-rule="nonzero" d=" M7.12 10.28 C7.12,10.28 6.9,10.23 6.9,10.23 C6.48,10.13 6.22,9.71 6.31,9.29 C6.31,9.29 7.27,5.21 7.27,5.21 C7.36,4.79 7.92,4.15 8.34,4.26 C9.03,4.42 9.11,5.2 9.01,5.62 C9.01,5.62 8.06,9.69 8.06,9.69 C7.96,10.11 7.54,10.38 7.12,10.28z "/><path id="_R_G_L_4_G_D_3_P_0" fill="#ff9a7d" fill-opacity="1" fill-rule="nonzero" d=" M6.76 6.9 C6.76,6.9 6.63,6.96 6.63,6.96 C6.26,7.13 5.82,6.97 5.64,6.61 C5.64,6.61 3.41,1.91 3.41,1.91 C3.23,1.54 2.98,0.68 3.66,0.43 C4.16,0.25 4.66,1.12 4.94,1.68 C5.5,2.81 7.11,5.91 7.11,5.91 C7.28,6.28 7.12,6.72 6.76,6.9z "/><path id="_R_G_L_4_G_D_4_P_0" fill="#ff9a7d" fill-opacity="1" fill-rule="nonzero" d=" M4.18 11.6 C4.18,11.6 0.98,8.79 0.8,6.17 C0.74,5.27 4.78,3.35 5.57,3.99 C6.37,4.63 8.07,8.46 8.07,8.46 C8.07,8.46 4.18,11.6 4.18,11.6z "/><path id="_R_G_L_4_G_D_5_P_0" fill="#ff9a7d" fill-opacity="1" fill-rule="nonzero" d=" M2.79 8.78 C2.79,8.78 2.46,8.94 2.46,8.94 C2.16,9.08 2.4,9.66 2.2,9.4 C0.8,7.63 0.39,5.99 0.39,5.99 C0.25,5.69 0.38,5.15 0.68,5.01 C0.68,5.01 0.97,4.93 0.97,4.93 C1.27,4.78 1.66,5.02 1.81,5.32 C1.81,5.32 3.07,7.99 3.07,7.99 C3.21,8.28 3.09,8.64 2.79,8.78z "/><path id="_R_G_L_4_G_D_6_P_0" fill="#faab00" fill-opacity="1" fill-rule="nonzero" d=" M16.99 13.81 C13.94,11.46 11.99,9.73 10.66,8.42 C10.34,8.1 9.75,7.51 8.83,7.34 C6.83,6.99 4.97,9 4.75,9.25 C2.47,11.82 4.01,16.1 4.58,17.79 C5.5,20.48 6.72,24.08 9.99,24.81 C13.16,25.52 16.97,23.26 17.99,19.81 C18.87,16.83 17.27,14.25 16.99,13.81z "/></g><g id="_R_G_L_3_G" transform=" translate(185.656, 138.9)"><path id="_R_G_L_3_G_D_0_P_0" fill="#faab00" fill-opacity="1" fill-rule="nonzero" d=" M6.28 34.2 C6.28,34.2 5.69,38.04 4.13,39.99 C3.1,41.29 0.25,43.84 2.27,44.69 C3.89,45.37 7.01,42.34 8.02,41.59 C9.03,40.84 10.55,39.41 10.21,38.2 C9.51,35.68 9.74,32.52 9.74,32.52 C9.74,32.52 6.28,34.2 6.28,34.2z "/><path id="_R_G_L_3_G_D_1_P_0" fill="#041126" fill-opacity="1" fill-rule="nonzero" d=" M4.87 36.01 C2.45,36.02 0.53,33.99 0.67,31.58 C1.28,21.3 4.64,10.8 5.1,10.22 C9.33,4.82 16.36,0.25 18.54,1.91 C20.14,3.13 17.41,6.38 15.98,16.8 C15,23.96 12.69,26.91 12.32,32.24 C12.17,34.35 10.42,35.98 8.31,35.99 C8.31,35.99 4.87,36.01 4.87,36.01z "/></g><g id="_R_G_L_2_G" transform=" translate(189.848, 132.113)"><path id="_R_G_L_2_G_D_0_P_0" fill="#ff9a7d" fill-opacity="1" fill-rule="nonzero" d=" M7.16 23.72 C7.16,23.72 2.83,30.39 1.28,40.26 C0.25,46.79 12.14,39.19 12.14,39.19 C12.14,39.19 12.67,25.54 12.67,25.54 C12.67,25.54 7.16,23.72 7.16,23.72z "/><path id="_R_G_L_2_G_D_1_P_0" fill="#faab00" fill-opacity="1" fill-rule="nonzero" d=" M30.03 24.15 C29.87,23.34 28.8,18.49 24.6,16.49 C24.6,16.49 21.63,15.2 17.9,16.05 C10.3,17.78 7.2,25.55 6.66,44.19 C6.66,44.19 11.22,52.27 31.99,50.69 C33.56,50.58 35.6,50.4 36.38,49.1 C36.96,48.13 36.6,46.93 36.46,46.49 C35.56,43.4 33.24,35.2 30.03,24.15z "/><path id="_R_G_L_2_G_D_2_P_0" fill="#faab00" fill-opacity="1" fill-rule="nonzero" d=" M37.16 21.61 C36.17,21.58 34.71,21.65 33.03,22.15 C31.21,22.69 29.87,23.53 29.03,24.15 C20.71,26.17 14.34,27.2 11.84,27.15 C10.94,27.14 9.8,27.03 8.61,26.38 C7.1,25.56 6.43,24.38 6.43,24.38 C6.43,24.38 9.52,19.14 15.99,16.67 C16.6,16.44 17.23,16.23 17.9,16.05 C17.9,16.05 19.59,15.61 21.3,15.48 C25.15,15.21 29.53,16.94 30.03,17.15 C33.17,18.42 35.53,20.15 37.16,21.61z "/><path id="_R_G_L_2_G_D_3_P_0" fill="#131f2d" fill-opacity="1" fill-rule="nonzero" d=" M36.67 22.42 C36.66,22.4 36.66,22.38 36.65,22.36 C36.57,22.09 36.32,21.9 36.04,21.9 C32.85,21.97 31.06,23.04 30.37,23.57 C30.16,23.73 30.06,23.99 30.11,24.25 C30.12,24.3 30.13,24.35 30.13,24.4 C29.62,24.36 29.28,24.21 29.22,23.97 C29.05,23.35 30.69,22.33 32.88,21.67 C35.08,21.02 36.99,20.99 37.16,21.61 C37.22,21.83 37.04,22.12 36.67,22.42z "/><path id="_R_G_L_2_G_D_4_P_0" fill="#131f2d" fill-opacity="1" fill-rule="nonzero" d=" M14.71 16.43 C14.71,16.43 16.49,15.51 16.68,14.46 C16.87,13.4 17.59,13.65 17.96,13.35 C18.33,13.05 16.96,10.36 16.96,10.36 C16.96,10.36 13,9.32 13,9.32 C13,9.32 13.86,14.19 13.86,14.19 C13.86,14.19 14.71,16.43 14.71,16.43z "/><path id="_R_G_L_2_G_D_5_P_0" fill="#ff9a7d" fill-opacity="1" fill-rule="nonzero" d=" M22.7 15.49 C21.88,15.48 21.12,15.04 20.72,14.31 C20.72,14.31 19.48,12.04 19.48,12.04 C19.48,12.04 19.12,11.38 19.12,11.38 C19.12,11.38 16.99,7.51 16.99,7.51 C16.99,7.51 17.69,11.67 17.69,11.67 C17.69,11.67 18.11,14.16 18.11,14.16 C18.11,14.16 18.23,14.87 18.23,14.87 C18.33,15.45 17.97,16.01 17.4,16.17 C17.4,16.17 17.39,16.17 17.39,16.17 C17.13,16.7 16.8,17.77 18.11,18.05 C19.66,18.39 21.98,16.98 22.72,15.49 C22.71,15.49 22.71,15.49 22.7,15.49z "/><path id="_R_G_L_2_G_D_6_P_0" fill="#041126" fill-opacity="1" fill-rule="nonzero" d=" M19.47 11.97 C19.48,12 19.48,12.02 19.48,12.04 C19.51,13.4 18.12,14.17 18.12,14.17 C18.12,14.17 18.11,14.16 18.11,14.16 C18.11,14.16 17.69,11.67 17.69,11.67 C18.12,11.46 18.73,11.24 19.12,11.38 C19.32,11.46 19.46,11.64 19.47,11.97z "/><path id="_R_G_L_2_G_D_7_P_0" fill="#ff9a7d" fill-opacity="1" fill-rule="nonzero" d=" M12.93 8.57 C12.68,5.89 14.24,3.55 16.41,3.34 C18.58,3.13 20.55,5.14 20.8,7.82 C21.06,10.5 19.5,12.84 17.33,13.05 C15.15,13.25 13.19,11.25 12.93,8.57z "/><path id="_R_G_L_2_G_D_8_P_0" fill="#ffffff" fill-opacity="1" fill-rule="nonzero" d=" M15.05 11.54 C15.05,11.54 16.39,11.44 17.69,10.84 C17.69,10.84 17.93,12.15 16.48,12.38 C15.64,12.51 15.05,11.54 15.05,11.54z "/><path id="_R_G_L_2_G_D_9_P_0" fill="#080435" fill-opacity="1" fill-rule="nonzero" d=" M16.49 8.28 C16.47,8.27 16.44,8.26 16.43,8.23 C16.41,8.18 16.42,8.13 16.47,8.11 C16.49,8.09 17.07,7.73 17.65,8.26 C17.69,8.29 17.69,8.35 17.66,8.38 C17.63,8.42 17.57,8.42 17.53,8.39 C17.09,8.16 16.57,8.26 16.55,8.27 C16.53,8.28 16.51,8.28 16.49,8.28z "/><path id="_R_G_L_2_G_D_10_P_0" fill="#080435" fill-opacity="1" fill-rule="nonzero" d=" M17.48 9.13 C17.51,9.34 17.4,9.53 17.25,9.55 C17.09,9.57 16.95,9.41 16.92,9.2 C16.89,8.99 16.99,8.8 17.15,8.78 C17.3,8.76 17.45,8.92 17.48,9.13z "/><path id="_R_G_L_2_G_D_11_P_0" fill="#080435" fill-opacity="1" fill-rule="nonzero" d=" M14.95 9.54 C14.99,9.75 14.9,9.94 14.74,9.97 C14.59,10 14.43,9.86 14.39,9.65 C14.35,9.44 14.44,9.24 14.6,9.21 C14.75,9.18 14.91,9.33 14.95,9.54z "/><path id="_R_G_L_2_G_D_12_P_0" fill="#131f2d" fill-opacity="1" fill-rule="nonzero" d=" M18.48 4.91 C15.54,5.91 13.66,8.81 13.86,11.91 C13.87,12.09 13.88,12.27 13.9,12.46 C13.9,12.46 15.98,12.72 16.28,14.71 C16.37,15.33 14.66,16.57 14.53,16.52 C13.55,16.19 10.85,14.12 10.98,9.49 C11.11,4.86 12.56,1.33 16.76,0.79 C20.95,0.25 20.65,3.11 20.65,3.11 C20.65,3.11 20.03,4.38 18.48,4.91z "/><path id="_R_G_L_2_G_D_13_P_0" fill="#131f2d" fill-opacity="1" fill-rule="nonzero" d=" M17.89 4.97 C17.89,4.97 17.97,5.01 18.09,5.09 C18.57,5.39 19.76,6.27 20.1,7.73 C20.52,9.56 18.84,10.89 19.47,12.28 C20.1,13.67 21.24,11.93 22.31,12.08 C23.39,12.23 24.11,11.66 23.98,9.55 C23.85,7.44 22.9,2.59 20.41,2.82 C20.41,2.82 17.89,4.97 17.89,4.97z "/><path id="_R_G_L_2_G_D_14_P_0" fill="#ff9a7d" fill-opacity="1" fill-rule="nonzero" d=" M20.8 8.56 C20.39,9.03 19.77,9.13 19.41,8.79 C19.06,8.45 19.09,7.79 19.5,7.33 C19.91,6.86 20.52,6.76 20.88,7.1 C21.24,7.44 21.2,8.09 20.8,8.56z "/><path id="_R_G_L_2_G_D_15_P_0" fill="#ff9a7d" fill-opacity="1" fill-rule="nonzero" d=" M35.03 40.15 C32.1,41.82 27.77,39.46 26.52,38.76 C27.17,38.58 28.26,38.16 29.03,37.15 C29.82,36.12 29.9,34.99 29.93,34.3 C30.17,30.08 30.14,25.41 30.13,24.4 C30.13,24.35 30.12,24.3 30.11,24.25 C30.06,23.99 30.16,23.73 30.37,23.57 C31.06,23.04 32.85,21.97 36.04,21.9 C36.32,21.9 36.57,22.09 36.65,22.36 C36.66,22.37 36.66,22.38 36.67,22.39 C36.67,22.4 36.67,22.42 36.67,22.42 C36.68,22.43 40.52,37.02 35.03,40.15z "/></g><g id="_R_G_L_1_G" transform=" translate(205.158, 118.952)"><path id="_R_G_L_1_G_D_0_P_0" fill="#ff9a7d" fill-opacity="1" fill-rule="nonzero" d=" M25.27 0.56 C26.51,0.98 27.1,4.08 26.27,6.56 C25.17,9.84 21.83,11.33 18.94,12.61 C17.01,13.47 13.67,14.66 9.13,14.74 C9.13,14.74 9.87,9.16 9.87,9.16 C12.86,8.27 15.13,7.14 16.75,6.18 C17.81,5.56 18.8,4.88 19.26,4.56 C23.56,1.63 24.33,0.25 25.27,0.56z "/><path id="_R_G_L_1_G_D_1_P_0" fill="#ff9a7d" fill-opacity="1" fill-rule="nonzero" d=" M9.88 9.16 C9.88,9.16 4.88,7.58 3.3,8.33 C1.71,9.08 0.25,11.24 1.33,10.98 C2.42,10.72 3.71,10.01 3.71,10.01 C3.71,10.01 1.02,11.66 1.67,12.12 C2.33,12.59 4.66,11.13 4.66,11.13 C4.66,11.13 1.61,13.35 2.38,13.58 C3.14,13.82 5.44,12.12 5.44,12.12 C5.44,12.12 2.69,14.29 3.58,14.54 C4.47,14.8 5.84,12.73 6.5,13.2 C7.16,13.66 8.84,15.78 10.35,14.11 C10.35,14.11 9.88,9.16 9.88,9.16z "/><path id="_R_G_L_1_G_D_2_P_0" fill="#ff9a7d" fill-opacity="1" fill-rule="nonzero" d=" M3.75 10.06 C3.75,10.06 3.67,9.96 3.67,9.96 C3.7,9.94 4.39,9.36 4.95,9.52 C4.95,9.52 4.91,9.64 4.91,9.64 C4.42,9.5 3.76,10.06 3.75,10.06z "/><path id="_R_G_L_1_G_D_3_P_0" fill="#ff9a7d" fill-opacity="1" fill-rule="nonzero" d=" M4.7 11.18 C4.7,11.18 4.62,11.08 4.62,11.08 C4.64,11.06 5.31,10.48 6.13,10.55 C6.13,10.55 6.12,10.68 6.12,10.68 C5.36,10.62 4.71,11.17 4.7,11.18z "/><path id="_R_G_L_1_G_D_4_P_0" fill="#ff9a7d" fill-opacity="1" fill-rule="nonzero" d=" M5.48 12.17 C5.48,12.17 5.4,12.07 5.4,12.07 C5.43,12.04 6.26,11.35 6.84,11.57 C6.84,11.57 6.79,11.69 6.79,11.69 C6.28,11.5 5.49,12.16 5.48,12.17z "/></g><g id="_R_G_L_0_G" transform=" translate(137.184, 207.59) translate(-51.362, -85.968)"><path id="_R_G_L_0_G_D_0_P_0" fill="#041126" fill-opacity="1" fill-rule="nonzero" d=" M6.78 171.69 C6.78,171.69 24.78,171.69 24.78,171.69 C25.15,171.69 25.49,171.45 25.61,171.09 C25.61,171.09 29.35,159.92 29.35,159.92 C29.54,159.36 29.11,158.78 28.52,158.78 C28.52,158.78 11.21,158.78 11.21,158.78 C10.42,158.78 9.72,159.28 9.47,160.03 C9.47,160.03 5.95,170.54 5.95,170.54 C5.76,171.11 6.18,171.69 6.78,171.69z "/><path id="_R_G_L_0_G_D_1_P_0" fill="#dd2120" fill-opacity="1" fill-rule="nonzero" d=" M7.91 171.69 C7.91,171.69 25.91,171.69 25.91,171.69 C26.29,171.69 26.62,171.45 26.74,171.09 C26.74,171.09 30.48,159.92 30.48,159.92 C30.67,159.36 30.24,158.78 29.65,158.78 C29.65,158.78 12.34,158.78 12.34,158.78 C11.55,158.78 10.85,159.28 10.6,160.03 C10.6,160.03 7.08,170.54 7.08,170.54 C6.89,171.11 7.32,171.69 7.91,171.69z "/><path id="_R_G_L_0_G_D_2_P_0" fill="#daebe8" fill-opacity="1" fill-rule="nonzero" d=" M20.52 164.87 C20.52,164.44 20.03,164.27 19.61,164.27 C19.18,164.27 18.48,164.74 18.49,165.33 C18.49,165.97 18.99,166.06 19.42,166.06 C19.85,166.06 20.52,165.41 20.52,164.87z "/><path id="_R_G_L_0_G_D_3_P_0" fill="#dd2120" fill-opacity="1" fill-rule="nonzero" d=" M1.3 170.11 C1.3,170.11 25.92,170.11 25.92,170.11 C25.92,170.11 25.92,171.69 25.92,171.69 C25.92,171.69 0.78,171.69 0.78,171.69 C0.49,171.69 0.25,171.45 0.25,171.15 C0.25,170.58 0.72,170.11 1.3,170.11z "/><path id="_R_G_L_0_G_D_4_P_0" fill="#041126" fill-opacity="1" fill-rule="nonzero" d=" M96.66 11.74 C96.66,11.74 80.63,11.74 80.63,11.74 C80.29,11.74 80,11.53 79.89,11.21 C79.89,11.21 76.56,1.27 76.56,1.27 C76.39,0.77 76.77,0.25 77.3,0.25 C77.3,0.25 92.71,0.25 92.71,0.25 C93.41,0.25 94.04,0.7 94.26,1.36 C94.26,1.36 97.4,10.73 97.4,10.73 C97.56,11.23 97.19,11.74 96.66,11.74z "/><path id="_R_G_L_0_G_D_5_P_0" fill="#3c5bbf" fill-opacity="1" fill-rule="nonzero" d=" M95.65 11.74 C95.65,11.74 79.62,11.74 79.62,11.74 C79.29,11.74 78.99,11.53 78.88,11.21 C78.88,11.21 75.55,1.27 75.55,1.27 C75.39,0.77 75.76,0.25 76.29,0.25 C76.29,0.25 91.71,0.25 91.71,0.25 C92.41,0.25 93.03,0.7 93.25,1.36 C93.25,1.36 96.39,10.73 96.39,10.73 C96.56,11.23 96.18,11.74 95.65,11.74z "/><path id="_R_G_L_0_G_D_6_P_0" fill="#daebe8" fill-opacity="1" fill-rule="nonzero" d=" M84.42 5.67 C84.42,5.3 84.86,5.14 85.24,5.14 C85.62,5.14 86.24,5.56 86.23,6.08 C86.23,6.65 85.78,6.73 85.4,6.73 C85.02,6.73 84.42,6.15 84.42,5.67z "/><path id="_R_G_L_0_G_D_7_P_0" fill="#3c5bbf" fill-opacity="1" fill-rule="nonzero" d=" M101.54 10.34 C101.54,10.34 79.62,10.34 79.62,10.34 C79.62,10.34 79.62,11.75 79.62,11.75 C79.62,11.75 102,11.75 102,11.75 C102.26,11.75 102.48,11.53 102.48,11.27 C102.48,10.76 102.06,10.34 101.54,10.34z "/></g></g><g id="time_group"/></svg>