<svg xmlns="http://www.w3.org/2000/svg" xmlns:xlink="http://www.w3.org/1999/xlink" preserveAspectRatio="xMidYMid meet" width="423" height="520" viewBox="0 0 423 520" style="width:100%;height:100%"><defs><animate repeatCount="indefinite" dur="4.004004s" begin="0s" xlink:href="#_R_G_L_16_G" fill="freeze" attributeName="opacity" from="0" to="1" keyTimes="0;0.4333333;0.55;1" values="0;0;1;1" keySplines="0.333 0 0.667 1;0.333 0 0.667 1;0 0 0 0" calcMode="spline"/><animate repeatCount="indefinite" dur="4.004004s" begin="0s" xlink:href="#_R_G_L_16_G_M" fill="freeze" attributeName="opacity" from="0" to="1" keyTimes="0;0.4333333;0.4333342;1" values="0;0;1;1" keySplines="0 0 0 0;0 0 0 0;0 0 0 0" calcMode="spline"/><animateTransform repeatCount="indefinite" dur="4.004004s" begin="0s" xlink:href="#_R_G_L_15_G" fill="freeze" attributeName="transform" from="0 0" to="1 1" type="scale" additive="sum" keyTimes="0;0.2666667;0.4083333;0.475;1" values="0 0;0 0;0 0;1 1;1 1" keySplines="0.333 0 0.667 1;0.333 0 0.667 1;0.333 0 0.667 1;0 0 0 0" calcMode="spline"/><animateTransform repeatCount="indefinite" dur="4.004004s" begin="0s" xlink:href="#_R_G_L_15_G" fill="freeze" attributeName="transform" from="-19.25 -182.117" to="-19.25 -182.117" type="translate" additive="sum" keyTimes="0;1" values="-19.25 -182.117;-19.25 -182.117" keySplines="0 0 1 1" calcMode="spline"/><animateMotion repeatCount="indefinite" dur="4.004004s" begin="0s" xlink:href="#_R_G_L_14_G" fill="freeze" keyTimes="0;0.2666667;0.3416667;0.4083333;0.475;0.5166667;1" path="M111.89 303.65 C111.89,303.51 111.89,303.65 111.89,303.65 C111.89,303.65 111.89,298.65 111.89,298.65 C111.89,298.65 111.89,298.65 111.89,298.65 C111.89,298.65 111.89,165.31 111.89,138.65 C111.89,138.65 111.89,138.65 111.89,138.65 C111.89,138.65 111.89,138.65 111.89,138.65 " keyPoints="0;0;0.03;0.03;1;1;1" keySplines="0.333 0 0.667 1;0.333 0 0.667 1;0.333 0.333 0.667 0.667;0.333 0 0.667 1;0.333 0.333 0.667 0.667;0 0 0 0" calcMode="spline"/><animateTransform repeatCount="indefinite" dur="4.004004s" begin="0s" xlink:href="#_R_G_L_14_G" fill="freeze" attributeName="transform" from="0" to="0" type="rotate" additive="sum" keyTimes="0;0.2666667;0.2833333;0.3;0.3166667;0.3333333;0.3416667;0.4083333;0.475;0.5166667;1" values="0;0;5;-5;2;-2;0;0;0;0;0" keySplines="0.333 0 0.667 1;0.333 0 0.667 1;0.333 0 0.667 1;0.333 0 0.667 1;0.333 0 0.667 1;0.333 0 0.667 1;0.333 0 0.667 1;0.333 0 0.667 1;0.333 0 0.667 1;0 0 0 0" calcMode="spline"/><animateTransform repeatCount="indefinite" dur="4.004004s" begin="0s" xlink:href="#_R_G_L_14_G" fill="freeze" attributeName="transform" from="-48.51 -64.045" to="-48.51 -64.045" type="translate" additive="sum" keyTimes="0;1" values="-48.51 -64.045;-48.51 -64.045" keySplines="0 0 1 1" calcMode="spline"/><animate repeatCount="indefinite" dur="4.004004s" begin="0s" xlink:href="#_R_G_L_13_G" fill="freeze" attributeName="opacity" from="0" to="1" keyTimes="0;0.2333333;0.2833333;0.5083333;1" values="0;0;1;1;1" keySplines="0.167 0.167 0.833 0.833;0.167 0.167 0.833 0.833;0.167 0.167 0.833 0.833;0 0 0 0" calcMode="spline"/><animateTransform repeatCount="indefinite" dur="4.004004s" begin="0s" xlink:href="#_R_G_L_13_G" fill="freeze" attributeName="transform" from="0 0" to="1 1" type="scale" additive="sum" keyTimes="0;0.2333333;0.2833333;1" values="0 0;0 0;1 1;1 1" keySplines="0.167 0.167 0.833 0.833;0.167 0.167 0.833 0.833;0 0 0 0" calcMode="spline"/><animateTransform repeatCount="indefinite" dur="4.004004s" begin="0s" xlink:href="#_R_G_L_13_G" fill="freeze" attributeName="transform" from="-82.76 -31.331" to="-82.76 -31.331" type="translate" additive="sum" keyTimes="0;1" values="-82.76 -31.331;-82.76 -31.331" keySplines="0 0 1 1" calcMode="spline"/><animate repeatCount="indefinite" dur="4.004004s" begin="0s" xlink:href="#_R_G_L_12_G" fill="freeze" attributeName="opacity" from="0" to="1" keyTimes="0;0.3;0.35;0.5083333;1" values="0;0;1;1;1" keySplines="0.333 0 0.667 1;0.333 0 0.667 1;0.333 0 0.667 1;0 0 0 0" calcMode="spline"/><animateTransform repeatCount="indefinite" dur="4.004004s" begin="0s" xlink:href="#_R_G_L_12_G" fill="freeze" attributeName="transform" from="0 0" to="1 1" type="scale" additive="sum" keyTimes="0;0.3;0.35;1" values="0 0;0 0;1 1;1 1" keySplines="0.333 0 0.667 1;0.333 0 0.667 1;0 0 0 0" calcMode="spline"/><animateTransform repeatCount="indefinite" dur="4.004004s" begin="0s" xlink:href="#_R_G_L_12_G" fill="freeze" attributeName="transform" from="-33.485 -25.549" to="-33.485 -25.549" type="translate" additive="sum" keyTimes="0;1" values="-33.485 -25.549;-33.485 -25.549" keySplines="0 0 1 1" calcMode="spline"/><animate repeatCount="indefinite" dur="4.004004s" begin="0s" xlink:href="#_R_G_L_12_G_M" fill="freeze" attributeName="opacity" from="1" to="0" keyTimes="0;0.9916667;0.9916667;1" values="1;1;0;0" keySplines="0 0 0 0;0 0 0 0;0 0 0 0" calcMode="spline"/><animate repeatCount="indefinite" dur="4.004004s" begin="0s" xlink:href="#_R_G_L_11_G" fill="freeze" attributeName="opacity" from="0" to="1" keyTimes="0;0.4416666;0.4916667;1" values="0;0;1;1" keySplines="0.333 0 0.667 1;0.333 0 0.667 1;0 0 0 0" calcMode="spline"/><animateTransform repeatCount="indefinite" dur="4.004004s" begin="0s" xlink:href="#_R_G_L_11_G" fill="freeze" attributeName="transform" from="0 0" to="1 1" type="scale" additive="sum" keyTimes="0;0.4416666;0.4916667;1" values="0 0;0 0;1 1;1 1" keySplines="0.333 0 0.667 1;0.333 0 0.667 1;0 0 0 0" calcMode="spline"/><animateTransform repeatCount="indefinite" dur="4.004004s" begin="0s" xlink:href="#_R_G_L_11_G" fill="freeze" attributeName="transform" from="-8.1 -8.101" to="-8.1 -8.101" type="translate" additive="sum" keyTimes="0;1" values="-8.1 -8.101;-8.1 -8.101" keySplines="0 0 1 1" calcMode="spline"/><animate repeatCount="indefinite" dur="4.004004s" begin="0s" xlink:href="#_R_G_L_11_G_M" fill="freeze" attributeName="opacity" from="0" to="0" keyTimes="0;0.4416667;0.4416675;0.9583333;0.9583333;1" values="0;0;1;1;0;0" keySplines="0 0 0 0;0 0 0 0;0 0 0 0;0 0 0 0;0 0 0 0" calcMode="spline"/><animate repeatCount="indefinite" dur="4.004004s" begin="0s" xlink:href="#_R_G_L_10_G" fill="freeze" attributeName="opacity" from="0" to="1" keyTimes="0;0.5583333;0.6083333;1" values="0;0;1;1" keySplines="0.333 0 0.667 1;0.333 0 0.667 1;0 0 0 0" calcMode="spline"/><animateTransform repeatCount="indefinite" dur="4.004004s" begin="0s" xlink:href="#_R_G_L_10_G" fill="freeze" attributeName="transform" from="0 0" to="1 1" type="scale" additive="sum" keyTimes="0;0.5583333;0.6083333;1" values="0 0;0 0;1 1;1 1" keySplines="0.333 0 0.667 1;0.333 0 0.667 1;0 0 0 0" calcMode="spline"/><animateTransform repeatCount="indefinite" dur="4.004004s" begin="0s" xlink:href="#_R_G_L_10_G" fill="freeze" attributeName="transform" from="-14.108 -14.107" to="-14.108 -14.107" type="translate" additive="sum" keyTimes="0;1" values="-14.108 -14.107;-14.108 -14.107" keySplines="0 0 1 1" calcMode="spline"/><animate repeatCount="indefinite" dur="4.004004s" begin="0s" xlink:href="#_R_G_L_10_G_M" fill="freeze" attributeName="opacity" from="0" to="1" keyTimes="0;0.5583333;0.5583342;1" values="0;0;1;1" keySplines="0 0 0 0;0 0 0 0;0 0 0 0" calcMode="spline"/><animate repeatCount="indefinite" dur="4.004004s" begin="0s" xlink:href="#_R_G_L_9_G" fill="freeze" attributeName="opacity" from="0" to="1" keyTimes="0;0.4916666;0.5416667;1" values="0;0;1;1" keySplines="0.333 0 0.667 1;0.333 0 0.667 1;0 0 0 0" calcMode="spline"/><animateTransform repeatCount="indefinite" dur="4.004004s" begin="0s" xlink:href="#_R_G_L_9_G" fill="freeze" attributeName="transform" from="0 0" to="1 1" type="scale" additive="sum" keyTimes="0;0.4916666;0.5416667;1" values="0 0;0 0;1 1;1 1" keySplines="0.333 0 0.667 1;0.333 0 0.667 1;0 0 0 0" calcMode="spline"/><animateTransform repeatCount="indefinite" dur="4.004004s" begin="0s" xlink:href="#_R_G_L_9_G" fill="freeze" attributeName="transform" from="-16.996 -16.996" to="-16.996 -16.996" type="translate" additive="sum" keyTimes="0;1" values="-16.996 -16.996;-16.996 -16.996" keySplines="0 0 1 1" calcMode="spline"/><animate repeatCount="indefinite" dur="4.004004s" begin="0s" xlink:href="#_R_G_L_9_G_M" fill="freeze" attributeName="opacity" from="0" to="1" keyTimes="0;0.4916667;0.4916675;1" values="0;0;1;1" keySplines="0 0 0 0;0 0 0 0;0 0 0 0" calcMode="spline"/><animate repeatCount="indefinite" dur="4.004004s" begin="0s" xlink:href="#_R_G_L_8_G" fill="freeze" attributeName="opacity" from="0" to="1" keyTimes="0;0.4333333;0.4833333;1" values="0;0;1;1" keySplines="0.333 0 0.667 1;0.333 0 0.667 1;0 0 0 0" calcMode="spline"/><animateTransform repeatCount="indefinite" dur="4.004004s" begin="0s" xlink:href="#_R_G_L_8_G" fill="freeze" attributeName="transform" from="0 0" to="1 1" type="scale" additive="sum" keyTimes="0;0.4333333;0.4833333;1" values="0 0;0 0;1 1;1 1" keySplines="0.333 0 0.667 1;0.333 0 0.667 1;0 0 0 0" calcMode="spline"/><animateTransform repeatCount="indefinite" dur="4.004004s" begin="0s" xlink:href="#_R_G_L_8_G" fill="freeze" attributeName="transform" from="-11.436 -11.437" to="-11.436 -11.437" type="translate" additive="sum" keyTimes="0;1" values="-11.436 -11.437;-11.436 -11.437" keySplines="0 0 1 1" calcMode="spline"/><animate repeatCount="indefinite" dur="4.004004s" begin="0s" xlink:href="#_R_G_L_8_G_M" fill="freeze" attributeName="opacity" from="0" to="1" keyTimes="0;0.4333333;0.4333342;1" values="0;0;1;1" keySplines="0 0 0 0;0 0 0 0;0 0 0 0" calcMode="spline"/><animate repeatCount="indefinite" dur="4.004004s" begin="0s" xlink:href="#_R_G_L_7_G" fill="freeze" attributeName="opacity" from="0" to="1" keyTimes="0;0.4333333;0.4833333;1" values="0;0;1;1" keySplines="0.333 0 0.667 1;0.333 0 0.667 1;0 0 0 0" calcMode="spline"/><animateTransform repeatCount="indefinite" dur="4.004004s" begin="0s" xlink:href="#_R_G_L_7_G" fill="freeze" attributeName="transform" from="0 0" to="1 1" type="scale" additive="sum" keyTimes="0;0.4333333;0.4833333;1" values="0 0;0 0;1 1;1 1" keySplines="0.333 0 0.667 1;0.333 0 0.667 1;0 0 0 0" calcMode="spline"/><animateTransform repeatCount="indefinite" dur="4.004004s" begin="0s" xlink:href="#_R_G_L_7_G" fill="freeze" attributeName="transform" from="-12.81 -12.81" to="-12.81 -12.81" type="translate" additive="sum" keyTimes="0;1" values="-12.81 -12.81;-12.81 -12.81" keySplines="0 0 1 1" calcMode="spline"/><animate repeatCount="indefinite" dur="4.004004s" begin="0s" xlink:href="#_R_G_L_7_G_M" fill="freeze" attributeName="opacity" from="0" to="1" keyTimes="0;0.4333333;0.4333342;1" values="0;0;1;1" keySplines="0 0 0 0;0 0 0 0;0 0 0 0" calcMode="spline"/><animateTransform repeatCount="indefinite" dur="4.004004s" begin="0s" xlink:href="#_R_G_L_6_G" fill="freeze" attributeName="transform" from="-5" to="-5" type="rotate" additive="sum" keyTimes="0;0.25;0.4166666;0.5166667;1" values="-5;7;7;-5;-5" keySplines="0.333 0 0.667 1;0.333 0 0.833 1;0.167 0 0.833 1;0 0 0 0" calcMode="spline"/><animateTransform repeatCount="indefinite" dur="4.004004s" begin="0s" xlink:href="#_R_G_L_6_G" fill="freeze" attributeName="transform" from="-49.012 -5.278" to="-49.012 -5.278" type="translate" additive="sum" keyTimes="0;1" values="-49.012 -5.278;-49.012 -5.278" keySplines="0 0 1 1" calcMode="spline"/><animateTransform repeatCount="indefinite" dur="4.004004s" begin="0s" xlink:href="#_R_G_L_6_G_N_8_T_0" fill="freeze" attributeName="transform" from="5" to="5" type="rotate" additive="sum" keyTimes="0;0.25;0.4166666;0.5166667;1" values="5;0;0;5;5" keySplines="0.333 0 0.667 1;0.333 0 0.667 1;0.333 0 0.667 1;0 0 0 0" calcMode="spline"/><animateTransform repeatCount="indefinite" dur="4.004004s" begin="0s" xlink:href="#_R_G_L_6_G_N_8_T_0" fill="freeze" attributeName="transform" from="-178.785 -161.321" to="-178.785 -161.321" type="translate" additive="sum" keyTimes="0;1" values="-178.785 -161.321;-178.785 -161.321" keySplines="0 0 1 1" calcMode="spline"/><animateTransform repeatCount="indefinite" dur="4.004004s" begin="0s" xlink:href="#_R_G_L_4_G" fill="freeze" attributeName="transform" from="0" to="0" type="rotate" additive="sum" keyTimes="0;0.225;0.4166666;0.5166667;1" values="0;-12;-12;0;0" keySplines="0.333 0 0.667 1;0.333 0 0.833 1;0.167 0 0.833 1;0 0 0 0" calcMode="spline"/><animateTransform repeatCount="indefinite" dur="4.004004s" begin="0s" xlink:href="#_R_G_L_4_G" fill="freeze" attributeName="transform" from="-37.217 -60.656" to="-37.217 -60.656" type="translate" additive="sum" keyTimes="0;1" values="-37.217 -60.656;-37.217 -60.656" keySplines="0 0 1 1" calcMode="spline"/><animateTransform repeatCount="indefinite" dur="4.004004s" begin="0s" xlink:href="#_R_G_L_4_G_N_8_T_0" fill="freeze" attributeName="transform" from="5" to="5" type="rotate" additive="sum" keyTimes="0;0.25;0.4166666;0.5166667;1" values="5;0;0;5;5" keySplines="0.333 0 0.667 1;0.333 0 0.667 1;0.333 0 0.667 1;0 0 0 0" calcMode="spline"/><animateTransform repeatCount="indefinite" dur="4.004004s" begin="0s" xlink:href="#_R_G_L_4_G_N_8_T_0" fill="freeze" attributeName="transform" from="-178.785 -161.321" to="-178.785 -161.321" type="translate" additive="sum" keyTimes="0;1" values="-178.785 -161.321;-178.785 -161.321" keySplines="0 0 1 1" calcMode="spline"/><animateTransform repeatCount="indefinite" dur="4.004004s" begin="0s" xlink:href="#_R_G_L_3_G" fill="freeze" attributeName="transform" from="5" to="5" type="rotate" additive="sum" keyTimes="0;0.25;0.4166666;0.5166667;1" values="5;0;0;5;5" keySplines="0.333 0 0.667 1;0.333 0 0.667 1;0.333 0 0.667 1;0 0 0 0" calcMode="spline"/><animateTransform repeatCount="indefinite" dur="4.004004s" begin="0s" xlink:href="#_R_G_L_3_G" fill="freeze" attributeName="transform" from="-178.785 -161.321" to="-178.785 -161.321" type="translate" additive="sum" keyTimes="0;1" values="-178.785 -161.321;-178.785 -161.321" keySplines="0 0 1 1" calcMode="spline"/><animateTransform repeatCount="indefinite" dur="4.004004s" begin="0s" xlink:href="#_R_G_L_2_G_N_10_T_0" fill="freeze" attributeName="transform" from="0" to="0" type="rotate" additive="sum" keyTimes="0;0.225;0.4166666;0.5166667;1" values="0;-12;-12;0;0" keySplines="0.333 0 0.667 1;0.333 0 0.833 1;0.167 0 0.833 1;0 0 0 0" calcMode="spline"/><animateTransform repeatCount="indefinite" dur="4.004004s" begin="0s" xlink:href="#_R_G_L_2_G_N_10_T_0" fill="freeze" attributeName="transform" from="-37.217 -60.656" to="-37.217 -60.656" type="translate" additive="sum" keyTimes="0;1" values="-37.217 -60.656;-37.217 -60.656" keySplines="0 0 1 1" calcMode="spline"/><animateTransform repeatCount="indefinite" dur="4.004004s" begin="0s" xlink:href="#_R_G_L_2_G_N_10_N_8_T_0" fill="freeze" attributeName="transform" from="5" to="5" type="rotate" additive="sum" keyTimes="0;0.25;0.4166666;0.5166667;1" values="5;0;0;5;5" keySplines="0.333 0 0.667 1;0.333 0 0.667 1;0.333 0 0.667 1;0 0 0 0" calcMode="spline"/><animateTransform repeatCount="indefinite" dur="4.004004s" begin="0s" xlink:href="#_R_G_L_2_G_N_10_N_8_T_0" fill="freeze" attributeName="transform" from="-178.785 -161.321" to="-178.785 -161.321" type="translate" additive="sum" keyTimes="0;1" values="-178.785 -161.321;-178.785 -161.321" keySplines="0 0 1 1" calcMode="spline"/><animateMotion repeatCount="indefinite" dur="4.004004s" begin="0s" xlink:href="#_R_G_L_1_G" fill="freeze" keyTimes="0;0.1833333;0.225;0.4166666;0.5166667;1" path="M148.2 355.72 C148.2,355.72 148.2,355.72 148.2,355.72 C148.2,356.1 148.2,357.31 148.2,358.18 C148.2,358.54 148.2,357.31 148.2,358.18 C148.2,358.54 148.2,355.17 148.2,355.72 C148.2,355.72 148.2,355.72 148.2,355.72 " keyPoints="0;0;0.42;0.55;1;1" keySplines="0.333 0 0.667 1;0.333 0 0.667 1;0.167 0 0.667 1;0.167 0 0.833 1;0 0 0 0" calcMode="spline"/><animateTransform repeatCount="indefinite" dur="4.004004s" begin="0s" xlink:href="#_R_G_L_1_G" fill="freeze" attributeName="transform" from="-13.542 -3.808" to="-13.542 -3.808" type="translate" additive="sum" keyTimes="0;1" values="-13.542 -3.808;-13.542 -3.808" keySplines="0 0 1 1" calcMode="spline"/><animate attributeType="XML" attributeName="opacity" dur="4s" from="0" to="1" xlink:href="#time_group"/></defs><g id="_R_G"><g id="_R_G_L_16_G_M"><g id="_R_G_L_16_G" transform=" translate(103.362, 276.827) translate(-70.029, -91.811)"><path id="_R_G_L_16_G_D_0_P_0" fill="#cbe0c6" fill-opacity="1" fill-rule="nonzero" d=" M139.81 164.04 C139.81,164.04 139.71,183.15 139.71,183.15 C139.71,183.15 8.97,183.37 8.97,183.37 C8.97,183.37 0.25,177.04 4.19,171.03 C7.73,165.64 16.06,164.3 25.11,167.3 C24.56,165.3 24.26,163.2 24.26,161.02 C24.26,148.3 34.43,137.99 46.97,137.99 C53.06,137.99 58.59,140.43 62.67,144.38 C62.67,144.38 69.01,0.25 69.01,0.25 C69.01,0.25 89.94,0.25 89.94,0.25 C89.94,0.25 103.99,150.62 103.99,150.62 C106.39,147.05 110.47,144.71 115.09,144.71 C121.58,144.71 126.99,149.32 128.22,155.44 C129.15,155.07 130.17,154.86 131.23,154.86 C135.51,154.86 139.07,158.23 139.7,162.62 C139.77,163.08 139.81,163.56 139.81,164.04z "/></g></g><g id="_R_G_L_15_G" transform=" translate(112, 367.133)"><path id="_R_G_L_15_G_D_0_P_0" fill="#cbe0c6" fill-opacity="1" fill-rule="nonzero" d=" M46.25 183.99 C30.92,183.65 15.58,183.32 0.25,182.99 C3.03,122.07 5.81,61.16 8.59,0.25 C8.59,0.25 29.52,0.25 29.52,0.25 C35.1,61.5 40.67,122.74 46.25,183.99z "/></g><g id="_R_G_L_14_G"><path id="_R_G_L_14_G_D_0_P_0" fill="#faab00" fill-opacity="1" fill-rule="nonzero" d=" M23.92 80.17 C23.92,80.17 0.25,96.47 0.25,116.98 C0.25,116.98 32.2,116.98 32.2,116.98 C32.2,116.98 23.92,80.17 23.92,80.17z "/><path id="_R_G_L_14_G_D_1_P_0" fill="#faab00" fill-opacity="1" fill-rule="nonzero" d=" M64.82 116.98 C64.82,116.98 73.1,80.17 73.1,80.17 C73.1,80.17 96.77,96.47 96.77,116.98 C96.77,116.98 64.82,116.98 64.82,116.98z "/><path id="_R_G_L_14_G_D_2_P_0" fill="#faab00" fill-opacity="1" fill-rule="nonzero" d=" M64.21 127.84 C64.21,127.84 32.81,127.84 32.81,127.84 C32.81,127.84 32.81,121.46 32.81,121.46 C32.81,121.46 64.21,121.46 64.21,121.46 C64.21,121.46 64.21,127.84 64.21,127.84z "/><path id="_R_G_L_14_G_D_3_P_0" fill="#70a665" fill-opacity="1" fill-rule="nonzero" d=" M65.25 123.51 C65.25,123.51 31.77,123.51 31.77,123.51 C27.43,123.51 23.92,119.99 23.92,115.66 C23.92,115.66 23.92,41.31 23.92,41.31 C23.92,36.08 25.42,30.96 28.25,26.57 C28.25,26.57 42.2,4.84 42.2,4.84 C45.15,0.25 51.87,0.25 54.82,4.84 C54.82,4.84 68.77,26.57 68.77,26.57 C71.6,30.96 73.1,36.08 73.1,41.31 C73.1,41.31 73.1,115.66 73.1,115.66 C73.1,119.99 69.59,123.51 65.25,123.51z "/><path id="_R_G_L_14_G_D_4_P_0" fill="#e4efe2" fill-opacity="1" fill-rule="nonzero" d=" M72.84 111.38 C72.84,111.38 24.18,111.38 24.18,111.38 C23.79,111.38 23.47,111.06 23.47,110.66 C23.47,110.27 23.79,109.95 24.18,109.95 C24.18,109.95 72.84,109.95 72.84,109.95 C73.24,109.95 73.56,110.27 73.56,110.66 C73.56,111.06 73.24,111.38 72.84,111.38z "/><path id="_R_G_L_14_G_D_5_P_0" fill="#e4efe2" fill-opacity="1" fill-rule="nonzero" d=" M72.84 38.26 C72.84,38.26 24.18,38.26 24.18,38.26 C23.79,38.26 23.47,37.94 23.47,37.55 C23.47,37.15 23.79,36.83 24.18,36.83 C24.18,36.83 72.84,36.83 72.84,36.83 C73.24,36.83 73.56,37.15 73.56,37.55 C73.56,37.94 73.24,38.26 72.84,38.26z "/><path id="_R_G_L_14_G_D_6_P_0" fill="#faab00" fill-opacity="1" fill-rule="nonzero" d=" M46.15 82.62 C43.68,90.91 40.15,104.85 40.15,116.98 C40.15,116.98 56.88,116.98 56.88,116.98 C56.88,116.98 56.83,100.27 51.13,82.53 C50.11,79.34 47.12,79.39 46.15,82.62z "/><path id="_R_G_L_14_G_D_7_P_0" fill="#faab00" fill-opacity="1" fill-rule="nonzero" d=" M57.58 37.55 C57.58,42.56 53.52,46.62 48.51,46.62 C43.5,46.62 39.44,42.56 39.44,37.55 C39.44,32.54 43.5,28.48 48.51,28.48 C53.52,28.48 57.58,32.54 57.58,37.55z "/><path id="_R_G_L_14_G_D_8_P_0" fill="#e4efe2" fill-opacity="1" fill-rule="nonzero" d=" M35.98 49.71 C35.98,49.71 23.92,49.71 23.92,49.71 C23.92,49.71 23.92,51.14 23.92,51.14 C23.92,51.14 35.98,51.14 35.98,51.14 C38.6,51.14 40.73,53.27 40.73,55.89 C40.73,55.89 40.73,86.3 40.73,86.3 C40.73,88.92 38.6,91.05 35.98,91.05 C35.98,91.05 23.92,91.05 23.92,91.05 C23.92,91.05 23.92,92.48 23.92,92.48 C23.92,92.48 35.98,92.48 35.98,92.48 C39.38,92.48 42.16,89.71 42.16,86.3 C42.16,86.3 42.16,55.89 42.16,55.89 C42.16,52.48 39.38,49.71 35.98,49.71z "/><path id="_R_G_L_14_G_D_9_P_0" fill="#e4efe2" fill-opacity="1" fill-rule="nonzero" d=" M66.41 78 C66.41,78 73.1,78 73.1,78 C73.1,78 73.1,76.57 73.1,76.57 C73.1,76.57 66.41,76.57 66.41,76.57 C62.29,76.57 58.94,79.92 58.94,84.04 C58.94,84.04 58.94,94.08 58.94,94.08 C58.94,98.2 62.29,101.55 66.41,101.55 C66.41,101.55 73.1,101.55 73.1,101.55 C73.1,101.55 73.1,100.12 73.1,100.12 C73.1,100.12 66.41,100.12 66.41,100.12 C63.08,100.12 60.37,97.41 60.37,94.08 C60.37,94.08 60.37,84.04 60.37,84.04 C60.37,80.71 63.08,78 66.41,78z "/></g><g id="_R_G_L_13_G" transform=" translate(117.349, 353.081)"><path id="_R_G_L_13_G_D_0_P_0" fill="#cbe0c6" fill-opacity="1" fill-rule="nonzero" d=" M15.85 46.23 C38.03,46.29 60.22,46.35 82.4,46.41 C82.4,46.41 91.27,39.97 87.26,33.86 C83.67,28.37 75.18,27.01 65.98,30.06 C66.55,28.03 66.85,25.89 66.85,23.67 C66.85,10.74 56.5,0.25 43.74,0.25 C42.36,0.25 40.28,0.29 37.85,1.02 C27.81,4.05 23.75,14.65 23,16.75 C10.61,14.18 0.61,22.79 0.41,30.8 C0.25,37.29 6.51,44.54 15.85,46.23z "/></g><g id="_R_G_L_12_G_M"><g id="_R_G_L_12_G" transform=" translate(132.49, 346.796)"><path id="_R_G_L_12_G_D_0_P_0" fill="#cbe0c6" fill-opacity="1" fill-rule="nonzero" d=" M48 44.75 C27.12,50.85 8.52,42.89 3.99,30.75 C0.25,20.71 4.91,4.52 13.99,1.12 C16.3,0.25 18.44,0.4 19.9,0.48 C30.38,1.08 36.8,10.43 38.03,12.29 C48.72,7.68 60.12,12.75 63.27,20.66 C66.72,29.31 60.61,42.06 48,44.75z "/></g></g><g id="_R_G_L_11_G_M"><g id="_R_G_L_11_G" transform=" translate(133.217, 279.466)"><path id="_R_G_L_11_G_D_0_P_0" fill="#70a665" fill-opacity="1" fill-rule="nonzero" d=" M0.25 8.1 C0.25,3.76 3.76,0.25 8.1,0.25 C12.43,0.25 15.95,3.76 15.95,8.1 C15.95,12.43 12.43,15.95 8.1,15.95 C3.76,15.95 0.25,12.43 0.25,8.1z "/></g></g><g id="_R_G_L_10_G_M"><g id="_R_G_L_10_G" transform=" translate(158.03, 198.108)"><path id="_R_G_L_10_G_D_0_P_0" fill="#cbe0c6" fill-opacity="1" fill-rule="nonzero" d=" M0.25 14.11 C0.25,6.45 6.45,0.25 14.11,0.25 C21.76,0.25 27.96,6.45 27.96,14.11 C27.96,21.76 21.76,27.96 14.11,27.96 C6.45,27.96 0.25,21.76 0.25,14.11z "/></g></g><g id="_R_G_L_9_G_M"><g id="_R_G_L_9_G" transform=" translate(93.217, 239.466)"><path id="_R_G_L_9_G_D_0_P_0" fill="#70a665" fill-opacity="1" fill-rule="nonzero" d=" M0.25 17 C0.25,7.75 7.75,0.25 17,0.25 C26.24,0.25 33.74,7.75 33.74,17 C33.74,26.24 26.24,33.74 17,33.74 C7.75,33.74 0.25,26.24 0.25,17z "/></g></g><g id="_R_G_L_8_G_M"><g id="_R_G_L_8_G" transform=" translate(140.316, 315.611)"><path id="_R_G_L_8_G_D_0_P_0" fill="#70a665" fill-opacity="1" fill-rule="nonzero" d=" M0.25 11.44 C0.25,5.26 5.26,0.25 11.44,0.25 C17.61,0.25 22.62,5.26 22.62,11.44 C22.62,17.61 17.61,22.62 11.44,22.62 C5.26,22.62 0.25,17.61 0.25,11.44z "/></g></g><g id="_R_G_L_7_G_M"><g id="_R_G_L_7_G" transform=" translate(58.64, 307.249)"><path id="_R_G_L_7_G_D_0_P_0" fill="#cbe0c6" fill-opacity="1" fill-rule="nonzero" d=" M0.25 12.81 C0.25,5.87 5.87,0.25 12.81,0.25 C19.75,0.25 25.37,5.87 25.37,12.81 C25.37,19.75 19.75,25.37 12.81,25.37 C5.87,25.37 0.25,19.75 0.25,12.81z "/></g></g><g id="_R_G_L_6_G_N_8_T_0" transform=" translate(358.772, 312.015)"><g id="_R_G_L_6_G" transform=" translate(16.179, 152.501)"><path id="_R_G_L_6_G_D_0_P_0" fill="#ff9a7d" fill-opacity="1" fill-rule="nonzero" d=" M22.57 40.72 C22.57,40.72 28.55,51.9 28.55,51.9 C29.35,53.41 31.03,54.24 32.72,53.95 C32.72,53.95 45.86,51.71 45.86,51.71 C46.81,51.55 47.63,50.98 48.12,50.15 C48.12,50.15 51.3,44.75 51.3,44.75 C52.12,43.36 52.1,41.63 51.24,40.26 C51.24,40.26 48,34.99 48,34.99 C48,34.99 22.57,40.72 22.57,40.72z "/><path id="_R_G_L_6_G_D_1_P_0" fill="#ff9a7d" fill-opacity="1" fill-rule="nonzero" d=" M53.46 8.95 C53.46,8.95 45.44,0.25 45.44,0.25 C45.44,0.25 42.72,4.55 42.72,4.55 C42.72,4.55 39.08,3.1 39.08,3.1 C39.08,3.1 33.49,20.58 23.8,32.04 C14.4,43.15 4.62,53.97 1.02,57.92 C0.25,58.76 0.36,60.09 1.27,60.8 C3.17,62.28 5.82,62.31 7.75,60.87 C12.17,57.58 20.19,51.01 27.25,42.11 C27.31,42.03 27.37,41.96 27.43,41.88 C31.34,43.87 36.65,45.37 43.61,40.13 C55.77,30.97 53.46,8.95 53.46,8.95z "/><path id="_R_G_L_6_G_D_2_P_0" fill="#041126" fill-opacity="1" fill-rule="nonzero" d=" M34.62 14.28 C34.62,14.28 52.66,23.7 52.66,23.7 C53.55,19.19 53.68,14.95 53.63,12.18 C53.63,12.18 38.38,5.14 38.38,5.14 C37.65,7.14 36.38,10.45 34.62,14.28z "/><path id="_R_G_L_6_G_D_3_P_0" fill="#041126" fill-opacity="1" fill-rule="nonzero" d=" M37.5 53.65 C37.48,53.65 37.46,53.65 37.43,53.64 C37.35,53.62 36.62,53.4 35.49,51.78 C34.01,49.65 32.53,46.16 31.09,41.43 C31.05,41.28 31.13,41.12 31.28,41.07 C31.43,41.03 31.59,41.11 31.64,41.26 C34.94,52.16 37.55,53.08 37.58,53.09 C37.73,53.13 37.82,53.28 37.78,53.44 C37.75,53.57 37.63,53.65 37.5,53.65z "/><path id="_R_G_L_6_G_D_4_P_0" fill="#041126" fill-opacity="1" fill-rule="nonzero" d=" M44.45 52.48 C44.41,52.48 44.37,52.47 44.33,52.45 C44.23,52.41 41.72,51.22 38.28,40.89 C38.23,40.74 38.31,40.58 38.46,40.53 C38.61,40.48 38.77,40.56 38.82,40.71 C42.14,50.66 44.54,51.92 44.56,51.93 C44.71,51.99 44.77,52.16 44.71,52.3 C44.66,52.41 44.56,52.48 44.45,52.48z "/><path id="_R_G_L_6_G_D_5_P_0" fill="#041126" fill-opacity="1" fill-rule="nonzero" d=" M45.24 39.5 C45.17,39.5 45.11,39.48 45.05,39.44 C44.93,39.33 44.92,39.15 45.02,39.03 C45.02,39.03 48.36,35.07 48.36,35.07 C48.46,34.95 48.64,34.93 48.76,35.04 C48.89,35.14 48.9,35.32 48.8,35.44 C48.8,35.44 45.46,39.4 45.46,39.4 C45.4,39.47 45.32,39.5 45.24,39.5z "/><path id="_R_G_L_6_G_D_6_P_0" fill="#041126" fill-opacity="1" fill-rule="nonzero" d=" M47.49 45.47 C47.38,45.47 47.27,45.4 47.22,45.29 C47.22,45.29 44.57,38.72 44.57,38.72 C44.51,38.57 44.58,38.41 44.72,38.35 C44.87,38.29 45.04,38.36 45.1,38.51 C45.1,38.51 47.75,45.07 47.75,45.07 C47.81,45.22 47.74,45.39 47.6,45.44 C47.56,45.46 47.52,45.47 47.49,45.47z "/><path id="_R_G_L_6_G_D_7_P_0" fill="#041126" fill-opacity="1" fill-rule="nonzero" d=" M46.16 42.18 C46.12,42.18 46.07,42.17 46.03,42.15 C45.89,42.08 45.83,41.91 45.9,41.77 C46.16,41.24 46.76,40.81 47.54,40.62 C48.33,40.42 49.12,40.51 49.59,40.85 C49.72,40.94 49.75,41.12 49.66,41.25 C49.56,41.38 49.38,41.41 49.26,41.32 C48.92,41.07 48.3,41.02 47.68,41.17 C47.07,41.32 46.6,41.64 46.42,42.02 C46.37,42.12 46.26,42.18 46.16,42.18z "/><path id="_R_G_L_6_G_D_8_P_0" fill="#041126" fill-opacity="1" fill-rule="nonzero" d=" M24.86 45.87 C24.74,45.87 24.63,45.8 24.59,45.69 C24.52,45.5 22.82,41 24.6,37.12 C24.66,36.97 24.83,36.91 24.98,36.97 C25.12,37.04 25.18,37.21 25.12,37.35 C23.44,41.02 25.11,45.44 25.12,45.48 C25.18,45.63 25.11,45.8 24.96,45.85 C24.93,45.87 24.89,45.87 24.86,45.87z "/></g></g><g id="_R_G_L_5_G" transform=" translate(326.655, 295.69) translate(-62.7, -76.672)"><path id="_R_G_L_5_G_D_0_P_0" fill="#041126" fill-opacity="1" fill-rule="nonzero" d=" M17.15 21.15 C17.15,21.15 4.15,74.59 0.25,150.08 C0.25,150.08 61.66,149.21 61.66,149.21 C61.66,149.21 63.37,135.62 63.37,135.62 C63.37,135.62 69.13,149.64 69.13,149.64 C69.13,149.64 125.15,149.64 125.15,149.64 C125.15,149.64 123.25,141.65 119.69,129.3 C116.57,118.49 111.9,102.37 104.23,82.8 C97.53,65.71 91.58,50.54 80.05,32.25 C73.77,22.3 67.78,14.51 63.43,9.19 C62.31,8.25 52.53,0.25 40.05,3.25 C32.24,5.13 27.63,10.3 26.05,12.25 C23.08,15.22 20.12,18.19 17.15,21.15z "/><path id="_R_G_L_5_G_D_1_P_0" fill="#ffffff" fill-opacity="1" fill-rule="nonzero" d=" M63.57 136.93 C63.56,136.93 63.55,136.93 63.54,136.93 C63.36,136.92 63.22,136.76 63.23,136.57 C63.23,136.57 67.77,75.13 67.77,75.13 C67.77,75.1 67.78,75.07 67.79,75.04 C69.71,69.84 72.85,65.93 75.15,63.56 C77.64,60.99 79.65,59.67 79.74,59.61 C79.89,59.51 80.1,59.55 80.2,59.71 C80.3,59.86 80.26,60.07 80.1,60.17 C80.08,60.18 78.06,61.52 75.61,64.04 C73.37,66.35 70.31,70.17 68.43,75.23 C68.43,75.23 63.9,136.62 63.9,136.62 C63.89,136.8 63.74,136.93 63.57,136.93z "/><path id="_R_G_L_5_G_D_2_P_0" fill="#ffffff" fill-opacity="1" fill-rule="nonzero" d=" M75.64 51.04 C75.51,51.04 75.38,50.96 75.33,50.82 C73.14,44.62 68.15,34.07 56.81,19.06 C50.01,10.07 44.08,3.67 44.02,3.61 C43.9,3.47 43.9,3.26 44.04,3.13 C44.17,3.01 44.38,3.02 44.51,3.15 C44.57,3.22 50.52,9.64 57.33,18.65 C63.63,26.97 71.97,39.27 75.96,50.6 C76.02,50.77 75.93,50.96 75.75,51.03 C75.72,51.04 75.68,51.04 75.64,51.04z "/><path id="_R_G_L_5_G_D_3_P_0" fill="#ffffff" fill-opacity="1" fill-rule="nonzero" d=" M22.83 55.76 C22.82,55.76 22.81,55.76 22.79,55.75 C18.67,55.25 15.86,52.75 14.22,50.75 C12.45,48.58 11.66,46.57 11.63,46.48 C11.56,46.31 11.65,46.12 11.82,46.05 C11.99,45.99 12.19,46.07 12.25,46.24 C12.26,46.26 13.04,48.26 14.75,50.34 C16.31,52.24 18.98,54.61 22.87,55.09 C23.06,55.12 23.19,55.28 23.17,55.46 C23.14,55.63 23,55.76 22.83,55.76z "/><path id="_R_G_L_5_G_D_4_P_0" fill="#ffffff" fill-opacity="1" fill-rule="nonzero" d=" M20.01 153.36 C20.01,153.36 20,153.36 20,153.36 C19.81,153.36 19.67,153.2 19.67,153.02 C19.67,153.02 23.59,15.79 23.59,15.79 C23.6,15.6 23.75,15.46 23.93,15.46 C24.12,15.47 24.26,15.62 24.26,15.81 C24.26,15.81 20.34,153.04 20.34,153.04 C20.34,153.22 20.19,153.36 20.01,153.36z "/></g><g id="_R_G_L_4_G_N_8_T_0" transform=" translate(358.772, 312.015)"><g id="_R_G_L_4_G" transform=" translate(70.197, 13.106)"><path id="_R_G_L_4_G_D_0_P_0" fill="#ff9a7d" fill-opacity="1" fill-rule="nonzero" d=" M17.12 41.57 C17.12,41.57 29.69,58.6 29.69,58.6 C29.69,58.6 38.23,52.78 38.23,52.78 C38.23,52.78 28.37,30.48 28.37,30.48 C28.37,30.48 17.12,41.57 17.12,41.57z "/><path id="_R_G_L_4_G_D_1_P_0" fill="#041126" fill-opacity="1" fill-rule="nonzero" d=" M25.82 37.7 C25.82,37.7 23.77,44.06 21.25,47.18 C21.25,47.18 16.56,40.8 16.56,40.8 C16.56,40.8 25.82,37.7 25.82,37.7z "/><path id="_R_G_L_4_G_D_2_P_0" fill="#ff9a7d" fill-opacity="1" fill-rule="nonzero" d=" M33.52 9.35 C33.52,9.35 18.61,0.25 9.43,11.9 C0.25,23.54 1.66,39.76 6.05,41.9 C10.89,44.26 21.17,44.54 26.78,39.29 C32.38,34.04 33.52,9.35 33.52,9.35z "/><path id="_R_G_L_4_G_D_3_P_0" fill="#041126" fill-opacity="1" fill-rule="nonzero" d=" M8.31 16.31 C8.31,16.31 10.91,15.43 13.38,17.32 C13.38,17.32 10.38,13.58 8.31,16.31z "/><path id="_R_G_L_4_G_D_4_P_0" fill="#041126" fill-opacity="1" fill-rule="nonzero" d=" M4.14 34.27 C4.04,34.27 3.95,34.18 3.95,34.08 C3.95,33.97 4.04,33.89 4.14,33.89 C6.88,33.89 9.27,32.36 9.29,32.35 C9.38,32.29 9.5,32.32 9.56,32.4 C9.62,32.49 9.59,32.61 9.5,32.67 C9.4,32.73 6.99,34.27 4.14,34.27z "/><path id="_R_G_L_4_G_D_5_P_0" fill="#ff9a7d" fill-opacity="1" fill-rule="nonzero" d=" M4.14 24.01 C4.14,24.01 0.78,23.99 0.78,23.99 C0.78,23.99 2.95,27.94 2.95,27.94 C2.95,27.94 4.14,24.01 4.14,24.01z "/><path id="_R_G_L_4_G_D_6_P_0" fill="#dceaef" fill-opacity="1" fill-rule="nonzero" d=" M33.98 50.43 C33.98,50.43 26.73,57.08 26.73,57.08 C26.73,57.08 22.36,67.06 22.36,67.06 C22.36,67.06 40.18,55.48 40.18,55.48 C40.18,55.48 33.98,50.43 33.98,50.43z "/><path id="_R_G_L_4_G_D_7_P_0" fill="#ffffff" fill-opacity="1" fill-rule="nonzero" d=" M5.5 23.69 C5.5,23.69 9.47,16.01 15.21,21.75 C15.21,21.75 10.19,29.76 5.5,23.69z "/><path id="_R_G_L_4_G_D_8_P_0" fill="#041126" fill-opacity="1" fill-rule="nonzero" d=" M5.5 23.69 C7.02,25.66 8.58,26.15 9.99,25.9 C11.5,25.32 12.56,23.85 12.56,22.14 C12.56,21.22 12.26,20.37 11.74,19.69 C7.93,18.98 5.5,23.69 5.5,23.69z "/></g></g><g id="_R_G_L_3_G" transform=" translate(358.772, 312.015)"><path id="_R_G_L_3_G_D_0_P_0" fill="#041126" fill-opacity="1" fill-rule="nonzero" d=" M142.21 73.87 C141.48,77.01 140.75,80.16 140.01,83.31 C143.68,87.64 147.35,91.97 151.01,96.31 C153.12,92.19 155.23,88.08 157.33,83.96 C157.33,83.96 142.21,73.87 142.21,73.87z "/><path id="_R_G_L_3_G_D_1_P_0" fill="#70a665" fill-opacity="1" fill-rule="nonzero" d=" M76.99 4.44 C76.99,4.44 45.78,20.61 38.63,38.11 C31.97,54.39 0.25,155.21 0.25,155.21 C0.25,155.21 21.52,166.39 21.52,166.39 C21.52,166.39 67.92,75.26 67.92,75.26 C72.55,80.68 76.84,84.12 80.01,86.31 C82.95,88.33 85.58,89.73 90.01,93.31 C94.04,96.56 93.8,96.96 95.01,97.31 C100.04,98.73 103.14,91.49 115.01,84.31 C122.54,79.75 126.32,77.55 132.01,76.31 C135.98,75.44 138.92,75.45 140.01,73.31 C140.63,72.1 140.46,70.59 137.01,63.31 C134.54,58.1 133.38,56.25 132.01,53.31 C130.75,50.59 129.13,46.56 127.92,41.25 C135.11,40.78 142.31,40.3 149.5,39.83 C149.5,39.83 140.84,75.48 140.84,75.48 C140.84,75.48 157.77,94.95 157.77,94.95 C157.77,94.95 178.64,44.8 178.64,44.8 C183.32,33.56 177.91,20.67 166.61,16.13 C148.67,8.93 120,0.25 86,0.25 C86,0.25 76.99,4.44 76.99,4.44z "/><path id="_R_G_L_3_G_D_2_P_0" fill="#041126" fill-opacity="1" fill-rule="nonzero" d=" M66.68 49.47 C66.58,49.47 66.48,49.42 66.41,49.34 C66.39,49.3 63.7,45.69 59.4,42.32 C56.88,40.34 54.31,38.84 51.76,37.84 C48.59,36.6 45.44,36.15 42.4,36.49 C42.21,36.52 42.05,36.39 42.03,36.2 C42.01,36.02 42.14,35.85 42.32,35.83 C45.47,35.47 48.74,35.94 52.02,37.22 C54.63,38.25 57.26,39.79 59.83,41.8 C64.19,45.23 66.92,48.9 66.95,48.94 C67.06,49.09 67.03,49.3 66.88,49.41 C66.82,49.45 66.75,49.47 66.68,49.47z "/><path id="_R_G_L_3_G_D_3_P_0" fill="#041126" fill-opacity="1" fill-rule="nonzero" d=" M128.6 42.9 C128.48,42.9 128.37,42.84 128.31,42.73 C125.18,37.41 119.7,30.69 115.66,25.99 C111.27,20.89 107.58,17.01 107.54,16.97 C107.41,16.84 107.42,16.63 107.55,16.5 C107.69,16.37 107.9,16.38 108.03,16.51 C108.06,16.55 111.77,20.44 116.16,25.55 C120.23,30.27 125.73,37.02 128.88,42.4 C128.98,42.56 128.92,42.76 128.76,42.85 C128.71,42.89 128.65,42.9 128.6,42.9z "/><path id="_R_G_L_3_G_D_4_P_0" fill="#041126" fill-opacity="1" fill-rule="nonzero" d=" M148.46 40.4 C148.34,40.4 148.23,40.31 148.22,40.18 C148.21,40.05 148.31,39.94 148.44,39.93 C148.44,39.93 162.5,38.81 162.5,38.81 C162.63,38.8 162.74,38.9 162.75,39.03 C162.76,39.16 162.67,39.27 162.53,39.28 C162.53,39.28 148.48,40.4 148.48,40.4 C148.47,40.4 148.47,40.4 148.46,40.4z "/><path id="_R_G_L_3_G_D_5_P_0" fill="#041126" fill-opacity="1" fill-rule="nonzero" d=" M67.83 76.25 C67.78,76.25 67.73,76.24 67.69,76.22 C67.52,76.14 67.45,75.94 67.53,75.77 C67.53,75.77 70.11,70.38 70.11,70.38 C70.19,70.22 70.39,70.15 70.55,70.23 C70.72,70.31 70.79,70.51 70.71,70.67 C70.71,70.67 68.13,76.06 68.13,76.06 C68.07,76.18 67.95,76.25 67.83,76.25z "/></g><g id="_R_G_L_2_G_N_10_N_8_T_0" transform=" translate(358.772, 312.015)"><g id="_R_G_L_2_G_N_10_T_0" transform=" translate(70.197, 13.106)"><g id="_R_G_L_2_G" transform=" translate(35.669, 32.694) translate(-27.154, -27.534)"><path id="_R_G_L_2_G_D_0_P_0" fill="#041126" fill-opacity="1" fill-rule="nonzero" d=" M11.85 0.66 C16.88,0.25 23.41,0.66 29.59,5.78 C38.73,13.34 36.21,23.64 37.27,29.64 C39.76,43.62 54.06,42.87 54.06,42.87 C54.06,42.87 47.62,43.87 42.33,49.16 C37.04,54.45 25.91,54.82 22.04,43.03 C18.22,31.41 18.19,20.36 18.19,20.36 C9.88,17.48 8.92,5.46 8.92,5.46 C8.92,5.46 5.12,5.49 0.25,7.91 C0.25,7.91 3.48,1.34 11.85,0.66z "/><path id="_R_G_L_2_G_D_1_P_0" fill="#ff9a7d" fill-opacity="1" fill-rule="nonzero" d=" M18.79 17.97 C18.79,17.97 22.6,12.42 25.79,17.8 C29.27,23.68 20.7,26.46 18.26,24.74 C15.82,23.03 18.79,17.97 18.79,17.97z "/><path id="_R_G_L_2_G_D_2_P_0" fill="#041126" fill-opacity="1" fill-rule="nonzero" d=" M18.11 22.62 C18.09,22.62 18.06,22.62 18.04,22.61 C17.94,22.57 17.9,22.45 17.94,22.36 C19.7,18.18 24.28,18.06 24.33,18.05 C24.33,18.05 24.33,18.05 24.33,18.05 C24.44,18.05 24.52,18.14 24.52,18.24 C24.53,18.35 24.44,18.43 24.34,18.44 C24.29,18.44 19.95,18.56 18.29,22.51 C18.26,22.58 18.19,22.62 18.11,22.62z "/><path id="_R_G_L_2_G_D_3_P_0" fill="#041126" fill-opacity="1" fill-rule="nonzero" d=" M20.7 22.62 C20.65,22.62 20.6,22.6 20.56,22.56 C20.56,22.56 18.97,20.78 18.97,20.78 C18.9,20.7 18.9,20.58 18.98,20.51 C19.06,20.44 19.18,20.45 19.25,20.53 C19.25,20.53 20.84,22.3 20.84,22.3 C20.91,22.38 20.91,22.5 20.83,22.57 C20.79,22.6 20.75,22.62 20.7,22.62z "/></g></g></g><g id="_R_G_L_1_G"><path id="_R_G_L_1_G_D_0_P_0" fill="#dd2120" fill-opacity="1" fill-rule="nonzero" d=" M0.25 0.25 C0.25,0.25 26.83,0.25 26.83,0.25 C26.83,0.25 26.83,7.37 26.83,7.37 C26.83,7.37 0.25,7.37 0.25,7.37 C0.25,7.37 0.25,0.25 0.25,0.25z "/></g><g id="_R_G_L_0_G" transform=" translate(211.932, 364.069) translate(-193.197, -5.045)"><path id="_R_G_L_0_G_D_0_P_0" fill="#faab00" fill-opacity="1" fill-rule="nonzero" d=" M102.57 9.25 C102.57,9.25 157,9.25 157,9.25 C157,9.25 157,0.25 157,0.25 C157,0.25 102.57,0.25 102.57,0.25 C102.57,0.25 102.57,9.25 102.57,9.25z "/><path id="_R_G_L_0_G_D_1_P_0" fill="#041126" fill-opacity="1" fill-rule="nonzero" d=" M385.72 9.84 C385.72,9.84 0.68,9.84 0.68,9.84 C0.44,9.84 0.25,9.63 0.25,9.36 C0.25,9.1 0.44,8.89 0.68,8.89 C0.68,8.89 385.72,8.89 385.72,8.89 C385.95,8.89 386.14,9.1 386.14,9.36 C386.14,9.63 385.95,9.84 385.72,9.84z "/></g></g><g id="time_group"/></svg>