<?xml version="1.0" encoding="UTF-8"?><svg xmlns="http://www.w3.org/2000/svg" xmlns:xlink="http://www.w3.org/1999/xlink" viewBox="0 0 358.68 358.9"><defs><style>.cls-1{stroke-width:8px;}.cls-1,.cls-2{fill:none;stroke:#000;stroke-linecap:round;stroke-linejoin:round;}.cls-3{opacity:.41;}.cls-2{stroke-width:14px;}</style></defs><g id="Layer_3"><image class="cls-3" width="512" height="512" transform="translate(0 .17) scale(.7)" xlink:href="web-design（B）.png"/></g><g id="Layer_2"><path class="cls-2" d="M296.59,53.26h16.12c11.83,0,21.42,9.59,21.42,21.42V255.74c0,11.83-9.59,21.42-21.42,21.42H45.2c-11.83,0-21.42-9.59-21.42-21.42V74.68c0-11.83,9.59-21.42,21.42-21.42H236.15"/><path class="cls-2" d="M263.48,17.34c1.36-1.9,5.36-6.97,12.55-9.25,1.27-.4,11.87-3.57,20.97,3.14,6.35,4.67,8.11,11.3,8.59,13.21,2.49,9.97-2.28,17.98-3.25,19.54-25.67,31.19-51.34,62.39-77,93.58-9.22-7.21-18.44-14.42-27.66-21.63,21.94-32.86,43.87-65.72,65.81-98.59Z"/><line class="cls-2" x1="218.35" y1="84.94" x2="249.48" y2="108.21"/><path class="cls-2" d="M197.67,115.93c-3.34-.38-17.46-1.59-29.72,8.01-8.89,6.96-12.1,15.92-12.97,18.44-2.9,8.42-2.3,16.18-1.75,23.25,.47,6.08,1.21,6.06,1.84,14.2,.51,6.67,.29,10.29,1.82,10.79,1.86,.6,3.32-4.38,9.33-7.73,3.25-1.81,6.13-2.21,10.49-2.81,3.76-.52,5.23-.31,14.21-.21,8.17,.09,12.32,.13,15.19-.37,4.31-.75,8.37-1.45,12.3-4.21,8.9-6.26,9.85-17.99,10.07-20.72,.6-7.41-1.48-13.43-3.14-17.01"/><line class="cls-2" x1="29.95" y1="216.39" x2="51.53" y2="216.39"/><circle class="cls-1" cx="79.29" cy="216.25" r="3.39"/><line class="cls-2" x1="107.12" y1="216.25" x2="334.13" y2="216.25"/><line class="cls-2" x1="164.03" y1="277.16" x2="153.7" y2="323.15"/><line class="cls-2" x1="194.87" y1="277.16" x2="205.75" y2="322.85"/><line class="cls-2" x1="272.71" y1="351.43" x2="85.67" y2="351.9"/><path class="cls-2" d="M115.05,351.67v-10.81c0-8.08,6.55-14.63,14.63-14.63h99.12c8.08,0,14.63,6.55,14.63,14.63v7.42"/></g></svg>