<svg xmlns="http://www.w3.org/2000/svg" viewBox="0 0 342.06 275.2"><defs><style>.cls-1,.cls-2{fill:none;}.cls-2{stroke:#eef0f0;stroke-miterlimit:10;stroke-width:3px;}.cls-3{fill:#3572e0;}.cls-4{fill:#fff;}.cls-5{fill:#fffffd;}.cls-6{fill:#d14b59;}.cls-7{fill:#e7e7e7;}.cls-8{fill:#f7c546;}</style></defs><g id="圖層_4" data-name="圖層 4"><rect class="cls-1" x="1.47" width="339.12" height="275.2"/><rect class="cls-2" x="16.43" y="13.78" width="309.37" height="251.69" rx="9.97"/><path class="cls-3" d="M325.8,23.74V65.89H16.43V23.74a10,10,0,0,1,10-10H315.83A10,10,0,0,1,325.8,23.74Z"/><path class="cls-4" d="M325.8,65.89V255.5a10,10,0,0,1-10,10H26.4a10,10,0,0,1-10-10V65.89Z"/><path class="cls-4" d="M61.22,29.3H37.68a5.77,5.77,0,0,0-5.75,5.75V47.49a5.77,5.77,0,0,0,5.75,5.76H61.22A5.77,5.77,0,0,0,67,47.49V35.05A5.77,5.77,0,0,0,61.22,29.3ZM50.3,43.75,46,46.24V36.3l4.3,2.49,4.3,2.48Z"/><polygon class="cls-5" points="54.6 41.27 50.3 43.75 46 46.24 46 36.3 50.3 38.79 54.6 41.27"/><polygon class="cls-3" points="54.95 41.27 49.45 44.45 43.95 47.62 43.95 34.92 49.45 38.1 54.95 41.27"/><rect class="cls-6" x="31.93" y="78.17" width="195.58" height="171.32" rx="6.53"/><rect class="cls-7" x="239.7" y="78.17" width="73.16" height="171.32" rx="4.83"/><polygon class="cls-4" points="142.94 163.84 129.72 171.47 116.49 179.11 116.49 148.56 129.72 156.19 142.94 163.84"/><rect class="cls-8" x="31.93" y="242.96" width="73.03" height="6.53"/></g></svg>