<svg xmlns="http://www.w3.org/2000/svg" version="1.1" xmlns:xlink="http://www.w3.org/1999/xlink" xmlns:svgjs="http://svgjs.com/svgjs" width="512" height="512" x="0" y="0" viewBox="0 0 512 512" style="enable-background:new 0 0 512 512" xml:space="preserve" class=""><g><g id="XMLID_184_"><path id="XMLID_182_" d="m501.301 131.964c-5.888-22.172-23.237-39.633-45.266-45.56-39.928-10.768-200.035-10.768-200.035-10.768s-160.107 0-200.035 10.768c-22.029 5.926-39.378 23.388-45.266 45.56-10.699 40.188-10.699 124.036-10.699 124.036s0 83.848 10.699 124.036c5.888 22.172 23.237 39.633 45.266 45.56 39.928 10.768 200.035 10.768 200.035 10.768s160.107 0 200.035-10.768c22.029-5.927 39.378-23.388 45.266-45.56 10.699-40.188 10.699-124.036 10.699-124.036s0-83.848-10.699-124.036z" fill="#ff0000" data-original="#ff0000" class=""></path><path id="XMLID_1355_" d="m203.636 332.128 133.818-76.126-133.818-76.13z" fill="#ffffff" data-original="#ffffff" class=""></path></g></g></svg>